<?xml version="1.0" encoding="utf-8"?>
<!-- Generator: Adobe Illustrator 24.2.3, SVG Export Plug-In . SVG Version: 6.00 Build 0)  -->
<svg version="1.1" id="Layer_1" xmlns="http://www.w3.org/2000/svg" xmlns:xlink="http://www.w3.org/1999/xlink" x="0px" y="0px"
	 viewBox="0 0 20 20" style="enable-background:new 0 0 20 20;" xml:space="preserve">
<style type="text/css">
	.st0{fill:none;}
	.st1{fill-rule:evenodd;clip-rule:evenodd;fill:url(#SVGID_1_);}
	.st2{fill:url(#SVGID_2_);}
	.st3{fill:url(#SVGID_3_);}
	.st4{fill:url(#SVGID_4_);}
	.st5{fill:url(#SVGID_5_);}
	.st6{fill:url(#SVGID_6_);}
	.st7{fill:url(#SVGID_7_);}
	.st8{fill:url(#SVGID_8_);}
	.st9{fill:url(#SVGID_9_);}
	.st10{fill:url(#SVGID_10_);}
	.st11{fill:url(#SVGID_11_);}
	.st12{fill:url(#SVGID_12_);}
	.st13{fill:#CC915C;}
	.st14{fill:#D19965;}
	.st15{fill:#D5A16E;}
	.st16{fill:#DAAA76;}
	.st17{fill:#DFB27F;}
	.st18{fill:#E3BA88;}
	.st19{fill:#E8C291;}
	.st20{fill:#ECCA9A;}
	.st21{fill:#F1D2A3;}
	.st22{fill:#F6DBAB;}
	.st23{fill:#FAE3B4;}
	.st24{fill:#FFEBBD;}
	.st25{fill:url(#SVGID_13_);}
	.st26{fill:url(#SVGID_14_);}
	.st27{fill:url(#SVGID_15_);}
	.st28{fill:url(#SVGID_16_);}
	.st29{fill:url(#SVGID_17_);}
	.st30{fill:url(#SVGID_18_);}
	.st31{fill:url(#SVGID_19_);}
	.st32{fill:url(#SVGID_20_);}
	.st33{fill:url(#SVGID_21_);}
	.st34{fill:url(#SVGID_22_);}
	.st35{fill:url(#SVGID_23_);}
	.st36{fill:url(#SVGID_24_);}
	.st37{fill:url(#SVGID_25_);}
	.st38{fill:url(#SVGID_26_);}
	.st39{fill:url(#SVGID_27_);}
	.st40{fill:url(#SVGID_28_);}
	.st41{fill:url(#SVGID_29_);}
	.st42{fill:url(#SVGID_30_);}
	.st43{fill:url(#SVGID_31_);}
	.st44{fill:url(#SVGID_32_);}
	.st45{fill:url(#SVGID_33_);}
	.st46{fill:url(#SVGID_34_);}
	.st47{fill:url(#SVGID_35_);}
	.st48{fill:url(#SVGID_36_);}
	.st49{fill:url(#SVGID_37_);}
	.st50{fill:url(#SVGID_38_);}
	.st51{fill:url(#SVGID_39_);}
	.st52{fill:url(#SVGID_40_);}
	.st53{fill:url(#SVGID_41_);}
	.st54{fill:url(#SVGID_42_);}
	.st55{fill:url(#SVGID_43_);}
	.st56{fill:url(#SVGID_44_);}
	.st57{fill:url(#SVGID_45_);}
	.st58{fill:url(#SVGID_46_);}
	.st59{fill:url(#SVGID_47_);}
	.st60{fill:url(#SVGID_48_);}
	.st61{fill:url(#SVGID_49_);}
	.st62{fill:url(#SVGID_50_);}
	.st63{fill:url(#SVGID_51_);}
	.st64{fill:url(#SVGID_52_);}
	.st65{fill:url(#SVGID_53_);}
</style>
<rect y="0" class="st0" width="20" height="20"/>
<g>
	
		<radialGradient id="SVGID_1_" cx="-1134.0771" cy="-2329.5488" r="5.8518" gradientTransform="matrix(-1 0 0 -0.165 -1124.0771 -365.9725)" gradientUnits="userSpaceOnUse">
		<stop  offset="0.4213" style="stop-color:#A86121"/>
		<stop  offset="0.4224" style="stop-color:#A86122;stop-opacity:0.9979"/>
		<stop  offset="0.5707" style="stop-color:#C7996F;stop-opacity:0.7172"/>
		<stop  offset="0.7027" style="stop-color:#DFC5AD;stop-opacity:0.4673"/>
		<stop  offset="0.8136" style="stop-color:#F0E4D9;stop-opacity:0.2571"/>
		<stop  offset="0.8994" style="stop-color:#FBF8F5;stop-opacity:9.478664e-02"/>
		<stop  offset="0.9494" style="stop-color:#FFFFFF;stop-opacity:0"/>
	</radialGradient>
	<path class="st1" d="M4.2,18.3c0,0.5,2.6,1,5.8,1s5.8-0.5,5.8-1s-2.6-0.9-5.8-0.9S4.2,17.8,4.2,18.3z"/>
	<g>
		
			<linearGradient id="SVGID_2_" gradientUnits="userSpaceOnUse" x1="-1134.0789" y1="1.1677" x2="-1134.0789" y2="2.244" gradientTransform="matrix(-1 0 0 -1 -1124.0771 19.8898)">
			<stop  offset="5.617980e-03" style="stop-color:#BB7D36"/>
			<stop  offset="0.3648" style="stop-color:#B87A34"/>
			<stop  offset="0.6778" style="stop-color:#AD702F"/>
			<stop  offset="0.9728" style="stop-color:#9B6027"/>
			<stop  offset="1" style="stop-color:#995E26"/>
		</linearGradient>
		<path class="st2" d="M7.4,17.2c0,0-1.3,0.1-1.3,0.7s1.7,0.9,3.8,0.9s4.1-0.3,4-0.9c0-0.6-1.3-0.7-1.3-0.7S7.4,17.2,7.4,17.2z"/>
		
			<linearGradient id="SVGID_3_" gradientUnits="userSpaceOnUse" x1="-1261.0552" y1="1.1794" x2="-1261.0552" y2="2.2147" gradientTransform="matrix(-0.8182 0 0 -1 -1021.8935 19.8898)">
			<stop  offset="5.617980e-03" style="stop-color:#BD7F39"/>
			<stop  offset="0.3798" style="stop-color:#BA7C37"/>
			<stop  offset="0.7055" style="stop-color:#AF7233"/>
			<stop  offset="1" style="stop-color:#9E632B"/>
		</linearGradient>
		<path class="st3" d="M7.4,17.2c0,0-1.3,0.1-1.3,0.7s1.6,0.9,3.7,0.9c2,0,4-0.3,3.9-0.9c0-0.6-1.3-0.7-1.3-0.7L7.4,17.2z"/>
		
			<linearGradient id="SVGID_4_" gradientUnits="userSpaceOnUse" x1="-1460.7351" y1="1.1912" x2="-1460.7351" y2="2.1853" gradientTransform="matrix(-0.6364 0 0 -1 -919.7099 19.8898)">
			<stop  offset="5.617980e-03" style="stop-color:#BE813D"/>
			<stop  offset="0.3972" style="stop-color:#BB7E3B"/>
			<stop  offset="0.738" style="stop-color:#B07436"/>
			<stop  offset="1" style="stop-color:#A26730"/>
		</linearGradient>
		<path class="st4" d="M7.5,17.3c0,0-1.2,0.1-1.3,0.7c0,0.5,1.6,0.8,3.6,0.8s3.9-0.3,3.8-0.8c0-0.5-1.3-0.7-1.3-0.7H7.5z"/>
		
			<linearGradient id="SVGID_5_" gradientUnits="userSpaceOnUse" x1="-1820.4609" y1="1.2028" x2="-1820.4609" y2="2.1559" gradientTransform="matrix(-0.4545 0 0 -1 -817.4976 19.8898)">
			<stop  offset="5.617980e-03" style="stop-color:#C08240"/>
			<stop  offset="0.4175" style="stop-color:#BD7F3E"/>
			<stop  offset="0.776" style="stop-color:#B2763A"/>
			<stop  offset="1" style="stop-color:#A76C35"/>
		</linearGradient>
		<path class="st5" d="M7.5,17.3c0,0-1.2,0.1-1.2,0.6c0,0.5,1.6,0.8,3.5,0.8s3.8-0.3,3.7-0.8c0-0.5-1.2-0.6-1.2-0.6L7.5,17.3z"/>
		
			<linearGradient id="SVGID_6_" gradientUnits="userSpaceOnUse" x1="-2659.0244" y1="1.2144" x2="-2659.0244" y2="2.1265" gradientTransform="matrix(-0.2727 0 0 -1 -715.314 19.8898)">
			<stop  offset="5.617980e-03" style="stop-color:#C18444"/>
			<stop  offset="0.4507" style="stop-color:#BE8142"/>
			<stop  offset="0.8381" style="stop-color:#B3773D"/>
			<stop  offset="1" style="stop-color:#AC713A"/>
		</linearGradient>
		<path class="st6" d="M7.5,17.4c0,0-1.2,0.1-1.2,0.6c0,0.5,1.5,0.8,3.4,0.8s3.7-0.2,3.6-0.7c0-0.5-1.2-0.6-1.2-0.6L7.5,17.4z"/>
		
			<linearGradient id="SVGID_7_" gradientUnits="userSpaceOnUse" x1="-6851.1851" y1="1.226" x2="-6851.1851" y2="2.0971" gradientTransform="matrix(-9.090909e-02 0 0 -1 -613.133 19.8898)">
			<stop  offset="5.617980e-03" style="stop-color:#C38647"/>
			<stop  offset="0.4709" style="stop-color:#C08346"/>
			<stop  offset="0.8761" style="stop-color:#B57941"/>
			<stop  offset="1" style="stop-color:#B0753F"/>
		</linearGradient>
		<path class="st7" d="M7.5,17.4c0,0-1.1,0.1-1.2,0.6c0,0.5,1.5,0.7,3.3,0.8c1.8,0,3.6-0.2,3.5-0.7c0-0.5-1.2-0.6-1.2-0.6L7.5,17.4z
			"/>
		
			<linearGradient id="SVGID_8_" gradientUnits="userSpaceOnUse" x1="5727.1079" y1="1.2375" x2="5727.1079" y2="2.0677" gradientTransform="matrix(9.090909e-02 0 0 -1 -510.9441 19.8898)">
			<stop  offset="5.617980e-03" style="stop-color:#C4884B"/>
			<stop  offset="0.5225" style="stop-color:#C18549"/>
			<stop  offset="0.9726" style="stop-color:#B67B43"/>
			<stop  offset="1" style="stop-color:#B57A43"/>
		</linearGradient>
		<path class="st8" d="M7.5,17.5c0,0-1.1,0.1-1.1,0.5s1.4,0.7,3.2,0.7s3.5-0.2,3.4-0.7c0-0.4-1.1-0.6-1.1-0.6L7.5,17.5z"/>
		
			<linearGradient id="SVGID_9_" gradientUnits="userSpaceOnUse" x1="1534.1514" y1="1.2489" x2="1534.1514" y2="2.0382" gradientTransform="matrix(0.2727 0 0 -1 -408.7631 19.8898)">
			<stop  offset="5.617980e-03" style="stop-color:#C68A4E"/>
			<stop  offset="0.5565" style="stop-color:#C3874C"/>
			<stop  offset="1" style="stop-color:#B97E48"/>
		</linearGradient>
		<path class="st9" d="M7.5,17.5c0,0-1.1,0.1-1.1,0.5s1.4,0.7,3.1,0.7s3.3-0.2,3.3-0.6s-1.1-0.5-1.1-0.5L7.5,17.5z"/>
		
			<linearGradient id="SVGID_10_" gradientUnits="userSpaceOnUse" x1="695.6645" y1="1.2602" x2="695.6645" y2="2.0087" gradientTransform="matrix(0.4545 0 0 -1 -306.5795 19.8898)">
			<stop  offset="5.617980e-03" style="stop-color:#C78C52"/>
			<stop  offset="0.6545" style="stop-color:#C48950"/>
			<stop  offset="1" style="stop-color:#BE834D"/>
		</linearGradient>
		<path class="st10" d="M7.6,17.6c0,0-1,0.1-1.1,0.5c0,0.4,1.3,0.6,3,0.7c1.7,0,3.2-0.2,3.2-0.6s-1.1-0.5-1.1-0.5L7.6,17.6z"/>
		
			<linearGradient id="SVGID_11_" gradientUnits="userSpaceOnUse" x1="336.215" y1="1.2714" x2="336.215" y2="1.9792" gradientTransform="matrix(0.6364 0 0 -1 -204.3672 19.8898)">
			<stop  offset="5.617980e-03" style="stop-color:#C98D55"/>
			<stop  offset="0.7829" style="stop-color:#C68A53"/>
			<stop  offset="1" style="stop-color:#C38852"/>
		</linearGradient>
		<path class="st11" d="M7.6,17.6c0,0-1,0.1-1,0.4c0,0.4,1.3,0.6,2.9,0.6s3.1-0.2,3.1-0.5c0-0.4-1-0.5-1-0.5H7.6z"/>
		
			<linearGradient id="SVGID_12_" gradientUnits="userSpaceOnUse" x1="136.4991" y1="1.2824" x2="136.4991" y2="1.9497" gradientTransform="matrix(0.8182 0 0 -1 -102.1836 19.8898)">
			<stop  offset="5.617980e-03" style="stop-color:#CA8F59"/>
			<stop  offset="1" style="stop-color:#C78C57"/>
		</linearGradient>
		<path class="st12" d="M7.6,17.7c0,0-1,0.1-1,0.4c0,0.4,1.2,0.6,2.8,0.6s3-0.1,3-0.5s-1-0.4-1-0.4L7.6,17.7z"/>
		<path class="st13" d="M7.6,17.7c0,0-0.9,0-1,0.4c0,0.3,1.2,0.5,2.7,0.6c1.5,0,2.9-0.1,2.9-0.4s-1-0.4-1-0.4L7.6,17.7z"/>
		<path class="st14" d="M7.7,17.7c0,0,3.4,0.1,3.5,0.1c0,0,0.9,0.1,0.9,0.4c0,0.1-0.3,0.2-0.7,0.3c-0.5,0.1-1.3,0.1-2,0.1
			S8,18.5,7.6,18.4S6.9,18.2,6.9,18C6.8,17.8,7.7,17.7,7.7,17.7z"/>
		<path class="st15" d="M7.8,17.8l3.2,0.1c0,0,0.8,0.1,0.8,0.3c0,0.1-0.3,0.2-0.7,0.3c-0.4,0.1-1.1,0.1-1.8,0.1S8,18.5,7.6,18.5
			C7.2,18.4,7,18.2,7,18.1C7,17.8,7.8,17.8,7.8,17.8z"/>
		<path class="st16" d="M7.9,17.8c0,0,2.9,0,3,0.1c0,0,0.8,0.1,0.8,0.3c0,0.1-0.2,0.2-0.6,0.3c-0.5,0-1.2,0.1-1.8,0.1
			c-0.6,0-1.2-0.1-1.6-0.1c-0.4-0.1-0.6-0.2-0.6-0.3C7.1,17.9,7.8,17.8,7.9,17.8z"/>
		<path class="st17" d="M8,17.9c0.1,0,2.7,0,2.7,0c0.1,0,0.7,0.1,0.7,0.3c0,0.1-0.2,0.2-0.6,0.2c-0.4,0.1-1,0.1-1.6,0.1
			s-1.1-0.1-1.4-0.1c-0.3-0.1-0.6-0.2-0.6-0.3C7.3,17.9,7.9,17.9,8,17.9z"/>
		<path class="st18" d="M8.1,17.9c0.1,0,2.4,0,2.5,0s0.6,0.1,0.6,0.2s-0.2,0.2-0.5,0.2c-0.4,0.1-0.9,0.1-1.4,0.1s-1,0-1.3-0.1
			s-0.5-0.1-0.5-0.2C7.4,18,8,17.9,8.1,17.9z"/>
		<path class="st19" d="M8.1,18c0.1,0,2.2,0,2.3,0s0.6,0.1,0.6,0.2s-0.2,0.1-0.5,0.2s-0.8,0.1-1.3,0.1s-0.9,0-1.2-0.1
			s-0.4-0.1-0.5-0.2C7.6,18,8.1,18,8.1,18z"/>
		<path class="st20" d="M8.2,18c0.1,0,1.9,0,2,0s0.5,0.1,0.5,0.2s-0.2,0.1-0.4,0.2c-0.3,0-0.7,0.1-1.1,0.1c-0.4,0-0.8,0-1-0.1
			c-0.2,0-0.4-0.1-0.4-0.2C7.8,18.1,8.1,18,8.2,18z"/>
		<path class="st21" d="M8.3,18.1c0.1,0,1.6,0,1.8,0c0.1,0,0.4,0.1,0.4,0.1c0,0.1-0.2,0.1-0.4,0.1c-0.3,0-0.6,0.1-1,0
			c-0.3,0-0.7,0-0.9-0.1c-0.2,0-0.3-0.1-0.4-0.1C7.9,18.1,8.2,18.1,8.3,18.1z"/>
		<path class="st22" d="M8.4,18.1c0.1,0,1.4,0,1.5,0s0.4,0.1,0.4,0.1s-0.2,0.1-0.3,0.1c-0.2,0-0.5,0-0.9,0c-0.3,0-0.6,0-0.8-0.1
			c-0.2,0-0.3-0.1-0.3-0.1C8.1,18.2,8.3,18.1,8.4,18.1z"/>
		<path class="st23" d="M8.5,18.2c0.2,0,1.1,0,1.3,0c0.1,0,0.3,0,0.3,0.1c-0.1,0-0.1,0.1-0.3,0.1s-0.5,0-0.7,0s-0.5,0-0.6,0
			s-0.2,0-0.3-0.1C8.2,18.2,8.3,18.2,8.5,18.2z"/>
		<path class="st24" d="M9.6,18.2c0.2,0,0.2,0,0.3,0C9.8,18.3,9.8,18.3,9.6,18.2c-0.3,0.1-0.8,0.1-1,0.1c-0.1,0-0.2,0-0.2,0
			s0.1,0,0.2,0C8.8,18.2,9.5,18.2,9.6,18.2z"/>
	</g>
	<g>
		
			<linearGradient id="SVGID_13_" gradientUnits="userSpaceOnUse" x1="-1132.473" y1="3.1679" x2="-1137.4729" y2="3.1679" gradientTransform="matrix(-1 0 0 -1 -1124.0771 19.8898)">
			<stop  offset="5.617980e-03" style="stop-color:#BF7D36"/>
			<stop  offset="0.3696" style="stop-color:#BC7A34"/>
			<stop  offset="0.6863" style="stop-color:#B1702C"/>
			<stop  offset="0.9852" style="stop-color:#9F5F20"/>
			<stop  offset="1" style="stop-color:#9E5E1F"/>
		</linearGradient>
		<path class="st25" d="M7.8,15.7c0,0-1.1,0.1-1.1,0.9c0,0.7,1.1,0.9,1.7,1c0.9,0.1,2.2,0.1,3.1,0c0.7-0.1,1.8-0.3,1.7-1
			c0-0.7-1.1-0.9-1.1-0.9H7.8z"/>
		
			<linearGradient id="SVGID_14_" gradientUnits="userSpaceOnUse" x1="-1132.5391" y1="3.2044" x2="-1137.2815" y2="3.201" gradientTransform="matrix(-1 0 0 -1 -1124.0771 19.8898)">
			<stop  offset="5.617980e-03" style="stop-color:#C1823C"/>
			<stop  offset="0.3798" style="stop-color:#BE7F3A"/>
			<stop  offset="0.7055" style="stop-color:#B37432"/>
			<stop  offset="1" style="stop-color:#A26426"/>
		</linearGradient>
		<path class="st26" d="M12,15.8c0,0,1,0.2,1.1,0.8c0,0.7-1,0.9-1.6,0.9c-0.8,0.1-2.2,0.1-3,0c-0.6-0.1-1.6-0.3-1.6-0.9
			c0-0.7,1-0.8,1.1-0.8C7.9,15.7,12,15.7,12,15.8z"/>
		
			<linearGradient id="SVGID_15_" gradientUnits="userSpaceOnUse" x1="-1132.6046" y1="3.1632" x2="-1137.0945" y2="3.1569" gradientTransform="matrix(-1 0 0 -1 -1124.0771 19.8898)">
			<stop  offset="5.617980e-03" style="stop-color:#C48641"/>
			<stop  offset="0.3798" style="stop-color:#C1833F"/>
			<stop  offset="0.7055" style="stop-color:#B67938"/>
			<stop  offset="1" style="stop-color:#A56A2D"/>
		</linearGradient>
		<path class="st27" d="M11.9,15.8c0.1,0,1,0.2,1,0.8s-0.9,0.8-1.5,0.9c-0.8,0.1-2.1,0.1-3,0c-0.6-0.1-1.5-0.3-1.5-0.9
			s0.9-0.7,1-0.8C8,15.8,11.8,15.8,11.9,15.8z"/>
		
			<linearGradient id="SVGID_16_" gradientUnits="userSpaceOnUse" x1="-1132.6696" y1="3.1897" x2="-1136.9116" y2="3.1807" gradientTransform="matrix(-1 0 0 -1 -1124.0771 19.8898)">
			<stop  offset="5.617980e-03" style="stop-color:#C68B47"/>
			<stop  offset="0.3911" style="stop-color:#C38845"/>
			<stop  offset="0.7266" style="stop-color:#B87D3E"/>
			<stop  offset="1" style="stop-color:#A96F34"/>
		</linearGradient>
		<path class="st28" d="M11.7,15.9c0.1,0,1,0.2,1,0.7c0,0.6-0.9,0.7-1.4,0.8c-0.8,0.1-2.1,0.1-2.9,0C7.8,17.3,7,17.2,7,16.6
			c0-0.5,0.8-0.7,1-0.7C8,15.8,11.6,15.8,11.7,15.9z"/>
		
			<linearGradient id="SVGID_17_" gradientUnits="userSpaceOnUse" x1="-1132.7341" y1="3.141" x2="-1136.7325" y2="3.1297" gradientTransform="matrix(-1 0 0 -1 -1124.0771 19.8898)">
			<stop  offset="5.617980e-03" style="stop-color:#C98F4C"/>
			<stop  offset="0.3972" style="stop-color:#C68C4A"/>
			<stop  offset="0.738" style="stop-color:#BB8243"/>
			<stop  offset="1" style="stop-color:#AD753B"/>
		</linearGradient>
		<path class="st29" d="M11.6,15.9c0.1,0,0.9,0.2,0.9,0.7s-0.8,0.7-1.3,0.8c-0.8,0.1-2.1,0.1-2.9,0C7.8,17.3,7,17.2,7,16.6
			c0-0.5,0.8-0.6,0.9-0.7C8.1,15.9,11.4,15.9,11.6,15.9z"/>
		
			<linearGradient id="SVGID_18_" gradientUnits="userSpaceOnUse" x1="-1132.7531" y1="3.2094" x2="-1136.5126" y2="3.1961" gradientTransform="matrix(-1 0 0 -1 -1124.0771 19.8898)">
			<stop  offset="5.617980e-03" style="stop-color:#CB9452"/>
			<stop  offset="0.4103" style="stop-color:#C89150"/>
			<stop  offset="0.7625" style="stop-color:#BD8649"/>
			<stop  offset="1" style="stop-color:#B17B42"/>
		</linearGradient>
		<path class="st30" d="M11.5,16c0.2,0.1,0.9,0.2,0.9,0.6c0,0.5-0.7,0.6-1.2,0.7c-0.8,0.1-2,0.1-2.8,0c-0.5-0.1-1.2-0.2-1.2-0.7
			c0-0.4,0.7-0.5,0.8-0.6C8.2,15.9,11.3,15.9,11.5,16z"/>
		
			<linearGradient id="SVGID_19_" gradientUnits="userSpaceOnUse" x1="-1132.7968" y1="3.1593" x2="-1136.3217" y2="3.1444" gradientTransform="matrix(-1 0 0 -1 -1124.0771 19.8898)">
			<stop  offset="5.617980e-03" style="stop-color:#CE9857"/>
			<stop  offset="0.4103" style="stop-color:#CB9555"/>
			<stop  offset="0.7625" style="stop-color:#C08C4F"/>
			<stop  offset="1" style="stop-color:#B48148"/>
		</linearGradient>
		<path class="st31" d="M11.3,16.1c0.2,0.1,0.8,0.2,0.8,0.6c-0.1,0.4-0.7,0.5-1.1,0.6c-0.8,0.1-2,0.1-2.8,0c-0.4-0.1-1-0.2-1.1-0.6
			c0-0.3,0.6-0.5,0.8-0.6C8.2,16,11.1,16,11.3,16.1z"/>
		
			<linearGradient id="SVGID_20_" gradientUnits="userSpaceOnUse" x1="-1132.8365" y1="3.1723" x2="-1136.1315" y2="3.156" gradientTransform="matrix(-1 0 0 -1 -1124.0771 19.8898)">
			<stop  offset="5.617980e-03" style="stop-color:#D09D5D"/>
			<stop  offset="0.425" style="stop-color:#CD9A5B"/>
			<stop  offset="0.79" style="stop-color:#C29055"/>
			<stop  offset="1" style="stop-color:#B8874F"/>
		</linearGradient>
		<path class="st32" d="M11.2,16.1c0.2,0.1,0.8,0.2,0.8,0.5c-0.1,0.4-0.6,0.5-1,0.6c-0.7,0.2-2,0.2-2.7,0c-0.4-0.1-0.9-0.2-1-0.6
			c0-0.3,0.5-0.4,0.7-0.5C8.3,16,10.9,16,11.2,16.1z"/>
		
			<linearGradient id="SVGID_21_" gradientUnits="userSpaceOnUse" x1="-1132.8718" y1="3.1224" x2="-1135.9414" y2="3.1051" gradientTransform="matrix(-1 0 0 -1 -1124.0771 19.8898)">
			<stop  offset="5.617980e-03" style="stop-color:#D3A162"/>
			<stop  offset="0.433" style="stop-color:#D09E60"/>
			<stop  offset="0.805" style="stop-color:#C5955B"/>
			<stop  offset="1" style="stop-color:#BC8D56"/>
		</linearGradient>
		<path class="st33" d="M11.1,16.2c0.3,0.1,0.7,0.3,0.7,0.5c-0.1,0.3-0.5,0.4-0.9,0.5c-0.7,0.2-1.9,0.2-2.7,0
			c-0.4-0.1-0.8-0.2-0.9-0.5c0-0.2,0.4-0.3,0.7-0.5C8.4,16.1,10.7,16.1,11.1,16.2z"/>
		
			<linearGradient id="SVGID_22_" gradientUnits="userSpaceOnUse" x1="-1132.9041" y1="3.2223" x2="-1135.7524" y2="3.2042" gradientTransform="matrix(-1 0 0 -1 -1124.0771 19.8898)">
			<stop  offset="5.617980e-03" style="stop-color:#D5A668"/>
			<stop  offset="0.4507" style="stop-color:#D2A366"/>
			<stop  offset="0.8381" style="stop-color:#C79961"/>
			<stop  offset="1" style="stop-color:#C0925D"/>
		</linearGradient>
		<path class="st34" d="M10.9,16.2c0.3,0.1,0.7,0.3,0.7,0.4c-0.1,0.3-0.4,0.4-0.8,0.4c-0.7,0.2-1.9,0.2-2.6,0
			c-0.3-0.1-0.7-0.2-0.8-0.4c0-0.2,0.3-0.3,0.6-0.4C8.4,16.1,10.6,16.1,10.9,16.2z"/>
		
			<linearGradient id="SVGID_23_" gradientUnits="userSpaceOnUse" x1="-1132.931" y1="3.1416" x2="-1135.5629" y2="3.123" gradientTransform="matrix(-1 0 0 -1 -1124.0771 19.8898)">
			<stop  offset="5.617980e-03" style="stop-color:#D8AA6D"/>
			<stop  offset="0.4507" style="stop-color:#D5A76C"/>
			<stop  offset="0.8381" style="stop-color:#CA9E67"/>
			<stop  offset="1" style="stop-color:#C39864"/>
		</linearGradient>
		<path class="st35" d="M10.8,16.3c0.3,0.1,0.6,0.3,0.7,0.4c-0.1,0.2-0.4,0.3-0.7,0.4c-0.7,0.2-1.9,0.2-2.6,0
			c-0.3-0.1-0.5-0.2-0.7-0.4c0-0.1,0.2-0.2,0.6-0.4C8.5,16.1,10.4,16.2,10.8,16.3z"/>
		
			<linearGradient id="SVGID_24_" gradientUnits="userSpaceOnUse" x1="-1132.9547" y1="3.1601" x2="-1135.3745" y2="3.1413" gradientTransform="matrix(-1 0 0 -1 -1124.0771 19.8898)">
			<stop  offset="5.617980e-03" style="stop-color:#DAAF73"/>
			<stop  offset="0.4709" style="stop-color:#D7AC72"/>
			<stop  offset="0.8761" style="stop-color:#CCA26D"/>
			<stop  offset="1" style="stop-color:#C79E6B"/>
		</linearGradient>
		<path class="st36" d="M10.7,16.4c0.4,0.1,0.6,0.3,0.6,0.3c-0.1,0.1-0.3,0.2-0.5,0.3c-0.7,0.2-1.8,0.2-2.5,0
			c-0.3-0.1-0.4-0.2-0.6-0.3c0,0,0.1-0.1,0.5-0.3C8.6,16.2,10.2,16.2,10.7,16.4z"/>
		
			<linearGradient id="SVGID_25_" gradientUnits="userSpaceOnUse" x1="-1259.8179" y1="3.1425" x2="-1262.6217" y2="3.1207" gradientTransform="matrix(-0.8182 0 0 -1 -1021.8935 19.8898)">
			<stop  offset="5.617980e-03" style="stop-color:#DDB47A"/>
			<stop  offset="0.4946" style="stop-color:#DAB178"/>
			<stop  offset="0.9202" style="stop-color:#CFA873"/>
			<stop  offset="1" style="stop-color:#CCA572"/>
		</linearGradient>
		<path class="st37" d="M10.6,16.4c0.3,0.1,0.6,0.3,0.6,0.3c-0.1,0.1-0.3,0.2-0.5,0.3c-0.6,0.2-1.7,0.2-2.4,0
			c-0.2-0.1-0.4-0.2-0.5-0.3c0,0,0.1-0.1,0.5-0.3C8.6,16.2,10.1,16.3,10.6,16.4z"/>
		
			<linearGradient id="SVGID_26_" gradientUnits="userSpaceOnUse" x1="-1459.1686" y1="3.1239" x2="-1462.5759" y2="3.0974" gradientTransform="matrix(-0.6364 0 0 -1 -919.7099 19.8898)">
			<stop  offset="5.617980e-03" style="stop-color:#E1BA80"/>
			<stop  offset="0.5078" style="stop-color:#DEB77F"/>
			<stop  offset="0.9452" style="stop-color:#D3AE7B"/>
			<stop  offset="1" style="stop-color:#D1AC7A"/>
		</linearGradient>
		<path class="st38" d="M10.5,16.4c0.3,0.1,0.5,0.3,0.5,0.3c-0.1,0.1-0.3,0.2-0.5,0.3c-0.6,0.2-1.6,0.2-2.3,0
			c-0.2-0.1-0.4-0.1-0.5-0.3c0,0,0.1-0.1,0.5-0.3C8.6,16.3,10.1,16.3,10.5,16.4z"/>
		
			<linearGradient id="SVGID_27_" gradientUnits="userSpaceOnUse" x1="-1818.1219" y1="3.1638" x2="-1822.6152" y2="3.1289" gradientTransform="matrix(-0.4545 0 0 -1 -817.4976 19.8898)">
			<stop  offset="5.617980e-03" style="stop-color:#E4BF87"/>
			<stop  offset="0.5386" style="stop-color:#E1BC86"/>
			<stop  offset="1" style="stop-color:#D6B381"/>
		</linearGradient>
		<path class="st39" d="M10.4,16.5c0.3,0.1,0.5,0.2,0.5,0.2c-0.1,0.1-0.2,0.2-0.5,0.2c-0.6,0.2-1.5,0.2-2.1,0
			c-0.2-0.1-0.4-0.1-0.5-0.2c0,0,0.1-0.1,0.4-0.2C8.6,16.3,10,16.3,10.4,16.5z"/>
		
			<linearGradient id="SVGID_28_" gradientUnits="userSpaceOnUse" x1="-2655.5129" y1="3.1336" x2="-2662.5405" y2="3.079" gradientTransform="matrix(-0.2727 0 0 -1 -715.314 19.8898)">
			<stop  offset="5.617980e-03" style="stop-color:#E7C58E"/>
			<stop  offset="0.5765" style="stop-color:#E4C28D"/>
			<stop  offset="1" style="stop-color:#DBBA89"/>
		</linearGradient>
		<path class="st40" d="M10.3,16.5c0.3,0.1,0.5,0.2,0.5,0.2c-0.1,0.1-0.2,0.2-0.4,0.2c-0.5,0.2-1.4,0.2-2,0
			c-0.2-0.1-0.3-0.1-0.4-0.2c0,0,0.1-0.1,0.4-0.2C8.6,16.4,9.9,16.4,10.3,16.5z"/>
		
			<linearGradient id="SVGID_29_" gradientUnits="userSpaceOnUse" x1="-6842.1548" y1="3.1916" x2="-6861.8535" y2="3.0385" gradientTransform="matrix(-9.090909e-02 0 0 -1 -613.133 19.8898)">
			<stop  offset="5.617980e-03" style="stop-color:#EBCA95"/>
			<stop  offset="0.599" style="stop-color:#E8C793"/>
			<stop  offset="1" style="stop-color:#E0C190"/>
		</linearGradient>
		<path class="st41" d="M10.2,16.5c0.3,0.1,0.4,0.2,0.4,0.2c-0.1,0.1-0.2,0.1-0.4,0.2c-0.5,0.1-1.3,0.1-1.9,0
			c-0.2-0.1-0.3-0.1-0.4-0.2c0,0,0.1-0.1,0.4-0.2C8.7,16.4,9.9,16.4,10.2,16.5z"/>
		
			<linearGradient id="SVGID_30_" gradientUnits="userSpaceOnUse" x1="5726.875" y1="3.1905" x2="5708.561" y2="3.0482" gradientTransform="matrix(9.090909e-02 0 0 -1 -510.9441 19.8898)">
			<stop  offset="5.617980e-03" style="stop-color:#EED09B"/>
			<stop  offset="0.6894" style="stop-color:#EBCD9A"/>
			<stop  offset="1" style="stop-color:#E6C898"/>
		</linearGradient>
		<path class="st42" d="M10.1,16.5c0.2,0.1,0.4,0.2,0.4,0.2c-0.1,0.1-0.2,0.1-0.4,0.2c-0.5,0.1-1.3,0.1-1.7,0
			c-0.2,0-0.3-0.1-0.4-0.2c0,0,0.1-0.1,0.4-0.2C8.7,16.4,9.8,16.5,10.1,16.5z"/>
		
			<linearGradient id="SVGID_31_" gradientUnits="userSpaceOnUse" x1="1534.1523" y1="3.1655" x2="1528.509" y2="3.1217" gradientTransform="matrix(0.2727 0 0 -1 -408.7631 19.8898)">
			<stop  offset="5.617980e-03" style="stop-color:#F2D5A2"/>
			<stop  offset="0.7313" style="stop-color:#EFD2A1"/>
			<stop  offset="1" style="stop-color:#EBCF9F"/>
		</linearGradient>
		<path class="st43" d="M10,16.6c0.2,0.1,0.4,0.1,0.4,0.1c-0.1,0.1-0.2,0.1-0.3,0.1c-0.4,0.1-1.2,0.1-1.6,0c-0.2,0-0.3-0.1-0.4-0.1
			c0,0,0.1-0.1,0.3-0.1C8.7,16.5,9.7,16.5,10,16.6z"/>
		
			<linearGradient id="SVGID_32_" gradientUnits="userSpaceOnUse" x1="695.5447" y1="3.1609" x2="692.4355" y2="3.1367" gradientTransform="matrix(0.4545 0 0 -1 -306.5795 19.8898)">
			<stop  offset="5.617980e-03" style="stop-color:#F5DBA9"/>
			<stop  offset="0.8486" style="stop-color:#F2D8A8"/>
			<stop  offset="1" style="stop-color:#F0D6A7"/>
		</linearGradient>
		<path class="st44" d="M9.9,16.6c0.2,0,0.3,0.1,0.4,0.1c-0.1,0.1-0.2,0.1-0.3,0.1c-0.4,0.1-1.1,0.1-1.5,0c-0.2,0-0.2-0.1-0.3-0.1
			c0,0,0.1,0,0.3-0.1C8.7,16.5,9.7,16.5,9.9,16.6z"/>
		
			<linearGradient id="SVGID_33_" gradientUnits="userSpaceOnUse" x1="336.0708" y1="3.1264" x2="334.0476" y2="3.1106" gradientTransform="matrix(0.6364 0 0 -1 -204.3672 19.8898)">
			<stop  offset="5.617980e-03" style="stop-color:#F8E0B0"/>
			<stop  offset="1" style="stop-color:#F5DDAE"/>
		</linearGradient>
		<path class="st45" d="M9.8,16.6c0.2,0,0.3,0.1,0.3,0.1c-0.1,0-0.2,0.1-0.3,0.1c-0.4,0.1-1,0.1-1.3,0c-0.1,0-0.2-0.1-0.3-0.1
			c0,0,0.1,0,0.3-0.1C8.7,16.6,9.6,16.6,9.8,16.6z"/>
		
			<linearGradient id="SVGID_34_" gradientUnits="userSpaceOnUse" x1="136.4302" y1="3.1245" x2="135.0104" y2="3.1134" gradientTransform="matrix(0.8182 0 0 -1 -102.1836 19.8898)">
			<stop  offset="5.617980e-03" style="stop-color:#FCE6B6"/>
			<stop  offset="1" style="stop-color:#FAE4B6"/>
		</linearGradient>
		<path class="st46" d="M9.7,16.6c0.2,0,0.3,0.1,0.3,0.1c-0.1,0-0.1,0.1-0.3,0.1c-0.3,0.1-0.9,0.1-1.2,0c-0.1,0-0.2,0-0.3-0.1
			c0,0,0.1,0,0.2-0.1C8.7,16.6,9.5,16.6,9.7,16.6z"/>
		<path class="st24" d="M9.6,16.7c0.2,0,0.2,0,0.3,0C9.8,16.7,9.8,16.8,9.6,16.7c-0.3,0.1-0.8,0.1-1,0.1c-0.1,0-0.2,0-0.2,0
			s0.1,0,0.2,0C8.8,16.6,9.5,16.7,9.6,16.7z"/>
	</g>
	<g>
		
			<linearGradient id="SVGID_35_" gradientUnits="userSpaceOnUse" x1="-1133.1975" y1="4.4555" x2="-1136.7391" y2="4.7333" gradientTransform="matrix(-1 0 0 -1 -1124.0771 19.8898)">
			<stop  offset="5.617980e-03" style="stop-color:#BB7D36"/>
			<stop  offset="0.3648" style="stop-color:#B87A34"/>
			<stop  offset="0.6778" style="stop-color:#AD702F"/>
			<stop  offset="0.9728" style="stop-color:#9B6027"/>
			<stop  offset="1" style="stop-color:#995E26"/>
		</linearGradient>
		<path class="st47" d="M8.8,14.7c0,0-0.8,0-1.1,0.4c-0.1,0.2-0.1,0.4,0,0.5s0.2,0.2,0.3,0.2c0.2,0,0.9,0.2,2.1,0.2s1.9-0.1,2-0.2
			c0.1,0,0.2-0.1,0.3-0.2c0.1-0.1,0.1-0.3,0-0.5c-0.2-0.4-1.1-0.4-1.1-0.4H8.8z"/>
		
			<linearGradient id="SVGID_36_" gradientUnits="userSpaceOnUse" x1="-1260.1105" y1="4.406" x2="-1264.1189" y2="4.7204" gradientTransform="matrix(-0.8182 0 0 -1 -1021.8935 19.8898)">
			<stop  offset="5.617980e-03" style="stop-color:#C18742"/>
			<stop  offset="0.3798" style="stop-color:#BE8440"/>
			<stop  offset="0.7055" style="stop-color:#B37A3C"/>
			<stop  offset="1" style="stop-color:#A26B34"/>
		</linearGradient>
		<path class="st48" d="M7.8,15.2c-0.1,0.2-0.1,0.3,0,0.4c0,0.1,0.2,0.2,0.2,0.2c0.2,0,0.8,0.2,1.9,0.2s1.7-0.1,1.9-0.2
			c0,0,0,0,0.1,0s0.1-0.1,0.2-0.2c0.1-0.1,0.1-0.2,0-0.4c-0.2-0.4-1-0.4-1-0.4H9.9H8.8C8.8,14.8,8,14.8,7.8,15.2z"/>
		
			<linearGradient id="SVGID_37_" gradientUnits="userSpaceOnUse" x1="-1459.5345" y1="4.3904" x2="-1464.2782" y2="4.7624" gradientTransform="matrix(-0.6364 0 0 -1 -919.7099 19.8898)">
			<stop  offset="5.617980e-03" style="stop-color:#C7914F"/>
			<stop  offset="0.4035" style="stop-color:#C48E4D"/>
			<stop  offset="0.75" style="stop-color:#B98448"/>
			<stop  offset="1" style="stop-color:#AC7841"/>
		</linearGradient>
		<path class="st49" d="M7.9,15.2c-0.1,0.2-0.1,0.3,0,0.4c0.1,0.1,0.2,0.1,0.3,0.2c0.2,0,0.7,0.1,1.7,0.1s1.6-0.1,1.8-0.2
			c0,0,0,0,0.1,0s0.1-0.1,0.2-0.1c0.1-0.1,0.1-0.2,0-0.4c-0.2-0.3-0.9-0.3-0.9-0.3H10H9C8.8,14.9,8.1,14.9,7.9,15.2z"/>
		
			<linearGradient id="SVGID_38_" gradientUnits="userSpaceOnUse" x1="-1818.6234" y1="4.3114" x2="-1824.6921" y2="4.7873" gradientTransform="matrix(-0.4545 0 0 -1 -817.4976 19.8898)">
			<stop  offset="5.617980e-03" style="stop-color:#CE9B5B"/>
			<stop  offset="0.4175" style="stop-color:#CB9859"/>
			<stop  offset="0.776" style="stop-color:#C08E54"/>
			<stop  offset="1" style="stop-color:#B5844F"/>
		</linearGradient>
		<path class="st50" d="M8,15.2c-0.1,0.2-0.1,0.3,0,0.4c0.1,0.1,0.2,0.1,0.3,0.2c0.1,0,0.7,0.1,1.6,0.1c0.9,0,1.5-0.1,1.6-0.1
			c0,0,0,0,0.1,0l0.1-0.1c0-0.1,0.1-0.2,0-0.4C11.5,15,10.9,15,10.9,15h-1H9C8.8,14.9,8.2,14.9,8,15.2z"/>
		
			<linearGradient id="SVGID_39_" gradientUnits="userSpaceOnUse" x1="-2656.3242" y1="4.2266" x2="-2665.4895" y2="4.9454" gradientTransform="matrix(-0.2727 0 0 -1 -715.314 19.8898)">
			<stop  offset="5.617980e-03" style="stop-color:#D4A567"/>
			<stop  offset="0.4415" style="stop-color:#D1A265"/>
			<stop  offset="0.821" style="stop-color:#C69861"/>
			<stop  offset="1" style="stop-color:#BE915D"/>
		</linearGradient>
		<path class="st51" d="M8.1,15.3c-0.1,0.1-0.1,0.2,0,0.3s0.2,0.1,0.3,0.1s0.6,0.1,1.4,0.1c0.8,0,1.3-0.1,1.5-0.1c0,0,0,0,0.1,0
			l0.1-0.1c0-0.1,0-0.2-0.1-0.3C11.3,15,10.7,15,10.7,15H9.8H9C8.8,15,8.3,15,8.1,15.3z"/>
		
			<linearGradient id="SVGID_40_" gradientUnits="userSpaceOnUse" x1="-6844.5" y1="3.9286" x2="-6869.167" y2="5.8633" gradientTransform="matrix(-9.090909e-02 0 0 -1 -613.133 19.8898)">
			<stop  offset="5.617980e-03" style="stop-color:#DAAF73"/>
			<stop  offset="0.4709" style="stop-color:#D7AC72"/>
			<stop  offset="0.8761" style="stop-color:#CCA26D"/>
			<stop  offset="1" style="stop-color:#C79E6B"/>
		</linearGradient>
		<path class="st52" d="M8.2,15.3c-0.1,0.1-0.1,0.2-0.1,0.3c0.1,0.1,0.2,0.1,0.2,0.1c0.1,0,0.6,0.1,1.3,0.1c0.8,0,1.2-0.1,1.3-0.1
			c0,0,0,0,0.1,0l0.1-0.1c0-0.1,0-0.2-0.1-0.3c-0.1-0.2-0.6-0.2-0.7-0.2H9.5H8.8C8.8,15.1,8.3,15.1,8.2,15.3z"/>
		
			<linearGradient id="SVGID_41_" gradientUnits="userSpaceOnUse" x1="5731.1089" y1="3.9321" x2="5709.2422" y2="5.6471" gradientTransform="matrix(9.090909e-02 0 0 -1 -510.9441 19.8898)">
			<stop  offset="5.617980e-03" style="stop-color:#E0B980"/>
			<stop  offset="0.5225" style="stop-color:#DDB67E"/>
			<stop  offset="0.9726" style="stop-color:#D2AC78"/>
			<stop  offset="1" style="stop-color:#D1AB78"/>
		</linearGradient>
		<path class="st53" d="M8.3,15.3c-0.1,0.1-0.1,0.2-0.1,0.2c0.1,0.1,0.1,0.1,0.2,0.1c0.1,0,0.5,0.1,1.1,0.1c0.7,0,1.1-0.1,1.2-0.1
			l0,0c0,0,0.1,0,0.1-0.1s0-0.1-0.1-0.2c-0.1-0.2-0.5-0.2-0.6-0.2H9.4H8.8C8.9,15.1,8.4,15.1,8.3,15.3z"/>
		
			<linearGradient id="SVGID_42_" gradientUnits="userSpaceOnUse" x1="1535.3016" y1="4.3238" x2="1528.9327" y2="4.8233" gradientTransform="matrix(0.2727 0 0 -1 -408.7631 19.8898)">
			<stop  offset="5.617980e-03" style="stop-color:#E6C38C"/>
			<stop  offset="0.5765" style="stop-color:#E3C08A"/>
			<stop  offset="1" style="stop-color:#DAB886"/>
		</linearGradient>
		<path class="st54" d="M8.4,15.4c-0.1,0.1-0.1,0.1-0.1,0.2c0.1,0,0.2,0,0.3,0s0.4,0.1,1,0.1s0.9-0.1,1.1-0.1l0,0c0,0,0,0,0-0.1
			c0,0,0-0.1-0.1-0.2c-0.1-0.2-0.4-0.2-0.5-0.2H9.5c0,0-0.5,0-0.6,0C8.9,15.2,8.5,15.2,8.4,15.4z"/>
		
			<linearGradient id="SVGID_43_" gradientUnits="userSpaceOnUse" x1="696.0724" y1="4.2981" x2="692.7917" y2="4.5554" gradientTransform="matrix(0.4545 0 0 -1 -306.5795 19.8898)">
			<stop  offset="5.617980e-03" style="stop-color:#ECCD98"/>
			<stop  offset="0.6545" style="stop-color:#E9CA96"/>
			<stop  offset="1" style="stop-color:#E3C594"/>
		</linearGradient>
		<path class="st55" d="M8.5,15.4c-0.1,0.1-0.1,0.1-0.1,0.2c0.1,0,0.2,0,0.2,0c0.1,0,0.4,0.1,0.8,0.1c0.5,0,0.8,0,0.9-0.1l0,0
			c0,0,0,0,0-0.1c0,0,0-0.1-0.1-0.1c-0.1-0.1-0.3-0.1-0.4-0.1c0,0-0.4,0-0.5,0c0,0-0.4,0-0.5,0C8.9,15.3,8.6,15.3,8.5,15.4z"/>
		
			<linearGradient id="SVGID_44_" gradientUnits="userSpaceOnUse" x1="336.3443" y1="4.3678" x2="334.3791" y2="4.5219" gradientTransform="matrix(0.6364 0 0 -1 -204.3672 19.8898)">
			<stop  offset="5.617980e-03" style="stop-color:#F3D7A4"/>
			<stop  offset="0.7313" style="stop-color:#F0D4A3"/>
			<stop  offset="1" style="stop-color:#ECD1A2"/>
		</linearGradient>
		<path class="st56" d="M8.7,15.4c-0.1,0-0.1,0.1-0.1,0.1s0.1,0,0.2,0.1c0.1,0,0.3,0,0.7,0s0.7,0,0.8-0.1l0,0l0,0c0,0,0-0.1-0.1-0.1
			c0-0.1-0.3-0.1-0.3-0.1s-0.3,0-0.4,0c-0.1,0-0.3,0-0.4,0C8.9,15.3,8.7,15.3,8.7,15.4z"/>
		
			<linearGradient id="SVGID_45_" gradientUnits="userSpaceOnUse" x1="136.573" y1="4.3804" x2="135.3249" y2="4.4783" gradientTransform="matrix(0.8182 0 0 -1 -102.1836 19.8898)">
			<stop  offset="5.617980e-03" style="stop-color:#F9E1B1"/>
			<stop  offset="1" style="stop-color:#F6DEAF"/>
		</linearGradient>
		<path class="st57" d="M8.8,15.4c-0.1,0-0.1,0-0.1,0.1c0,0,0.1,0,0.2,0c0.1,0,0.3,0,0.5,0c0.3,0,0.6,0,0.6,0l0,0l0,0
			c0,0-0.1,0-0.1-0.1c0,0-0.2,0-0.3,0s-0.2,0-0.3,0s-0.2,0-0.3,0C8.9,15.4,8.8,15.4,8.8,15.4z"/>
		<path class="st24" d="M8.9,15.5c-0.1,0-0.1,0-0.2,0C8.8,15.5,8.8,15.5,8.9,15.5c0.1,0.1,0.2,0.1,0.3,0.1c0.3,0,0.4,0,0.5,0
			c0,0-0.1,0-0.2,0c0,0-0.2,0-0.4,0S8.9,15.5,8.9,15.5z"/>
	</g>
	
		<linearGradient id="SVGID_46_" gradientUnits="userSpaceOnUse" x1="-1134.7205" y1="10.5563" x2="-1136.5046" y2="4.9842" gradientTransform="matrix(-1 0 0 -1 -1124.0771 19.8898)">
		<stop  offset="0" style="stop-color:#CC8A47"/>
		<stop  offset="6.489868e-02" style="stop-color:#D9A363"/>
		<stop  offset="0.1459" style="stop-color:#E6BB80"/>
		<stop  offset="0.2271" style="stop-color:#F0CD94"/>
		<stop  offset="0.3078" style="stop-color:#F5D7A0"/>
		<stop  offset="0.3876" style="stop-color:#F7DBA4"/>
		<stop  offset="0.4875" style="stop-color:#ECC990"/>
		<stop  offset="0.6919" style="stop-color:#CE9C5C"/>
		<stop  offset="0.927" style="stop-color:#A8611A"/>
	</linearGradient>
	<path class="st58" d="M11.1,14.7c0.6-0.1,1.2-0.3,1.3-0.6c0.7-1-1.7-4.2-1.8-4.7c-0.1-0.2,0-0.3,0.2-0.3L11.4,9
		c-0.2,0-0.3,0.1-0.2,0.3c0.1,0.4,2.6,3.4,2.1,4.5c-0.1,0.3-0.6,0.7-1.5,0.8c-0.5,0.1-0.9,0.1-0.9,0.1L11.1,14.7z"/>
	
		<linearGradient id="SVGID_47_" gradientUnits="userSpaceOnUse" x1="-1137.2999" y1="10.9155" x2="-1133.5511" y2="15.1804" gradientTransform="matrix(-1 0 0 -1 -1124.0771 19.8898)">
		<stop  offset="1.685390e-02" style="stop-color:#D79B55"/>
		<stop  offset="4.820942e-02" style="stop-color:#DDA763"/>
		<stop  offset="0.1221" style="stop-color:#E8BD80"/>
		<stop  offset="0.1962" style="stop-color:#F0CE94"/>
		<stop  offset="0.2699" style="stop-color:#F5D8A0"/>
		<stop  offset="0.3427" style="stop-color:#F7DBA4"/>
		<stop  offset="0.44" style="stop-color:#F4D59C"/>
		<stop  offset="0.5907" style="stop-color:#ECC486"/>
		<stop  offset="0.7759" style="stop-color:#DEA863"/>
		<stop  offset="0.9775" style="stop-color:#CC8334"/>
	</linearGradient>
	<path class="st59" d="M12.9,8C12.9,8,12.8,8,12.9,8c-0.1,0-0.1-0.1-0.2-0.1l0.6-0.1c0,0,0.1,0,0.1,0.1l0,0c0.4,0.2,0.3,1.3-0.3,1.4
		l-0.6,0.1C13.2,9.2,13.3,8.2,12.9,8z"/>
	
		<linearGradient id="SVGID_48_" gradientUnits="userSpaceOnUse" x1="-1137.4972" y1="11.0889" x2="-1133.7484" y2="15.3539" gradientTransform="matrix(-1 0 0 -1 -1124.0771 19.8898)">
		<stop  offset="1.685390e-02" style="stop-color:#D79B55"/>
		<stop  offset="4.820942e-02" style="stop-color:#DDA763"/>
		<stop  offset="0.1221" style="stop-color:#E8BD80"/>
		<stop  offset="0.1962" style="stop-color:#F0CE94"/>
		<stop  offset="0.2699" style="stop-color:#F5D8A0"/>
		<stop  offset="0.3427" style="stop-color:#F7DBA4"/>
		<stop  offset="0.44" style="stop-color:#F4D59C"/>
		<stop  offset="0.5907" style="stop-color:#ECC486"/>
		<stop  offset="0.7759" style="stop-color:#DEA863"/>
		<stop  offset="0.9775" style="stop-color:#CC8334"/>
	</linearGradient>
	<path class="st60" d="M10,5h0.1c0.1,0,0.2,0,0.3,0.1c0.2,0,0.3,0.1,0.5,0.2c0.3,0.2,0.6,0.4,0.9,0.9c0.3,0.5,0.7,1.2,1.4,1.6
		l-0.6,0.1c-0.7-0.4-1.1-1.1-1.4-1.6c-0.2-0.5-0.5-0.7-0.8-0.9C10.2,5.3,10,5.2,9.9,5.2S9.7,5.1,9.6,5.1s-0.1,0-0.1,0L10,5z"/>
	
		<linearGradient id="SVGID_49_" gradientUnits="userSpaceOnUse" x1="-1134.0096" y1="14.9033" x2="-1133.7959" y2="16.1459" gradientTransform="matrix(-1 0 0 -1 -1124.0771 19.8898)">
		<stop  offset="0" style="stop-color:#D29045"/>
		<stop  offset="2.390760e-03" style="stop-color:#D29146"/>
		<stop  offset="0.1089" style="stop-color:#DFAD6A"/>
		<stop  offset="0.216" style="stop-color:#EAC387"/>
		<stop  offset="0.3227" style="stop-color:#F1D39B"/>
		<stop  offset="0.4289" style="stop-color:#F6DDA7"/>
		<stop  offset="0.5337" style="stop-color:#F7E0AB"/>
		<stop  offset="0.6192" style="stop-color:#F6DDA7"/>
		<stop  offset="0.7048" style="stop-color:#F1D39B"/>
		<stop  offset="0.7905" style="stop-color:#EAC487"/>
		<stop  offset="0.8764" style="stop-color:#E0AE6B"/>
		<stop  offset="0.9616" style="stop-color:#D39247"/>
		<stop  offset="1" style="stop-color:#CC8334"/>
	</linearGradient>
	<path class="st61" d="M9.7,4C9.6,4,9.6,4,9.7,4C9.6,4,9.5,4,9.5,4l0,0C9.4,4,9.4,4,9.3,4c0,0,0,0-0.1,0l0.6-0.1c0,0,0,0,0.1,0
		s0.1,0,0.2,0l0,0c0.1,0,0.1,0,0.1,0h0.1C10.5,4,10.4,4.3,10,4.8C9.9,4.9,9.9,5,10,5L9.4,5.1c-0.1,0-0.1-0.1,0-0.2
		C9.7,4.4,9.9,4.1,9.7,4z"/>
	
		<linearGradient id="SVGID_50_" gradientUnits="userSpaceOnUse" x1="-1130.6443" y1="11.5076" x2="-1136.7441" y2="8.3971" gradientTransform="matrix(-1 0 0 -1 -1124.0771 19.8898)">
		<stop  offset="0" style="stop-color:#F2D7A4"/>
		<stop  offset="1" style="stop-color:#CC8334"/>
	</linearGradient>
	<path class="st62" d="M9.4,4C8.9,4,7.6,4.6,7.3,6.2c-0.4,2.1,1.5,2.7-0.5,7.4c-0.4,0.9,0.9,1.3,2.4,1.3c1.4,0,2.9-0.3,3.2-0.8
		c0.7-1-1.7-4.2-1.8-4.7c-0.1-0.2,0.1-0.3,0.5-0.3c0.3,0,0.7,0.1,1.1,0.2c0.1,0,0.1,0,0.2,0c0.7,0,0.9-1.2,0.4-1.4
		c-0.8-0.3-1.2-1.1-1.5-1.6c-0.8-1.4-2.2-0.9-1.9-1.4C9.8,4.3,9.9,4,9.4,4z"/>
	
		<linearGradient id="SVGID_51_" gradientUnits="userSpaceOnUse" x1="1006.4785" y1="403.4787" x2="1006.9136" y2="402.8898" gradientTransform="matrix(0.4918 0.8097 -0.7079 0.43 -199.326 -982.2476)">
		<stop  offset="0" style="stop-color:#FFEBBD"/>
		<stop  offset="1" style="stop-color:#C27334"/>
	</linearGradient>
	<path class="st63" d="M10.4,6.5c0.2-0.1,0.2-0.3,0.1-0.5c-0.1-0.2-0.3-0.2-0.5-0.2C9.9,6,9.9,6.2,10,6.4
		C10.1,6.6,10.3,6.6,10.4,6.5z"/>
	
		<linearGradient id="SVGID_52_" gradientUnits="userSpaceOnUse" x1="1006.8476" y1="403.403" x2="1006.4103" y2="403.3255" gradientTransform="matrix(0.4918 0.8097 -0.7079 0.43 -199.326 -982.2476)">
		<stop  offset="0" style="stop-color:#FFEBBD"/>
		<stop  offset="1" style="stop-color:#D18534"/>
	</linearGradient>
	<path class="st64" d="M10.3,6.4c0.1,0,0.1-0.2,0-0.2c-0.1-0.1-0.2-0.1-0.2-0.1c-0.1,0-0.1,0.2,0,0.2C10.2,6.4,10.3,6.4,10.3,6.4z"
		/>
	
		<linearGradient id="SVGID_53_" gradientUnits="userSpaceOnUse" x1="-1129.9351" y1="12.106" x2="-1134.295" y2="4.0378" gradientTransform="matrix(-1 0 0 -1 -1124.0771 19.8898)">
		<stop  offset="0.3427" style="stop-color:#F2D7A4"/>
		<stop  offset="0.4435" style="stop-color:#EFD19C"/>
		<stop  offset="0.5995" style="stop-color:#E8C186"/>
		<stop  offset="0.7912" style="stop-color:#DCA663"/>
		<stop  offset="1" style="stop-color:#CC8334"/>
	</linearGradient>
	<path class="st65" d="M7.5,6.9c0.2,0.7,0.7,2.2,0.7,3.4c0,1.4-1.3,3.7-1,3.8s1.6,0.4,2.8,0.3c1.2-0.1-1.7-0.3-1.7-0.9
		c0.1-0.7,0.3-2.5,0.1-3.8C8.2,8,7.5,6.9,7.5,6.9z"/>
</g>
</svg>
