<?xml version="1.0" encoding="utf-8"?>
<!-- Generator: Adobe Illustrator 24.2.3, SVG Export Plug-In . SVG Version: 6.00 Build 0)  -->
<svg version="1.1" id="Layer_1" xmlns="http://www.w3.org/2000/svg" xmlns:xlink="http://www.w3.org/1999/xlink" x="0px" y="0px"
	 viewBox="0 0 20 20" style="enable-background:new 0 0 20 20;" xml:space="preserve">
<style type="text/css">
	.st0{fill:none;}
	.st1{fill-rule:evenodd;clip-rule:evenodd;fill:url(#SVGID_1_);}
	.st2{fill:url(#SVGID_2_);}
	.st3{fill:url(#SVGID_3_);}
	.st4{fill:url(#SVGID_4_);}
	.st5{fill:url(#SVGID_5_);}
	.st6{fill:url(#SVGID_6_);}
	.st7{fill:url(#SVGID_7_);}
	.st8{fill:url(#SVGID_8_);}
	.st9{fill:url(#SVGID_9_);}
	.st10{fill:url(#SVGID_10_);}
	.st11{fill:url(#SVGID_11_);}
	.st12{fill:url(#SVGID_12_);}
	.st13{fill:#CC915C;}
	.st14{fill:#D19965;}
	.st15{fill:#D5A16E;}
	.st16{fill:#DAAA76;}
	.st17{fill:#DFB27F;}
	.st18{fill:#E3BA88;}
	.st19{fill:#E8C291;}
	.st20{fill:#ECCA9A;}
	.st21{fill:#F1D2A3;}
	.st22{fill:#F6DBAB;}
	.st23{fill:#FAE3B4;}
	.st24{fill:#FFEBBD;}
	.st25{fill:url(#SVGID_13_);}
	.st26{fill:url(#SVGID_14_);}
	.st27{fill:url(#SVGID_15_);}
	.st28{fill:url(#SVGID_16_);}
	.st29{fill:url(#SVGID_17_);}
	.st30{fill:url(#SVGID_18_);}
	.st31{fill:url(#SVGID_19_);}
	.st32{fill:url(#SVGID_20_);}
	.st33{fill:url(#SVGID_21_);}
	.st34{fill:url(#SVGID_22_);}
	.st35{fill:url(#SVGID_23_);}
	.st36{fill:url(#SVGID_24_);}
	.st37{fill:url(#SVGID_25_);}
	.st38{fill:url(#SVGID_26_);}
	.st39{fill:url(#SVGID_27_);}
	.st40{fill:url(#SVGID_28_);}
	.st41{fill:url(#SVGID_29_);}
	.st42{fill:url(#SVGID_30_);}
	.st43{fill:url(#SVGID_31_);}
	.st44{fill:url(#SVGID_32_);}
	.st45{fill:url(#SVGID_33_);}
	.st46{fill:url(#SVGID_34_);}
	.st47{fill:url(#SVGID_35_);}
	.st48{fill:url(#SVGID_36_);}
	.st49{fill:url(#SVGID_37_);}
	.st50{fill:url(#SVGID_38_);}
	.st51{fill:url(#SVGID_39_);}
	.st52{fill:url(#SVGID_40_);}
	.st53{fill:url(#SVGID_41_);}
	.st54{fill:url(#SVGID_42_);}
	.st55{fill:url(#SVGID_43_);}
	.st56{fill:url(#SVGID_44_);}
	.st57{fill:url(#SVGID_45_);}
	.st58{fill:#B67B36;}
	.st59{fill:url(#SVGID_46_);}
	.st60{fill:url(#SVGID_47_);}
	.st61{fill:url(#SVGID_48_);}
	.st62{fill:url(#SVGID_49_);}
	.st63{fill:url(#SVGID_50_);}
	.st64{fill:url(#SVGID_51_);}
	.st65{fill:url(#SVGID_52_);}
	.st66{fill:url(#SVGID_53_);}
	.st67{fill:url(#SVGID_54_);}
	.st68{fill:url(#SVGID_55_);}
	.st69{fill:url(#SVGID_56_);}
	.st70{fill:url(#SVGID_57_);}
	.st71{fill:#B5782F;}
	.st72{fill:url(#SVGID_58_);}
	.st73{fill:url(#SVGID_59_);}
	.st74{fill:url(#SVGID_60_);}
	.st75{fill:url(#SVGID_61_);}
	.st76{fill:url(#SVGID_62_);}
	.st77{fill:url(#SVGID_63_);}
	.st78{fill:url(#SVGID_64_);}
	.st79{fill:url(#SVGID_65_);}
	.st80{fill:url(#SVGID_66_);}
	.st81{fill:url(#SVGID_67_);}
	.st82{fill:url(#SVGID_68_);}
	.st83{fill:url(#SVGID_69_);}
	.st84{fill:url(#SVGID_70_);}
	.st85{fill:url(#SVGID_71_);}
	.st86{fill:url(#SVGID_72_);}
	.st87{fill:url(#SVGID_73_);}
	.st88{fill:url(#SVGID_74_);}
	.st89{fill:#FFE0B3;}
	.st90{fill:url(#SVGID_75_);}
	.st91{fill:url(#SVGID_76_);}
</style>
<rect y="0" class="st0" width="20" height="20"/>
<g>
	
		<radialGradient id="SVGID_1_" cx="13.6111" cy="-2329.23" r="5.1406" gradientTransform="matrix(0.9431 0 0 -0.165 -2.8473 -365.8805)" gradientUnits="userSpaceOnUse">
		<stop  offset="0.4213" style="stop-color:#A86121"/>
		<stop  offset="0.4224" style="stop-color:#A86122;stop-opacity:0.9979"/>
		<stop  offset="0.5707" style="stop-color:#C7996F;stop-opacity:0.7172"/>
		<stop  offset="0.7027" style="stop-color:#DFC5AD;stop-opacity:0.4673"/>
		<stop  offset="0.8136" style="stop-color:#F0E4D9;stop-opacity:0.2571"/>
		<stop  offset="0.8994" style="stop-color:#FBF8F5;stop-opacity:9.480000e-02"/>
		<stop  offset="0.9494" style="stop-color:#FFFFFF;stop-opacity:0"/>
	</radialGradient>
	<path class="st1" d="M14.8,18.4c0,0.5-2.1,0.9-4.8,0.9c-2.6,0-4.8-0.4-4.8-0.9s2.1-0.8,4.8-0.8C12.6,17.6,14.8,18,14.8,18.4z"/>
	<g>
		
			<linearGradient id="SVGID_2_" gradientUnits="userSpaceOnUse" x1="9.9943" y1="1.1599" x2="9.9943" y2="2.1055" gradientTransform="matrix(1 0 0 -1 0 19.8898)">
			<stop  offset="5.617980e-03" style="stop-color:#BB7D36"/>
			<stop  offset="0.3648" style="stop-color:#B87A34"/>
			<stop  offset="0.6778" style="stop-color:#AD702F"/>
			<stop  offset="0.9728" style="stop-color:#9B6027"/>
			<stop  offset="1" style="stop-color:#995E26"/>
		</linearGradient>
		<path class="st2" d="M12.3,17.4c0,0,1.1,0.1,1.2,0.6c0,0.5-1.5,0.8-3.3,0.8s-3.6-0.3-3.6-0.8s1.2-0.6,1.2-0.6L12.3,17.4L12.3,17.4
			z"/>
		
			<linearGradient id="SVGID_3_" gradientUnits="userSpaceOnUse" x1="10.0393" y1="1.1702" x2="10.0393" y2="2.0797" gradientTransform="matrix(1 0 0 -1 0 19.8898)">
			<stop  offset="5.617980e-03" style="stop-color:#BD7F39"/>
			<stop  offset="0.3798" style="stop-color:#BA7C37"/>
			<stop  offset="0.7055" style="stop-color:#AF7233"/>
			<stop  offset="1" style="stop-color:#9E632B"/>
		</linearGradient>
		<path class="st3" d="M12.2,17.5c0,0,1.1,0.1,1.1,0.6s-1.4,0.8-3.2,0.8c-1.8,0-3.5-0.3-3.5-0.8c0-0.5,1.2-0.6,1.2-0.6L12.2,17.5z"
			/>
		
			<linearGradient id="SVGID_4_" gradientUnits="userSpaceOnUse" x1="10.0743" y1="1.1805" x2="10.0743" y2="2.0539" gradientTransform="matrix(1 0 0 -1 0 19.8898)">
			<stop  offset="5.617980e-03" style="stop-color:#BE813D"/>
			<stop  offset="0.3972" style="stop-color:#BB7E3B"/>
			<stop  offset="0.738" style="stop-color:#B07436"/>
			<stop  offset="1" style="stop-color:#A26730"/>
		</linearGradient>
		<path class="st4" d="M12.2,17.5c0,0,1.1,0.1,1.1,0.6s-1.4,0.7-3.2,0.8s-3.4-0.3-3.4-0.7c0-0.5,1.1-0.6,1.1-0.6L12.2,17.5z"/>
		
			<linearGradient id="SVGID_5_" gradientUnits="userSpaceOnUse" x1="10.1243" y1="1.1908" x2="10.1243" y2="2.028" gradientTransform="matrix(1 0 0 -1 0 19.8898)">
			<stop  offset="5.617980e-03" style="stop-color:#C08240"/>
			<stop  offset="0.4175" style="stop-color:#BD7F3E"/>
			<stop  offset="0.776" style="stop-color:#B2763A"/>
			<stop  offset="1" style="stop-color:#A76C35"/>
		</linearGradient>
		<path class="st5" d="M12.2,17.5c0,0,1.1,0.1,1.1,0.5c0,0.5-1.4,0.7-3.1,0.7s-3.3-0.2-3.3-0.7C7,17.7,8,17.6,8,17.6L12.2,17.5z"/>
		
			<linearGradient id="SVGID_6_" gradientUnits="userSpaceOnUse" x1="10.1593" y1="1.201" x2="10.1593" y2="2.0022" gradientTransform="matrix(1 0 0 -1 0 19.8898)">
			<stop  offset="5.617980e-03" style="stop-color:#C18444"/>
			<stop  offset="0.4507" style="stop-color:#BE8142"/>
			<stop  offset="0.8381" style="stop-color:#B3773D"/>
			<stop  offset="1" style="stop-color:#AC713A"/>
		</linearGradient>
		<path class="st6" d="M12.2,17.6c0,0,1,0.1,1.1,0.5c0,0.4-1.3,0.7-3,0.7S7,18.6,7.1,18.1c0-0.4,1-0.5,1-0.5L12.2,17.6z"/>
		
			<linearGradient id="SVGID_7_" gradientUnits="userSpaceOnUse" x1="10.2094" y1="1.2111" x2="10.2094" y2="1.9764" gradientTransform="matrix(1 0 0 -1 0 19.8898)">
			<stop  offset="5.617980e-03" style="stop-color:#C38647"/>
			<stop  offset="0.4709" style="stop-color:#C08346"/>
			<stop  offset="0.8761" style="stop-color:#B57941"/>
			<stop  offset="1" style="stop-color:#B0753F"/>
		</linearGradient>
		<path class="st7" d="M12.2,17.6c0,0,1,0.1,1,0.5s-1.3,0.6-2.9,0.7s-3.1-0.2-3.1-0.6s1-0.5,1-0.5L12.2,17.6z"/>
		
			<linearGradient id="SVGID_8_" gradientUnits="userSpaceOnUse" x1="10.2495" y1="1.2212" x2="10.2495" y2="1.9505" gradientTransform="matrix(1 0 0 -1 0 19.8898)">
			<stop  offset="5.617980e-03" style="stop-color:#C4884B"/>
			<stop  offset="0.5225" style="stop-color:#C18549"/>
			<stop  offset="0.9726" style="stop-color:#B67B43"/>
			<stop  offset="1" style="stop-color:#B57A43"/>
		</linearGradient>
		<path class="st8" d="M12.2,17.7c0,0,1,0.1,1,0.5s-1.3,0.6-2.8,0.6c-1.6,0-3-0.2-3-0.6c0-0.4,1-0.5,1-0.5L12.2,17.7z"/>
		
			<linearGradient id="SVGID_9_" gradientUnits="userSpaceOnUse" x1="10.2945" y1="1.2312" x2="10.2945" y2="1.9246" gradientTransform="matrix(1 0 0 -1 0 19.8898)">
			<stop  offset="5.617980e-03" style="stop-color:#C68A4E"/>
			<stop  offset="0.5565" style="stop-color:#C3874C"/>
			<stop  offset="1" style="stop-color:#B97E48"/>
		</linearGradient>
		<path class="st9" d="M12.1,17.7c0,0,0.9,0.1,1,0.4c0,0.4-1.2,0.6-2.7,0.6c-1.5,0-2.9-0.2-2.9-0.5s1-0.5,1-0.5L12.1,17.7z"/>
		
			<linearGradient id="SVGID_10_" gradientUnits="userSpaceOnUse" x1="10.3345" y1="1.2411" x2="10.3345" y2="1.8987" gradientTransform="matrix(1 0 0 -1 0 19.8898)">
			<stop  offset="5.617980e-03" style="stop-color:#C78C52"/>
			<stop  offset="0.6545" style="stop-color:#C48950"/>
			<stop  offset="1" style="stop-color:#BE834D"/>
		</linearGradient>
		<path class="st10" d="M12.1,17.7c0,0,0.9,0.1,0.9,0.4s-1.2,0.6-2.6,0.6s-2.8-0.1-2.8-0.5s0.9-0.4,0.9-0.4L12.1,17.7z"/>
		
			<linearGradient id="SVGID_11_" gradientUnits="userSpaceOnUse" x1="10.3695" y1="1.251" x2="10.3695" y2="1.8727" gradientTransform="matrix(1 0 0 -1 0 19.8898)">
			<stop  offset="5.617980e-03" style="stop-color:#C98D55"/>
			<stop  offset="0.7829" style="stop-color:#C68A53"/>
			<stop  offset="1" style="stop-color:#C38852"/>
		</linearGradient>
		<path class="st11" d="M12.1,17.8c0,0,0.9,0,0.9,0.4c0,0.3-1.1,0.5-2.6,0.5c-1.4,0-2.8-0.1-2.7-0.5c0-0.3,0.9-0.4,0.9-0.4
			L12.1,17.8z"/>
		
			<linearGradient id="SVGID_12_" gradientUnits="userSpaceOnUse" x1="10.4195" y1="1.2607" x2="10.4195" y2="1.8468" gradientTransform="matrix(1 0 0 -1 0 19.8898)">
			<stop  offset="5.617980e-03" style="stop-color:#CA8F59"/>
			<stop  offset="1" style="stop-color:#C78C57"/>
		</linearGradient>
		<path class="st12" d="M12.1,17.8c0,0,0.9,0,0.9,0.4c0,0.3-1.1,0.5-2.5,0.5c-1.4,0-2.7-0.1-2.7-0.4c0-0.3,0.9-0.4,0.9-0.4
			L12.1,17.8z"/>
		<path class="st13" d="M12.1,17.9c0,0,0.8,0,0.9,0.3c0,0.3-1.1,0.5-2.4,0.5c-1.3,0-2.6-0.1-2.6-0.4c0-0.3,0.8-0.4,0.8-0.4
			L12.1,17.9z"/>
		<path class="st14" d="M9,18c0,0,3-0.1,3-0.1s0.8,0,0.8,0.3c0,0.1-0.2,0.2-0.6,0.3c-0.4,0.1-1,0.1-1.6,0.1c-0.7,0-1.3,0-1.8-0.1
			c-0.4-0.1-0.6-0.1-0.6-0.3C8.2,18,8.9,18,9,18z"/>
		<path class="st15" d="M9.1,18c0,0,2.8-0.1,2.8-0.1c0,0,0.7,0,0.7,0.3c0,0.1-0.2,0.2-0.6,0.3c-0.4,0.1-0.9,0.1-1.5,0.1
			c-0.6,0-1.2,0-1.6-0.1c-0.4-0.1-0.6-0.1-0.6-0.3C8.4,18.1,9.1,18,9.1,18z"/>
		<path class="st16" d="M9.2,18c0.1,0,2.6-0.1,2.6,0s0.6,0,0.7,0.3c0,0.1-0.2,0.2-0.5,0.3c-0.4,0.1-0.8,0.1-1.4,0.1
			c-0.6,0-1.1,0-1.5-0.1c-0.3,0-0.5-0.1-0.5-0.2C8.6,18.1,9.2,18,9.2,18z"/>
		<path class="st17" d="M9.4,18.1c0.1,0,2.4,0,2.4,0c0.1,0,0.6,0,0.6,0.2c0,0.1-0.2,0.2-0.5,0.2c-0.3,0.1-0.8,0.1-1.3,0.1
			c-0.5,0-1,0-1.4-0.1c-0.3,0-0.5-0.1-0.5-0.2C8.8,18.1,9.3,18.1,9.4,18.1z"/>
		<path class="st18" d="M9.5,18.1c0.1,0,2.1,0,2.2,0c0.1,0,0.5,0,0.6,0.2c0,0.1-0.2,0.1-0.4,0.2c-0.3,0-0.7,0.1-1.1,0.1
			c-0.5,0-0.9,0-1.3-0.1c-0.3,0-0.4-0.1-0.4-0.2C8.9,18.2,9.4,18.1,9.5,18.1z"/>
		<path class="st19" d="M9.6,18.1c0.1,0,1.9,0,2,0s0.5,0,0.5,0.2c0,0.1-0.2,0.1-0.4,0.2c-0.3,0-0.6,0.1-1,0.1c-0.4,0-0.8,0-1.1-0.1
			c-0.2,0-0.4-0.1-0.4-0.2C9.1,18.2,9.6,18.1,9.6,18.1z"/>
		<path class="st20" d="M9.8,18.2c0.1,0,1.7,0,1.8,0c0.1,0,0.4,0,0.4,0.1c0,0.1-0.2,0.1-0.4,0.1c-0.2,0-0.6,0.1-0.9,0.1
			c-0.4,0-0.7,0-1,0c-0.2,0-0.3-0.1-0.4-0.1C9.3,18.2,9.7,18.2,9.8,18.2z"/>
		<path class="st21" d="M9.9,18.2c0.1,0,1.5,0,1.6,0c0.1,0,0.4,0,0.4,0.1c0,0-0.1,0.1-0.3,0.1c-0.2,0-0.5,0.1-0.8,0.1
			c-0.3,0-0.6,0-0.9,0c-0.2,0-0.3-0.1-0.3-0.1C9.5,18.3,9.8,18.2,9.9,18.2z"/>
		<path class="st22" d="M10,18.2c0.1,0,1.2,0,1.4,0c0.1,0,0.3,0,0.3,0.1c0,0-0.1,0.1-0.3,0.1c-0.2,0-0.4,0-0.7,0c-0.3,0-0.6,0-0.8,0
			c-0.1,0-0.3,0-0.3-0.1C9.7,18.3,9.9,18.2,10,18.2z"/>
		<path class="st23" d="M10.2,18.3c0.2,0,1,0,1.1,0c0.1,0,0.2,0,0.3,0.1c0,0-0.1,0-0.3,0.1c-0.1,0-0.4,0-0.6,0c-0.2,0-0.4,0-0.6,0
			c-0.1,0-0.2,0-0.3-0.1C9.9,18.3,10,18.3,10.2,18.3z"/>
		<path class="st24" d="M10.3,18.3c-0.1,0-0.2,0-0.2,0C10.1,18.4,10.2,18.4,10.3,18.3c0.2,0.1,0.7,0.1,0.9,0.1c0.1,0,0.2,0,0.2,0
			c0,0-0.1,0-0.2,0C11.1,18.3,10.5,18.3,10.3,18.3z"/>
	</g>
	<g>
		
			<linearGradient id="SVGID_13_" gradientUnits="userSpaceOnUse" x1="11.3986" y1="2.944" x2="7.0064" y2="2.944" gradientTransform="matrix(1 0 0 -1 0 19.8898)">
			<stop  offset="5.617980e-03" style="stop-color:#BF7D36"/>
			<stop  offset="0.3696" style="stop-color:#BC7A34"/>
			<stop  offset="0.6863" style="stop-color:#B1702C"/>
			<stop  offset="0.9852" style="stop-color:#9F5F20"/>
			<stop  offset="1" style="stop-color:#9E5E1F"/>
		</linearGradient>
		<path class="st25" d="M11.9,16.1c0,0,1,0.1,1,0.8s-0.9,0.8-1.5,0.9c-0.8,0.1-1.9,0.1-2.7,0c-0.6,0-1.6-0.2-1.5-0.9
			c0-0.6,1-0.8,1-0.8S11.9,16.1,11.9,16.1z"/>
		
			<linearGradient id="SVGID_14_" gradientUnits="userSpaceOnUse" x1="11.342" y1="2.9379" x2="7.176" y2="2.9349" gradientTransform="matrix(1 0 0 -1 0 19.8898)">
			<stop  offset="5.617980e-03" style="stop-color:#C1823C"/>
			<stop  offset="0.3798" style="stop-color:#BE7F3A"/>
			<stop  offset="0.7055" style="stop-color:#B37432"/>
			<stop  offset="1" style="stop-color:#A26426"/>
		</linearGradient>
		<path class="st26" d="M8.2,16.2c0,0,3.6,0,3.6,0c0,0,0.9,0.1,0.9,0.7c0,0.6-0.9,0.8-1.4,0.8c-0.8,0.1-1.9,0.1-2.7,0
			c-0.5-0.1-1.4-0.2-1.4-0.8C7.3,16.3,8.2,16.2,8.2,16.2z"/>
		
			<linearGradient id="SVGID_15_" gradientUnits="userSpaceOnUse" x1="11.289" y1="2.9296" x2="7.3449" y2="2.9241" gradientTransform="matrix(1 0 0 -1 0 19.8898)">
			<stop  offset="5.617980e-03" style="stop-color:#C48641"/>
			<stop  offset="0.3798" style="stop-color:#C1833F"/>
			<stop  offset="0.7055" style="stop-color:#B67938"/>
			<stop  offset="1" style="stop-color:#A56A2D"/>
		</linearGradient>
		<path class="st27" d="M8.3,16.2c0.1,0,3.4,0,3.5,0c0.1,0,0.9,0.1,0.9,0.7c0,0.5-0.8,0.7-1.3,0.8c-0.7,0.1-1.9,0.1-2.6,0
			c-0.5-0.1-1.3-0.2-1.3-0.8C7.5,16.4,8.3,16.2,8.3,16.2z"/>
		
			<linearGradient id="SVGID_16_" gradientUnits="userSpaceOnUse" x1="11.2395" y1="2.915" x2="7.5133" y2="2.9071" gradientTransform="matrix(1 0 0 -1 0 19.8898)">
			<stop  offset="5.617980e-03" style="stop-color:#C68B47"/>
			<stop  offset="0.3911" style="stop-color:#C38845"/>
			<stop  offset="0.7266" style="stop-color:#B87D3E"/>
			<stop  offset="1" style="stop-color:#A96F34"/>
		</linearGradient>
		<path class="st28" d="M8.4,16.3c0.1,0,3.3,0,3.3,0c0.1,0,0.8,0.2,0.8,0.6c0,0.5-0.8,0.6-1.2,0.7c-0.7,0.1-1.9,0.1-2.6,0
			c-0.5-0.1-1.2-0.2-1.2-0.7C7.6,16.4,8.4,16.3,8.4,16.3z"/>
		
			<linearGradient id="SVGID_17_" gradientUnits="userSpaceOnUse" x1="11.1934" y1="2.8941" x2="7.6811" y2="2.8841" gradientTransform="matrix(1 0 0 -1 0 19.8898)">
			<stop  offset="5.617980e-03" style="stop-color:#C98F4C"/>
			<stop  offset="0.3972" style="stop-color:#C68C4A"/>
			<stop  offset="0.738" style="stop-color:#BB8243"/>
			<stop  offset="1" style="stop-color:#AD753B"/>
		</linearGradient>
		<path class="st29" d="M8.6,16.3c0.1,0,3.1-0.1,3.2,0c0.1,0.1,0.8,0.2,0.8,0.6c0,0.5-0.7,0.6-1.1,0.7c-0.7,0.1-1.8,0.1-2.5,0
			c-0.4-0.1-1.1-0.2-1.1-0.7C7.8,16.5,8.5,16.4,8.6,16.3z"/>
		
			<linearGradient id="SVGID_18_" gradientUnits="userSpaceOnUse" x1="11.1525" y1="2.9225" x2="7.8501" y2="2.9108" gradientTransform="matrix(1 0 0 -1 0 19.8898)">
			<stop  offset="5.617980e-03" style="stop-color:#CB9452"/>
			<stop  offset="0.4103" style="stop-color:#C89150"/>
			<stop  offset="0.7625" style="stop-color:#BD8649"/>
			<stop  offset="1" style="stop-color:#B17B42"/>
		</linearGradient>
		<path class="st30" d="M8.7,16.4c0.2-0.1,2.9-0.1,3.1,0c0.1,0.1,0.7,0.2,0.7,0.5c0,0.4-0.6,0.5-1.1,0.6c-0.7,0.1-1.8,0.1-2.5,0
			c-0.4-0.1-1-0.2-1.1-0.6C7.9,16.6,8.5,16.4,8.7,16.4z"/>
		
			<linearGradient id="SVGID_19_" gradientUnits="userSpaceOnUse" x1="11.114" y1="2.9195" x2="8.0176" y2="2.9064" gradientTransform="matrix(1 0 0 -1 0 19.8898)">
			<stop  offset="5.617980e-03" style="stop-color:#CE9857"/>
			<stop  offset="0.4103" style="stop-color:#CB9555"/>
			<stop  offset="0.7625" style="stop-color:#C08C4F"/>
			<stop  offset="1" style="stop-color:#B48148"/>
		</linearGradient>
		<path class="st31" d="M8.8,16.4c0.2-0.1,2.7-0.1,2.9,0c0.2,0.1,0.7,0.2,0.7,0.5c-0.1,0.4-0.6,0.5-1,0.5c-0.7,0.1-1.8,0.1-2.4,0
			c-0.4-0.1-0.9-0.2-0.9-0.5C8.1,16.6,8.6,16.5,8.8,16.4z"/>
		
			<linearGradient id="SVGID_20_" gradientUnits="userSpaceOnUse" x1="11.0792" y1="2.9198" x2="8.1848" y2="2.9054" gradientTransform="matrix(1 0 0 -1 0 19.8898)">
			<stop  offset="5.617980e-03" style="stop-color:#D09D5D"/>
			<stop  offset="0.425" style="stop-color:#CD9A5B"/>
			<stop  offset="0.79" style="stop-color:#C29055"/>
			<stop  offset="1" style="stop-color:#B8874F"/>
		</linearGradient>
		<path class="st32" d="M8.9,16.5c0.3-0.1,2.5-0.1,2.8,0c0.2,0.1,0.6,0.2,0.6,0.5c-0.1,0.3-0.5,0.4-0.9,0.5c-0.7,0.1-1.7,0.1-2.4,0
			c-0.4-0.1-0.8-0.2-0.9-0.5C8.3,16.7,8.7,16.5,8.9,16.5z"/>
		
			<linearGradient id="SVGID_21_" gradientUnits="userSpaceOnUse" x1="11.0479" y1="2.9098" x2="8.3516" y2="2.8946" gradientTransform="matrix(1 0 0 -1 0 19.8898)">
			<stop  offset="5.617980e-03" style="stop-color:#D3A162"/>
			<stop  offset="0.433" style="stop-color:#D09E60"/>
			<stop  offset="0.805" style="stop-color:#C5955B"/>
			<stop  offset="1" style="stop-color:#BC8D56"/>
		</linearGradient>
		<path class="st33" d="M9,16.5c0.3-0.1,2.4-0.1,2.6,0c0.3,0.1,0.6,0.2,0.6,0.4c-0.1,0.3-0.4,0.4-0.8,0.4c-0.7,0.1-1.7,0.1-2.3,0
			c-0.3-0.1-0.7-0.2-0.8-0.4C8.4,16.8,8.8,16.6,9,16.5z"/>
		
			<linearGradient id="SVGID_22_" gradientUnits="userSpaceOnUse" x1="11.0202" y1="2.9079" x2="8.518" y2="2.892" gradientTransform="matrix(1 0 0 -1 0 19.8898)">
			<stop  offset="5.617980e-03" style="stop-color:#D5A668"/>
			<stop  offset="0.4507" style="stop-color:#D2A366"/>
			<stop  offset="0.8381" style="stop-color:#C79961"/>
			<stop  offset="1" style="stop-color:#C0925D"/>
		</linearGradient>
		<path class="st34" d="M9.2,16.6c0.3-0.1,2.2-0.1,2.5,0c0.3,0.1,0.5,0.2,0.6,0.4c-0.1,0.2-0.4,0.3-0.7,0.4c-0.6,0.2-1.7,0.2-2.3,0
			c-0.3-0.1-0.6-0.2-0.7-0.4C8.6,16.8,8.9,16.7,9.2,16.6z"/>
		
			<linearGradient id="SVGID_23_" gradientUnits="userSpaceOnUse" x1="10.996" y1="2.9028" x2="8.6841" y2="2.8865" gradientTransform="matrix(1 0 0 -1 0 19.8898)">
			<stop  offset="5.617980e-03" style="stop-color:#D8AA6D"/>
			<stop  offset="0.4507" style="stop-color:#D5A76C"/>
			<stop  offset="0.8381" style="stop-color:#CA9E67"/>
			<stop  offset="1" style="stop-color:#C39864"/>
		</linearGradient>
		<path class="st35" d="M9.3,16.6c0.4-0.1,2-0.1,2.3,0c0.3,0.1,0.5,0.2,0.5,0.3c-0.1,0.2-0.3,0.3-0.6,0.3c-0.6,0.2-1.6,0.2-2.3,0
			C9,17.2,8.8,17.1,8.7,17C8.7,16.9,9,16.7,9.3,16.6z"/>
		
			<linearGradient id="SVGID_24_" gradientUnits="userSpaceOnUse" x1="10.9755" y1="2.8977" x2="8.8498" y2="2.8812" gradientTransform="matrix(1 0 0 -1 0 19.8898)">
			<stop  offset="5.617980e-03" style="stop-color:#DAAF73"/>
			<stop  offset="0.4709" style="stop-color:#D7AC72"/>
			<stop  offset="0.8761" style="stop-color:#CCA26D"/>
			<stop  offset="1" style="stop-color:#C79E6B"/>
		</linearGradient>
		<path class="st36" d="M9.4,16.7C9.1,16.8,8.9,17,8.9,17c0.1,0.1,0.3,0.2,0.5,0.3c0.6,0.2,1.6,0.2,2.2,0c0.2-0.1,0.4-0.1,0.5-0.3
			c0,0-0.1-0.1-0.4-0.3C11.2,16.5,9.8,16.6,9.4,16.7z"/>
		
			<linearGradient id="SVGID_25_" gradientUnits="userSpaceOnUse" x1="10.9748" y1="2.8975" x2="8.9597" y2="2.8818" gradientTransform="matrix(1 0 0 -1 0 19.8898)">
			<stop  offset="5.617980e-03" style="stop-color:#DDB47A"/>
			<stop  offset="0.4946" style="stop-color:#DAB178"/>
			<stop  offset="0.9202" style="stop-color:#CFA873"/>
			<stop  offset="1" style="stop-color:#CCA572"/>
		</linearGradient>
		<path class="st37" d="M9.5,16.7C9.2,16.8,9,17,9,17c0.1,0.1,0.2,0.2,0.4,0.3c0.6,0.2,1.5,0.2,2.1,0c0.2-0.1,0.4-0.1,0.5-0.3
			c0,0-0.1-0.1-0.4-0.3C11.2,16.6,9.9,16.6,9.5,16.7z"/>
		
			<linearGradient id="SVGID_26_" gradientUnits="userSpaceOnUse" x1="10.9742" y1="2.8887" x2="9.0696" y2="2.8739" gradientTransform="matrix(1 0 0 -1 0 19.8898)">
			<stop  offset="5.617980e-03" style="stop-color:#E1BA80"/>
			<stop  offset="0.5078" style="stop-color:#DEB77F"/>
			<stop  offset="0.9452" style="stop-color:#D3AE7B"/>
			<stop  offset="1" style="stop-color:#D1AC7A"/>
		</linearGradient>
		<path class="st38" d="M9.6,16.7C9.3,16.8,9.1,17,9.1,17c0.1,0.1,0.2,0.2,0.4,0.2c0.5,0.2,1.4,0.2,2,0c0.2-0.1,0.3-0.1,0.4-0.2
			c0,0-0.1-0.1-0.4-0.2C11.2,16.6,9.9,16.6,9.6,16.7z"/>
		
			<linearGradient id="SVGID_27_" gradientUnits="userSpaceOnUse" x1="10.9735" y1="2.8959" x2="9.1794" y2="2.882" gradientTransform="matrix(1 0 0 -1 0 19.8898)">
			<stop  offset="5.617980e-03" style="stop-color:#E4BF87"/>
			<stop  offset="0.5386" style="stop-color:#E1BC86"/>
			<stop  offset="1" style="stop-color:#D6B381"/>
		</linearGradient>
		<path class="st39" d="M9.6,16.8C9.4,16.8,9.2,17,9.2,17c0.1,0.1,0.2,0.2,0.4,0.2c0.5,0.1,1.4,0.1,1.9,0c0.2-0.1,0.3-0.1,0.4-0.2
			c0,0-0.1-0.1-0.4-0.2C11.2,16.6,10,16.7,9.6,16.8z"/>
		
			<linearGradient id="SVGID_28_" gradientUnits="userSpaceOnUse" x1="10.9729" y1="2.8876" x2="9.2893" y2="2.8745" gradientTransform="matrix(1 0 0 -1 0 19.8898)">
			<stop  offset="5.617980e-03" style="stop-color:#E7C58E"/>
			<stop  offset="0.5765" style="stop-color:#E4C28D"/>
			<stop  offset="1" style="stop-color:#DBBA89"/>
		</linearGradient>
		<path class="st40" d="M9.7,16.8C9.5,16.9,9.3,17,9.3,17c0.1,0.1,0.2,0.1,0.4,0.2c0.5,0.1,1.3,0.1,1.8,0c0.2,0,0.3-0.1,0.4-0.2
			c0,0-0.1-0.1-0.4-0.2C11.2,16.7,10,16.7,9.7,16.8z"/>
		
			<linearGradient id="SVGID_29_" gradientUnits="userSpaceOnUse" x1="10.9722" y1="2.893" x2="9.3992" y2="2.8808" gradientTransform="matrix(1 0 0 -1 0 19.8898)">
			<stop  offset="5.617980e-03" style="stop-color:#EBCA95"/>
			<stop  offset="0.599" style="stop-color:#E8C793"/>
			<stop  offset="1" style="stop-color:#E0C190"/>
		</linearGradient>
		<path class="st41" d="M9.8,16.8C9.6,16.9,9.4,17,9.4,17c0.1,0.1,0.2,0.1,0.4,0.2c0.4,0.1,1.2,0.1,1.6,0c0.2,0,0.3-0.1,0.4-0.2
			c0,0-0.1-0.1-0.3-0.2C11.2,16.7,10.1,16.7,9.8,16.8z"/>
		
			<linearGradient id="SVGID_30_" gradientUnits="userSpaceOnUse" x1="10.9715" y1="2.886" x2="9.5091" y2="2.8746" gradientTransform="matrix(1 0 0 -1 0 19.8898)">
			<stop  offset="5.617980e-03" style="stop-color:#EED09B"/>
			<stop  offset="0.6894" style="stop-color:#EBCD9A"/>
			<stop  offset="1" style="stop-color:#E6C898"/>
		</linearGradient>
		<path class="st42" d="M9.9,16.8c-0.2,0-0.4,0.1-0.4,0.1c0.1,0.1,0.2,0.1,0.3,0.1c0.4,0.1,1.1,0.1,1.5,0c0.2,0,0.3-0.1,0.3-0.1
			c0,0-0.1-0.1-0.3-0.1C11.1,16.8,10.2,16.8,9.9,16.8z"/>
		
			<linearGradient id="SVGID_31_" gradientUnits="userSpaceOnUse" x1="10.9709" y1="2.8877" x2="9.6189" y2="2.8772" gradientTransform="matrix(1 0 0 -1 0 19.8898)">
			<stop  offset="5.617980e-03" style="stop-color:#F2D5A2"/>
			<stop  offset="0.7313" style="stop-color:#EFD2A1"/>
			<stop  offset="1" style="stop-color:#EBCF9F"/>
		</linearGradient>
		<path class="st43" d="M10,16.9c-0.2,0-0.3,0.1-0.3,0.1c0.1,0.1,0.2,0.1,0.3,0.1c0.4,0.1,1,0.1,1.4,0c0.1,0,0.2-0.1,0.3-0.1
			c0,0-0.1-0.1-0.3-0.1C11.1,16.8,10.2,16.8,10,16.9z"/>
		
			<linearGradient id="SVGID_32_" gradientUnits="userSpaceOnUse" x1="10.9703" y1="2.8775" x2="9.7289" y2="2.8678" gradientTransform="matrix(1 0 0 -1 0 19.8898)">
			<stop  offset="5.617980e-03" style="stop-color:#F5DBA9"/>
			<stop  offset="0.8486" style="stop-color:#F2D8A8"/>
			<stop  offset="1" style="stop-color:#F0D6A7"/>
		</linearGradient>
		<path class="st44" d="M10.1,16.9c-0.2,0-0.3,0.1-0.3,0.1c0.1,0,0.1,0.1,0.3,0.1c0.4,0.1,0.9,0.1,1.3,0c0.1,0,0.2-0.1,0.3-0.1
			c0,0-0.1,0-0.3-0.1C11.1,16.8,10.3,16.8,10.1,16.9z"/>
		
			<linearGradient id="SVGID_33_" gradientUnits="userSpaceOnUse" x1="10.9696" y1="2.886" x2="9.8387" y2="2.8773" gradientTransform="matrix(1 0 0 -1 0 19.8898)">
			<stop  offset="5.617980e-03" style="stop-color:#F8E0B0"/>
			<stop  offset="1" style="stop-color:#F5DDAE"/>
		</linearGradient>
		<path class="st45" d="M10.1,16.9C10,16.9,9.9,17,9.9,17c0.1,0,0.1,0.1,0.3,0.1c0.3,0.1,0.9,0.1,1.2,0c0.1,0,0.2,0,0.3-0.1
			c0,0-0.1,0-0.2-0.1C11.1,16.9,10.3,16.9,10.1,16.9z"/>
		
			<linearGradient id="SVGID_34_" gradientUnits="userSpaceOnUse" x1="10.9689" y1="2.8876" x2="9.9486" y2="2.8797" gradientTransform="matrix(1 0 0 -1 0 19.8898)">
			<stop  offset="5.617980e-03" style="stop-color:#FCE6B6"/>
			<stop  offset="1" style="stop-color:#FAE4B6"/>
		</linearGradient>
		<path class="st46" d="M10.2,16.9C10.1,17,10,17,10,17c0.1,0,0.1,0.1,0.2,0.1c0.3,0,0.8,0,1.1,0c0.1,0,0.2,0,0.2-0.1
			c0,0-0.1,0-0.2-0.1C11.1,16.9,10.4,16.9,10.2,16.9z"/>
		<path class="st24" d="M10.3,17c-0.1,0-0.2,0-0.2,0C10.1,17,10.2,17,10.3,17c0.2,0.1,0.7,0.1,0.9,0.1c0.1,0,0.2,0,0.2,0
			c0,0-0.1,0-0.2,0C11.1,16.9,10.5,16.9,10.3,17z"/>
	</g>
	<g>
		
			<linearGradient id="SVGID_35_" gradientUnits="userSpaceOnUse" x1="10.7617" y1="4.0426" x2="7.6506" y2="4.2866" gradientTransform="matrix(1 0 0 -1 0 19.8898)">
			<stop  offset="5.617980e-03" style="stop-color:#BB7D36"/>
			<stop  offset="0.3648" style="stop-color:#B87A34"/>
			<stop  offset="0.6778" style="stop-color:#AD702F"/>
			<stop  offset="0.9728" style="stop-color:#9B6027"/>
			<stop  offset="1" style="stop-color:#995E26"/>
		</linearGradient>
		<path class="st47" d="M11.1,15.3c0,0,0.7,0,0.9,0.4c0.1,0.2,0.1,0.3,0,0.4c-0.1,0.1-0.2,0.1-0.3,0.2c-0.1,0-0.8,0.1-1.8,0.1
			s-1.6-0.1-1.8-0.1c-0.1,0-0.2-0.1-0.3-0.2c-0.1-0.1-0.1-0.2,0-0.4c0.2-0.4,0.9-0.4,0.9-0.4H11.1z"/>
		
			<linearGradient id="SVGID_36_" gradientUnits="userSpaceOnUse" x1="10.7667" y1="4.0318" x2="7.8851" y2="4.2578" gradientTransform="matrix(1 0 0 -1 0 19.8898)">
			<stop  offset="5.617980e-03" style="stop-color:#C18742"/>
			<stop  offset="0.3798" style="stop-color:#BE8440"/>
			<stop  offset="0.7055" style="stop-color:#B37A3C"/>
			<stop  offset="1" style="stop-color:#A26B34"/>
		</linearGradient>
		<path class="st48" d="M8.2,15.7C8.4,15.3,9,15.3,9,15.3h1.1c0,0,1,0,1,0s0.7,0,0.9,0.3c0.1,0.2,0.1,0.3,0,0.4
			c-0.1,0.1-0.2,0.1-0.2,0.2c-0.1,0-0.7,0.1-1.7,0.1c-1,0-1.5-0.1-1.7-0.1c0,0,0,0-0.1,0c-0.1,0-0.1-0.1-0.2-0.1
			C8.1,15.9,8.1,15.8,8.2,15.7z"/>
		
			<linearGradient id="SVGID_37_" gradientUnits="userSpaceOnUse" x1="10.772" y1="4.0195" x2="8.1193" y2="4.2276" gradientTransform="matrix(1 0 0 -1 0 19.8898)">
			<stop  offset="5.617980e-03" style="stop-color:#C7914F"/>
			<stop  offset="0.4035" style="stop-color:#C48E4D"/>
			<stop  offset="0.75" style="stop-color:#B98448"/>
			<stop  offset="1" style="stop-color:#AC7841"/>
		</linearGradient>
		<path class="st49" d="M8.4,15.7c0.2-0.3,0.8-0.3,0.8-0.3s0.9,0,1,0s0.9,0,0.9,0c0,0,0.6,0,0.8,0.3c0.1,0.1,0.1,0.3,0,0.4
			c-0.1,0.1-0.2,0.1-0.2,0.1c-0.1,0-0.7,0.1-1.5,0.1c-0.9,0-1.4-0.1-1.5-0.1c0,0,0,0-0.1,0c-0.1,0-0.1-0.1-0.1-0.1
			C8.3,15.9,8.3,15.8,8.4,15.7z"/>
		
			<linearGradient id="SVGID_38_" gradientUnits="userSpaceOnUse" x1="10.7779" y1="4.0119" x2="8.3535" y2="4.202" gradientTransform="matrix(1 0 0 -1 0 19.8898)">
			<stop  offset="5.617980e-03" style="stop-color:#CE9B5B"/>
			<stop  offset="0.4175" style="stop-color:#CB9859"/>
			<stop  offset="0.776" style="stop-color:#C08E54"/>
			<stop  offset="1" style="stop-color:#B5844F"/>
		</linearGradient>
		<path class="st50" d="M8.6,15.7c0.1-0.3,0.7-0.3,0.7-0.3c0,0,0.9,0,0.9,0s0.8,0,0.8,0s0.6,0,0.7,0.3c0.1,0.1,0.1,0.2,0.1,0.3
			c-0.1,0.1-0.1,0.1-0.2,0.1c-0.1,0-0.6,0.1-1.4,0.1c-0.8,0-1.3-0.1-1.4-0.1c0,0,0,0-0.1,0c0,0-0.1-0.1-0.1-0.1
			C8.5,15.9,8.5,15.8,8.6,15.7z"/>
		
			<linearGradient id="SVGID_39_" gradientUnits="userSpaceOnUse" x1="10.7839" y1="3.999" x2="8.5867" y2="4.1713" gradientTransform="matrix(1 0 0 -1 0 19.8898)">
			<stop  offset="5.617980e-03" style="stop-color:#D4A567"/>
			<stop  offset="0.4415" style="stop-color:#D1A265"/>
			<stop  offset="0.821" style="stop-color:#C69861"/>
			<stop  offset="1" style="stop-color:#BE915D"/>
		</linearGradient>
		<path class="st51" d="M8.8,15.7c0.1-0.2,0.6-0.2,0.6-0.2c0,0,0.8,0,0.8,0c0,0,0.7,0,0.7,0c0,0,0.5,0,0.6,0.2
			c0.1,0.1,0.1,0.2,0.1,0.3c-0.1,0.1-0.1,0.1-0.2,0.1c-0.1,0-0.6,0.1-1.3,0.1c-0.7,0-1.2-0.1-1.3-0.1c0,0,0,0-0.1,0
			c0,0-0.1-0.1-0.1-0.1C8.7,15.9,8.7,15.8,8.8,15.7z"/>
		
			<linearGradient id="SVGID_40_" gradientUnits="userSpaceOnUse" x1="10.7909" y1="3.9916" x2="8.8194" y2="4.1462" gradientTransform="matrix(1 0 0 -1 0 19.8898)">
			<stop  offset="5.617980e-03" style="stop-color:#DAAF73"/>
			<stop  offset="0.4709" style="stop-color:#D7AC72"/>
			<stop  offset="0.8761" style="stop-color:#CCA26D"/>
			<stop  offset="1" style="stop-color:#C79E6B"/>
		</linearGradient>
		<path class="st52" d="M9,15.8c0.1-0.2,0.5-0.2,0.6-0.2c0,0,0.7,0,0.7,0s0.6,0,0.6,0c0,0,0.5,0,0.6,0.2c0.1,0.1,0.1,0.2,0.1,0.2
			c-0.1,0.1-0.1,0.1-0.2,0.1c-0.1,0-0.5,0.1-1.1,0.1c-0.7,0-1.1-0.1-1.2-0.1c0,0,0,0-0.1,0C9,16.1,9,16,9,16C9,15.9,9,15.9,9,15.8z"
			/>
		
			<linearGradient id="SVGID_41_" gradientUnits="userSpaceOnUse" x1="10.7983" y1="3.9782" x2="9.0505" y2="4.1153" gradientTransform="matrix(1 0 0 -1 0 19.8898)">
			<stop  offset="5.617980e-03" style="stop-color:#E0B980"/>
			<stop  offset="0.5225" style="stop-color:#DDB67E"/>
			<stop  offset="0.9726" style="stop-color:#D2AC78"/>
			<stop  offset="1" style="stop-color:#D1AB78"/>
		</linearGradient>
		<path class="st53" d="M9.2,15.8c0.1-0.2,0.5-0.2,0.5-0.2c0,0,0.6,0,0.6,0s0.5,0,0.6,0c0.1,0,0.4,0,0.5,0.2
			c0.1,0.1,0.1,0.1,0.1,0.2c-0.1,0-0.1,0.1-0.2,0.1c-0.1,0-0.4,0.1-1,0.1c-0.6,0-0.9-0.1-1.1-0.1c0,0,0,0,0,0c0,0-0.1,0-0.1-0.1
			C9.2,15.9,9.2,15.9,9.2,15.8z"/>
		
			<linearGradient id="SVGID_42_" gradientUnits="userSpaceOnUse" x1="10.8072" y1="3.9712" x2="9.2798" y2="4.091" gradientTransform="matrix(1 0 0 -1 0 19.8898)">
			<stop  offset="5.617980e-03" style="stop-color:#E6C38C"/>
			<stop  offset="0.5765" style="stop-color:#E3C08A"/>
			<stop  offset="1" style="stop-color:#DAB886"/>
		</linearGradient>
		<path class="st54" d="M9.5,15.8c0.1-0.1,0.4-0.1,0.4-0.1c0,0,0.5,0,0.5,0s0.5,0,0.5,0c0.1,0,0.4,0,0.4,0.1
			c0.1,0.1,0.1,0.1,0.1,0.2c-0.1,0-0.1,0.1-0.2,0.1c-0.1,0-0.4,0.1-0.9,0.1c-0.5,0-0.8,0-0.9-0.1c0,0,0,0,0,0c0,0,0,0,0-0.1
			C9.4,15.9,9.4,15.9,9.5,15.8z"/>
		
			<linearGradient id="SVGID_43_" gradientUnits="userSpaceOnUse" x1="10.816" y1="3.9632" x2="9.5057" y2="4.0659" gradientTransform="matrix(1 0 0 -1 0 19.8898)">
			<stop  offset="5.617980e-03" style="stop-color:#ECCD98"/>
			<stop  offset="0.6545" style="stop-color:#E9CA96"/>
			<stop  offset="1" style="stop-color:#E3C594"/>
		</linearGradient>
		<path class="st55" d="M9.7,15.8c0.1-0.1,0.3-0.1,0.4-0.1c0,0,0.4,0,0.4,0c0,0,0.4,0,0.4,0c0.1,0,0.3,0,0.4,0.1
			c0.1,0.1,0.1,0.1,0.1,0.1c0,0-0.1,0.1-0.2,0.1c-0.1,0-0.3,0.1-0.7,0.1c-0.4,0-0.7,0-0.8-0.1c0,0,0,0,0,0c0,0,0,0,0,0
			C9.6,15.9,9.6,15.9,9.7,15.8z"/>
		
			<linearGradient id="SVGID_44_" gradientUnits="userSpaceOnUse" x1="10.8226" y1="3.9497" x2="9.7254" y2="4.0357" gradientTransform="matrix(1 0 0 -1 0 19.8898)">
			<stop  offset="5.617980e-03" style="stop-color:#F3D7A4"/>
			<stop  offset="0.7313" style="stop-color:#F0D4A3"/>
			<stop  offset="1" style="stop-color:#ECD1A2"/>
		</linearGradient>
		<path class="st56" d="M9.9,15.9c0-0.1,0.2-0.1,0.3-0.1c0,0,0.3,0,0.4,0s0.3,0,0.3,0c0.1,0,0.3,0,0.3,0.1c0.1,0,0.1,0.1,0.1,0.1
			c0,0-0.1,0-0.2,0c-0.1,0-0.3,0-0.6,0c-0.4,0-0.6,0-0.7,0c0,0,0,0,0,0C9.8,16,9.8,16,9.9,15.9C9.8,15.9,9.8,15.9,9.9,15.9z"/>
		
			<linearGradient id="SVGID_45_" gradientUnits="userSpaceOnUse" x1="10.8253" y1="3.943" x2="9.9307" y2="4.0131" gradientTransform="matrix(1 0 0 -1 0 19.8898)">
			<stop  offset="5.617980e-03" style="stop-color:#F9E1B1"/>
			<stop  offset="1" style="stop-color:#F6DEAF"/>
		</linearGradient>
		<path class="st57" d="M10.1,15.9c0,0,0.1,0,0.2,0c0.1,0,0.2,0,0.3,0s0.2,0,0.3,0c0.1,0,0.2,0,0.2,0c0.1,0,0.1,0,0.1,0.1
			c0,0-0.1,0-0.2,0c-0.1,0-0.2,0-0.4,0C10.3,16,10.1,16,10.1,15.9C10,16,10,16,10,16S10,15.9,10.1,15.9C10,15.9,10.1,15.9,10.1,15.9
			z"/>
		<path class="st24" d="M10.3,15.9c-0.1,0-0.1,0-0.1,0c0.1,0,0.2,0,0.5,0c0.1,0,0.2,0,0.3,0s0.1,0,0.2,0c0,0-0.1,0-0.1,0
			c0,0-0.2,0-0.3,0C10.5,15.9,10.3,15.9,10.3,15.9z"/>
	</g>
	<g>
		<path class="st58" d="M11.6,8.6c0,0-1.1,1-1,3.3c0.2,2.4,0.6,3.4,0.6,3.4S11,15.5,10,15.5c-0.9,0-1.2-0.1-1.2-0.1s0.4-1.1,0.6-3.5
			c0.2-2.4-1-3.3-1-3.3S11.6,8.6,11.6,8.6z"/>
		
			<linearGradient id="SVGID_46_" gradientUnits="userSpaceOnUse" x1="9.8296" y1="5.2897" x2="10.0468" y2="12.6195" gradientTransform="matrix(1 0 0 -1 0 19.8898)">
			<stop  offset="0" style="stop-color:#BD8542"/>
			<stop  offset="1" style="stop-color:#B87C36"/>
		</linearGradient>
		<path class="st59" d="M8.5,8.7h2.9c0,0.1-0.6,0.7-0.9,1.9c-0.1,0.4-0.1,0.8-0.1,1.4c0.2,2.3,0.6,3.4,0.6,3.4c0,0-0.2,0.1-1.1,0.1
			c-0.9,0-1.1-0.1-1.1-0.1c0,0,0.4-1.2,0.5-3.5C9.6,9.7,8.5,8.7,8.5,8.7z"/>
		
			<linearGradient id="SVGID_47_" gradientUnits="userSpaceOnUse" x1="9.8523" y1="5.2778" x2="10.066" y2="12.4913" gradientTransform="matrix(1 0 0 -1 0 19.8898)">
			<stop  offset="0" style="stop-color:#C38F4F"/>
			<stop  offset="1" style="stop-color:#BB7D36"/>
		</linearGradient>
		<path class="st60" d="M8.7,8.8h2.7c-0.1,0.2-0.6,0.7-0.8,1.9c-0.1,0.3-0.1,0.8,0,1.3c0.1,2.1,0.5,3.3,0.5,3.3c0,0-0.2,0.1-1,0.1
			c-0.8,0-1-0.1-1-0.1c0,0,0.4-1.3,0.5-3.5C9.7,9.8,8.7,8.8,8.7,8.8z"/>
		
			<linearGradient id="SVGID_48_" gradientUnits="userSpaceOnUse" x1="9.8799" y1="5.2657" x2="10.0901" y2="12.3631" gradientTransform="matrix(1 0 0 -1 0 19.8898)">
			<stop  offset="0" style="stop-color:#CA9A5B"/>
			<stop  offset="1" style="stop-color:#BD7E35"/>
		</linearGradient>
		<path class="st61" d="M8.8,8.9h2.5c-0.1,0.3-0.6,0.8-0.8,1.9c-0.1,0.3-0.1,0.8,0,1.3c0.1,2,0.5,3.2,0.5,3.3c0,0-0.2,0.1-0.9,0.1
			c-0.7,0-0.9-0.1-0.9-0.1c0,0,0.3-1.3,0.5-3.5C9.7,10,8.8,8.9,8.8,8.9z"/>
		
			<linearGradient id="SVGID_49_" gradientUnits="userSpaceOnUse" x1="9.8926" y1="5.2542" x2="10.0995" y2="12.2353" gradientTransform="matrix(1 0 0 -1 0 19.8898)">
			<stop  offset="0" style="stop-color:#D1A467"/>
			<stop  offset="1" style="stop-color:#C07F35"/>
		</linearGradient>
		<path class="st62" d="M8.9,9l2.2,0c-0.1,0.3-0.5,0.9-0.7,1.9c-0.1,0.3-0.1,0.8,0,1.3c0.1,1.9,0.5,3.1,0.5,3.2c0,0-0.2,0.1-0.9,0.1
			c-0.6,0-0.8-0.1-0.9-0.1c0,0,0.3-1.4,0.4-3.5C9.8,10.1,8.9,9,8.9,9z"/>
		
			<linearGradient id="SVGID_50_" gradientUnits="userSpaceOnUse" x1="9.9381" y1="5.2412" x2="10.1415" y2="12.1067" gradientTransform="matrix(1 0 0 -1 0 19.8898)">
			<stop  offset="0" style="stop-color:#D7AE73"/>
			<stop  offset="1" style="stop-color:#C28035"/>
		</linearGradient>
		<path class="st63" d="M9.1,9.1l2,0c-0.1,0.4-0.5,1-0.6,1.9c0,0.3,0,0.7,0,1.3c0.1,1.8,0.4,3.1,0.5,3.1c0,0-0.2,0.1-0.8,0.1
			c-0.6,0-0.7-0.1-0.8-0.1c0,0,0.3-1.5,0.4-3.6C9.8,10.3,9.1,9.1,9.1,9.1z"/>
		
			<linearGradient id="SVGID_51_" gradientUnits="userSpaceOnUse" x1="9.9745" y1="5.2288" x2="10.1745" y2="11.9783" gradientTransform="matrix(1 0 0 -1 0 19.8898)">
			<stop  offset="0" style="stop-color:#DEB880"/>
			<stop  offset="1" style="stop-color:#C58035"/>
		</linearGradient>
		<path class="st64" d="M9.2,9.2l1.8,0c-0.1,0.5-0.5,1.1-0.6,1.8c0,0.3,0,0.7,0,1.3c0.1,1.7,0.4,3,0.4,3.1c0,0-0.2,0.1-0.7,0.1
			c-0.5,0-0.6,0-0.7-0.1c0,0,0.3-1.6,0.4-3.6C9.9,10.4,9.2,9.2,9.2,9.2z"/>
		
			<linearGradient id="SVGID_52_" gradientUnits="userSpaceOnUse" x1="10.0156" y1="5.2161" x2="10.2121" y2="11.8496" gradientTransform="matrix(1 0 0 -1 0 19.8898)">
			<stop  offset="0" style="stop-color:#E4C28C"/>
			<stop  offset="1" style="stop-color:#C78135"/>
		</linearGradient>
		<path class="st65" d="M9.3,9.3l1.5,0c-0.2,0.6-0.4,1.1-0.5,1.8c0,0.2,0,0.7,0,1.2c0.1,1.6,0.4,2.9,0.4,3c0,0-0.2,0.1-0.6,0.1
			c-0.4,0-0.6,0-0.7,0c0,0,0.3-1.6,0.3-3.6C9.9,10.6,9.3,9.3,9.3,9.3z"/>
		
			<linearGradient id="SVGID_53_" gradientUnits="userSpaceOnUse" x1="10.0617" y1="5.2031" x2="10.2548" y2="11.7209" gradientTransform="matrix(1 0 0 -1 0 19.8898)">
			<stop  offset="0" style="stop-color:#EBCC98"/>
			<stop  offset="1" style="stop-color:#CA8235"/>
		</linearGradient>
		<path class="st66" d="M9.5,9.4l1.3,0c-0.2,0.7-0.4,1.2-0.5,1.8c0,0.2,0,0.7,0,1.2c0.1,1.4,0.3,2.8,0.4,2.9c0,0-0.2,0.1-0.6,0.1
			c-0.3,0-0.5,0-0.6,0c0,0,0.2-1.7,0.3-3.6C10,10.7,9.5,9.4,9.5,9.4z"/>
		
			<linearGradient id="SVGID_54_" gradientUnits="userSpaceOnUse" x1="10.1081" y1="5.1899" x2="10.2978" y2="11.5924" gradientTransform="matrix(1 0 0 -1 0 19.8898)">
			<stop  offset="0" style="stop-color:#F2D7A4"/>
			<stop  offset="1" style="stop-color:#CC8334"/>
		</linearGradient>
		<path class="st67" d="M9.6,9.5l1.1,0c-0.2,0.8-0.4,1.3-0.4,1.8c0,0.2,0,0.6,0.1,1.2c0.1,1.3,0.3,2.8,0.4,2.9c0,0-0.1,0-0.5,0.1
			c-0.3,0-0.4,0-0.5,0c0,0,0.2-1.8,0.3-3.6C10,10.9,9.6,9.5,9.6,9.5z"/>
		
			<linearGradient id="SVGID_55_" gradientUnits="userSpaceOnUse" x1="10.1491" y1="5.176" x2="10.3354" y2="11.464" gradientTransform="matrix(1 0 0 -1 0 19.8898)">
			<stop  offset="0" style="stop-color:#F8E1B1"/>
			<stop  offset="1" style="stop-color:#CF8434"/>
		</linearGradient>
		<path class="st68" d="M9.8,9.6l0.8,0c-0.3,0.8-0.3,1.4-0.4,1.8c0,0.1,0,0.6,0.1,1.2c0.1,1.2,0.3,2.7,0.4,2.8c0,0-0.1,0-0.4,0.1
			c-0.2,0-0.3,0-0.4,0c0,0,0.2-1.9,0.3-3.7C10.1,11,9.8,9.6,9.8,9.6z"/>
		
			<linearGradient id="SVGID_56_" gradientUnits="userSpaceOnUse" x1="10.1953" y1="5.1602" x2="10.3783" y2="11.336" gradientTransform="matrix(1 0 0 -1 0 19.8898)">
			<stop  offset="0" style="stop-color:#FFEBBD"/>
			<stop  offset="1" style="stop-color:#D18534"/>
		</linearGradient>
		<path class="st69" d="M10.1,11.8c0,1.7-0.2,3.7-0.2,3.7c0.4,0,0.7,0,0.7,0c-0.1-0.2-0.4-3.6-0.4-3.9c0-0.3,0-0.8,0.3-1.8l-0.6,0
			C9.9,9.7,10.1,11.2,10.1,11.8z"/>
	</g>
	
		<linearGradient id="SVGID_57_" gradientUnits="userSpaceOnUse" x1="8.388" y1="11.3753" x2="11.5906" y2="11.3753" gradientTransform="matrix(1 0 0 -1 0 19.8898)">
		<stop  offset="3.930000e-02" style="stop-color:#A16329"/>
		<stop  offset="0.5899" style="stop-color:#FFC97A"/>
		<stop  offset="1" style="stop-color:#D18534"/>
	</linearGradient>
	<path class="st70" d="M10.9,8.3l0.7,0.3c0,0,0,0.2-1.6,0.2S8.4,8.6,8.4,8.6l0.7-0.3H10.9z"/>
	<g>
		<path class="st71" d="M11.9,7.9c0,0.4-0.9,0.5-1.9,0.5c-1.1,0-1.9-0.1-1.9-0.5c0-0.4,0.9-0.5,1.9-0.5C11,7.3,11.9,7.5,11.9,7.9z"
			/>
		
			<linearGradient id="SVGID_58_" gradientUnits="userSpaceOnUse" x1="10.0193" y1="12.6826" x2="10.0193" y2="11.4893" gradientTransform="matrix(1 0 0 -1 0 19.8898)">
			<stop  offset="0" style="stop-color:#B87A31"/>
			<stop  offset="0.6067" style="stop-color:#BA7D35"/>
		</linearGradient>
		<path class="st72" d="M10,7.4c1,0,1.9,0.1,1.9,0.5S11,8.4,10,8.4S8.2,8.2,8.2,7.9C8.2,7.5,9,7.4,10,7.4z"/>
		
			<linearGradient id="SVGID_59_" gradientUnits="userSpaceOnUse" x1="10.0393" y1="12.6283" x2="10.0393" y2="11.5179" gradientTransform="matrix(1 0 0 -1 0 19.8898)">
			<stop  offset="0" style="stop-color:#BB7C33"/>
			<stop  offset="0.6067" style="stop-color:#BE823C"/>
		</linearGradient>
		<path class="st73" d="M10,7.4c1,0,1.8,0.1,1.8,0.4c0,0.3-0.8,0.5-1.8,0.5S8.2,8.2,8.2,7.9C8.3,7.6,9.1,7.4,10,7.4z"/>
		
			<linearGradient id="SVGID_60_" gradientUnits="userSpaceOnUse" x1="10.0693" y1="12.5741" x2="10.0693" y2="11.5465" gradientTransform="matrix(1 0 0 -1 0 19.8898)">
			<stop  offset="0" style="stop-color:#BE7E35"/>
			<stop  offset="0.6067" style="stop-color:#C38742"/>
		</linearGradient>
		<path class="st74" d="M10.1,7.5c0.9,0,1.7,0.1,1.7,0.4S11,8.3,10.1,8.3c-0.9,0-1.7-0.1-1.7-0.4C8.3,7.6,9.1,7.5,10.1,7.5z"/>
		
			<linearGradient id="SVGID_61_" gradientUnits="userSpaceOnUse" x1="10.0993" y1="12.5198" x2="10.0993" y2="11.5751" gradientTransform="matrix(1 0 0 -1 0 19.8898)">
			<stop  offset="0" style="stop-color:#C18037"/>
			<stop  offset="0.6067" style="stop-color:#C78C49"/>
		</linearGradient>
		<path class="st75" d="M10.1,7.5c0.9,0,1.7,0.1,1.7,0.4c0,0.3-0.7,0.4-1.7,0.4S8.4,8.2,8.4,7.9S9.2,7.5,10.1,7.5z"/>
		
			<linearGradient id="SVGID_62_" gradientUnits="userSpaceOnUse" x1="10.1292" y1="12.4656" x2="10.1292" y2="11.6037" gradientTransform="matrix(1 0 0 -1 0 19.8898)">
			<stop  offset="0" style="stop-color:#C5823A"/>
			<stop  offset="0.6067" style="stop-color:#CC924F"/>
		</linearGradient>
		<path class="st76" d="M10.1,7.5c0.9,0,1.6,0.1,1.6,0.3S11,8.2,10.1,8.2S8.5,8.2,8.5,7.9C8.5,7.6,9.2,7.5,10.1,7.5z"/>
		
			<linearGradient id="SVGID_63_" gradientUnits="userSpaceOnUse" x1="10.1493" y1="12.4113" x2="10.1493" y2="11.6322" gradientTransform="matrix(1 0 0 -1 0 19.8898)">
			<stop  offset="0" style="stop-color:#C8843C"/>
			<stop  offset="0.6067" style="stop-color:#D09756"/>
		</linearGradient>
		<path class="st77" d="M10.1,7.6c0.9,0,1.5,0.1,1.5,0.3S11,8.2,10.1,8.2S8.6,8.2,8.6,7.9C8.6,7.7,9.3,7.6,10.1,7.6z"/>
		
			<linearGradient id="SVGID_64_" gradientUnits="userSpaceOnUse" x1="10.1793" y1="12.357" x2="10.1793" y2="11.6608" gradientTransform="matrix(1 0 0 -1 0 19.8898)">
			<stop  offset="0" style="stop-color:#CB863E"/>
			<stop  offset="0.6067" style="stop-color:#D59C5C"/>
		</linearGradient>
		<path class="st78" d="M10.2,7.6c0.8,0,1.5,0.1,1.5,0.3c0,0.2-0.7,0.3-1.5,0.3S8.7,8.1,8.7,7.9C8.7,7.7,9.4,7.6,10.2,7.6z"/>
		
			<linearGradient id="SVGID_65_" gradientUnits="userSpaceOnUse" x1="10.2093" y1="12.3028" x2="10.2093" y2="11.6894" gradientTransform="matrix(1 0 0 -1 0 19.8898)">
			<stop  offset="0" style="stop-color:#CE8840"/>
			<stop  offset="0.6067" style="stop-color:#D9A163"/>
		</linearGradient>
		<path class="st79" d="M10.2,7.7c0.8,0,1.4,0.1,1.4,0.3c0,0.2-0.6,0.3-1.4,0.3c-0.8,0-1.4-0.1-1.4-0.3S9.4,7.7,10.2,7.7z"/>
		
			<linearGradient id="SVGID_66_" gradientUnits="userSpaceOnUse" x1="10.2293" y1="12.2485" x2="10.2293" y2="11.718" gradientTransform="matrix(1 0 0 -1 0 19.8898)">
			<stop  offset="0" style="stop-color:#D18A42"/>
			<stop  offset="0.6067" style="stop-color:#DEA669"/>
		</linearGradient>
		<path class="st80" d="M11.6,7.9c0,0.1-0.6,0.2-1.4,0.2S8.9,8.1,8.9,7.9c0-0.2,0.6-0.2,1.4-0.2C11,7.7,11.6,7.8,11.6,7.9z"/>
		
			<linearGradient id="SVGID_67_" gradientUnits="userSpaceOnUse" x1="10.2593" y1="12.2159" x2="10.2593" y2="11.7376" gradientTransform="matrix(1 0 0 -1 0 19.8898)">
			<stop  offset="0" style="stop-color:#D6944F"/>
			<stop  offset="0.6067" style="stop-color:#E2AC71"/>
		</linearGradient>
		<path class="st81" d="M11.5,7.9c0,0.1-0.6,0.2-1.3,0.2S9,8.1,9,7.9c0-0.2,0.6-0.2,1.3-0.2C11,7.7,11.5,7.8,11.5,7.9z"/>
		
			<linearGradient id="SVGID_68_" gradientUnits="userSpaceOnUse" x1="10.2793" y1="12.1833" x2="10.2793" y2="11.7571" gradientTransform="matrix(1 0 0 -1 0 19.8898)">
			<stop  offset="0" style="stop-color:#DB9D5B"/>
			<stop  offset="0.6067" style="stop-color:#E5B379"/>
		</linearGradient>
		<path class="st82" d="M11.4,7.9c0,0.1-0.5,0.2-1.2,0.2c-0.6,0-1.2,0-1.2-0.2c0-0.1,0.5-0.2,1.2-0.2C10.9,7.8,11.4,7.8,11.4,7.9z"
			/>
		
			<linearGradient id="SVGID_69_" gradientUnits="userSpaceOnUse" x1="10.3093" y1="12.1508" x2="10.3093" y2="11.7767" gradientTransform="matrix(1 0 0 -1 0 19.8898)">
			<stop  offset="0" style="stop-color:#E0A768"/>
			<stop  offset="0.6067" style="stop-color:#E9B982"/>
		</linearGradient>
		<path class="st83" d="M11.4,7.9c0,0.1-0.5,0.2-1.1,0.2s-1.1,0-1.1-0.2s0.5-0.2,1.1-0.2C10.9,7.8,11.4,7.9,11.4,7.9z"/>
		
			<linearGradient id="SVGID_70_" gradientUnits="userSpaceOnUse" x1="10.3293" y1="12.1182" x2="10.3293" y2="11.7963" gradientTransform="matrix(1 0 0 -1 0 19.8898)">
			<stop  offset="0" style="stop-color:#E5B074"/>
			<stop  offset="0.6067" style="stop-color:#EDC08A"/>
		</linearGradient>
		<path class="st84" d="M11.3,7.9c0,0.1-0.4,0.1-1,0.1c-0.5,0-1,0-1-0.1c0-0.1,0.4-0.1,1-0.1C10.9,7.8,11.3,7.9,11.3,7.9z"/>
		
			<linearGradient id="SVGID_71_" gradientUnits="userSpaceOnUse" x1="10.3593" y1="12.0856" x2="10.3593" y2="11.8158" gradientTransform="matrix(1 0 0 -1 0 19.8898)">
			<stop  offset="0" style="stop-color:#EBBA81"/>
			<stop  offset="0.6067" style="stop-color:#F0C692"/>
		</linearGradient>
		<path class="st85" d="M11.2,8c0,0.1-0.4,0.1-0.9,0.1S9.5,8,9.5,8s0.4-0.1,0.9-0.1C10.8,7.8,11.2,7.9,11.2,8z"/>
		
			<linearGradient id="SVGID_72_" gradientUnits="userSpaceOnUse" x1="10.3793" y1="12.053" x2="10.3793" y2="11.8354" gradientTransform="matrix(1 0 0 -1 0 19.8898)">
			<stop  offset="0" style="stop-color:#F0C38D"/>
			<stop  offset="0.6067" style="stop-color:#F4CD9A"/>
		</linearGradient>
		<path class="st86" d="M11.2,8C11.2,8,10.8,8,10.4,8C9.9,8,9.6,8,9.6,8c0-0.1,0.4-0.1,0.8-0.1C10.8,7.9,11.2,7.9,11.2,8z"/>
		
			<linearGradient id="SVGID_73_" gradientUnits="userSpaceOnUse" x1="10.3993" y1="12.0204" x2="10.3993" y2="11.8549" gradientTransform="matrix(1 0 0 -1 0 19.8898)">
			<stop  offset="0" style="stop-color:#F5CD9A"/>
			<stop  offset="0.6067" style="stop-color:#F8D3A3"/>
		</linearGradient>
		<path class="st87" d="M11.1,8c0,0-0.3,0.1-0.7,0.1C10,8,9.7,8,9.7,8c0-0.1,0.3-0.1,0.7-0.1C10.8,7.9,11.1,7.9,11.1,8z"/>
		
			<linearGradient id="SVGID_74_" gradientUnits="userSpaceOnUse" x1="10.4193" y1="11.9878" x2="10.4193" y2="11.8745" gradientTransform="matrix(1 0 0 -1 0 19.8898)">
			<stop  offset="0" style="stop-color:#FAD6A6"/>
			<stop  offset="0.6067" style="stop-color:#FBDAAB"/>
		</linearGradient>
		<path class="st88" d="M11,8C11,8,10.7,8,10.4,8S9.8,8,9.8,8s0.3-0.1,0.6-0.1C10.8,7.9,11,7.9,11,8z"/>
		<path class="st89" d="M10.9,8c0,0-0.2,0-0.5,0c-0.3,0-0.5,0-0.5,0c0,0,0.2,0,0.5,0C10.7,7.9,10.9,8,10.9,8z"/>
	</g>
	
		<radialGradient id="SVGID_75_" cx="-433.0484" cy="13.7269" r="2.068" gradientTransform="matrix(-1 0 0 -1 -422.4121 19.8898)" gradientUnits="userSpaceOnUse">
		<stop  offset="6.180000e-02" style="stop-color:#FFEBBD"/>
		<stop  offset="0.1341" style="stop-color:#F7DEAC"/>
		<stop  offset="0.4196" style="stop-color:#DBAF6E"/>
		<stop  offset="0.6614" style="stop-color:#C68D40"/>
		<stop  offset="0.8474" style="stop-color:#BA7824"/>
		<stop  offset="0.9551" style="stop-color:#B5701A"/>
	</radialGradient>
	<path class="st90" d="M10,3.5c0.1,0.5,0.6,1.1,0.8,1.4c0.3,0.4,0.6,0.8,0.6,1.4C11.4,7,11,7.6,10,7.6C9,7.6,8.6,7,8.6,6.3
		c0-0.6,0.3-0.9,0.6-1.4C9.4,4.6,9.9,3.9,10,3.5z"/>
	
		<radialGradient id="SVGID_76_" cx="10.1688" cy="16.7384" r="0.6814" gradientTransform="matrix(1 0 0 -1 0 19.8898)" gradientUnits="userSpaceOnUse">
		<stop  offset="6.180000e-02" style="stop-color:#FFEBBD"/>
		<stop  offset="0.4386" style="stop-color:#E2BC7E"/>
		<stop  offset="1" style="stop-color:#B5701A"/>
	</radialGradient>
	<path class="st91" d="M10.5,3.3c0,0.3-0.2,0.5-0.5,0.5c-0.3,0-0.5-0.2-0.5-0.5S9.7,2.8,10,2.8C10.3,2.8,10.5,3,10.5,3.3z"/>
</g>
</svg>
