<?xml version="1.0" encoding="utf-8"?>
<!-- Generator: Adobe Illustrator 24.2.3, SVG Export Plug-In . SVG Version: 6.00 Build 0)  -->
<svg version="1.1" id="Layer_1" xmlns="http://www.w3.org/2000/svg" xmlns:xlink="http://www.w3.org/1999/xlink" x="0px" y="0px"
	 viewBox="0 0 20 20" style="enable-background:new 0 0 20 20;" xml:space="preserve">
<style type="text/css">
	.st0{fill:none;}
	.st1{fill-rule:evenodd;clip-rule:evenodd;fill:url(#SVGID_1_);}
	.st2{fill:url(#SVGID_2_);}
	.st3{fill:url(#SVGID_3_);}
	.st4{fill:url(#SVGID_4_);}
	.st5{fill:url(#SVGID_5_);}
	.st6{fill:url(#SVGID_6_);}
	.st7{fill:url(#SVGID_7_);}
	.st8{fill:url(#SVGID_8_);}
	.st9{fill:url(#SVGID_9_);}
	.st10{fill:url(#SVGID_10_);}
	.st11{fill:url(#SVGID_11_);}
	.st12{fill:url(#SVGID_12_);}
	.st13{fill:#3A3937;}
	.st14{fill:#434240;}
	.st15{fill:#4C4B4A;}
	.st16{fill:#555553;}
	.st17{fill:#5E5E5C;}
	.st18{fill:#676766;}
	.st19{fill:#71706F;}
	.st20{fill:#7A7979;}
	.st21{fill:#838282;}
	.st22{fill:#8C8C8B;}
	.st23{fill:#959595;}
	.st24{fill:#9E9E9E;}
	.st25{fill:url(#SVGID_13_);}
	.st26{fill:url(#SVGID_14_);}
	.st27{fill:url(#SVGID_15_);}
	.st28{fill:url(#SVGID_16_);}
	.st29{fill:url(#SVGID_17_);}
	.st30{fill:url(#SVGID_18_);}
	.st31{fill:url(#SVGID_19_);}
	.st32{fill:url(#SVGID_20_);}
	.st33{fill:url(#SVGID_21_);}
	.st34{fill:url(#SVGID_22_);}
	.st35{fill:url(#SVGID_23_);}
	.st36{fill:url(#SVGID_24_);}
	.st37{fill:url(#SVGID_25_);}
	.st38{fill:url(#SVGID_26_);}
	.st39{fill:url(#SVGID_27_);}
	.st40{fill:url(#SVGID_28_);}
	.st41{fill:url(#SVGID_29_);}
	.st42{fill:url(#SVGID_30_);}
	.st43{fill:url(#SVGID_31_);}
	.st44{fill:url(#SVGID_32_);}
	.st45{fill:url(#SVGID_33_);}
	.st46{fill:url(#SVGID_34_);}
	.st47{fill:url(#SVGID_35_);}
	.st48{fill:url(#SVGID_36_);}
	.st49{fill:url(#SVGID_37_);}
	.st50{fill:url(#SVGID_38_);}
	.st51{fill:url(#SVGID_39_);}
	.st52{fill:url(#SVGID_40_);}
	.st53{fill:url(#SVGID_41_);}
	.st54{fill:url(#SVGID_42_);}
	.st55{fill:url(#SVGID_43_);}
	.st56{fill:url(#SVGID_44_);}
	.st57{fill:url(#SVGID_45_);}
	.st58{fill:#1C1B1A;}
	.st59{fill:url(#SVGID_46_);}
	.st60{fill:url(#SVGID_47_);}
	.st61{fill:url(#SVGID_48_);}
	.st62{fill:url(#SVGID_49_);}
	.st63{fill:url(#SVGID_50_);}
	.st64{fill:url(#SVGID_51_);}
	.st65{fill:url(#SVGID_52_);}
	.st66{fill:url(#SVGID_53_);}
	.st67{fill:url(#SVGID_54_);}
	.st68{fill:url(#SVGID_55_);}
	.st69{fill:url(#SVGID_56_);}
	.st70{fill:url(#SVGID_57_);}
	.st71{fill:#1A1917;}
	.st72{fill:url(#SVGID_58_);}
	.st73{fill:url(#SVGID_59_);}
	.st74{fill:url(#SVGID_60_);}
	.st75{fill:url(#SVGID_61_);}
	.st76{fill:url(#SVGID_62_);}
	.st77{fill:url(#SVGID_63_);}
	.st78{fill:url(#SVGID_64_);}
	.st79{fill:url(#SVGID_65_);}
	.st80{fill:url(#SVGID_66_);}
	.st81{fill:url(#SVGID_67_);}
	.st82{fill:url(#SVGID_68_);}
	.st83{fill:url(#SVGID_69_);}
	.st84{fill:url(#SVGID_70_);}
	.st85{fill:url(#SVGID_71_);}
	.st86{fill:url(#SVGID_72_);}
	.st87{fill:url(#SVGID_73_);}
	.st88{fill:url(#SVGID_74_);}
	.st89{fill:#959494;}
	.st90{fill:url(#SVGID_75_);}
	.st91{fill:url(#SVGID_76_);}
	.st92{fill:url(#SVGID_77_);}
	.st93{fill:url(#SVGID_78_);}
	.st94{fill:url(#SVGID_79_);}
</style>
<rect y="0" class="st0" width="20" height="20"/>
<g>
	
		<radialGradient id="SVGID_1_" cx="-560.0771" cy="269.4188" r="5.4614" gradientTransform="matrix(-1 0 0 0.165 -550.0771 -26.0693)" gradientUnits="userSpaceOnUse">
		<stop  offset="0.4213" style="stop-color:#0B0A0A"/>
		<stop  offset="0.4618" style="stop-color:#222121;stop-opacity:0.9233"/>
		<stop  offset="0.5967" style="stop-color:#6A6A6A;stop-opacity:0.668"/>
		<stop  offset="0.7176" style="stop-color:#A4A4A4;stop-opacity:0.4389"/>
		<stop  offset="0.8204" style="stop-color:#CDCDCD;stop-opacity:0.2443"/>
		<stop  offset="0.901" style="stop-color:#E7E7E7;stop-opacity:9.169436e-02"/>
		<stop  offset="0.9494" style="stop-color:#F0F0F0;stop-opacity:0"/>
	</radialGradient>
	<path class="st1" d="M4.6,18.4c0,0.5,2.4,0.9,5.4,0.9c3,0,5.4-0.5,5.4-0.9c0-0.5-2.4-0.9-5.4-0.9C7,17.5,4.6,17.9,4.6,18.4z"/>
	<g>
		
			<linearGradient id="SVGID_2_" gradientUnits="userSpaceOnUse" x1="-560.077" y1="18.6827" x2="-560.077" y2="17.6782" gradientTransform="matrix(-1 0 0 1 -550.0771 0)">
			<stop  offset="5.617980e-03" style="stop-color:#1F1E1D"/>
			<stop  offset="0.4175" style="stop-color:#1C1B1A"/>
			<stop  offset="0.776" style="stop-color:#11100F"/>
			<stop  offset="1" style="stop-color:#060605"/>
		</linearGradient>
		<path class="st2" d="M7.6,17.3c0,0-1.2,0.1-1.2,0.7c0,0.6,1.6,0.9,3.5,0.9s3.8-0.3,3.8-0.9c0-0.6-1.2-0.7-1.2-0.7H7.6z"/>
		
			<linearGradient id="SVGID_3_" gradientUnits="userSpaceOnUse" x1="-623.3631" y1="18.6717" x2="-623.3631" y2="17.7056" gradientTransform="matrix(-0.8182 0 0 1 -500.0701 0)">
			<stop  offset="5.617980e-03" style="stop-color:#21201F"/>
			<stop  offset="0.4415" style="stop-color:#1E1D1C"/>
			<stop  offset="0.821" style="stop-color:#131312"/>
			<stop  offset="1" style="stop-color:#0B0B0A"/>
		</linearGradient>
		<path class="st3" d="M7.6,17.3c0,0-1.2,0.1-1.2,0.6c0,0.5,1.5,0.8,3.4,0.8c1.9,0,3.7-0.3,3.7-0.8c0-0.5-1.2-0.6-1.2-0.6L7.6,17.3z
			"/>
		
			<linearGradient id="SVGID_4_" gradientUnits="userSpaceOnUse" x1="-722.8128" y1="18.6607" x2="-722.8128" y2="17.733" gradientTransform="matrix(-0.6364 0 0 1 -450.0631 0)">
			<stop  offset="5.617980e-03" style="stop-color:#242322"/>
			<stop  offset="0.4507" style="stop-color:#21201F"/>
			<stop  offset="0.8381" style="stop-color:#161615"/>
			<stop  offset="1" style="stop-color:#0F0F0E"/>
		</linearGradient>
		<path class="st4" d="M7.6,17.4c0,0-1.2,0.1-1.2,0.6c0,0.5,1.5,0.8,3.4,0.8c1.9,0,3.6-0.3,3.6-0.8c0-0.5-1.2-0.6-1.2-0.6L7.6,17.4z
			"/>
		
			<linearGradient id="SVGID_5_" gradientUnits="userSpaceOnUse" x1="-901.8223" y1="18.6498" x2="-901.8223" y2="17.7604" gradientTransform="matrix(-0.4545 0 0 1 -400.0561 0)">
			<stop  offset="5.617980e-03" style="stop-color:#262524"/>
			<stop  offset="0.4823" style="stop-color:#232221"/>
			<stop  offset="0.8973" style="stop-color:#181817"/>
			<stop  offset="1" style="stop-color:#141413"/>
		</linearGradient>
		<path class="st5" d="M7.6,17.4c0,0-1.1,0.1-1.2,0.6c0,0.5,1.5,0.8,3.3,0.8c1.8,0,3.5-0.2,3.5-0.7c0-0.5-1.2-0.6-1.2-0.6L7.6,17.4z
			"/>
		
			<linearGradient id="SVGID_6_" gradientUnits="userSpaceOnUse" x1="-1319.511" y1="18.639" x2="-1319.511" y2="17.7878" gradientTransform="matrix(-0.2727 0 0 1 -350.0491 0)">
			<stop  offset="5.617980e-03" style="stop-color:#292826"/>
			<stop  offset="0.5078" style="stop-color:#262523"/>
			<stop  offset="0.9452" style="stop-color:#1B1B19"/>
			<stop  offset="1" style="stop-color:#191917"/>
		</linearGradient>
		<path class="st6" d="M7.7,17.5c0,0-1.1,0.1-1.1,0.6c0,0.5,1.4,0.7,3.2,0.7c1.8,0,3.4-0.2,3.4-0.7c0-0.5-1.1-0.6-1.1-0.6L7.7,17.5z
			"/>
		
			<linearGradient id="SVGID_7_" gradientUnits="userSpaceOnUse" x1="-3407.9546" y1="18.6282" x2="-3407.9546" y2="17.8152" gradientTransform="matrix(-9.090909e-02 0 0 1 -300.0421 0)">
			<stop  offset="5.617980e-03" style="stop-color:#2B2A29"/>
			<stop  offset="0.5565" style="stop-color:#282726"/>
			<stop  offset="1" style="stop-color:#1E1D1C"/>
		</linearGradient>
		<path class="st7" d="M7.7,17.5c0,0-1.1,0.1-1.1,0.5c0,0.4,1.4,0.7,3.1,0.7c1.7,0,3.3-0.2,3.3-0.7c0-0.4-1.1-0.5-1.1-0.5L7.7,17.5z
			"/>
		
			<linearGradient id="SVGID_8_" gradientUnits="userSpaceOnUse" x1="2857.376" y1="18.6174" x2="2857.376" y2="17.8427" gradientTransform="matrix(9.090909e-02 0 0 1 -250.035 0)">
			<stop  offset="5.617980e-03" style="stop-color:#2E2D2B"/>
			<stop  offset="0.5765" style="stop-color:#2B2A28"/>
			<stop  offset="1" style="stop-color:#222220"/>
		</linearGradient>
		<path class="st8" d="M7.7,17.5c0,0-1,0.1-1.1,0.5c0,0.4,1.3,0.7,3,0.7c1.7,0,3.2-0.2,3.2-0.6c0-0.4-1.1-0.5-1.1-0.5L7.7,17.5z"/>
		
			<linearGradient id="SVGID_9_" gradientUnits="userSpaceOnUse" x1="768.9326" y1="18.6068" x2="768.9326" y2="17.8701" gradientTransform="matrix(0.2727 0 0 1 -200.028 0)">
			<stop  offset="5.617980e-03" style="stop-color:#302F2E"/>
			<stop  offset="0.6545" style="stop-color:#2D2C2B"/>
			<stop  offset="1" style="stop-color:#272625"/>
		</linearGradient>
		<path class="st9" d="M7.7,17.6c0,0-1,0.1-1,0.5c0,0.4,1.3,0.6,2.9,0.6c1.6,0,3.1-0.2,3.1-0.6c0-0.4-1-0.5-1-0.5L7.7,17.6z"/>
		
			<linearGradient id="SVGID_10_" gradientUnits="userSpaceOnUse" x1="351.2439" y1="18.5962" x2="351.2439" y2="17.8976" gradientTransform="matrix(0.4545 0 0 1 -150.021 0)">
			<stop  offset="5.617980e-03" style="stop-color:#333230"/>
			<stop  offset="0.7313" style="stop-color:#302F2D"/>
			<stop  offset="1" style="stop-color:#2C2B29"/>
		</linearGradient>
		<path class="st10" d="M7.7,17.6c0,0-1,0.1-1,0.4c0,0.4,1.2,0.6,2.8,0.6c1.6,0,3-0.2,3-0.5c0-0.4-1-0.5-1-0.5L7.7,17.6z"/>
		
			<linearGradient id="SVGID_11_" gradientUnits="userSpaceOnUse" x1="172.2344" y1="18.5857" x2="172.2344" y2="17.9251" gradientTransform="matrix(0.6364 0 0 1 -100.014 0)">
			<stop  offset="5.617980e-03" style="stop-color:#353432"/>
			<stop  offset="0.9366" style="stop-color:#32312F"/>
			<stop  offset="1" style="stop-color:#31302E"/>
		</linearGradient>
		<path class="st11" d="M7.7,17.7c0,0-0.9,0.1-1,0.4c0,0.4,1.2,0.6,2.7,0.6c1.5,0,2.9-0.1,2.9-0.5c0-0.4-1-0.4-1-0.4L7.7,17.7z"/>
		
			<linearGradient id="SVGID_12_" gradientUnits="userSpaceOnUse" x1="72.7847" y1="18.5754" x2="72.7847" y2="17.9527" gradientTransform="matrix(0.8182 0 0 1 -50.007 0)">
			<stop  offset="5.617980e-03" style="stop-color:#383735"/>
			<stop  offset="1" style="stop-color:#353432"/>
		</linearGradient>
		<path class="st12" d="M7.8,17.7c0,0-0.9,0.1-0.9,0.4c0,0.3,1.2,0.5,2.6,0.6c1.5,0,2.8-0.1,2.8-0.5c0-0.3-0.9-0.4-0.9-0.4L7.8,17.7
			z"/>
		<path class="st13" d="M7.8,17.8c0,0-0.9,0-0.9,0.4c0,0.3,1.1,0.5,2.5,0.5c1.4,0,2.7-0.1,2.7-0.4c0-0.3-0.9-0.4-0.9-0.4L7.8,17.8z"
			/>
		<path class="st14" d="M7.9,17.8c0,0,3.2,0.1,3.2,0.1c0,0,0.8,0.1,0.8,0.4c0,0.1-0.3,0.2-0.7,0.3c-0.5,0.1-1.2,0.1-1.9,0.1
			c-0.7,0-1.3-0.1-1.7-0.2C7.3,18.4,7,18.3,7,18.1C7,17.8,7.8,17.8,7.9,17.8z"/>
		<path class="st15" d="M7.9,17.8c0,0,3,0.1,3,0.1c0,0,0.8,0.1,0.8,0.3c0,0.1-0.2,0.2-0.6,0.3c-0.4,0.1-1.1,0.1-1.8,0.1
			c-0.6,0-1.2-0.1-1.6-0.1c-0.4-0.1-0.6-0.2-0.6-0.3C7.2,17.9,7.9,17.8,7.9,17.8z"/>
		<path class="st16" d="M8,17.9c0,0,2.7,0,2.8,0.1c0,0,0.7,0.1,0.7,0.3c0,0.1-0.2,0.2-0.6,0.2c-0.4,0.1-1,0.1-1.6,0.1
			c-0.6,0-1.1-0.1-1.5-0.1c-0.4-0.1-0.6-0.2-0.6-0.3C7.3,17.9,8,17.9,8,17.9z"/>
		<path class="st17" d="M8.1,17.9c0.1,0,2.5,0,2.6,0c0.1,0,0.6,0.1,0.7,0.3c0,0.1-0.2,0.2-0.5,0.2c-0.4,0.1-0.9,0.1-1.5,0.1
			c-0.5,0-1,0-1.3-0.1c-0.3-0.1-0.5-0.1-0.5-0.2C7.5,18,8,17.9,8.1,17.9z"/>
		<path class="st18" d="M8.2,18c0.1,0,2.3,0,2.3,0c0.1,0,0.6,0.1,0.6,0.2c0,0.1-0.2,0.1-0.5,0.2c-0.3,0.1-0.8,0.1-1.3,0.1
			c-0.5,0-0.9,0-1.2-0.1c-0.3-0.1-0.5-0.1-0.5-0.2C7.6,18,8.1,18,8.2,18z"/>
		<path class="st19" d="M8.3,18c0.1,0,2,0,2.1,0c0.1,0,0.5,0.1,0.5,0.2c0,0.1-0.2,0.1-0.4,0.2c-0.3,0-0.8,0.1-1.2,0.1
			c-0.4,0-0.8,0-1.1-0.1c-0.3,0-0.4-0.1-0.4-0.2C7.8,18.1,8.2,18,8.3,18z"/>
		<path class="st20" d="M8.3,18.1c0.1,0,1.8,0,1.9,0c0.1,0,0.5,0.1,0.5,0.2c0,0.1-0.2,0.1-0.4,0.1c-0.3,0-0.7,0.1-1.1,0.1
			c-0.4,0-0.7,0-1-0.1c-0.2,0-0.4-0.1-0.4-0.2C7.9,18.1,8.3,18.1,8.3,18.1z"/>
		<path class="st21" d="M8.4,18.1c0.1,0,1.5,0,1.7,0c0.1,0,0.4,0.1,0.4,0.1c0,0.1-0.2,0.1-0.3,0.1c-0.2,0-0.6,0-0.9,0
			c-0.3,0-0.6,0-0.8-0.1c-0.2,0-0.3-0.1-0.4-0.1C8,18.1,8.3,18.1,8.4,18.1z"/>
		<path class="st22" d="M8.5,18.1c0.1,0,1.3,0,1.4,0c0.1,0,0.3,0,0.4,0.1c0,0-0.1,0.1-0.3,0.1c-0.2,0-0.5,0-0.8,0
			c-0.3,0-0.5,0-0.7,0c-0.2,0-0.3-0.1-0.3-0.1C8.2,18.2,8.4,18.2,8.5,18.1z"/>
		<path class="st23" d="M8.6,18.2c0.2,0,1.1,0,1.2,0c0.1,0,0.3,0,0.3,0.1c0,0-0.1,0.1-0.3,0.1c-0.2,0-0.4,0-0.7,0
			c-0.2,0-0.4,0-0.6,0c-0.1,0-0.2,0-0.3-0.1C8.3,18.2,8.5,18.2,8.6,18.2z"/>
		<path class="st24" d="M9.7,18.2c0.1,0,0.2,0,0.2,0C9.9,18.3,9.8,18.3,9.7,18.2c-0.2,0.1-0.7,0.1-1,0.1c-0.1,0-0.2,0-0.2,0
			c0,0,0.1,0,0.2,0C8.8,18.2,9.5,18.2,9.7,18.2z"/>
	</g>
	<g>
		
			<linearGradient id="SVGID_13_" gradientUnits="userSpaceOnUse" x1="-558.5801" y1="16.79" x2="-563.2461" y2="16.79" gradientTransform="matrix(-1 0 0 1 -550.0771 0)">
			<stop  offset="5.617980e-03" style="stop-color:#21201E"/>
			<stop  offset="0.4035" style="stop-color:#1E1D1B"/>
			<stop  offset="0.75" style="stop-color:#131211"/>
			<stop  offset="1" style="stop-color:#060606"/>
		</linearGradient>
		<path class="st25" d="M8,15.9c0,0-1,0.1-1,0.8c0,0.7,1,0.9,1.6,0.9c0.8,0.1,2.1,0.1,2.9,0c0.6-0.1,1.6-0.3,1.6-0.9
			c0-0.7-1-0.8-1-0.8H8z"/>
		
			<linearGradient id="SVGID_14_" gradientUnits="userSpaceOnUse" x1="-558.642" y1="16.7906" x2="-563.0677" y2="16.7937" gradientTransform="matrix(-1 0 0 1 -550.0771 0)">
			<stop  offset="5.617980e-03" style="stop-color:#262523"/>
			<stop  offset="0.4103" style="stop-color:#232220"/>
			<stop  offset="0.7625" style="stop-color:#181716"/>
			<stop  offset="1" style="stop-color:#0C0B0B"/>
		</linearGradient>
		<path class="st26" d="M11.9,15.9c0,0,1,0.2,1,0.8c0,0.6-0.9,0.8-1.5,0.9c-0.8,0.1-2,0.1-2.8,0C8,17.5,7,17.3,7,16.7
			c0-0.6,1-0.8,1-0.8C8,15.9,11.8,15.9,11.9,15.9z"/>
		
			<linearGradient id="SVGID_15_" gradientUnits="userSpaceOnUse" x1="-558.7037" y1="16.7873" x2="-562.8937" y2="16.7933" gradientTransform="matrix(-1 0 0 1 -550.0771 0)">
			<stop  offset="5.617980e-03" style="stop-color:#2B2A28"/>
			<stop  offset="0.4103" style="stop-color:#282725"/>
			<stop  offset="0.7625" style="stop-color:#1D1C1C"/>
			<stop  offset="1" style="stop-color:#111111"/>
		</linearGradient>
		<path class="st27" d="M11.8,16c0.1,0,0.9,0.2,1,0.7c0,0.6-0.9,0.8-1.4,0.8c-0.8,0.1-2,0.1-2.8,0c-0.5-0.1-1.4-0.2-1.4-0.8
			C7.1,16.2,8,16,8,16C8.1,16,11.7,16,11.8,16z"/>
		
			<linearGradient id="SVGID_16_" gradientUnits="userSpaceOnUse" x1="-558.7654" y1="16.7803" x2="-562.7241" y2="16.7886" gradientTransform="matrix(-1 0 0 1 -550.0771 0)">
			<stop  offset="5.617980e-03" style="stop-color:#302F2D"/>
			<stop  offset="0.4175" style="stop-color:#2D2C2A"/>
			<stop  offset="0.776" style="stop-color:#222120"/>
			<stop  offset="1" style="stop-color:#171616"/>
		</linearGradient>
		<path class="st28" d="M11.6,16.1c0.1,0,0.9,0.2,0.9,0.7c0,0.5-0.8,0.7-1.3,0.8c-0.8,0.1-2,0.1-2.7,0c-0.5-0.1-1.3-0.2-1.3-0.8
			c0-0.5,0.8-0.6,0.9-0.7C8.2,16,11.5,16,11.6,16.1z"/>
		
			<linearGradient id="SVGID_17_" gradientUnits="userSpaceOnUse" x1="-558.8271" y1="16.7694" x2="-562.5585" y2="16.7799" gradientTransform="matrix(-1 0 0 1 -550.0771 0)">
			<stop  offset="5.617980e-03" style="stop-color:#353432"/>
			<stop  offset="0.4175" style="stop-color:#32312F"/>
			<stop  offset="0.776" style="stop-color:#272625"/>
			<stop  offset="1" style="stop-color:#1C1C1B"/>
		</linearGradient>
		<path class="st29" d="M11.5,16.1c0.1,0,0.8,0.2,0.9,0.6c0,0.5-0.7,0.6-1.2,0.7c-0.7,0.1-1.9,0.1-2.7,0c-0.5-0.1-1.2-0.2-1.2-0.7
			c0-0.4,0.7-0.6,0.8-0.6C8.2,16.1,11.3,16.1,11.5,16.1z"/>
		
			<linearGradient id="SVGID_18_" gradientUnits="userSpaceOnUse" x1="-558.8414" y1="16.806" x2="-562.3499" y2="16.8184" gradientTransform="matrix(-1 0 0 1 -550.0771 0)">
			<stop  offset="5.617980e-03" style="stop-color:#3A3937"/>
			<stop  offset="0.425" style="stop-color:#373634"/>
			<stop  offset="0.79" style="stop-color:#2C2B2A"/>
			<stop  offset="1" style="stop-color:#222121"/>
		</linearGradient>
		<path class="st30" d="M11.4,16.2c0.2,0,0.8,0.2,0.8,0.6c0,0.4-0.7,0.6-1.1,0.6c-0.7,0.1-1.9,0.1-2.6,0c-0.4-0.1-1.1-0.2-1.1-0.6
			c0-0.4,0.6-0.5,0.8-0.6C8.3,16.1,11.2,16.1,11.4,16.2z"/>
		
			<linearGradient id="SVGID_19_" gradientUnits="userSpaceOnUse" x1="-558.8823" y1="16.8102" x2="-562.1718" y2="16.8241" gradientTransform="matrix(-1 0 0 1 -550.0771 0)">
			<stop  offset="5.617980e-03" style="stop-color:#3F3E3C"/>
			<stop  offset="0.425" style="stop-color:#3C3B39"/>
			<stop  offset="0.79" style="stop-color:#31302F"/>
			<stop  offset="1" style="stop-color:#272726"/>
		</linearGradient>
		<path class="st31" d="M11.2,16.2c0.2,0.1,0.8,0.2,0.8,0.5c-0.1,0.4-0.6,0.5-1,0.6c-0.7,0.1-1.9,0.1-2.6,0c-0.4-0.1-1-0.2-1-0.6
			c0-0.3,0.5-0.4,0.7-0.5C8.4,16.1,11,16.2,11.2,16.2z"/>
		
			<linearGradient id="SVGID_20_" gradientUnits="userSpaceOnUse" x1="-558.9193" y1="16.8148" x2="-561.9943" y2="16.83" gradientTransform="matrix(-1 0 0 1 -550.0771 0)">
			<stop  offset="5.617980e-03" style="stop-color:#444341"/>
			<stop  offset="0.433" style="stop-color:#41403E"/>
			<stop  offset="0.805" style="stop-color:#363534"/>
			<stop  offset="1" style="stop-color:#2D2C2C"/>
		</linearGradient>
		<path class="st32" d="M11.1,16.3c0.2,0.1,0.7,0.2,0.7,0.5c-0.1,0.3-0.5,0.4-0.9,0.5c-0.7,0.1-1.8,0.1-2.5,0
			c-0.4-0.1-0.8-0.2-0.9-0.5c0-0.3,0.5-0.4,0.7-0.5C8.4,16.2,10.9,16.2,11.1,16.3z"/>
		
			<linearGradient id="SVGID_21_" gradientUnits="userSpaceOnUse" x1="-558.9525" y1="16.8199" x2="-561.817" y2="16.8361" gradientTransform="matrix(-1 0 0 1 -550.0771 0)">
			<stop  offset="5.617980e-03" style="stop-color:#494846"/>
			<stop  offset="0.433" style="stop-color:#464543"/>
			<stop  offset="0.805" style="stop-color:#3B3B39"/>
			<stop  offset="1" style="stop-color:#323231"/>
		</linearGradient>
		<path class="st33" d="M11,16.3c0.2,0.1,0.7,0.2,0.7,0.4c-0.1,0.3-0.5,0.4-0.8,0.5c-0.7,0.2-1.8,0.2-2.5,0
			c-0.3-0.1-0.7-0.2-0.8-0.5c0-0.2,0.4-0.3,0.6-0.4C8.5,16.2,10.7,16.3,11,16.3z"/>
		
			<linearGradient id="SVGID_22_" gradientUnits="userSpaceOnUse" x1="-558.982" y1="16.8257" x2="-561.6402" y2="16.8426" gradientTransform="matrix(-1 0 0 1 -550.0771 0)">
			<stop  offset="5.617980e-03" style="stop-color:#4E4D4B"/>
			<stop  offset="0.4415" style="stop-color:#4B4A48"/>
			<stop  offset="0.821" style="stop-color:#403F3E"/>
			<stop  offset="1" style="stop-color:#383736"/>
		</linearGradient>
		<path class="st34" d="M10.9,16.4c0.3,0.1,0.6,0.3,0.7,0.4c-0.1,0.2-0.4,0.3-0.7,0.4c-0.7,0.2-1.8,0.2-2.4,0
			c-0.3-0.1-0.6-0.2-0.7-0.4c0-0.1,0.3-0.2,0.6-0.4C8.5,16.3,10.5,16.3,10.9,16.4z"/>
		
			<linearGradient id="SVGID_23_" gradientUnits="userSpaceOnUse" x1="-559.0076" y1="16.8321" x2="-561.4638" y2="16.8495" gradientTransform="matrix(-1 0 0 1 -550.0771 0)">
			<stop  offset="5.617980e-03" style="stop-color:#535250"/>
			<stop  offset="0.4415" style="stop-color:#504F4D"/>
			<stop  offset="0.821" style="stop-color:#454543"/>
			<stop  offset="1" style="stop-color:#3D3D3C"/>
		</linearGradient>
		<path class="st35" d="M10.7,16.5c0.3,0.1,0.6,0.3,0.6,0.3c-0.1,0.2-0.3,0.3-0.6,0.4c-0.7,0.2-1.7,0.2-2.4,0
			c-0.3-0.1-0.5-0.2-0.6-0.4c0-0.1,0.2-0.2,0.5-0.3C8.6,16.3,10.4,16.3,10.7,16.5z"/>
		
			<linearGradient id="SVGID_24_" gradientUnits="userSpaceOnUse" x1="-559.0294" y1="16.8397" x2="-561.2877" y2="16.8572" gradientTransform="matrix(-1 0 0 1 -550.0771 0)">
			<stop  offset="5.617980e-03" style="stop-color:#585755"/>
			<stop  offset="0.4507" style="stop-color:#555452"/>
			<stop  offset="0.8381" style="stop-color:#4A4948"/>
			<stop  offset="1" style="stop-color:#434241"/>
		</linearGradient>
		<path class="st36" d="M10.6,16.5c0.3,0.1,0.5,0.3,0.6,0.3c-0.1,0.1-0.3,0.2-0.5,0.3c-0.6,0.2-1.7,0.2-2.3,0
			C8.1,17,7.9,17,7.8,16.8c0,0,0.1-0.1,0.5-0.3C8.7,16.4,10.2,16.4,10.6,16.5z"/>
		
			<linearGradient id="SVGID_25_" gradientUnits="userSpaceOnUse" x1="-622.1394" y1="16.84" x2="-624.756" y2="16.8603" gradientTransform="matrix(-0.8182 0 0 1 -500.0701 0)">
			<stop  offset="5.617980e-03" style="stop-color:#5E5D5C"/>
			<stop  offset="0.4709" style="stop-color:#5B5A59"/>
			<stop  offset="0.8761" style="stop-color:#504F4E"/>
			<stop  offset="1" style="stop-color:#4B4A49"/>
		</linearGradient>
		<path class="st37" d="M10.5,16.5c0.3,0.1,0.5,0.3,0.5,0.3c-0.1,0.1-0.3,0.2-0.5,0.3c-0.6,0.2-1.6,0.2-2.2,0C8.1,17,8,17,7.9,16.8
			c0,0,0.1-0.1,0.5-0.3C8.7,16.4,10.1,16.4,10.5,16.5z"/>
		
			<linearGradient id="SVGID_26_" gradientUnits="userSpaceOnUse" x1="-721.3122" y1="16.84" x2="-724.4919" y2="16.8647" gradientTransform="matrix(-0.6364 0 0 1 -450.0631 0)">
			<stop  offset="5.617980e-03" style="stop-color:#656462"/>
			<stop  offset="0.4946" style="stop-color:#62615F"/>
			<stop  offset="0.9202" style="stop-color:#575655"/>
			<stop  offset="1" style="stop-color:#545352"/>
		</linearGradient>
		<path class="st38" d="M10.4,16.6c0.3,0.1,0.5,0.2,0.5,0.3c-0.1,0.1-0.2,0.2-0.5,0.3c-0.6,0.2-1.5,0.2-2.1,0
			C8.2,17,8,16.9,7.9,16.8c0,0,0.1-0.1,0.4-0.2C8.7,16.4,10.1,16.5,10.4,16.6z"/>
		
			<linearGradient id="SVGID_27_" gradientUnits="userSpaceOnUse" x1="-899.8232" y1="16.8391" x2="-904.0164" y2="16.8717" gradientTransform="matrix(-0.4545 0 0 1 -400.0561 0)">
			<stop  offset="5.617980e-03" style="stop-color:#6B6A69"/>
			<stop  offset="0.5225" style="stop-color:#686766"/>
			<stop  offset="0.9726" style="stop-color:#5D5C5B"/>
			<stop  offset="1" style="stop-color:#5C5B5A"/>
		</linearGradient>
		<path class="st39" d="M10.4,16.6c0.3,0.1,0.5,0.2,0.5,0.2c-0.1,0.1-0.2,0.2-0.4,0.2c-0.5,0.2-1.4,0.2-2,0C8.2,17,8.1,16.9,8,16.8
			c0,0,0.1-0.1,0.4-0.2C8.7,16.5,10,16.5,10.4,16.6z"/>
		
			<linearGradient id="SVGID_28_" gradientUnits="userSpaceOnUse" x1="-1316.3489" y1="16.8356" x2="-1322.9069" y2="16.8865" gradientTransform="matrix(-0.2727 0 0 1 -350.0491 0)">
			<stop  offset="5.617980e-03" style="stop-color:#717170"/>
			<stop  offset="0.5386" style="stop-color:#6E6E6D"/>
			<stop  offset="1" style="stop-color:#646363"/>
		</linearGradient>
		<path class="st40" d="M10.3,16.6c0.3,0.1,0.4,0.2,0.4,0.2c-0.1,0.1-0.2,0.1-0.4,0.2c-0.5,0.1-1.3,0.1-1.9,0
			c-0.2-0.1-0.3-0.1-0.4-0.2c0,0,0.1-0.1,0.4-0.2C8.7,16.5,9.9,16.5,10.3,16.6z"/>
		
			<linearGradient id="SVGID_29_" gradientUnits="userSpaceOnUse" x1="-3398.9773" y1="16.8115" x2="-3417.3596" y2="16.9544" gradientTransform="matrix(-9.090909e-02 0 0 1 -300.0421 0)">
			<stop  offset="5.617980e-03" style="stop-color:#787776"/>
			<stop  offset="0.5765" style="stop-color:#757473"/>
			<stop  offset="1" style="stop-color:#6C6C6B"/>
		</linearGradient>
		<path class="st41" d="M10.2,16.6c0.2,0.1,0.4,0.2,0.4,0.2c-0.1,0.1-0.2,0.1-0.4,0.2c-0.5,0.1-1.3,0.1-1.7,0
			c-0.2,0-0.3-0.1-0.4-0.2c0,0,0.1-0.1,0.4-0.2C8.7,16.5,9.9,16.6,10.2,16.6z"/>
		
			<linearGradient id="SVGID_30_" gradientUnits="userSpaceOnUse" x1="2857.1099" y1="16.8117" x2="2840.0195" y2="16.9445" gradientTransform="matrix(9.090909e-02 0 0 1 -250.035 0)">
			<stop  offset="5.617980e-03" style="stop-color:#7E7E7D"/>
			<stop  offset="0.6247" style="stop-color:#7B7B7A"/>
			<stop  offset="1" style="stop-color:#757474"/>
		</linearGradient>
		<path class="st42" d="M10.1,16.7c0.2,0.1,0.4,0.2,0.4,0.2c-0.1,0.1-0.2,0.1-0.3,0.2c-0.4,0.1-1.2,0.1-1.6,0
			c-0.2,0-0.3-0.1-0.4-0.2c0,0,0.1-0.1,0.3-0.2C8.8,16.6,9.8,16.6,10.1,16.7z"/>
		
			<linearGradient id="SVGID_31_" gradientUnits="userSpaceOnUse" x1="768.8068" y1="16.8393" x2="763.5406" y2="16.8802" gradientTransform="matrix(0.2727 0 0 1 -200.028 0)">
			<stop  offset="5.617980e-03" style="stop-color:#858483"/>
			<stop  offset="0.6894" style="stop-color:#828180"/>
			<stop  offset="1" style="stop-color:#7D7D7C"/>
		</linearGradient>
		<path class="st43" d="M10,16.7c0.2,0,0.3,0.1,0.4,0.1c-0.1,0.1-0.2,0.1-0.3,0.1c-0.4,0.1-1.1,0.1-1.5,0c-0.2,0-0.2-0.1-0.3-0.1
			c0,0,0.1-0.1,0.3-0.1C8.8,16.6,9.7,16.6,10,16.7z"/>
		
			<linearGradient id="SVGID_32_" gradientUnits="userSpaceOnUse" x1="351.1462" y1="16.8454" x2="348.2448" y2="16.8679" gradientTransform="matrix(0.4545 0 0 1 -150.021 0)">
			<stop  offset="5.617980e-03" style="stop-color:#8B8B8A"/>
			<stop  offset="0.7829" style="stop-color:#888887"/>
			<stop  offset="1" style="stop-color:#858585"/>
		</linearGradient>
		<path class="st44" d="M9.9,16.7c0.2,0,0.3,0.1,0.3,0.1c-0.1,0.1-0.2,0.1-0.3,0.1C9.6,17,9,17,8.6,17c-0.1,0-0.2-0.1-0.3-0.1
			c0,0,0.1,0,0.3-0.1C8.8,16.7,9.7,16.7,9.9,16.7z"/>
		
			<linearGradient id="SVGID_33_" gradientUnits="userSpaceOnUse" x1="172.1488" y1="16.8485" x2="170.2609" y2="16.8632" gradientTransform="matrix(0.6364 0 0 1 -100.014 0)">
			<stop  offset="5.617980e-03" style="stop-color:#919191"/>
			<stop  offset="0.9366" style="stop-color:#8E8E8E"/>
			<stop  offset="1" style="stop-color:#8D8D8D"/>
		</linearGradient>
		<path class="st45" d="M9.8,16.8c0.2,0,0.3,0.1,0.3,0.1c-0.1,0-0.1,0.1-0.3,0.1C9.5,17,9,17,8.6,16.9c-0.1,0-0.2,0-0.3-0.1
			c0,0,0.1,0,0.3-0.1C8.8,16.7,9.6,16.7,9.8,16.8z"/>
		
			<linearGradient id="SVGID_34_" gradientUnits="userSpaceOnUse" x1="72.7058" y1="16.8506" x2="71.381" y2="16.8609" gradientTransform="matrix(0.8182 0 0 1 -50.007 0)">
			<stop  offset="5.617980e-03" style="stop-color:#989897"/>
			<stop  offset="1" style="stop-color:#969696"/>
		</linearGradient>
		<path class="st46" d="M9.8,16.8c0.2,0,0.3,0.1,0.3,0.1c-0.1,0-0.1,0-0.2,0.1c-0.3,0-0.8,0-1.1,0c-0.1,0-0.2,0-0.2-0.1
			c0,0,0.1,0,0.2-0.1C8.8,16.7,9.6,16.7,9.8,16.8z"/>
		<path class="st24" d="M9.7,16.8c0.1,0,0.2,0,0.2,0C9.9,16.9,9.8,16.9,9.7,16.8c-0.2,0.1-0.7,0.1-1,0.1c-0.1,0-0.2,0-0.2,0
			c0,0,0.1,0,0.2,0C8.8,16.8,9.5,16.8,9.7,16.8z"/>
	</g>
	<g>
		
			<linearGradient id="SVGID_35_" gradientUnits="userSpaceOnUse" x1="-559.2567" y1="15.6198" x2="-562.5617" y2="15.3606" gradientTransform="matrix(-1 0 0 1 -550.0771 0)">
			<stop  offset="5.617980e-03" style="stop-color:#1F1E1D"/>
			<stop  offset="0.4175" style="stop-color:#1C1B1A"/>
			<stop  offset="0.776" style="stop-color:#11100F"/>
			<stop  offset="1" style="stop-color:#060605"/>
		</linearGradient>
		<path class="st47" d="M8.8,15c0,0-0.8,0-1,0.4c-0.1,0.2-0.1,0.3,0,0.4C7.9,15.9,8,16,8.1,16c0.2,0,0.8,0.2,1.9,0.2
			c1.1,0,1.7-0.1,1.9-0.2c0.1,0,0.2-0.1,0.3-0.2s0.1-0.2,0-0.4c-0.2-0.4-1-0.4-1-0.4H8.8z"/>
		
			<linearGradient id="SVGID_36_" gradientUnits="userSpaceOnUse" x1="-622.4109" y1="15.6419" x2="-626.1518" y2="15.3485" gradientTransform="matrix(-0.8182 0 0 1 -500.0701 0)">
			<stop  offset="5.617980e-03" style="stop-color:#2B2A29"/>
			<stop  offset="0.433" style="stop-color:#282726"/>
			<stop  offset="0.805" style="stop-color:#1D1D1C"/>
			<stop  offset="1" style="stop-color:#141413"/>
		</linearGradient>
		<path class="st48" d="M7.9,15.4c-0.1,0.2-0.1,0.3,0,0.4C8,15.9,8.1,16,8.2,16c0.2,0,0.8,0.2,1.8,0.2c1,0,1.6-0.1,1.8-0.2
			c0,0,0,0,0.1,0c0.1,0,0.1-0.1,0.2-0.1c0.1-0.1,0.1-0.2,0-0.4c-0.2-0.4-0.9-0.4-0.9-0.4c0,0-1.1,0-1.1,0c0,0-1,0-1,0
			C8.9,15.1,8.1,15.1,7.9,15.4z"/>
		
			<linearGradient id="SVGID_37_" gradientUnits="userSpaceOnUse" x1="-721.6531" y1="15.6702" x2="-726.0799" y2="15.323" gradientTransform="matrix(-0.6364 0 0 1 -450.0631 0)">
			<stop  offset="5.617980e-03" style="stop-color:#363534"/>
			<stop  offset="0.4605" style="stop-color:#333231"/>
			<stop  offset="0.8564" style="stop-color:#282827"/>
			<stop  offset="1" style="stop-color:#222221"/>
		</linearGradient>
		<path class="st49" d="M8,15.4c-0.1,0.2-0.1,0.3,0,0.4c0.1,0.1,0.2,0.1,0.2,0.2c0.1,0,0.7,0.1,1.6,0.1c0.9,0,1.5-0.1,1.6-0.1
			c0,0,0,0,0.1,0c0.1,0,0.1-0.1,0.1-0.1c0.1-0.1,0.1-0.2,0-0.4c-0.2-0.3-0.8-0.3-0.8-0.3c0,0-1,0-1,0c0,0-0.9,0-0.9,0
			C8.9,15.1,8.2,15.1,8,15.4z"/>
		
			<linearGradient id="SVGID_38_" gradientUnits="userSpaceOnUse" x1="-900.2886" y1="15.7128" x2="-905.952" y2="15.2686" gradientTransform="matrix(-0.4545 0 0 1 -400.0561 0)">
			<stop  offset="5.617980e-03" style="stop-color:#424140"/>
			<stop  offset="0.4709" style="stop-color:#3F3E3D"/>
			<stop  offset="0.8761" style="stop-color:#343433"/>
			<stop  offset="1" style="stop-color:#2F2F2F"/>
		</linearGradient>
		<path class="st50" d="M8.1,15.5c-0.1,0.1-0.1,0.3-0.1,0.3c0.1,0.1,0.2,0.1,0.2,0.1c0.1,0,0.6,0.1,1.5,0.1c0.9,0,1.4-0.1,1.5-0.1
			c0,0,0,0,0.1,0c0,0,0.1-0.1,0.1-0.1c0-0.1,0-0.2,0-0.3c-0.2-0.3-0.7-0.3-0.8-0.3c0,0-0.9,0-0.9,0c0,0-0.8,0-0.9,0
			C8.9,15.2,8.3,15.2,8.1,15.5z"/>
		
			<linearGradient id="SVGID_39_" gradientUnits="userSpaceOnUse" x1="-1317.1033" y1="15.7969" x2="-1325.6564" y2="15.1261" gradientTransform="matrix(-0.2727 0 0 1 -350.0491 0)">
			<stop  offset="5.617980e-03" style="stop-color:#4D4D4C"/>
			<stop  offset="0.5078" style="stop-color:#4A4A49"/>
			<stop  offset="0.9452" style="stop-color:#3F3F3F"/>
			<stop  offset="1" style="stop-color:#3D3D3D"/>
		</linearGradient>
		<path class="st51" d="M8.2,15.5c-0.1,0.1-0.1,0.2-0.1,0.3c0.1,0.1,0.2,0.1,0.2,0.1C8.5,15.9,9,16,9.8,16c0.8,0,1.2-0.1,1.4-0.1
			c0,0,0,0,0.1,0c0,0,0.1-0.1,0.1-0.1c0-0.1,0-0.2,0-0.3c-0.1-0.2-0.7-0.3-0.7-0.3c0,0-0.8,0-0.8,0c0,0-0.8,0-0.8,0
			C8.9,15.2,8.4,15.2,8.2,15.5z"/>
		
			<linearGradient id="SVGID_40_" gradientUnits="userSpaceOnUse" x1="-3401.1667" y1="16.1255" x2="-3424.1868" y2="14.32" gradientTransform="matrix(-9.090909e-02 0 0 1 -300.0421 0)">
			<stop  offset="5.617980e-03" style="stop-color:#595858"/>
			<stop  offset="0.5386" style="stop-color:#565555"/>
			<stop  offset="1" style="stop-color:#4B4B4B"/>
		</linearGradient>
		<path class="st52" d="M8.3,15.5c-0.1,0.1-0.1,0.2-0.1,0.3c0.1,0.1,0.1,0.1,0.2,0.1C8.6,15.9,9,16,9.7,16c0.7,0,1.1-0.1,1.2-0.1
			c0,0,0,0,0,0c0,0,0.1,0,0.1-0.1c0-0.1,0-0.1-0.1-0.2c-0.1-0.2-0.6-0.2-0.6-0.2c0,0-0.7,0-0.7,0c0,0-0.7,0-0.7,0
			C8.9,15.3,8.5,15.3,8.3,15.5z"/>
		
			<linearGradient id="SVGID_41_" gradientUnits="userSpaceOnUse" x1="2861.0625" y1="16.0754" x2="2840.6563" y2="14.4749" gradientTransform="matrix(9.090909e-02 0 0 1 -250.035 0)">
			<stop  offset="5.617980e-03" style="stop-color:#646463"/>
			<stop  offset="0.599" style="stop-color:#616160"/>
			<stop  offset="1" style="stop-color:#595958"/>
		</linearGradient>
		<path class="st53" d="M8.4,15.5c-0.1,0.1-0.1,0.2-0.1,0.2c0.1,0.1,0.1,0.1,0.2,0.1c0.1,0,0.5,0.1,1,0.1c0.6,0,1-0.1,1.1-0.1
			c0,0,0,0,0,0c0,0,0.1,0,0.1-0.1c0-0.1,0-0.1-0.1-0.2c-0.1-0.2-0.5-0.2-0.5-0.2c0,0-0.6,0-0.7,0c0,0-0.6,0-0.6,0
			C8.9,15.4,8.5,15.4,8.4,15.5z"/>
		
			<linearGradient id="SVGID_42_" gradientUnits="userSpaceOnUse" x1="769.8759" y1="15.7787" x2="763.9323" y2="15.3126" gradientTransform="matrix(0.2727 0 0 1 -200.028 0)">
			<stop  offset="5.617980e-03" style="stop-color:#706F6F"/>
			<stop  offset="0.6545" style="stop-color:#6D6C6C"/>
			<stop  offset="1" style="stop-color:#676766"/>
		</linearGradient>
		<path class="st54" d="M8.5,15.6c-0.1,0.1-0.1,0.1-0.1,0.2c0,0,0.1,0.1,0.2,0.1c0.1,0,0.4,0.1,0.9,0.1c0.5,0,0.9-0.1,1-0.1
			c0,0,0,0,0,0c0,0,0,0,0-0.1c0,0,0-0.1-0.1-0.2c-0.1-0.1-0.4-0.1-0.5-0.1c0,0-0.5,0-0.6,0c0,0-0.5,0-0.5,0
			C9,15.4,8.6,15.4,8.5,15.6z"/>
		
			<linearGradient id="SVGID_43_" gradientUnits="userSpaceOnUse" x1="351.6407" y1="15.732" x2="348.5791" y2="15.4918" gradientTransform="matrix(0.4545 0 0 1 -150.021 0)">
			<stop  offset="5.617980e-03" style="stop-color:#7B7B7B"/>
			<stop  offset="0.7313" style="stop-color:#787878"/>
			<stop  offset="1" style="stop-color:#757574"/>
		</linearGradient>
		<path class="st55" d="M8.6,15.6c-0.1,0.1-0.1,0.1-0.1,0.1c0,0,0.1,0.1,0.2,0.1c0.1,0,0.4,0.1,0.8,0.1c0.5,0,0.8,0,0.9-0.1
			c0,0,0,0,0,0c0,0,0,0,0-0.1c0,0,0-0.1-0.1-0.1c-0.1-0.1-0.3-0.1-0.4-0.1c0,0-0.4,0-0.5,0c0,0-0.4,0-0.4,0
			C9,15.5,8.7,15.5,8.6,15.6z"/>
		
			<linearGradient id="SVGID_44_" gradientUnits="userSpaceOnUse" x1="172.4019" y1="15.7231" x2="170.568" y2="15.5792" gradientTransform="matrix(0.6364 0 0 1 -100.014 0)">
			<stop  offset="5.617980e-03" style="stop-color:#878787"/>
			<stop  offset="0.8486" style="stop-color:#848484"/>
			<stop  offset="1" style="stop-color:#828282"/>
		</linearGradient>
		<path class="st56" d="M8.7,15.6c-0.1,0-0.1,0.1-0.1,0.1c0,0,0.1,0,0.2,0.1c0.1,0,0.3,0,0.6,0c0.4,0,0.6,0,0.7-0.1c0,0,0,0,0,0
			c0,0,0,0,0,0c0,0,0-0.1-0.1-0.1c0-0.1-0.2-0.1-0.3-0.1c0,0-0.3,0-0.4,0c-0.1,0-0.3,0-0.4,0C9,15.6,8.8,15.6,8.7,15.6z"/>
		
			<linearGradient id="SVGID_45_" gradientUnits="userSpaceOnUse" x1="72.8356" y1="15.727" x2="71.6709" y2="15.6357" gradientTransform="matrix(0.8182 0 0 1 -50.007 0)">
			<stop  offset="5.617980e-03" style="stop-color:#929292"/>
			<stop  offset="1" style="stop-color:#909090"/>
		</linearGradient>
		<path class="st57" d="M8.8,15.7c-0.1,0-0.1,0-0.1,0.1c0,0,0.1,0,0.2,0c0.1,0,0.2,0,0.5,0c0.3,0,0.5,0,0.6,0c0,0,0,0,0,0
			c0,0,0,0,0,0c0,0-0.1,0-0.1-0.1c0,0-0.2,0-0.2,0c-0.1,0-0.2,0-0.3,0c-0.1,0-0.2,0-0.3,0C9,15.6,8.9,15.6,8.8,15.7z"/>
		<path class="st24" d="M8.9,15.7c-0.1,0-0.1,0-0.1,0C8.8,15.7,8.9,15.7,8.9,15.7c0.1,0.1,0.2,0.1,0.4,0.1c0.2,0,0.4,0,0.5,0
			c0,0-0.1,0-0.1,0c0,0-0.2,0-0.3,0C9.1,15.7,8.9,15.7,8.9,15.7z"/>
	</g>
	<g>
		<path class="st58" d="M8.3,7.9c0,0,1.2,1,1,3.5c-0.2,2.5-0.6,3.7-0.6,3.7S9,15.2,10,15.2c1,0,1.2-0.1,1.2-0.1s-0.4-1.2-0.6-3.7
			c-0.2-2.5,1.1-3.5,1.1-3.5H8.3z"/>
		
			<linearGradient id="SVGID_46_" gradientUnits="userSpaceOnUse" x1="73.1319" y1="14.2971" x2="73.363" y2="6.4973" gradientTransform="matrix(0.8182 0 0 1 -50.007 0)">
			<stop  offset="0" style="stop-color:#282726"/>
			<stop  offset="1" style="stop-color:#1E1D1C"/>
		</linearGradient>
		<path class="st59" d="M8.4,8l3.1,0c0,0-1.2,1-1,3.4c0.2,2.5,0.6,3.7,0.6,3.7c0,0-0.2,0.1-1.2,0.1c-0.9,0-1.2-0.1-1.2-0.1
			c0,0,0.4-1.2,0.6-3.6c0-0.6,0-1.1-0.1-1.5C9.1,8.7,8.4,8.1,8.4,8z"/>
		
			<linearGradient id="SVGID_47_" gradientUnits="userSpaceOnUse" x1="172.634" y1="14.3114" x2="172.862" y2="6.6173" gradientTransform="matrix(0.6364 0 0 1 -100.014 0)">
			<stop  offset="0" style="stop-color:#343332"/>
			<stop  offset="1" style="stop-color:#1F1E1D"/>
		</linearGradient>
		<path class="st60" d="M8.5,8.1l2.9,0c0,0-1.1,1.1-0.9,3.3c0.2,2.4,0.5,3.7,0.5,3.7c0,0-0.2,0.1-1.1,0.1c-0.9,0-1.1-0.1-1.1-0.1
			c0,0,0.4-1.3,0.6-3.5c0-0.6,0-1.1,0-1.4C9.2,8.9,8.6,8.3,8.5,8.1z"/>
		
			<linearGradient id="SVGID_48_" gradientUnits="userSpaceOnUse" x1="351.7356" y1="14.3284" x2="351.9608" y2="6.7266" gradientTransform="matrix(0.4545 0 0 1 -150.021 0)">
			<stop  offset="0" style="stop-color:#3F3F3E"/>
			<stop  offset="1" style="stop-color:#21201F"/>
		</linearGradient>
		<path class="st61" d="M8.6,8.2l2.6,0c0,0-1,1.1-0.8,3.1c0.1,2.3,0.5,3.7,0.5,3.7c0,0-0.2,0.1-1,0.1c-0.8,0-1-0.1-1-0.1
			c0,0,0.4-1.3,0.6-3.5c0-0.6,0-1.1,0-1.4C9.2,9.1,8.7,8.5,8.6,8.2z"/>
		
			<linearGradient id="SVGID_49_" gradientUnits="userSpaceOnUse" x1="769.6353" y1="14.3562" x2="769.859" y2="6.8026" gradientTransform="matrix(0.2727 0 0 1 -200.028 0)">
			<stop  offset="0" style="stop-color:#4B4B4A"/>
			<stop  offset="1" style="stop-color:#232220"/>
		</linearGradient>
		<path class="st62" d="M8.7,8.4l2.4,0c0,0-0.9,1.2-0.8,3c0.1,2.3,0.5,3.8,0.5,3.8c-0.1,0-0.2,0.1-0.9,0.1c-0.7,0-0.9-0.1-0.9-0.1
			c0-0.1,0.4-1.4,0.5-3.4c0-0.6,0-1.1,0-1.4C9.3,9.3,8.8,8.7,8.7,8.4z"/>
		
			<linearGradient id="SVGID_50_" gradientUnits="userSpaceOnUse" x1="2859.1206" y1="14.4918" x2="2859.3533" y2="6.6387" gradientTransform="matrix(9.090909e-02 0 0 1 -250.035 0)">
			<stop  offset="0" style="stop-color:#575756"/>
			<stop  offset="1" style="stop-color:#252322"/>
		</linearGradient>
		<path class="st63" d="M8.8,8.5l2.1,0c0,0-0.8,1.2-0.7,2.9c0.1,2.2,0.4,3.8,0.4,3.8c-0.1,0-0.3,0.1-0.9,0.1c-0.6,0-0.8-0.1-0.8-0.1
			c0-0.1,0.4-1.4,0.5-3.3c0-0.6,0-1.1,0-1.4C9.4,9.5,9,8.9,8.8,8.5z"/>
		
			<linearGradient id="SVGID_51_" gradientUnits="userSpaceOnUse" x1="-3409.3342" y1="14.4819" x2="-3409.1072" y2="6.8164" gradientTransform="matrix(-9.090909e-02 0 0 1 -300.0421 0)">
			<stop  offset="0" style="stop-color:#636262"/>
			<stop  offset="1" style="stop-color:#262523"/>
		</linearGradient>
		<path class="st64" d="M8.9,8.6l1.9,0c0,0-0.7,1.3-0.6,2.8c0.1,2.1,0.4,3.8,0.4,3.8c-0.1,0-0.3,0.1-0.8,0c-0.6,0-0.8-0.1-0.8-0.1
			c0.1-0.1,0.4-1.5,0.5-3.3c0-0.6,0-1.1,0-1.3C9.4,9.7,9.1,9.1,8.9,8.6z"/>
		
			<linearGradient id="SVGID_52_" gradientUnits="userSpaceOnUse" x1="-1319.842" y1="14.387" x2="-1319.6304" y2="7.2413" gradientTransform="matrix(-0.2727 0 0 1 -350.0491 0)">
			<stop  offset="0" style="stop-color:#6F6E6E"/>
			<stop  offset="1" style="stop-color:#282625"/>
		</linearGradient>
		<path class="st65" d="M9,8.7l1.6,0c0,0-0.6,1.3-0.5,2.6c0.1,2.1,0.4,3.8,0.4,3.8c-0.1,0-0.3,0-0.7,0c-0.5,0-0.7-0.1-0.7-0.1
			c0.1-0.1,0.3-1.5,0.5-3.2c0-0.6,0.1-1.1,0-1.3C9.5,9.9,9.2,9.3,9,8.7z"/>
		
			<linearGradient id="SVGID_53_" gradientUnits="userSpaceOnUse" x1="-901.8695" y1="14.391" x2="-901.6633" y2="7.4311" gradientTransform="matrix(-0.4545 0 0 1 -400.0561 0)">
			<stop  offset="0" style="stop-color:#7B7A7A"/>
			<stop  offset="1" style="stop-color:#2A2826"/>
		</linearGradient>
		<path class="st66" d="M9.2,8.8l1.4,0c0,0-0.5,1.4-0.5,2.5c0.1,2,0.3,3.8,0.3,3.8c-0.1,0-0.3,0-0.6,0c-0.4,0-0.6-0.1-0.6-0.1
			C9.2,15,9.5,13.5,9.6,12c0-0.6,0.1-1.1,0-1.3C9.6,10.1,9.4,9.5,9.2,8.8z"/>
		
			<linearGradient id="SVGID_54_" gradientUnits="userSpaceOnUse" x1="-722.724" y1="14.4029" x2="-722.522" y2="7.5873" gradientTransform="matrix(-0.6364 0 0 1 -450.0631 0)">
			<stop  offset="0" style="stop-color:#868686"/>
			<stop  offset="1" style="stop-color:#2C2A28"/>
		</linearGradient>
		<path class="st67" d="M9.3,8.9l1.1,0c0,0-0.4,1.4-0.4,2.4c0.1,1.9,0.3,3.9,0.3,3.9c-0.1,0-0.3,0-0.5,0c-0.4,0-0.5-0.1-0.5-0.1
			c0.1-0.1,0.3-1.7,0.4-3.1c0-0.6,0.1-1.1,0-1.3C9.6,10.3,9.5,9.7,9.3,8.9z"/>
		
			<linearGradient id="SVGID_55_" gradientUnits="userSpaceOnUse" x1="-623.1982" y1="14.4168" x2="-623.0001" y2="7.7321" gradientTransform="matrix(-0.8182 0 0 1 -500.0701 0)">
			<stop  offset="0" style="stop-color:#929292"/>
			<stop  offset="1" style="stop-color:#2D2B29"/>
		</linearGradient>
		<path class="st68" d="M9.4,9l0.9,0c0,0-0.4,1.5-0.3,2.3c0.1,1.9,0.3,3.9,0.3,3.9c-0.1,0-0.3,0-0.5,0c-0.3,0-0.4-0.1-0.4-0.1
			c0.1-0.2,0.3-1.7,0.4-3c0-0.6,0.1-1.1,0.1-1.2C9.7,10.5,9.6,9.9,9.4,9z"/>
		
			<linearGradient id="SVGID_56_" gradientUnits="userSpaceOnUse" x1="-559.8632" y1="14.4327" x2="-559.6688" y2="7.8714" gradientTransform="matrix(-1 0 0 1 -550.0771 0)">
			<stop  offset="0" style="stop-color:#9E9E9E"/>
			<stop  offset="1" style="stop-color:#2F2D2B"/>
		</linearGradient>
		<path class="st69" d="M9.8,11.3c0,1.8,0.2,3.9,0.2,3.9c-0.4,0-0.7,0-0.7,0c0.2-0.3,0.5-3.8,0.4-4.2c0-0.3,0-0.9-0.3-1.9l0.6,0
			C10.1,9.1,9.8,10.7,9.8,11.3z"/>
	</g>
	
		<linearGradient id="SVGID_57_" gradientUnits="userSpaceOnUse" x1="-561.7783" y1="7.833" x2="-558.376" y2="7.833" gradientTransform="matrix(-1 0 0 1 -550.0771 0)">
		<stop  offset="3.932580e-02" style="stop-color:#0A0A09"/>
		<stop  offset="0.5899" style="stop-color:#7E7C79"/>
		<stop  offset="1" style="stop-color:#2F2D2B"/>
	</linearGradient>
	<path class="st70" d="M9,7.6L8.3,7.9c0,0,0,0.2,1.7,0.2c1.7,0,1.7-0.2,1.7-0.2L11,7.6H9z"/>
	<g>
		<path class="st71" d="M8,7.1c0,0.4,0.9,0.6,2,0.6c1.1,0,2-0.2,2-0.6c0-0.4-0.9-0.6-2-0.6C8.9,6.6,8,6.7,8,7.1z"/>
		
			<linearGradient id="SVGID_58_" gradientUnits="userSpaceOnUse" x1="91.4022" y1="6.4411" x2="91.4022" y2="7.7089" gradientTransform="matrix(0.7778 0 0 1 -61.1197 0)">
			<stop  offset="0" style="stop-color:#1D1C1A"/>
			<stop  offset="0.6067" style="stop-color:#201F1D"/>
		</linearGradient>
		<path class="st72" d="M10,6.6c-1.1,0-2,0.1-2,0.5c0,0.4,0.9,0.5,2,0.5c1.1,0,2-0.2,2-0.5C11.9,6.8,11.1,6.6,10,6.6z"/>
		
			<linearGradient id="SVGID_59_" gradientUnits="userSpaceOnUse" x1="237.9265" y1="6.4988" x2="237.9265" y2="7.6786" gradientTransform="matrix(0.5556 0 0 1 -122.2394 0)">
			<stop  offset="0" style="stop-color:#201F1D"/>
			<stop  offset="0.6067" style="stop-color:#272523"/>
		</linearGradient>
		<path class="st73" d="M9.9,6.7C8.9,6.7,8,6.8,8,7.1c0,0.4,0.8,0.5,1.9,0.5c1,0,1.9-0.1,1.9-0.5C11.8,6.8,11,6.7,9.9,6.7z"/>
		
			<linearGradient id="SVGID_60_" gradientUnits="userSpaceOnUse" x1="579.8164" y1="6.5564" x2="579.8164" y2="7.6483" gradientTransform="matrix(0.3333 0 0 1 -183.359 0)">
			<stop  offset="0" style="stop-color:#23211F"/>
			<stop  offset="0.6067" style="stop-color:#2D2C2A"/>
		</linearGradient>
		<path class="st74" d="M9.9,6.7c-1,0-1.8,0.1-1.8,0.4c0,0.3,0.8,0.4,1.8,0.4c1,0,1.8-0.1,1.8-0.4C11.7,6.8,10.9,6.7,9.9,6.7z"/>
		
			<linearGradient id="SVGID_61_" gradientUnits="userSpaceOnUse" x1="2289.2659" y1="6.614" x2="2289.2659" y2="7.618" gradientTransform="matrix(0.1111 0 0 1 -244.4787 0)">
			<stop  offset="0" style="stop-color:#262422"/>
			<stop  offset="0.6067" style="stop-color:#333230"/>
		</linearGradient>
		<path class="st75" d="M9.9,6.8c-1,0-1.8,0.1-1.8,0.4c0,0.3,0.8,0.4,1.8,0.4c1,0,1.8-0.1,1.8-0.4C11.7,6.9,10.9,6.8,9.9,6.8z"/>
		
			<linearGradient id="SVGID_62_" gradientUnits="userSpaceOnUse" x1="-2839.0828" y1="6.6717" x2="-2839.0828" y2="7.5877" gradientTransform="matrix(-0.1111 0 0 1 -305.5984 0)">
			<stop  offset="0" style="stop-color:#282725"/>
			<stop  offset="0.6067" style="stop-color:#3A3836"/>
		</linearGradient>
		<path class="st76" d="M9.9,6.8c-0.9,0-1.7,0.1-1.7,0.4c0,0.3,0.8,0.4,1.7,0.4s1.7-0.1,1.7-0.4C11.6,6.9,10.8,6.8,9.9,6.8z"/>
		
			<linearGradient id="SVGID_63_" gradientUnits="userSpaceOnUse" x1="-1129.6332" y1="6.7293" x2="-1129.6332" y2="7.5574" gradientTransform="matrix(-0.3333 0 0 1 -366.7181 0)">
			<stop  offset="0" style="stop-color:#2B2A28"/>
			<stop  offset="0.6067" style="stop-color:#403E3C"/>
		</linearGradient>
		<path class="st77" d="M9.8,6.8C8.9,6.8,8.2,7,8.2,7.2c0,0.2,0.7,0.3,1.6,0.3c0.9,0,1.6-0.1,1.6-0.3C11.5,6.9,10.7,6.8,9.8,6.8z"/>
		
			<linearGradient id="SVGID_64_" gradientUnits="userSpaceOnUse" x1="-787.7432" y1="6.787" x2="-787.7432" y2="7.527" gradientTransform="matrix(-0.5556 0 0 1 -427.8377 0)">
			<stop  offset="0" style="stop-color:#2E2C2A"/>
			<stop  offset="0.6067" style="stop-color:#464543"/>
		</linearGradient>
		<path class="st78" d="M9.8,6.9C8.9,6.9,8.2,7,8.2,7.2c0,0.2,0.7,0.3,1.6,0.3c0.9,0,1.6-0.1,1.6-0.3C11.4,7,10.7,6.9,9.8,6.9z"/>
		
			<linearGradient id="SVGID_65_" gradientUnits="userSpaceOnUse" x1="-641.219" y1="6.8446" x2="-641.219" y2="7.4967" gradientTransform="matrix(-0.7778 0 0 1 -488.9574 0)">
			<stop  offset="0" style="stop-color:#312F2D"/>
			<stop  offset="0.6067" style="stop-color:#4D4B49"/>
		</linearGradient>
		<path class="st79" d="M9.8,6.9C8.9,6.9,8.3,7,8.3,7.2c0,0.2,0.7,0.3,1.5,0.3c0.8,0,1.5-0.1,1.5-0.3C11.3,7,10.6,6.9,9.8,6.9z"/>
		
			<linearGradient id="SVGID_66_" gradientUnits="userSpaceOnUse" x1="-559.8167" y1="6.9022" x2="-559.8167" y2="7.4664" gradientTransform="matrix(-1 0 0 1 -550.0771 0)">
			<stop  offset="0" style="stop-color:#343230"/>
			<stop  offset="0.6067" style="stop-color:#53514F"/>
		</linearGradient>
		<path class="st80" d="M8.3,7.2c0,0.1,0.6,0.2,1.4,0.2c0.8,0,1.4,0,1.4-0.2C11.2,7,10.5,7,9.7,7C8.9,7,8.3,7.1,8.3,7.2z"/>
		
			<linearGradient id="SVGID_67_" gradientUnits="userSpaceOnUse" x1="-641.1494" y1="6.9369" x2="-641.1494" y2="7.4456" gradientTransform="matrix(-0.7778 0 0 1 -488.9574 0)">
			<stop  offset="0" style="stop-color:#3F3D3B"/>
			<stop  offset="0.6067" style="stop-color:#5A5857"/>
		</linearGradient>
		<path class="st81" d="M8.4,7.2c0,0.1,0.6,0.2,1.3,0.2c0.7,0,1.3,0,1.3-0.2c0-0.2-0.6-0.2-1.3-0.2C9,7,8.4,7.1,8.4,7.2z"/>
		
			<linearGradient id="SVGID_68_" gradientUnits="userSpaceOnUse" x1="-787.5484" y1="6.9716" x2="-787.5484" y2="7.4247" gradientTransform="matrix(-0.5556 0 0 1 -427.8377 0)">
			<stop  offset="0" style="stop-color:#4A4846"/>
			<stop  offset="0.6067" style="stop-color:#62605E"/>
		</linearGradient>
		<path class="st82" d="M8.4,7.2c0,0.1,0.6,0.2,1.2,0.2c0.7,0,1.2,0,1.2-0.2c0-0.1-0.6-0.2-1.2-0.2C9,7,8.4,7.1,8.4,7.2z"/>
		
			<linearGradient id="SVGID_69_" gradientUnits="userSpaceOnUse" x1="-1129.1461" y1="7.0063" x2="-1129.1461" y2="7.4039" gradientTransform="matrix(-0.3333 0 0 1 -366.7181 0)">
			<stop  offset="0" style="stop-color:#545351"/>
			<stop  offset="0.6067" style="stop-color:#696766"/>
		</linearGradient>
		<path class="st83" d="M8.5,7.2c0,0.1,0.5,0.2,1.1,0.2c0.6,0,1.1,0,1.1-0.2c0-0.1-0.5-0.2-1.1-0.2C9,7.1,8.5,7.1,8.5,7.2z"/>
		
			<linearGradient id="SVGID_70_" gradientUnits="userSpaceOnUse" x1="-2837.1343" y1="7.0409" x2="-2837.1343" y2="7.3831" gradientTransform="matrix(-0.1111 0 0 1 -305.5984 0)">
			<stop  offset="0" style="stop-color:#5F5E5C"/>
			<stop  offset="0.6067" style="stop-color:#706F6E"/>
		</linearGradient>
		<path class="st84" d="M8.6,7.2c0,0.1,0.5,0.1,1,0.1c0.6,0,1,0,1-0.1c0-0.1-0.5-0.1-1-0.1C9.1,7.1,8.6,7.1,8.6,7.2z"/>
		
			<linearGradient id="SVGID_71_" gradientUnits="userSpaceOnUse" x1="2286.8306" y1="7.0756" x2="2286.8306" y2="7.3623" gradientTransform="matrix(0.1111 0 0 1 -244.4787 0)">
			<stop  offset="0" style="stop-color:#6A6868"/>
			<stop  offset="0.6067" style="stop-color:#787675"/>
		</linearGradient>
		<path class="st85" d="M8.7,7.2c0,0.1,0.4,0.1,0.9,0.1c0.5,0,0.9,0,0.9-0.1c0-0.1-0.4-0.1-0.9-0.1C9.1,7.1,8.7,7.2,8.7,7.2z"/>
		
			<linearGradient id="SVGID_72_" gradientUnits="userSpaceOnUse" x1="578.8422" y1="7.1103" x2="578.8422" y2="7.3414" gradientTransform="matrix(0.3333 0 0 1 -183.359 0)">
			<stop  offset="0" style="stop-color:#757373"/>
			<stop  offset="0.6067" style="stop-color:#7F7E7D"/>
		</linearGradient>
		<path class="st86" d="M8.8,7.2c0,0.1,0.4,0.1,0.8,0.1c0.5,0,0.8,0,0.8-0.1c0-0.1-0.4-0.1-0.8-0.1C9.1,7.1,8.8,7.2,8.8,7.2z"/>
		
			<linearGradient id="SVGID_73_" gradientUnits="userSpaceOnUse" x1="237.2446" y1="7.145" x2="237.2446" y2="7.3206" gradientTransform="matrix(0.5556 0 0 1 -122.2394 0)">
			<stop  offset="0" style="stop-color:#7F7E7E"/>
			<stop  offset="0.6067" style="stop-color:#868585"/>
		</linearGradient>
		<path class="st87" d="M8.8,7.2c0,0,0.3,0.1,0.7,0.1c0.4,0,0.7,0,0.7-0.1c0-0.1-0.3-0.1-0.7-0.1C9.2,7.2,8.8,7.2,8.8,7.2z"/>
		
			<linearGradient id="SVGID_74_" gradientUnits="userSpaceOnUse" x1="90.8456" y1="7.1797" x2="90.8456" y2="7.2998" gradientTransform="matrix(0.7778 0 0 1 -61.1197 0)">
			<stop  offset="0" style="stop-color:#8A8989"/>
			<stop  offset="0.6067" style="stop-color:#8E8D8C"/>
		</linearGradient>
		<path class="st88" d="M8.9,7.2c0,0,0.3,0,0.6,0c0.4,0,0.6,0,0.6,0c0,0-0.3,0-0.6,0C9.2,7.2,8.9,7.2,8.9,7.2z"/>
		<path class="st89" d="M9,7.3c0,0,0.2,0,0.5,0c0.3,0,0.5,0,0.5,0c0,0-0.2,0-0.5,0C9.2,7.2,9,7.2,9,7.3z"/>
	</g>
	
		<linearGradient id="SVGID_75_" gradientUnits="userSpaceOnUse" x1="-558.9603" y1="4.8738" x2="-562.33" y2="5.3258" gradientTransform="matrix(-1 0 0 1 -550.0771 0)">
		<stop  offset="5.617980e-03" style="stop-color:#171615"/>
		<stop  offset="1" style="stop-color:#1D1C1A"/>
	</linearGradient>
	<path class="st90" d="M11.1,4.8v0.4C11.6,5.2,12,5.1,12,5C12,4.9,11.6,4.9,11.1,4.8z M8,5c0,0.1,0.9,0.2,2,0.2c0.1,0,0.2,0,0.3,0
		V4.8c-0.1,0-0.2,0-0.3,0C8.9,4.8,8,4.9,8,5z"/>
	
		<linearGradient id="SVGID_76_" gradientUnits="userSpaceOnUse" x1="-558.9626" y1="4.8724" x2="-562.3655" y2="5.3288" gradientTransform="matrix(-1 0 0 1 -550.0771 0)">
		<stop  offset="5.617980e-03" style="stop-color:#171615"/>
		<stop  offset="8.206372e-02" style="stop-color:#272625"/>
		<stop  offset="0.3263" style="stop-color:#545352"/>
		<stop  offset="0.5148" style="stop-color:#706F6E"/>
		<stop  offset="0.6236" style="stop-color:#7B7A79"/>
		<stop  offset="0.7077" style="stop-color:#787775"/>
		<stop  offset="0.7823" style="stop-color:#6D6C6B"/>
		<stop  offset="0.8532" style="stop-color:#5B5A59"/>
		<stop  offset="0.9219" style="stop-color:#42413F"/>
		<stop  offset="0.9884" style="stop-color:#21201F"/>
		<stop  offset="1" style="stop-color:#1B1A18"/>
	</linearGradient>
	<path class="st91" d="M11.1,4.8v0.4C11.7,5.2,12,5.1,12,5C12,4.9,11.7,4.9,11.1,4.8z M8,5c0,0.1,0.9,0.2,2,0.2c0.1,0,0.2,0,0.3,0
		V4.8c-0.1,0-0.2,0-0.3,0C8.9,4.8,8,4.9,8,5z"/>
	
		<linearGradient id="SVGID_77_" gradientUnits="userSpaceOnUse" x1="-558.8688" y1="5.5724" x2="-562.2717" y2="6.0287" gradientTransform="matrix(-1 0 0 1 -550.0771 0)">
		<stop  offset="5.617980e-03" style="stop-color:#171615"/>
		<stop  offset="8.206372e-02" style="stop-color:#272625"/>
		<stop  offset="0.3263" style="stop-color:#545352"/>
		<stop  offset="0.5148" style="stop-color:#706F6E"/>
		<stop  offset="0.6236" style="stop-color:#7B7A79"/>
		<stop  offset="0.7077" style="stop-color:#787775"/>
		<stop  offset="0.7823" style="stop-color:#6D6C6B"/>
		<stop  offset="0.8532" style="stop-color:#5B5A59"/>
		<stop  offset="0.9219" style="stop-color:#42413F"/>
		<stop  offset="0.9884" style="stop-color:#21201F"/>
		<stop  offset="1" style="stop-color:#1B1A18"/>
	</linearGradient>
	<polygon class="st92" points="9.5,5.2 8.5,5.1 8.5,6 9.5,6 	"/>
	
		<linearGradient id="SVGID_78_" gradientUnits="userSpaceOnUse" x1="-561.9045" y1="5.9975" x2="-557.8661" y2="5.5247" gradientTransform="matrix(-1 0 0 1 -550.0771 0)">
		<stop  offset="5.617980e-03" style="stop-color:#171615"/>
		<stop  offset="1" style="stop-color:#1D1C1A"/>
	</linearGradient>
	<path class="st93" d="M8,5c0,0.1,0.3,0.1,0.6,0.1l0,0.7l0.8,0V5.2c0.2,0,0.4,0,0.6,0c1.1,0,1.9-0.1,2-0.2c0,0,0,0,0,0v1.5l-4,0L8,5
		C8,5,8,5,8,5z"/>
	
		<linearGradient id="SVGID_79_" gradientUnits="userSpaceOnUse" x1="-562.1009" y1="6.19" x2="-558.053" y2="6.19" gradientTransform="matrix(-1 0 0 1 -550.0771 0)">
		<stop  offset="5.617980e-03" style="stop-color:#171615"/>
		<stop  offset="0.1021" style="stop-color:#2C2B2A"/>
		<stop  offset="0.3372" style="stop-color:#595857"/>
		<stop  offset="0.5188" style="stop-color:#757473"/>
		<stop  offset="0.6236" style="stop-color:#807F7E"/>
		<stop  offset="0.7058" style="stop-color:#7D7C7A"/>
		<stop  offset="0.7787" style="stop-color:#727170"/>
		<stop  offset="0.8481" style="stop-color:#605F5E"/>
		<stop  offset="0.9152" style="stop-color:#474644"/>
		<stop  offset="0.9802" style="stop-color:#262524"/>
		<stop  offset="1" style="stop-color:#1B1A18"/>
	</linearGradient>
	<path class="st94" d="M8,5c0,0.1,0.2,0.1,0.6,0.1l0,0.7l0.8,0V5.2c0.2,0,0.4,0,0.6,0c1.1,0,2-0.1,2-0.2h0v2.1c0,0,0,0,0,0
		c0,0.1-0.9,0.2-2,0.2c-1.1,0-2-0.1-2-0.2c0,0,0,0,0,0L8,5L8,5z"/>
</g>
</svg>
