<?xml version="1.0" encoding="utf-8"?>
<!-- Generator: Adobe Illustrator 24.2.3, SVG Export Plug-In . SVG Version: 6.00 Build 0)  -->
<svg version="1.1" id="Layer_1" xmlns="http://www.w3.org/2000/svg" xmlns:xlink="http://www.w3.org/1999/xlink" x="0px" y="0px"
	 viewBox="0 0 20 20" style="enable-background:new 0 0 20 20;" xml:space="preserve">
<style type="text/css">
	.st0{fill:none;}
	.st1{fill-rule:evenodd;clip-rule:evenodd;fill:url(#SVGID_1_);}
	.st2{fill:url(#SVGID_2_);}
	.st3{fill:url(#SVGID_3_);}
	.st4{fill:url(#SVGID_4_);}
	.st5{fill:url(#SVGID_5_);}
	.st6{fill:url(#SVGID_6_);}
	.st7{fill:url(#SVGID_7_);}
	.st8{fill:url(#SVGID_8_);}
	.st9{fill:url(#SVGID_9_);}
	.st10{fill:url(#SVGID_10_);}
	.st11{fill:url(#SVGID_11_);}
	.st12{fill:url(#SVGID_12_);}
	.st13{fill:#3A3937;}
	.st14{fill:#434240;}
	.st15{fill:#4C4B4A;}
	.st16{fill:#555553;}
	.st17{fill:#5E5E5C;}
	.st18{fill:#676766;}
	.st19{fill:#71706F;}
	.st20{fill:#7A7979;}
	.st21{fill:#838282;}
	.st22{fill:#8C8C8B;}
	.st23{fill:#959595;}
	.st24{fill:#9E9E9E;}
	.st25{fill:url(#SVGID_13_);}
	.st26{fill:url(#SVGID_14_);}
	.st27{fill:url(#SVGID_15_);}
	.st28{fill:url(#SVGID_16_);}
	.st29{fill:url(#SVGID_17_);}
	.st30{fill:url(#SVGID_18_);}
	.st31{fill:url(#SVGID_19_);}
	.st32{fill:url(#SVGID_20_);}
	.st33{fill:url(#SVGID_21_);}
	.st34{fill:url(#SVGID_22_);}
	.st35{fill:url(#SVGID_23_);}
	.st36{fill:url(#SVGID_24_);}
	.st37{fill:url(#SVGID_25_);}
	.st38{fill:url(#SVGID_26_);}
	.st39{fill:url(#SVGID_27_);}
	.st40{fill:url(#SVGID_28_);}
	.st41{fill:url(#SVGID_29_);}
	.st42{fill:url(#SVGID_30_);}
	.st43{fill:url(#SVGID_31_);}
	.st44{fill:url(#SVGID_32_);}
	.st45{fill:url(#SVGID_33_);}
	.st46{fill:url(#SVGID_34_);}
	.st47{fill:url(#SVGID_35_);}
	.st48{fill:url(#SVGID_36_);}
	.st49{fill:url(#SVGID_37_);}
	.st50{fill:url(#SVGID_38_);}
	.st51{fill:url(#SVGID_39_);}
	.st52{fill:url(#SVGID_40_);}
	.st53{fill:url(#SVGID_41_);}
	.st54{fill:url(#SVGID_42_);}
	.st55{fill:url(#SVGID_43_);}
	.st56{fill:url(#SVGID_44_);}
	.st57{fill:url(#SVGID_45_);}
	.st58{fill:url(#SVGID_46_);}
	.st59{fill:url(#SVGID_47_);}
	.st60{fill:url(#SVGID_48_);}
	.st61{fill:url(#SVGID_49_);}
	.st62{fill:url(#SVGID_50_);}
	.st63{fill:url(#SVGID_51_);}
	.st64{fill:url(#SVGID_52_);}
	.st65{fill:url(#SVGID_53_);}
</style>
<rect y="0" class="st0" width="20" height="20"/>
<g>
	
		<radialGradient id="SVGID_1_" cx="-560.0771" cy="269.0626" r="5.8153" gradientTransform="matrix(-1 0 0 0.165 -550.0771 -26.0693)" gradientUnits="userSpaceOnUse">
		<stop  offset="0.4213" style="stop-color:#0B0A0A"/>
		<stop  offset="0.4842" style="stop-color:#313030;stop-opacity:0.8811"/>
		<stop  offset="0.6128" style="stop-color:#797979;stop-opacity:0.6375"/>
		<stop  offset="0.7282" style="stop-color:#B3B2B2;stop-opacity:0.4189"/>
		<stop  offset="0.8263" style="stop-color:#DCDCDC;stop-opacity:0.2331"/>
		<stop  offset="0.9032" style="stop-color:#F6F6F6;stop-opacity:8.748126e-02"/>
		<stop  offset="0.9494" style="stop-color:#FFFFFF;stop-opacity:0"/>
	</radialGradient>
	<path class="st1" d="M4.3,18.3c0,0.5,2.6,1,5.7,1c3.2,0,5.7-0.5,5.7-1c0-0.5-2.6-0.9-5.7-0.9C6.8,17.4,4.3,17.8,4.3,18.3z"/>
	<g>
		
			<linearGradient id="SVGID_2_" gradientUnits="userSpaceOnUse" x1="-560.077" y1="18.6432" x2="-560.077" y2="17.5737" gradientTransform="matrix(-1 0 0 1 -550.0771 0)">
			<stop  offset="5.617980e-03" style="stop-color:#1F1E1D"/>
			<stop  offset="0.4175" style="stop-color:#1C1B1A"/>
			<stop  offset="0.776" style="stop-color:#11100F"/>
			<stop  offset="1" style="stop-color:#060605"/>
		</linearGradient>
		<path class="st2" d="M7.4,17.2c0,0-1.3,0.1-1.3,0.7c0,0.6,1.7,0.9,3.8,0.9s4.1-0.3,4-0.9c0-0.6-1.3-0.7-1.3-0.7H7.4z"/>
		
			<linearGradient id="SVGID_3_" gradientUnits="userSpaceOnUse" x1="-623.3596" y1="18.6315" x2="-623.3596" y2="17.6028" gradientTransform="matrix(-0.8182 0 0 1 -500.0701 0)">
			<stop  offset="5.617980e-03" style="stop-color:#21201F"/>
			<stop  offset="0.4415" style="stop-color:#1E1D1C"/>
			<stop  offset="0.821" style="stop-color:#131312"/>
			<stop  offset="1" style="stop-color:#0B0B0A"/>
		</linearGradient>
		<path class="st3" d="M7.5,17.2c0,0-1.3,0.1-1.3,0.7c0,0.6,1.6,0.9,3.7,0.9c2,0,3.9-0.3,3.9-0.9c0-0.6-1.3-0.7-1.3-0.7L7.5,17.2z"
			/>
		
			<linearGradient id="SVGID_4_" gradientUnits="userSpaceOnUse" x1="-722.8036" y1="18.6199" x2="-722.8036" y2="17.632" gradientTransform="matrix(-0.6364 0 0 1 -450.0631 0)">
			<stop  offset="5.617980e-03" style="stop-color:#242322"/>
			<stop  offset="0.4507" style="stop-color:#21201F"/>
			<stop  offset="0.8381" style="stop-color:#161615"/>
			<stop  offset="1" style="stop-color:#0F0F0E"/>
		</linearGradient>
		<path class="st4" d="M7.5,17.3c0,0-1.2,0.1-1.3,0.6c0,0.5,1.6,0.8,3.6,0.8c2,0,3.8-0.3,3.8-0.8c0-0.5-1.3-0.7-1.3-0.7L7.5,17.3z"
			/>
		
			<linearGradient id="SVGID_5_" gradientUnits="userSpaceOnUse" x1="-901.8028" y1="18.6082" x2="-901.8028" y2="17.6612" gradientTransform="matrix(-0.4545 0 0 1 -400.0561 0)">
			<stop  offset="5.617980e-03" style="stop-color:#262524"/>
			<stop  offset="0.4823" style="stop-color:#232221"/>
			<stop  offset="0.8973" style="stop-color:#181817"/>
			<stop  offset="1" style="stop-color:#141413"/>
		</linearGradient>
		<path class="st5" d="M7.5,17.3c0,0-1.2,0.1-1.2,0.6c0,0.5,1.5,0.8,3.5,0.8c1.9,0,3.7-0.3,3.7-0.8c0-0.5-1.2-0.6-1.2-0.6L7.5,17.3z
			"/>
		
			<linearGradient id="SVGID_6_" gradientUnits="userSpaceOnUse" x1="-1319.4677" y1="18.5967" x2="-1319.4677" y2="17.6903" gradientTransform="matrix(-0.2727 0 0 1 -350.0491 0)">
			<stop  offset="5.617980e-03" style="stop-color:#292826"/>
			<stop  offset="0.5078" style="stop-color:#262523"/>
			<stop  offset="0.9452" style="stop-color:#1B1B19"/>
			<stop  offset="1" style="stop-color:#191917"/>
		</linearGradient>
		<path class="st6" d="M7.5,17.3c0,0-1.2,0.1-1.2,0.6c0,0.5,1.5,0.8,3.4,0.8c1.9,0,3.6-0.2,3.6-0.7c0-0.5-1.2-0.6-1.2-0.6L7.5,17.3z
			"/>
		
			<linearGradient id="SVGID_7_" gradientUnits="userSpaceOnUse" x1="-3407.7922" y1="18.5852" x2="-3407.7922" y2="17.7195" gradientTransform="matrix(-9.090909e-02 0 0 1 -300.0421 0)">
			<stop  offset="5.617980e-03" style="stop-color:#2B2A29"/>
			<stop  offset="0.5565" style="stop-color:#282726"/>
			<stop  offset="1" style="stop-color:#1E1D1C"/>
		</linearGradient>
		<path class="st7" d="M7.5,17.4c0,0-1.1,0.1-1.2,0.6c0,0.5,1.5,0.7,3.3,0.7c1.8,0,3.5-0.2,3.5-0.7c0-0.5-1.2-0.6-1.2-0.6L7.5,17.4z
			"/>
		
			<linearGradient id="SVGID_8_" gradientUnits="userSpaceOnUse" x1="2857.1814" y1="18.5737" x2="2857.1814" y2="17.7488" gradientTransform="matrix(9.090909e-02 0 0 1 -250.035 0)">
			<stop  offset="5.617980e-03" style="stop-color:#2E2D2B"/>
			<stop  offset="0.5765" style="stop-color:#2B2A28"/>
			<stop  offset="1" style="stop-color:#222220"/>
		</linearGradient>
		<path class="st8" d="M7.5,17.4c0,0-1.1,0.1-1.1,0.5c0,0.4,1.4,0.7,3.2,0.7c1.8,0,3.4-0.2,3.4-0.7c0-0.4-1.1-0.5-1.1-0.5L7.5,17.4z
			"/>
		
			<linearGradient id="SVGID_9_" gradientUnits="userSpaceOnUse" x1="768.8568" y1="18.5624" x2="768.8568" y2="17.778" gradientTransform="matrix(0.2727 0 0 1 -200.028 0)">
			<stop  offset="5.617980e-03" style="stop-color:#302F2E"/>
			<stop  offset="0.6545" style="stop-color:#2D2C2B"/>
			<stop  offset="1" style="stop-color:#272625"/>
		</linearGradient>
		<path class="st9" d="M7.6,17.5c0,0-1.1,0.1-1.1,0.5c0,0.4,1.4,0.7,3.1,0.7c1.7,0,3.3-0.2,3.3-0.6c0-0.4-1.1-0.5-1.1-0.5L7.6,17.5z
			"/>
		
			<linearGradient id="SVGID_10_" gradientUnits="userSpaceOnUse" x1="351.1919" y1="18.5511" x2="351.1919" y2="17.8073" gradientTransform="matrix(0.4545 0 0 1 -150.021 0)">
			<stop  offset="5.617980e-03" style="stop-color:#333230"/>
			<stop  offset="0.7313" style="stop-color:#302F2D"/>
			<stop  offset="1" style="stop-color:#2C2B29"/>
		</linearGradient>
		<path class="st10" d="M7.6,17.5c0,0-1,0.1-1.1,0.5c0,0.4,1.3,0.6,3,0.7c1.7,0,3.2-0.2,3.2-0.6c0-0.4-1.1-0.5-1.1-0.5L7.6,17.5z"/>
		
			<linearGradient id="SVGID_11_" gradientUnits="userSpaceOnUse" x1="172.1927" y1="18.54" x2="172.1927" y2="17.8366" gradientTransform="matrix(0.6364 0 0 1 -100.014 0)">
			<stop  offset="5.617980e-03" style="stop-color:#353432"/>
			<stop  offset="0.9366" style="stop-color:#32312F"/>
			<stop  offset="1" style="stop-color:#31302E"/>
		</linearGradient>
		<path class="st11" d="M7.6,17.6c0,0-1,0.1-1,0.4c0,0.4,1.3,0.6,2.9,0.6c1.6,0,3.1-0.2,3.1-0.5c0-0.4-1-0.5-1-0.5L7.6,17.6z"/>
		
			<linearGradient id="SVGID_12_" gradientUnits="userSpaceOnUse" x1="72.7486" y1="18.529" x2="72.7486" y2="17.8659" gradientTransform="matrix(0.8182 0 0 1 -50.007 0)">
			<stop  offset="5.617980e-03" style="stop-color:#383735"/>
			<stop  offset="1" style="stop-color:#353432"/>
		</linearGradient>
		<path class="st12" d="M7.6,17.6c0,0-1,0.1-1,0.4c0,0.4,1.2,0.6,2.8,0.6c1.6,0,3-0.1,3-0.5c0-0.4-1-0.4-1-0.4L7.6,17.6z"/>
		<path class="st13" d="M7.6,17.7c0,0-0.9,0-1,0.4c0,0.3,1.2,0.5,2.7,0.6c1.5,0,2.9-0.1,2.9-0.4c0-0.3-0.9-0.4-0.9-0.4L7.6,17.7z"/>
		<path class="st14" d="M7.7,17.7c0,0,3.4,0.1,3.4,0.1c0,0,0.9,0.1,0.9,0.4c0,0.1-0.3,0.2-0.7,0.3c-0.5,0.1-1.2,0.1-2,0.1
			c-0.7,0-1.4-0.1-1.8-0.2c-0.4-0.1-0.7-0.2-0.7-0.4C6.9,17.8,7.7,17.7,7.7,17.7z"/>
		<path class="st15" d="M7.8,17.8c0,0,3.2,0.1,3.2,0.1c0,0,0.8,0.1,0.8,0.3c0,0.1-0.3,0.2-0.7,0.3c-0.5,0.1-1.2,0.1-1.9,0.1
			c-0.7,0-1.3-0.1-1.7-0.1C7.2,18.3,7,18.2,7,18.1C7,17.8,7.8,17.8,7.8,17.8z"/>
		<path class="st16" d="M7.9,17.8c0,0,2.9,0,3,0.1c0,0,0.7,0.1,0.8,0.3c0,0.1-0.2,0.2-0.6,0.3c-0.4,0.1-1.1,0.1-1.7,0.1
			c-0.6,0-1.2-0.1-1.6-0.1c-0.4-0.1-0.6-0.2-0.6-0.3C7.2,17.8,7.8,17.8,7.9,17.8z"/>
		<path class="st17" d="M8,17.8c0.1,0,2.7,0,2.7,0c0.1,0,0.7,0.1,0.7,0.3c0,0.1-0.2,0.2-0.6,0.2c-0.4,0.1-1,0.1-1.6,0.1
			c-0.6,0-1.1-0.1-1.4-0.1c-0.3-0.1-0.5-0.2-0.6-0.3C7.3,17.9,7.9,17.9,8,17.8z"/>
		<path class="st18" d="M8.1,17.9c0.1,0,2.4,0,2.5,0c0.1,0,0.6,0.1,0.6,0.2c0,0.1-0.2,0.2-0.5,0.2c-0.4,0.1-0.9,0.1-1.4,0.1
			c-0.5,0-1,0-1.3-0.1c-0.3-0.1-0.5-0.1-0.5-0.2C7.5,17.9,8,17.9,8.1,17.9z"/>
		<path class="st19" d="M8.2,17.9c0.1,0,2.1,0,2.3,0c0.1,0,0.6,0.1,0.6,0.2c0,0.1-0.2,0.1-0.5,0.2c-0.3,0.1-0.8,0.1-1.3,0.1
			c-0.4,0-0.9,0-1.2-0.1c-0.3-0.1-0.4-0.1-0.5-0.2C7.6,18,8.1,18,8.2,17.9z"/>
		<path class="st20" d="M8.2,18c0.1,0,1.9,0,2,0c0.1,0,0.5,0.1,0.5,0.2c0,0.1-0.2,0.1-0.4,0.2c-0.3,0-0.7,0.1-1.1,0.1
			c-0.4,0-0.8,0-1-0.1c-0.2,0-0.4-0.1-0.4-0.2C7.8,18,8.1,18,8.2,18z"/>
		<path class="st21" d="M8.3,18c0.1,0,1.6,0,1.8,0c0.1,0,0.4,0.1,0.4,0.1c0,0.1-0.2,0.1-0.4,0.1c-0.3,0-0.6,0.1-1,0
			c-0.3,0-0.7,0-0.9-0.1c-0.2,0-0.3-0.1-0.4-0.1C7.9,18.1,8.2,18,8.3,18z"/>
		<path class="st22" d="M8.4,18.1c0.1,0,1.4,0,1.5,0c0.1,0,0.4,0.1,0.4,0.1c0,0-0.2,0.1-0.3,0.1c-0.2,0-0.5,0-0.9,0
			c-0.3,0-0.6,0-0.8-0.1c-0.2,0-0.3-0.1-0.3-0.1C8.1,18.1,8.3,18.1,8.4,18.1z"/>
		<path class="st23" d="M8.5,18.1c0.2,0,1.1,0,1.3,0c0.1,0,0.3,0,0.3,0.1c-0.1,0-0.1,0.1-0.3,0.1c-0.2,0-0.4,0-0.7,0
			c-0.2,0-0.5,0-0.6,0c-0.1,0-0.2,0-0.3-0.1C8.2,18.2,8.4,18.1,8.5,18.1z"/>
		<path class="st24" d="M9.6,18.2c0.2,0,0.2,0,0.3,0C9.9,18.2,9.8,18.2,9.6,18.2c-0.3,0.1-0.7,0.1-1,0.1c-0.1,0-0.2,0-0.2,0
			c0,0,0.1,0,0.2,0C8.8,18.1,9.5,18.1,9.6,18.2z"/>
	</g>
	<g>
		
			<linearGradient id="SVGID_13_" gradientUnits="userSpaceOnUse" x1="-558.483" y1="16.6278" x2="-563.4515" y2="16.6278" gradientTransform="matrix(-1 0 0 1 -550.0771 0)">
			<stop  offset="5.617980e-03" style="stop-color:#21201E"/>
			<stop  offset="0.4035" style="stop-color:#1E1D1B"/>
			<stop  offset="0.75" style="stop-color:#131211"/>
			<stop  offset="1" style="stop-color:#060606"/>
		</linearGradient>
		<path class="st25" d="M7.9,15.7c0,0-1.1,0.1-1.1,0.9c0,0.7,1.1,0.9,1.7,1c0.9,0.1,2.2,0.1,3.1,0c0.6-0.1,1.8-0.3,1.7-1
			c0-0.7-1.1-0.9-1.1-0.9H7.9z"/>
		
			<linearGradient id="SVGID_14_" gradientUnits="userSpaceOnUse" x1="-558.5488" y1="16.6286" x2="-563.2614" y2="16.632" gradientTransform="matrix(-1 0 0 1 -550.0771 0)">
			<stop  offset="5.617980e-03" style="stop-color:#262523"/>
			<stop  offset="0.4103" style="stop-color:#232220"/>
			<stop  offset="0.7625" style="stop-color:#181716"/>
			<stop  offset="1" style="stop-color:#0C0B0B"/>
		</linearGradient>
		<path class="st26" d="M12,15.7c0,0,1,0.2,1.1,0.8c0,0.7-1,0.9-1.6,0.9c-0.8,0.1-2.2,0.1-3,0c-0.6-0.1-1.6-0.3-1.6-0.9
			c0-0.7,1-0.8,1.1-0.8C7.9,15.7,12,15.7,12,15.7z"/>
		
			<linearGradient id="SVGID_15_" gradientUnits="userSpaceOnUse" x1="-558.6143" y1="16.6256" x2="-563.0758" y2="16.6319" gradientTransform="matrix(-1 0 0 1 -550.0771 0)">
			<stop  offset="5.617980e-03" style="stop-color:#2B2A28"/>
			<stop  offset="0.4103" style="stop-color:#282725"/>
			<stop  offset="0.7625" style="stop-color:#1D1C1C"/>
			<stop  offset="1" style="stop-color:#111111"/>
		</linearGradient>
		<path class="st27" d="M11.9,15.8c0.1,0,1,0.2,1,0.8c0,0.6-0.9,0.8-1.5,0.9c-0.8,0.1-2.1,0.1-3,0c-0.6-0.1-1.5-0.2-1.5-0.9
			c0-0.6,0.9-0.7,1-0.8C8,15.8,11.8,15.8,11.9,15.8z"/>
		
			<linearGradient id="SVGID_16_" gradientUnits="userSpaceOnUse" x1="-558.6793" y1="16.6187" x2="-562.8945" y2="16.6276" gradientTransform="matrix(-1 0 0 1 -550.0771 0)">
			<stop  offset="5.617980e-03" style="stop-color:#302F2D"/>
			<stop  offset="0.4175" style="stop-color:#2D2C2A"/>
			<stop  offset="0.776" style="stop-color:#222120"/>
			<stop  offset="1" style="stop-color:#171616"/>
		</linearGradient>
		<path class="st28" d="M11.7,15.9c0.1,0,0.9,0.2,1,0.7c0,0.6-0.9,0.7-1.4,0.8c-0.8,0.1-2.1,0.1-2.9,0C7.9,17.3,7,17.1,7,16.6
			c0-0.5,0.8-0.7,0.9-0.7C8.1,15.8,11.6,15.8,11.7,15.9z"/>
		
			<linearGradient id="SVGID_17_" gradientUnits="userSpaceOnUse" x1="-558.7442" y1="16.608" x2="-562.7174" y2="16.6192" gradientTransform="matrix(-1 0 0 1 -550.0771 0)">
			<stop  offset="5.617980e-03" style="stop-color:#353432"/>
			<stop  offset="0.4175" style="stop-color:#32312F"/>
			<stop  offset="0.776" style="stop-color:#272625"/>
			<stop  offset="1" style="stop-color:#1C1C1B"/>
		</linearGradient>
		<path class="st29" d="M11.6,15.9c0.1,0,0.9,0.2,0.9,0.7c0,0.5-0.8,0.7-1.3,0.7c-0.8,0.1-2.1,0.1-2.9,0c-0.5-0.1-1.3-0.2-1.3-0.7
			c0-0.5,0.8-0.6,0.9-0.7C8.1,15.8,11.4,15.9,11.6,15.9z"/>
		
			<linearGradient id="SVGID_18_" gradientUnits="userSpaceOnUse" x1="-558.7614" y1="16.6449" x2="-562.4971" y2="16.6581" gradientTransform="matrix(-1 0 0 1 -550.0771 0)">
			<stop  offset="5.617980e-03" style="stop-color:#3A3937"/>
			<stop  offset="0.425" style="stop-color:#373634"/>
			<stop  offset="0.79" style="stop-color:#2C2B2A"/>
			<stop  offset="1" style="stop-color:#222121"/>
		</linearGradient>
		<path class="st30" d="M11.5,16c0.2,0.1,0.9,0.2,0.9,0.6c0,0.5-0.7,0.6-1.2,0.7c-0.8,0.1-2,0.1-2.8,0c-0.5-0.1-1.1-0.2-1.2-0.7
			c0-0.4,0.7-0.5,0.8-0.6C8.2,15.9,11.3,15.9,11.5,16z"/>
		
			<linearGradient id="SVGID_19_" gradientUnits="userSpaceOnUse" x1="-558.8049" y1="16.6494" x2="-562.3076" y2="16.6642" gradientTransform="matrix(-1 0 0 1 -550.0771 0)">
			<stop  offset="5.617980e-03" style="stop-color:#3F3E3C"/>
			<stop  offset="0.425" style="stop-color:#3C3B39"/>
			<stop  offset="0.79" style="stop-color:#31302F"/>
			<stop  offset="1" style="stop-color:#272726"/>
		</linearGradient>
		<path class="st31" d="M11.3,16c0.2,0.1,0.8,0.2,0.8,0.6c-0.1,0.4-0.6,0.5-1.1,0.6c-0.8,0.1-2,0.1-2.8,0c-0.4-0.1-1-0.2-1.1-0.6
			c0-0.3,0.6-0.5,0.8-0.6C8.3,15.9,11.1,16,11.3,16z"/>
		
			<linearGradient id="SVGID_20_" gradientUnits="userSpaceOnUse" x1="-558.8443" y1="16.6543" x2="-562.1185" y2="16.6705" gradientTransform="matrix(-1 0 0 1 -550.0771 0)">
			<stop  offset="5.617980e-03" style="stop-color:#444341"/>
			<stop  offset="0.433" style="stop-color:#41403E"/>
			<stop  offset="0.805" style="stop-color:#363534"/>
			<stop  offset="1" style="stop-color:#2D2C2C"/>
		</linearGradient>
		<path class="st32" d="M11.2,16.1c0.2,0.1,0.8,0.2,0.8,0.5c-0.1,0.4-0.6,0.5-1,0.6c-0.7,0.2-1.9,0.2-2.7,0c-0.4-0.1-0.9-0.2-1-0.6
			c0-0.3,0.5-0.4,0.7-0.5C8.3,16,10.9,16,11.2,16.1z"/>
		
			<linearGradient id="SVGID_21_" gradientUnits="userSpaceOnUse" x1="-558.8797" y1="16.6597" x2="-561.9298" y2="16.677" gradientTransform="matrix(-1 0 0 1 -550.0771 0)">
			<stop  offset="5.617980e-03" style="stop-color:#494846"/>
			<stop  offset="0.433" style="stop-color:#464543"/>
			<stop  offset="0.805" style="stop-color:#3B3B39"/>
			<stop  offset="1" style="stop-color:#323231"/>
		</linearGradient>
		<path class="st33" d="M11.1,16.2c0.3,0.1,0.7,0.3,0.7,0.5c-0.1,0.3-0.5,0.4-0.9,0.5c-0.7,0.2-1.9,0.2-2.7,0
			c-0.4-0.1-0.8-0.2-0.9-0.5c0-0.2,0.4-0.3,0.7-0.5C8.4,16,10.7,16.1,11.1,16.2z"/>
		
			<linearGradient id="SVGID_22_" gradientUnits="userSpaceOnUse" x1="-558.911" y1="16.6658" x2="-561.7415" y2="16.6838" gradientTransform="matrix(-1 0 0 1 -550.0771 0)">
			<stop  offset="5.617980e-03" style="stop-color:#4E4D4B"/>
			<stop  offset="0.4415" style="stop-color:#4B4A48"/>
			<stop  offset="0.821" style="stop-color:#403F3E"/>
			<stop  offset="1" style="stop-color:#383736"/>
		</linearGradient>
		<path class="st34" d="M10.9,16.2c0.3,0.1,0.7,0.3,0.7,0.4c-0.1,0.3-0.4,0.4-0.8,0.4c-0.7,0.2-1.9,0.2-2.6,0
			c-0.3-0.1-0.7-0.2-0.8-0.4c0-0.1,0.3-0.3,0.6-0.4C8.5,16.1,10.6,16.1,10.9,16.2z"/>
		
			<linearGradient id="SVGID_23_" gradientUnits="userSpaceOnUse" x1="-558.9383" y1="16.6727" x2="-561.5536" y2="16.6912" gradientTransform="matrix(-1 0 0 1 -550.0771 0)">
			<stop  offset="5.617980e-03" style="stop-color:#535250"/>
			<stop  offset="0.4415" style="stop-color:#504F4D"/>
			<stop  offset="0.821" style="stop-color:#454543"/>
			<stop  offset="1" style="stop-color:#3D3D3C"/>
		</linearGradient>
		<path class="st35" d="M10.8,16.3c0.3,0.1,0.6,0.3,0.6,0.4c-0.1,0.2-0.4,0.3-0.6,0.4c-0.7,0.2-1.8,0.2-2.5,0
			c-0.3-0.1-0.5-0.2-0.7-0.4c0-0.1,0.2-0.2,0.6-0.4C8.5,16.1,10.4,16.2,10.8,16.3z"/>
		
			<linearGradient id="SVGID_24_" gradientUnits="userSpaceOnUse" x1="-558.9615" y1="16.6808" x2="-561.3662" y2="16.6995" gradientTransform="matrix(-1 0 0 1 -550.0771 0)">
			<stop  offset="5.617980e-03" style="stop-color:#585755"/>
			<stop  offset="0.4507" style="stop-color:#555452"/>
			<stop  offset="0.8381" style="stop-color:#4A4948"/>
			<stop  offset="1" style="stop-color:#434241"/>
		</linearGradient>
		<path class="st36" d="M10.7,16.3c0.4,0.1,0.6,0.3,0.6,0.3c-0.1,0.1-0.3,0.2-0.5,0.3c-0.7,0.2-1.8,0.2-2.5,0
			c-0.3-0.1-0.4-0.2-0.5-0.3c0,0,0.1-0.1,0.5-0.3C8.6,16.2,10.2,16.2,10.7,16.3z"/>
		
			<linearGradient id="SVGID_25_" gradientUnits="userSpaceOnUse" x1="-622.0565" y1="16.6811" x2="-624.8427" y2="16.7028" gradientTransform="matrix(-0.8182 0 0 1 -500.0701 0)">
			<stop  offset="5.617980e-03" style="stop-color:#5E5D5C"/>
			<stop  offset="0.4709" style="stop-color:#5B5A59"/>
			<stop  offset="0.8761" style="stop-color:#504F4E"/>
			<stop  offset="1" style="stop-color:#4B4A49"/>
		</linearGradient>
		<path class="st37" d="M10.6,16.4c0.3,0.1,0.5,0.3,0.6,0.3c-0.1,0.1-0.3,0.2-0.5,0.3c-0.6,0.2-1.7,0.2-2.4,0
			c-0.2-0.1-0.4-0.2-0.5-0.3c0,0,0.1-0.1,0.5-0.3C8.6,16.2,10.1,16.2,10.6,16.4z"/>
		
			<linearGradient id="SVGID_26_" gradientUnits="userSpaceOnUse" x1="-721.2056" y1="16.6811" x2="-724.5914" y2="16.7074" gradientTransform="matrix(-0.6364 0 0 1 -450.0631 0)">
			<stop  offset="5.617980e-03" style="stop-color:#656462"/>
			<stop  offset="0.4946" style="stop-color:#62615F"/>
			<stop  offset="0.9202" style="stop-color:#575655"/>
			<stop  offset="1" style="stop-color:#545352"/>
		</linearGradient>
		<path class="st38" d="M10.5,16.4c0.3,0.1,0.5,0.3,0.5,0.3c-0.1,0.1-0.3,0.2-0.5,0.3c-0.6,0.2-1.6,0.2-2.2,0
			c-0.2-0.1-0.4-0.1-0.5-0.3c0,0,0.1-0.1,0.5-0.3C8.6,16.2,10.1,16.3,10.5,16.4z"/>
		
			<linearGradient id="SVGID_27_" gradientUnits="userSpaceOnUse" x1="-899.6741" y1="16.6801" x2="-904.1391" y2="16.7149" gradientTransform="matrix(-0.4545 0 0 1 -400.0561 0)">
			<stop  offset="5.617980e-03" style="stop-color:#6B6A69"/>
			<stop  offset="0.5225" style="stop-color:#686766"/>
			<stop  offset="0.9726" style="stop-color:#5D5C5B"/>
			<stop  offset="1" style="stop-color:#5C5B5A"/>
		</linearGradient>
		<path class="st39" d="M10.4,16.4c0.3,0.1,0.5,0.2,0.5,0.2c-0.1,0.1-0.2,0.2-0.5,0.2c-0.6,0.2-1.5,0.2-2.1,0
			c-0.2-0.1-0.4-0.1-0.5-0.2c0,0,0.1-0.1,0.4-0.2C8.6,16.3,10,16.3,10.4,16.4z"/>
		
			<linearGradient id="SVGID_28_" gradientUnits="userSpaceOnUse" x1="-1316.1005" y1="16.6764" x2="-1323.0837" y2="16.7307" gradientTransform="matrix(-0.2727 0 0 1 -350.0491 0)">
			<stop  offset="5.617980e-03" style="stop-color:#717170"/>
			<stop  offset="0.5386" style="stop-color:#6E6E6D"/>
			<stop  offset="1" style="stop-color:#646363"/>
		</linearGradient>
		<path class="st40" d="M10.3,16.5c0.3,0.1,0.5,0.2,0.5,0.2c-0.1,0.1-0.2,0.2-0.4,0.2c-0.5,0.2-1.4,0.2-2,0
			c-0.2-0.1-0.3-0.1-0.4-0.2c0,0,0.1-0.1,0.4-0.2C8.7,16.3,9.9,16.4,10.3,16.5z"/>
		
			<linearGradient id="SVGID_29_" gradientUnits="userSpaceOnUse" x1="-3398.2324" y1="16.6508" x2="-3417.8069" y2="16.8029" gradientTransform="matrix(-9.090909e-02 0 0 1 -300.0421 0)">
			<stop  offset="5.617980e-03" style="stop-color:#787776"/>
			<stop  offset="0.5765" style="stop-color:#757473"/>
			<stop  offset="1" style="stop-color:#6C6C6B"/>
		</linearGradient>
		<path class="st41" d="M10.2,16.5c0.3,0.1,0.4,0.2,0.4,0.2c-0.1,0.1-0.2,0.1-0.4,0.2c-0.5,0.1-1.3,0.1-1.8,0
			c-0.2-0.1-0.3-0.1-0.4-0.2c0,0,0.1-0.1,0.4-0.2C8.7,16.4,9.9,16.4,10.2,16.5z"/>
		
			<linearGradient id="SVGID_30_" gradientUnits="userSpaceOnUse" x1="2856.8975" y1="16.6509" x2="2838.6982" y2="16.7924" gradientTransform="matrix(9.090909e-02 0 0 1 -250.035 0)">
			<stop  offset="5.617980e-03" style="stop-color:#7E7E7D"/>
			<stop  offset="0.6247" style="stop-color:#7B7B7A"/>
			<stop  offset="1" style="stop-color:#757474"/>
		</linearGradient>
		<path class="st42" d="M10.1,16.5c0.2,0.1,0.4,0.2,0.4,0.2c-0.1,0.1-0.2,0.1-0.4,0.2c-0.5,0.1-1.2,0.1-1.7,0
			c-0.2,0-0.3-0.1-0.4-0.2c0,0,0.1-0.1,0.3-0.2C8.7,16.4,9.8,16.4,10.1,16.5z"/>
		
			<linearGradient id="SVGID_31_" gradientUnits="userSpaceOnUse" x1="768.7227" y1="16.6803" x2="763.1149" y2="16.7239" gradientTransform="matrix(0.2727 0 0 1 -200.028 0)">
			<stop  offset="5.617980e-03" style="stop-color:#858483"/>
			<stop  offset="0.6894" style="stop-color:#828180"/>
			<stop  offset="1" style="stop-color:#7D7D7C"/>
		</linearGradient>
		<path class="st43" d="M10,16.5c0.2,0.1,0.4,0.1,0.4,0.1c-0.1,0.1-0.2,0.1-0.3,0.1c-0.4,0.1-1.2,0.1-1.6,0c-0.2,0-0.3-0.1-0.3-0.1
			c0,0,0.1-0.1,0.3-0.1C8.7,16.5,9.7,16.5,10,16.5z"/>
		
			<linearGradient id="SVGID_32_" gradientUnits="userSpaceOnUse" x1="351.0878" y1="16.6868" x2="347.9981" y2="16.7108" gradientTransform="matrix(0.4545 0 0 1 -150.021 0)">
			<stop  offset="5.617980e-03" style="stop-color:#8B8B8A"/>
			<stop  offset="0.7829" style="stop-color:#888887"/>
			<stop  offset="1" style="stop-color:#858585"/>
		</linearGradient>
		<path class="st44" d="M9.9,16.6c0.2,0,0.3,0.1,0.4,0.1c-0.1,0.1-0.2,0.1-0.3,0.1c-0.4,0.1-1.1,0.1-1.5,0c-0.1,0-0.2-0.1-0.3-0.1
			c0,0,0.1,0,0.3-0.1C8.7,16.5,9.7,16.5,9.9,16.6z"/>
		
			<linearGradient id="SVGID_33_" gradientUnits="userSpaceOnUse" x1="172.1014" y1="16.6901" x2="170.091" y2="16.7058" gradientTransform="matrix(0.6364 0 0 1 -100.014 0)">
			<stop  offset="5.617980e-03" style="stop-color:#919191"/>
			<stop  offset="0.9366" style="stop-color:#8E8E8E"/>
			<stop  offset="1" style="stop-color:#8D8D8D"/>
		</linearGradient>
		<path class="st45" d="M9.8,16.6c0.2,0,0.3,0.1,0.3,0.1c-0.1,0-0.2,0.1-0.3,0.1c-0.4,0.1-1,0.1-1.3,0c-0.1,0-0.2-0.1-0.3-0.1
			c0,0,0.1,0,0.3-0.1C8.7,16.5,9.6,16.5,9.8,16.6z"/>
		
			<linearGradient id="SVGID_34_" gradientUnits="userSpaceOnUse" x1="72.6645" y1="16.6924" x2="71.2536" y2="16.7034" gradientTransform="matrix(0.8182 0 0 1 -50.007 0)">
			<stop  offset="5.617980e-03" style="stop-color:#989897"/>
			<stop  offset="1" style="stop-color:#969696"/>
		</linearGradient>
		<path class="st46" d="M9.7,16.6c0.2,0,0.3,0.1,0.3,0.1c-0.1,0-0.1,0.1-0.3,0.1c-0.3,0.1-0.9,0.1-1.2,0c-0.1,0-0.2,0-0.3-0.1
			c0,0,0.1,0,0.2-0.1C8.7,16.6,9.5,16.6,9.7,16.6z"/>
		<path class="st24" d="M9.6,16.6c0.2,0,0.2,0,0.3,0C9.9,16.7,9.8,16.7,9.6,16.6c-0.3,0.1-0.7,0.1-1,0.1c-0.1,0-0.2,0-0.2,0
			c0,0,0.1,0,0.2,0C8.8,16.6,9.5,16.6,9.6,16.6z"/>
	</g>
	<g>
		
			<linearGradient id="SVGID_35_" gradientUnits="userSpaceOnUse" x1="-559.2036" y1="15.3818" x2="-562.7228" y2="15.1058" gradientTransform="matrix(-1 0 0 1 -550.0771 0)">
			<stop  offset="5.617980e-03" style="stop-color:#1F1E1D"/>
			<stop  offset="0.4175" style="stop-color:#1C1B1A"/>
			<stop  offset="0.776" style="stop-color:#11100F"/>
			<stop  offset="1" style="stop-color:#060605"/>
		</linearGradient>
		<path class="st47" d="M8.8,14.7c0,0-0.8,0-1.1,0.4c-0.1,0.2-0.1,0.4,0,0.5c0.1,0.1,0.2,0.2,0.3,0.2c0.2,0,0.9,0.2,2,0.2
			c1.2,0,1.8-0.1,2-0.2c0.1,0,0.2-0.1,0.3-0.2c0.1-0.1,0.1-0.3,0-0.5c-0.2-0.4-1.1-0.4-1.1-0.4H8.8z"/>
		
			<linearGradient id="SVGID_36_" gradientUnits="userSpaceOnUse" x1="-622.3456" y1="15.4054" x2="-626.3289" y2="15.093" gradientTransform="matrix(-0.8182 0 0 1 -500.0701 0)">
			<stop  offset="5.617980e-03" style="stop-color:#2B2A29"/>
			<stop  offset="0.433" style="stop-color:#282726"/>
			<stop  offset="0.805" style="stop-color:#1D1D1C"/>
			<stop  offset="1" style="stop-color:#141413"/>
		</linearGradient>
		<path class="st48" d="M7.8,15.2c-0.1,0.2-0.1,0.3,0,0.4c0.1,0.1,0.2,0.2,0.3,0.2c0.2,0,0.8,0.2,1.9,0.2c1.1,0,1.7-0.1,1.9-0.2
			c0,0,0,0,0.1,0c0.1,0,0.1-0.1,0.2-0.2c0.1-0.1,0.1-0.2,0-0.4c-0.2-0.4-1-0.4-1-0.4c0,0-1.2,0-1.2,0c0,0-1.1,0-1.1,0
			C8.8,14.8,8,14.8,7.8,15.2z"/>
		
			<linearGradient id="SVGID_37_" gradientUnits="userSpaceOnUse" x1="-721.5687" y1="15.4355" x2="-726.2824" y2="15.0658" gradientTransform="matrix(-0.6364 0 0 1 -450.0631 0)">
			<stop  offset="5.617980e-03" style="stop-color:#363534"/>
			<stop  offset="0.4605" style="stop-color:#333231"/>
			<stop  offset="0.8564" style="stop-color:#282827"/>
			<stop  offset="1" style="stop-color:#222221"/>
		</linearGradient>
		<path class="st49" d="M7.9,15.2c-0.1,0.2-0.1,0.3,0,0.4c0.1,0.1,0.2,0.1,0.3,0.2c0.2,0,0.7,0.1,1.7,0.1c1,0,1.6-0.1,1.7-0.1
			c0,0,0,0,0.1,0c0.1,0,0.1-0.1,0.2-0.1c0.1-0.1,0.1-0.2,0-0.4c-0.2-0.3-0.9-0.3-0.9-0.3c0,0-1.1,0-1.1,0c0,0-1,0-1,0
			C8.8,14.8,8.1,14.8,7.9,15.2z"/>
		
			<linearGradient id="SVGID_38_" gradientUnits="userSpaceOnUse" x1="-900.1697" y1="15.4808" x2="-906.2002" y2="15.0079" gradientTransform="matrix(-0.4545 0 0 1 -400.0561 0)">
			<stop  offset="5.617980e-03" style="stop-color:#424140"/>
			<stop  offset="0.4709" style="stop-color:#3F3E3D"/>
			<stop  offset="0.8761" style="stop-color:#343433"/>
			<stop  offset="1" style="stop-color:#2F2F2F"/>
		</linearGradient>
		<path class="st50" d="M8,15.2c-0.1,0.2-0.1,0.3-0.1,0.4c0.1,0.1,0.2,0.1,0.3,0.2c0.1,0,0.7,0.1,1.6,0.1c0.9,0,1.5-0.1,1.6-0.1
			c0,0,0,0,0.1,0c0,0,0.1-0.1,0.1-0.1c0-0.1,0.1-0.2,0-0.3c-0.2-0.3-0.8-0.3-0.8-0.3c0,0-1,0-1,0c0,0-0.9,0-0.9,0
			C8.8,14.9,8.2,14.9,8,15.2z"/>
		
			<linearGradient id="SVGID_39_" gradientUnits="userSpaceOnUse" x1="-1316.9038" y1="15.5704" x2="-1326.0115" y2="14.8561" gradientTransform="matrix(-0.2727 0 0 1 -350.0491 0)">
			<stop  offset="5.617980e-03" style="stop-color:#4D4D4C"/>
			<stop  offset="0.5078" style="stop-color:#4A4A49"/>
			<stop  offset="0.9452" style="stop-color:#3F3F3F"/>
			<stop  offset="1" style="stop-color:#3D3D3D"/>
		</linearGradient>
		<path class="st51" d="M8.1,15.2C8,15.4,8,15.5,8.1,15.6c0.1,0.1,0.2,0.1,0.2,0.1c0.1,0,0.6,0.1,1.4,0.1c0.8,0,1.3-0.1,1.5-0.1
			c0,0,0,0,0.1,0c0,0,0.1-0.1,0.1-0.1c0-0.1,0-0.2,0-0.3C11.2,15,10.6,15,10.6,15c0,0-0.9,0-0.9,0c0,0-0.8,0-0.8,0
			C8.8,15,8.3,15,8.1,15.2z"/>
		
			<linearGradient id="SVGID_40_" gradientUnits="userSpaceOnUse" x1="-3400.5645" y1="15.9202" x2="-3425.0764" y2="13.9977" gradientTransform="matrix(-9.090909e-02 0 0 1 -300.0421 0)">
			<stop  offset="5.617980e-03" style="stop-color:#595858"/>
			<stop  offset="0.5386" style="stop-color:#565555"/>
			<stop  offset="1" style="stop-color:#4B4B4B"/>
		</linearGradient>
		<path class="st52" d="M8.2,15.3c-0.1,0.1-0.1,0.2-0.1,0.3c0.1,0.1,0.2,0.1,0.2,0.1c0.1,0,0.6,0.1,1.3,0.1c0.8,0,1.2-0.1,1.3-0.1
			c0,0,0,0,0.1,0c0,0,0.1-0.1,0.1-0.1c0-0.1,0-0.2-0.1-0.3c-0.1-0.2-0.6-0.2-0.7-0.2c0,0-0.8,0-0.8,0c0,0-0.7,0-0.7,0
			C8.8,15,8.4,15.1,8.2,15.3z"/>
		
			<linearGradient id="SVGID_41_" gradientUnits="userSpaceOnUse" x1="2861.1064" y1="15.8669" x2="2839.3777" y2="14.1627" gradientTransform="matrix(9.090909e-02 0 0 1 -250.035 0)">
			<stop  offset="5.617980e-03" style="stop-color:#646463"/>
			<stop  offset="0.599" style="stop-color:#616160"/>
			<stop  offset="1" style="stop-color:#595958"/>
		</linearGradient>
		<path class="st53" d="M8.3,15.3c-0.1,0.1-0.1,0.2-0.1,0.2c0.1,0.1,0.1,0.1,0.2,0.1c0.1,0,0.5,0.1,1.1,0.1c0.7,0,1.1-0.1,1.2-0.1
			c0,0,0,0,0,0c0,0,0.1,0,0.1-0.1c0-0.1,0-0.1-0.1-0.2c-0.1-0.2-0.5-0.2-0.6-0.2c0,0-0.7,0-0.7,0c0,0-0.6,0-0.6,0
			C8.9,15.1,8.4,15.1,8.3,15.3z"/>
		
			<linearGradient id="SVGID_42_" gradientUnits="userSpaceOnUse" x1="769.8612" y1="15.5511" x2="763.5324" y2="15.0547" gradientTransform="matrix(0.2727 0 0 1 -200.028 0)">
			<stop  offset="5.617980e-03" style="stop-color:#706F6F"/>
			<stop  offset="0.6545" style="stop-color:#6D6C6C"/>
			<stop  offset="1" style="stop-color:#676766"/>
		</linearGradient>
		<path class="st54" d="M8.4,15.3c-0.1,0.1-0.1,0.1-0.1,0.2c0.1,0,0.1,0.1,0.2,0.1c0.1,0,0.4,0.1,1,0.1c0.6,0,0.9-0.1,1.1-0.1
			c0,0,0,0,0,0c0,0,0,0,0-0.1c0,0,0-0.1-0.1-0.2c-0.1-0.2-0.4-0.2-0.5-0.2c0,0-0.6,0-0.6,0c0,0-0.5,0-0.6,0
			C8.9,15.2,8.5,15.2,8.4,15.3z"/>
		
			<linearGradient id="SVGID_43_" gradientUnits="userSpaceOnUse" x1="351.6144" y1="15.5013" x2="348.3544" y2="15.2456" gradientTransform="matrix(0.4545 0 0 1 -150.021 0)">
			<stop  offset="5.617980e-03" style="stop-color:#7B7B7B"/>
			<stop  offset="0.7313" style="stop-color:#787878"/>
			<stop  offset="1" style="stop-color:#757574"/>
		</linearGradient>
		<path class="st55" d="M8.6,15.4c-0.1,0.1-0.1,0.1-0.1,0.2c0.1,0,0.1,0.1,0.2,0.1c0.1,0,0.4,0.1,0.8,0.1c0.5,0,0.8,0,0.9-0.1
			c0,0,0,0,0,0c0,0,0,0,0-0.1c0,0,0-0.1-0.1-0.1c-0.1-0.1-0.3-0.1-0.4-0.1c0,0-0.4,0-0.5,0c0,0-0.4,0-0.5,0
			C8.9,15.3,8.6,15.3,8.6,15.4z"/>
		
			<linearGradient id="SVGID_44_" gradientUnits="userSpaceOnUse" x1="172.371" y1="15.4918" x2="170.4182" y2="15.3386" gradientTransform="matrix(0.6364 0 0 1 -100.014 0)">
			<stop  offset="5.617980e-03" style="stop-color:#878787"/>
			<stop  offset="0.8486" style="stop-color:#848484"/>
			<stop  offset="1" style="stop-color:#828282"/>
		</linearGradient>
		<path class="st56" d="M8.7,15.4c-0.1,0-0.1,0.1-0.1,0.1c0,0,0.1,0,0.2,0.1c0.1,0,0.3,0,0.6,0c0.4,0,0.7,0,0.8-0.1c0,0,0,0,0,0
			c0,0,0,0,0,0c0,0,0-0.1-0.1-0.1c0-0.1-0.3-0.1-0.3-0.1c0,0-0.3,0-0.4,0c-0.1,0-0.3,0-0.4,0C8.9,15.3,8.7,15.3,8.7,15.4z"/>
		
			<linearGradient id="SVGID_45_" gradientUnits="userSpaceOnUse" x1="72.8028" y1="15.496" x2="71.5626" y2="15.3988" gradientTransform="matrix(0.8182 0 0 1 -50.007 0)">
			<stop  offset="5.617980e-03" style="stop-color:#929292"/>
			<stop  offset="1" style="stop-color:#909090"/>
		</linearGradient>
		<path class="st57" d="M8.8,15.4c-0.1,0-0.1,0-0.1,0.1c0,0,0.1,0,0.2,0c0.1,0,0.3,0,0.5,0c0.3,0,0.5,0,0.6,0c0,0,0,0,0,0
			c0,0,0,0,0,0c0,0-0.1,0-0.1-0.1c0,0-0.2,0-0.3,0c-0.1,0-0.2,0-0.3,0c-0.1,0-0.2,0-0.3,0C8.9,15.4,8.8,15.4,8.8,15.4z"/>
		<path class="st24" d="M8.9,15.5c-0.1,0-0.1,0-0.2,0C8.8,15.5,8.8,15.5,8.9,15.5c0.1,0.1,0.2,0.1,0.4,0.1c0.3,0,0.4,0,0.5,0
			c0,0-0.1,0-0.2,0c0,0-0.2,0-0.4,0C9.1,15.5,8.9,15.5,8.9,15.5z"/>
	</g>
	
		<linearGradient id="SVGID_46_" gradientUnits="userSpaceOnUse" x1="-560.6915" y1="9.3217" x2="-562.4645" y2="14.8586" gradientTransform="matrix(-1 0 0 1 -550.0771 0)">
		<stop  offset="0" style="stop-color:#32302E"/>
		<stop  offset="6.317351e-02" style="stop-color:#4C4B49"/>
		<stop  offset="0.1446" style="stop-color:#686766"/>
		<stop  offset="0.2262" style="stop-color:#7B7B7A"/>
		<stop  offset="0.3074" style="stop-color:#878786"/>
		<stop  offset="0.3876" style="stop-color:#8B8B8A"/>
		<stop  offset="0.4928" style="stop-color:#777776"/>
		<stop  offset="0.7081" style="stop-color:#444343"/>
		<stop  offset="0.927" style="stop-color:#0A0909"/>
	</linearGradient>
	<path class="st58" d="M11.1,14.7c0.6-0.1,1.2-0.3,1.3-0.6c0.7-1-1.7-4.2-1.8-4.6c-0.1-0.2,0-0.3,0.2-0.3l0.6-0.1
		c-0.2,0-0.3,0.1-0.2,0.3c0.1,0.4,2.6,3.4,2.1,4.5c-0.1,0.3-0.6,0.7-1.5,0.8c-0.5,0.1-0.9,0.1-0.9,0.1L11.1,14.7z"/>
	
		<linearGradient id="SVGID_47_" gradientUnits="userSpaceOnUse" x1="-563.3405" y1="8.9034" x2="-559.6153" y2="4.6654" gradientTransform="matrix(-1 0 0 1 -550.0771 0)">
		<stop  offset="1.685390e-02" style="stop-color:#454341"/>
		<stop  offset="3.619763e-02" style="stop-color:#4D4B49"/>
		<stop  offset="0.1131" style="stop-color:#686766"/>
		<stop  offset="0.1902" style="stop-color:#7B7B7A"/>
		<stop  offset="0.2669" style="stop-color:#878786"/>
		<stop  offset="0.3427" style="stop-color:#8B8B8A"/>
		<stop  offset="0.449" style="stop-color:#838382"/>
		<stop  offset="0.6134" style="stop-color:#6E6E6C"/>
		<stop  offset="0.8142" style="stop-color:#4C4B49"/>
		<stop  offset="0.9775" style="stop-color:#2B2927"/>
	</linearGradient>
	<path class="st59" d="M12.8,8C12.8,8,12.8,8,12.8,8c-0.1,0-0.1-0.1-0.2-0.1l0.6-0.1c0,0,0.1,0,0.1,0.1c0,0,0,0,0,0
		c0.4,0.2,0.3,1.2-0.3,1.4l-0.6,0.1C13.2,9.3,13.3,8.2,12.8,8z"/>
	
		<linearGradient id="SVGID_48_" gradientUnits="userSpaceOnUse" x1="-563.4977" y1="8.7651" x2="-559.7726" y2="4.5271" gradientTransform="matrix(-1 0 0 1 -550.0771 0)">
		<stop  offset="1.685390e-02" style="stop-color:#454341"/>
		<stop  offset="3.619763e-02" style="stop-color:#4D4B49"/>
		<stop  offset="0.1131" style="stop-color:#686766"/>
		<stop  offset="0.1902" style="stop-color:#7B7B7A"/>
		<stop  offset="0.2669" style="stop-color:#878786"/>
		<stop  offset="0.3427" style="stop-color:#8B8B8A"/>
		<stop  offset="0.449" style="stop-color:#838382"/>
		<stop  offset="0.6134" style="stop-color:#6E6E6C"/>
		<stop  offset="0.8142" style="stop-color:#4C4B49"/>
		<stop  offset="0.9775" style="stop-color:#2B2927"/>
	</linearGradient>
	<path class="st60" d="M10,5c0,0,0.1,0,0.1,0c0.1,0,0.2,0,0.3,0.1c0.2,0,0.3,0.1,0.5,0.2c0.3,0.2,0.6,0.4,0.9,0.9
		c0.3,0.5,0.7,1.2,1.4,1.6l-0.6,0.1c-0.7-0.4-1.1-1.1-1.4-1.6c-0.2-0.4-0.6-0.7-0.9-0.9c-0.2-0.1-0.4-0.2-0.5-0.2
		c-0.1,0-0.2-0.1-0.3-0.1c-0.1,0-0.1,0-0.1,0L10,5z"/>
	
		<linearGradient id="SVGID_49_" gradientUnits="userSpaceOnUse" x1="-560.0089" y1="4.9945" x2="-559.7963" y2="3.7592" gradientTransform="matrix(-1 0 0 1 -550.0771 0)">
		<stop  offset="0" style="stop-color:#3A3836"/>
		<stop  offset="7.944486e-02" style="stop-color:#52504E"/>
		<stop  offset="0.1935" style="stop-color:#6D6C6B"/>
		<stop  offset="0.3077" style="stop-color:#80807F"/>
		<stop  offset="0.4214" style="stop-color:#8C8C8B"/>
		<stop  offset="0.5337" style="stop-color:#90908F"/>
		<stop  offset="0.6251" style="stop-color:#8C8C8B"/>
		<stop  offset="0.7167" style="stop-color:#80807F"/>
		<stop  offset="0.8084" style="stop-color:#6D6C6B"/>
		<stop  offset="0.9003" style="stop-color:#52504F"/>
		<stop  offset="0.9914" style="stop-color:#2F2D2B"/>
		<stop  offset="1" style="stop-color:#2B2927"/>
	</linearGradient>
	<path class="st61" d="M9.7,4.1C9.7,4.1,9.6,4.1,9.7,4.1C9.6,4,9.5,4,9.5,4c0,0,0,0,0,0C9.4,4,9.3,4,9.3,4c0,0,0,0-0.1,0l0.6-0.1
		c0,0,0,0,0.1,0c0.1,0,0.1,0,0.2,0c0,0,0,0,0,0c0.1,0,0.1,0,0.1,0c0,0,0.1,0,0.1,0c0.2,0.1,0.1,0.4-0.3,0.9C9.9,4.9,9.9,5,10,5
		L9.4,5.1c-0.1,0-0.1-0.1,0-0.2C9.7,4.5,9.9,4.2,9.7,4.1z"/>
	
		<linearGradient id="SVGID_50_" gradientUnits="userSpaceOnUse" x1="-556.6777" y1="8.3452" x2="-562.7391" y2="11.4361" gradientTransform="matrix(-1 0 0 1 -550.0771 0)">
		<stop  offset="0" style="stop-color:#868685"/>
		<stop  offset="1" style="stop-color:#2B2927"/>
	</linearGradient>
	<path class="st62" d="M9.4,4C8.9,4,7.7,4.6,7.3,6.3c-0.4,2.1,1.5,2.7-0.5,7.3c-0.4,0.9,0.9,1.3,2.4,1.3c1.4,0,2.9-0.3,3.2-0.7
		c0.7-1-1.7-4.2-1.8-4.6c-0.1-0.2,0.1-0.3,0.5-0.3c0.3,0,0.7,0.1,1.1,0.2c0.1,0,0.1,0,0.2,0c0.7,0,0.9-1.2,0.4-1.4
		c-0.8-0.4-1.2-1.1-1.5-1.7c-0.8-1.4-2.2-0.9-1.9-1.4C9.8,4.3,9.9,4,9.4,4z"/>
	
		<linearGradient id="SVGID_51_" gradientUnits="userSpaceOnUse" x1="765.4277" y1="-11.1612" x2="765.8603" y2="-10.5761" gradientTransform="matrix(0.4918 0.8097 0.7079 -0.43 -358.4997 -618.3494)">
		<stop  offset="0" style="stop-color:#9E9E9E"/>
		<stop  offset="1" style="stop-color:#1C1B1A"/>
	</linearGradient>
	<path class="st63" d="M10.4,6.6c0.2-0.1,0.2-0.3,0.1-0.5c-0.1-0.2-0.3-0.2-0.5-0.1C9.9,6,9.9,6.2,10,6.4
		C10.1,6.6,10.3,6.7,10.4,6.6z"/>
	
		<linearGradient id="SVGID_52_" gradientUnits="userSpaceOnUse" x1="765.7845" y1="-11.0112" x2="765.35" y2="-10.9342" gradientTransform="matrix(0.4918 0.8097 0.7079 -0.43 -358.4997 -618.3494)">
		<stop  offset="0" style="stop-color:#9E9E9E"/>
		<stop  offset="1" style="stop-color:#2F2D2B"/>
	</linearGradient>
	<path class="st64" d="M10.3,6.4c0.1,0,0.1-0.2,0-0.2c-0.1-0.1-0.2-0.1-0.2-0.1c-0.1,0-0.1,0.2,0,0.2C10.2,6.4,10.3,6.4,10.3,6.4z"
		/>
	
		<linearGradient id="SVGID_53_" gradientUnits="userSpaceOnUse" x1="-555.9686" y1="7.7695" x2="-560.3013" y2="15.7869" gradientTransform="matrix(-1 0 0 1 -550.0771 0)">
		<stop  offset="0.3427" style="stop-color:#868685"/>
		<stop  offset="0.4568" style="stop-color:#7E7E7D"/>
		<stop  offset="0.6334" style="stop-color:#696967"/>
		<stop  offset="0.8492" style="stop-color:#474644"/>
		<stop  offset="1" style="stop-color:#2B2927"/>
	</linearGradient>
	<path class="st65" d="M7.5,6.9c0.2,0.8,0.7,2.2,0.7,3.5c0,1.4-1.3,3.7-0.9,3.8c0.3,0.1,1.6,0.4,2.8,0.3c1.2-0.1-1.7-0.3-1.6-0.9
		c0.1-0.6,0.3-2.5,0.1-3.8C8.2,8,7.5,6.9,7.5,6.9z"/>
</g>
</svg>
