<?xml version="1.0" encoding="utf-8"?>
<!-- Generator: Adobe Illustrator 24.2.3, SVG Export Plug-In . SVG Version: 6.00 Build 0)  -->
<svg version="1.1" id="Layer_1" xmlns="http://www.w3.org/2000/svg" xmlns:xlink="http://www.w3.org/1999/xlink" x="0px" y="0px"
	 viewBox="0 0 20 20" style="enable-background:new 0 0 20 20;" xml:space="preserve">
<style type="text/css">
	.st0{fill:none;}
	.st1{fill-rule:evenodd;clip-rule:evenodd;fill:url(#SVGID_1_);}
	.st2{fill:url(#SVGID_2_);}
	.st3{fill:url(#SVGID_3_);}
	.st4{fill:url(#SVGID_4_);}
	.st5{fill:url(#SVGID_5_);}
	.st6{fill:url(#SVGID_6_);}
	.st7{fill:url(#SVGID_7_);}
	.st8{fill:url(#SVGID_8_);}
	.st9{fill:url(#SVGID_9_);}
	.st10{fill:url(#SVGID_10_);}
	.st11{fill:url(#SVGID_11_);}
	.st12{fill:url(#SVGID_12_);}
	.st13{fill:#CC915C;}
	.st14{fill:#D19965;}
	.st15{fill:#D5A16E;}
	.st16{fill:#DAAA76;}
	.st17{fill:#DFB27F;}
	.st18{fill:#E3BA88;}
	.st19{fill:#E8C291;}
	.st20{fill:#ECCA9A;}
	.st21{fill:#F1D2A3;}
	.st22{fill:#F6DBAB;}
	.st23{fill:#FAE3B4;}
	.st24{fill:#FFEBBD;}
	.st25{fill:url(#SVGID_13_);}
	.st26{fill:url(#SVGID_14_);}
	.st27{fill:url(#SVGID_15_);}
	.st28{fill:url(#SVGID_16_);}
	.st29{fill:url(#SVGID_17_);}
	.st30{fill:url(#SVGID_18_);}
	.st31{fill:url(#SVGID_19_);}
	.st32{fill:url(#SVGID_20_);}
	.st33{fill:url(#SVGID_21_);}
	.st34{fill:url(#SVGID_22_);}
	.st35{fill:url(#SVGID_23_);}
	.st36{fill:url(#SVGID_24_);}
	.st37{fill:url(#SVGID_25_);}
	.st38{fill:url(#SVGID_26_);}
	.st39{fill:url(#SVGID_27_);}
	.st40{fill:url(#SVGID_28_);}
	.st41{fill:url(#SVGID_29_);}
	.st42{fill:url(#SVGID_30_);}
	.st43{fill:url(#SVGID_31_);}
	.st44{fill:url(#SVGID_32_);}
	.st45{fill:url(#SVGID_33_);}
	.st46{fill:url(#SVGID_34_);}
	.st47{fill:url(#SVGID_35_);}
	.st48{fill:url(#SVGID_36_);}
	.st49{fill:url(#SVGID_37_);}
	.st50{fill:url(#SVGID_38_);}
	.st51{fill:url(#SVGID_39_);}
	.st52{fill:url(#SVGID_40_);}
	.st53{fill:url(#SVGID_41_);}
	.st54{fill:url(#SVGID_42_);}
	.st55{fill:url(#SVGID_43_);}
	.st56{fill:url(#SVGID_44_);}
	.st57{fill:url(#SVGID_45_);}
	.st58{fill:#B67B36;}
	.st59{fill:url(#SVGID_46_);}
	.st60{fill:url(#SVGID_47_);}
	.st61{fill:url(#SVGID_48_);}
	.st62{fill:url(#SVGID_49_);}
	.st63{fill:url(#SVGID_50_);}
	.st64{fill:url(#SVGID_51_);}
	.st65{fill:url(#SVGID_52_);}
	.st66{fill:url(#SVGID_53_);}
	.st67{fill:url(#SVGID_54_);}
	.st68{fill:url(#SVGID_55_);}
	.st69{fill:url(#SVGID_56_);}
	.st70{fill:url(#SVGID_57_);}
	.st71{fill:#B5782F;}
	.st72{fill:url(#SVGID_58_);}
	.st73{fill:url(#SVGID_59_);}
	.st74{fill:url(#SVGID_60_);}
	.st75{fill:url(#SVGID_61_);}
	.st76{fill:url(#SVGID_62_);}
	.st77{fill:url(#SVGID_63_);}
	.st78{fill:url(#SVGID_64_);}
	.st79{fill:url(#SVGID_65_);}
	.st80{fill:url(#SVGID_66_);}
	.st81{fill:url(#SVGID_67_);}
	.st82{fill:url(#SVGID_68_);}
	.st83{fill:url(#SVGID_69_);}
	.st84{fill:url(#SVGID_70_);}
	.st85{fill:url(#SVGID_71_);}
	.st86{fill:url(#SVGID_72_);}
	.st87{fill:url(#SVGID_73_);}
	.st88{fill:url(#SVGID_74_);}
	.st89{fill:#FFE0B3;}
	.st90{fill:url(#SVGID_75_);}
	.st91{fill:url(#SVGID_76_);}
	.st92{fill:url(#SVGID_77_);}
	.st93{fill:url(#SVGID_78_);}
	.st94{fill:url(#SVGID_79_);}
</style>
<rect y="0" class="st0" width="20" height="20"/>
<g>
	
		<radialGradient id="SVGID_1_" cx="-560.0771" cy="269.6648" r="5.4605" gradientTransform="matrix(-1 0 0 0.165 -550.0771 -26.0693)" gradientUnits="userSpaceOnUse">
		<stop  offset="0.4213" style="stop-color:#A86121"/>
		<stop  offset="0.5516" style="stop-color:#BE8D61;stop-opacity:0.7533"/>
		<stop  offset="0.6891" style="stop-color:#D3B79E;stop-opacity:0.4929"/>
		<stop  offset="0.8062" style="stop-color:#E3D6CA;stop-opacity:0.2713"/>
		<stop  offset="0.8966" style="stop-color:#ECE9E6;stop-opacity:0.1"/>
		<stop  offset="0.9494" style="stop-color:#F0F0F0;stop-opacity:0"/>
	</radialGradient>
	<path class="st1" d="M4.6,18.4c0,0.5,2.4,0.9,5.4,0.9c3,0,5.4-0.5,5.4-0.9c0-0.5-2.4-0.9-5.4-0.9C7,17.5,4.6,17.9,4.6,18.4z"/>
	<g>
		
			<linearGradient id="SVGID_2_" gradientUnits="userSpaceOnUse" x1="-560.0771" y1="18.7231" x2="-560.0771" y2="17.7187" gradientTransform="matrix(-1 0 0 1 -550.0771 0)">
			<stop  offset="5.617980e-03" style="stop-color:#BB7D36"/>
			<stop  offset="0.3648" style="stop-color:#B87A34"/>
			<stop  offset="0.6778" style="stop-color:#AD702F"/>
			<stop  offset="0.9728" style="stop-color:#9B6027"/>
			<stop  offset="1" style="stop-color:#995E26"/>
		</linearGradient>
		<path class="st2" d="M7.6,17.3c0,0-1.2,0.1-1.2,0.7c0,0.6,1.6,0.9,3.5,0.9s3.8-0.3,3.8-0.9c0-0.6-1.2-0.7-1.2-0.7H7.6z"/>
		
			<linearGradient id="SVGID_3_" gradientUnits="userSpaceOnUse" x1="-623.3633" y1="18.7121" x2="-623.3633" y2="17.7461" gradientTransform="matrix(-0.8182 0 0 1 -500.0701 0)">
			<stop  offset="5.617980e-03" style="stop-color:#BD7F39"/>
			<stop  offset="0.3798" style="stop-color:#BA7C37"/>
			<stop  offset="0.7055" style="stop-color:#AF7233"/>
			<stop  offset="1" style="stop-color:#9E632B"/>
		</linearGradient>
		<path class="st3" d="M7.6,17.4c0,0-1.2,0.1-1.2,0.6c0,0.5,1.5,0.8,3.4,0.8c1.9,0,3.7-0.3,3.7-0.8c0-0.5-1.2-0.6-1.2-0.6L7.6,17.4z
			"/>
		
			<linearGradient id="SVGID_4_" gradientUnits="userSpaceOnUse" x1="-722.813" y1="18.7012" x2="-722.813" y2="17.7735" gradientTransform="matrix(-0.6364 0 0 1 -450.0631 0)">
			<stop  offset="5.617980e-03" style="stop-color:#BE813D"/>
			<stop  offset="0.3972" style="stop-color:#BB7E3B"/>
			<stop  offset="0.738" style="stop-color:#B07436"/>
			<stop  offset="1" style="stop-color:#A26730"/>
		</linearGradient>
		<path class="st4" d="M7.6,17.4c0,0-1.2,0.1-1.2,0.6c0,0.5,1.5,0.8,3.4,0.8c1.9,0,3.6-0.3,3.6-0.8c0-0.5-1.2-0.6-1.2-0.6L7.6,17.4z
			"/>
		
			<linearGradient id="SVGID_5_" gradientUnits="userSpaceOnUse" x1="-901.8226" y1="18.6903" x2="-901.8226" y2="17.801" gradientTransform="matrix(-0.4545 0 0 1 -400.0561 0)">
			<stop  offset="5.617980e-03" style="stop-color:#C08240"/>
			<stop  offset="0.4175" style="stop-color:#BD7F3E"/>
			<stop  offset="0.776" style="stop-color:#B2763A"/>
			<stop  offset="1" style="stop-color:#A76C35"/>
		</linearGradient>
		<path class="st5" d="M7.6,17.5c0,0-1.1,0.1-1.2,0.6c0,0.5,1.5,0.8,3.3,0.8c1.8,0,3.5-0.2,3.5-0.7c0-0.5-1.2-0.6-1.2-0.6L7.6,17.5z
			"/>
		
			<linearGradient id="SVGID_6_" gradientUnits="userSpaceOnUse" x1="-1319.5115" y1="18.6795" x2="-1319.5115" y2="17.8284" gradientTransform="matrix(-0.2727 0 0 1 -350.0491 0)">
			<stop  offset="5.617980e-03" style="stop-color:#C18444"/>
			<stop  offset="0.4507" style="stop-color:#BE8142"/>
			<stop  offset="0.8381" style="stop-color:#B3773D"/>
			<stop  offset="1" style="stop-color:#AC713A"/>
		</linearGradient>
		<path class="st6" d="M7.7,17.5c0,0-1.1,0.1-1.1,0.6c0,0.5,1.4,0.7,3.2,0.7c1.8,0,3.4-0.2,3.4-0.7c0-0.5-1.1-0.6-1.1-0.6L7.7,17.5z
			"/>
		
			<linearGradient id="SVGID_7_" gradientUnits="userSpaceOnUse" x1="-3407.9561" y1="18.6687" x2="-3407.9561" y2="17.8558" gradientTransform="matrix(-9.090909e-02 0 0 1 -300.0421 0)">
			<stop  offset="5.617980e-03" style="stop-color:#C38647"/>
			<stop  offset="0.4709" style="stop-color:#C08346"/>
			<stop  offset="0.8761" style="stop-color:#B57941"/>
			<stop  offset="1" style="stop-color:#B0753F"/>
		</linearGradient>
		<path class="st7" d="M7.7,17.5c0,0-1.1,0.1-1.1,0.5c0,0.4,1.4,0.7,3.1,0.7c1.7,0,3.3-0.2,3.3-0.7c0-0.4-1.1-0.5-1.1-0.5L7.7,17.5z
			"/>
		
			<linearGradient id="SVGID_8_" gradientUnits="userSpaceOnUse" x1="2857.3777" y1="18.658" x2="2857.3777" y2="17.8833" gradientTransform="matrix(9.090909e-02 0 0 1 -250.035 0)">
			<stop  offset="5.617980e-03" style="stop-color:#C4884B"/>
			<stop  offset="0.5225" style="stop-color:#C18549"/>
			<stop  offset="0.9726" style="stop-color:#B67B43"/>
			<stop  offset="1" style="stop-color:#B57A43"/>
		</linearGradient>
		<path class="st8" d="M7.7,17.6c0,0-1,0.1-1.1,0.5c0,0.4,1.3,0.7,3,0.7c1.7,0,3.2-0.2,3.2-0.6c0-0.4-1.1-0.5-1.1-0.5L7.7,17.6z"/>
		
			<linearGradient id="SVGID_9_" gradientUnits="userSpaceOnUse" x1="768.9331" y1="18.6474" x2="768.9331" y2="17.9108" gradientTransform="matrix(0.2727 0 0 1 -200.028 0)">
			<stop  offset="5.617980e-03" style="stop-color:#C68A4E"/>
			<stop  offset="0.5565" style="stop-color:#C3874C"/>
			<stop  offset="1" style="stop-color:#B97E48"/>
		</linearGradient>
		<path class="st9" d="M7.7,17.6c0,0-1,0.1-1,0.5c0,0.4,1.3,0.6,2.9,0.6c1.6,0,3.1-0.2,3.1-0.6c0-0.4-1-0.5-1-0.5L7.7,17.6z"/>
		
			<linearGradient id="SVGID_10_" gradientUnits="userSpaceOnUse" x1="351.2442" y1="18.6368" x2="351.2442" y2="17.9383" gradientTransform="matrix(0.4545 0 0 1 -150.021 0)">
			<stop  offset="5.617980e-03" style="stop-color:#C78C52"/>
			<stop  offset="0.6545" style="stop-color:#C48950"/>
			<stop  offset="1" style="stop-color:#BE834D"/>
		</linearGradient>
		<path class="st10" d="M7.7,17.7c0,0-1,0.1-1,0.4c0,0.4,1.2,0.6,2.8,0.6c1.6,0,3-0.2,3-0.5c0-0.4-1-0.5-1-0.5L7.7,17.7z"/>
		
			<linearGradient id="SVGID_11_" gradientUnits="userSpaceOnUse" x1="172.2347" y1="18.6264" x2="172.2347" y2="17.9658" gradientTransform="matrix(0.6364 0 0 1 -100.014 0)">
			<stop  offset="5.617980e-03" style="stop-color:#C98D55"/>
			<stop  offset="0.7829" style="stop-color:#C68A53"/>
			<stop  offset="1" style="stop-color:#C38852"/>
		</linearGradient>
		<path class="st11" d="M7.7,17.7c0,0-0.9,0.1-1,0.4c0,0.4,1.2,0.6,2.7,0.6c1.5,0,2.9-0.1,2.9-0.5c0-0.4-1-0.4-1-0.4L7.7,17.7z"/>
		
			<linearGradient id="SVGID_12_" gradientUnits="userSpaceOnUse" x1="72.7849" y1="18.616" x2="72.7849" y2="17.9934" gradientTransform="matrix(0.8182 0 0 1 -50.007 0)">
			<stop  offset="5.617980e-03" style="stop-color:#CA8F59"/>
			<stop  offset="1" style="stop-color:#C78C57"/>
		</linearGradient>
		<path class="st12" d="M7.8,17.8c0,0-0.9,0.1-0.9,0.4c0,0.3,1.2,0.5,2.6,0.6c1.5,0,2.8-0.1,2.8-0.5c0-0.3-0.9-0.4-0.9-0.4L7.8,17.8
			z"/>
		<path class="st13" d="M7.8,17.8c0,0-0.9,0-0.9,0.4c0,0.3,1.1,0.5,2.5,0.5c1.4,0,2.7-0.1,2.7-0.4c0-0.3-0.9-0.4-0.9-0.4L7.8,17.8z"
			/>
		<path class="st14" d="M7.9,17.8c0,0,3.2,0.1,3.2,0.1c0,0,0.8,0.1,0.8,0.4c0,0.1-0.3,0.2-0.7,0.3c-0.5,0.1-1.2,0.1-1.9,0.1
			c-0.7,0-1.3-0.1-1.7-0.2C7.3,18.4,7,18.3,7,18.2C7,17.9,7.8,17.8,7.9,17.8z"/>
		<path class="st15" d="M7.9,17.9c0,0,3,0.1,3,0.1c0,0,0.8,0.1,0.8,0.3c0,0.1-0.2,0.2-0.6,0.3c-0.4,0.1-1.1,0.1-1.8,0.1
			c-0.6,0-1.2-0.1-1.6-0.1c-0.4-0.1-0.6-0.2-0.6-0.3C7.2,17.9,7.9,17.9,7.9,17.9z"/>
		<path class="st16" d="M8,17.9c0,0,2.7,0,2.8,0.1c0,0,0.7,0.1,0.7,0.3c0,0.1-0.2,0.2-0.6,0.2c-0.4,0.1-1,0.1-1.6,0.1
			c-0.6,0-1.1-0.1-1.5-0.1c-0.4-0.1-0.6-0.2-0.6-0.3C7.3,18,8,17.9,8,17.9z"/>
		<path class="st17" d="M8.1,18c0.1,0,2.5,0,2.6,0c0.1,0,0.6,0.1,0.7,0.3c0,0.1-0.2,0.2-0.5,0.2c-0.4,0.1-0.9,0.1-1.5,0.1
			c-0.5,0-1,0-1.3-0.1c-0.3-0.1-0.5-0.1-0.5-0.2C7.5,18,8,18,8.1,18z"/>
		<path class="st18" d="M8.2,18c0.1,0,2.3,0,2.3,0c0.1,0,0.6,0.1,0.6,0.2c0,0.1-0.2,0.1-0.5,0.2c-0.3,0.1-0.8,0.1-1.3,0.1
			c-0.5,0-0.9,0-1.2-0.1c-0.3-0.1-0.5-0.1-0.5-0.2C7.6,18.1,8.1,18,8.2,18z"/>
		<path class="st19" d="M8.3,18.1c0.1,0,2,0,2.1,0c0.1,0,0.5,0.1,0.5,0.2c0,0.1-0.2,0.1-0.4,0.2c-0.3,0-0.8,0.1-1.2,0.1
			c-0.4,0-0.8,0-1.1-0.1c-0.3,0-0.4-0.1-0.4-0.2C7.8,18.1,8.2,18.1,8.3,18.1z"/>
		<path class="st20" d="M8.3,18.1c0.1,0,1.8,0,1.9,0c0.1,0,0.5,0.1,0.5,0.2c0,0.1-0.2,0.1-0.4,0.1c-0.3,0-0.7,0.1-1.1,0.1
			c-0.4,0-0.7,0-1-0.1c-0.2,0-0.4-0.1-0.4-0.2C7.9,18.1,8.3,18.1,8.3,18.1z"/>
		<path class="st21" d="M8.4,18.1c0.1,0,1.5,0,1.7,0c0.1,0,0.4,0.1,0.4,0.1c0,0.1-0.2,0.1-0.3,0.1c-0.2,0-0.6,0-0.9,0
			c-0.3,0-0.6,0-0.8-0.1c-0.2,0-0.3-0.1-0.4-0.1C8,18.2,8.3,18.2,8.4,18.1z"/>
		<path class="st22" d="M8.5,18.2c0.1,0,1.3,0,1.4,0c0.1,0,0.3,0,0.4,0.1c0,0-0.1,0.1-0.3,0.1c-0.2,0-0.5,0-0.8,0
			c-0.3,0-0.5,0-0.7,0c-0.2,0-0.3-0.1-0.3-0.1C8.2,18.2,8.4,18.2,8.5,18.2z"/>
		<path class="st23" d="M8.6,18.2c0.2,0,1.1,0,1.2,0c0.1,0,0.3,0,0.3,0.1c0,0-0.1,0.1-0.3,0.1c-0.2,0-0.4,0-0.7,0
			c-0.2,0-0.4,0-0.6,0c-0.1,0-0.2,0-0.3-0.1C8.3,18.3,8.5,18.3,8.6,18.2z"/>
		<path class="st24" d="M9.7,18.3c0.1,0,0.2,0,0.2,0C9.9,18.3,9.8,18.4,9.7,18.3c-0.2,0.1-0.7,0.1-1,0.1c-0.1,0-0.2,0-0.2,0
			c0,0,0.1,0,0.2,0C8.8,18.2,9.5,18.3,9.7,18.3z"/>
	</g>
	<g>
		
			<linearGradient id="SVGID_13_" gradientUnits="userSpaceOnUse" x1="-558.5803" y1="16.8308" x2="-563.2458" y2="16.8308" gradientTransform="matrix(-1 0 0 1 -550.0771 0)">
			<stop  offset="5.617980e-03" style="stop-color:#BF7D36"/>
			<stop  offset="0.3696" style="stop-color:#BC7A34"/>
			<stop  offset="0.6863" style="stop-color:#B1702C"/>
			<stop  offset="0.9852" style="stop-color:#9F5F20"/>
			<stop  offset="1" style="stop-color:#9E5E1F"/>
		</linearGradient>
		<path class="st25" d="M8,15.9c0,0-1,0.1-1,0.8c0,0.7,1,0.9,1.6,0.9c0.8,0.1,2.1,0.1,2.9,0c0.6-0.1,1.6-0.3,1.6-0.9
			c0-0.7-1-0.8-1-0.8H8z"/>
		
			<linearGradient id="SVGID_14_" gradientUnits="userSpaceOnUse" x1="-558.6422" y1="16.8313" x2="-563.0675" y2="16.8345" gradientTransform="matrix(-1 0 0 1 -550.0771 0)">
			<stop  offset="5.617980e-03" style="stop-color:#C1823C"/>
			<stop  offset="0.3798" style="stop-color:#BE7F3A"/>
			<stop  offset="0.7055" style="stop-color:#B37432"/>
			<stop  offset="1" style="stop-color:#A26426"/>
		</linearGradient>
		<path class="st26" d="M11.9,16c0,0,1,0.2,1,0.8c0,0.6-0.9,0.8-1.5,0.9c-0.8,0.1-2,0.1-2.8,0C8,17.6,7,17.4,7,16.8
			C7,16.1,8,16,8,16C8,16,11.8,16,11.9,16z"/>
		
			<linearGradient id="SVGID_15_" gradientUnits="userSpaceOnUse" x1="-558.7039" y1="16.8281" x2="-562.8936" y2="16.834" gradientTransform="matrix(-1 0 0 1 -550.0771 0)">
			<stop  offset="5.617980e-03" style="stop-color:#C48641"/>
			<stop  offset="0.3798" style="stop-color:#C1833F"/>
			<stop  offset="0.7055" style="stop-color:#B67938"/>
			<stop  offset="1" style="stop-color:#A56A2D"/>
		</linearGradient>
		<path class="st27" d="M11.8,16c0.1,0,0.9,0.2,1,0.7c0,0.6-0.9,0.8-1.4,0.8c-0.8,0.1-2,0.1-2.8,0c-0.5-0.1-1.4-0.2-1.4-0.8
			C7.1,16.2,8,16.1,8,16C8.1,16,11.7,16,11.8,16z"/>
		
			<linearGradient id="SVGID_16_" gradientUnits="userSpaceOnUse" x1="-558.7656" y1="16.821" x2="-562.7239" y2="16.8294" gradientTransform="matrix(-1 0 0 1 -550.0771 0)">
			<stop  offset="5.617980e-03" style="stop-color:#C68B47"/>
			<stop  offset="0.3911" style="stop-color:#C38845"/>
			<stop  offset="0.7266" style="stop-color:#B87D3E"/>
			<stop  offset="1" style="stop-color:#A96F34"/>
		</linearGradient>
		<path class="st28" d="M11.6,16.1c0.1,0,0.9,0.2,0.9,0.7c0,0.5-0.8,0.7-1.3,0.8c-0.8,0.1-2,0.1-2.7,0c-0.5-0.1-1.3-0.2-1.3-0.8
			c0-0.5,0.8-0.6,0.9-0.7C8.2,16.1,11.5,16.1,11.6,16.1z"/>
		
			<linearGradient id="SVGID_17_" gradientUnits="userSpaceOnUse" x1="-558.8273" y1="16.8101" x2="-562.5584" y2="16.8206" gradientTransform="matrix(-1 0 0 1 -550.0771 0)">
			<stop  offset="5.617980e-03" style="stop-color:#C98F4C"/>
			<stop  offset="0.3972" style="stop-color:#C68C4A"/>
			<stop  offset="0.738" style="stop-color:#BB8243"/>
			<stop  offset="1" style="stop-color:#AD753B"/>
		</linearGradient>
		<path class="st29" d="M11.5,16.2c0.1,0,0.8,0.2,0.9,0.6c0,0.5-0.7,0.6-1.2,0.7c-0.7,0.1-1.9,0.1-2.7,0c-0.5-0.1-1.2-0.2-1.2-0.7
			c0-0.4,0.7-0.6,0.8-0.6C8.2,16.1,11.3,16.1,11.5,16.2z"/>
		
			<linearGradient id="SVGID_18_" gradientUnits="userSpaceOnUse" x1="-558.8416" y1="16.8467" x2="-562.3497" y2="16.8591" gradientTransform="matrix(-1 0 0 1 -550.0771 0)">
			<stop  offset="5.617980e-03" style="stop-color:#CB9452"/>
			<stop  offset="0.4103" style="stop-color:#C89150"/>
			<stop  offset="0.7625" style="stop-color:#BD8649"/>
			<stop  offset="1" style="stop-color:#B17B42"/>
		</linearGradient>
		<path class="st30" d="M11.4,16.2c0.2,0,0.8,0.2,0.8,0.6c0,0.4-0.7,0.6-1.1,0.6c-0.7,0.1-1.9,0.1-2.6,0c-0.4-0.1-1.1-0.2-1.1-0.6
			c0-0.4,0.6-0.5,0.8-0.6C8.3,16.1,11.2,16.2,11.4,16.2z"/>
		
			<linearGradient id="SVGID_19_" gradientUnits="userSpaceOnUse" x1="-558.8824" y1="16.8509" x2="-562.1718" y2="16.8649" gradientTransform="matrix(-1 0 0 1 -550.0771 0)">
			<stop  offset="5.617980e-03" style="stop-color:#CE9857"/>
			<stop  offset="0.4103" style="stop-color:#CB9555"/>
			<stop  offset="0.7625" style="stop-color:#C08C4F"/>
			<stop  offset="1" style="stop-color:#B48148"/>
		</linearGradient>
		<path class="st31" d="M11.2,16.3c0.2,0.1,0.8,0.2,0.8,0.5c-0.1,0.4-0.6,0.5-1,0.6c-0.7,0.1-1.9,0.1-2.6,0c-0.4-0.1-1-0.2-1-0.6
			c0-0.3,0.5-0.4,0.7-0.5C8.4,16.2,11,16.2,11.2,16.3z"/>
		
			<linearGradient id="SVGID_20_" gradientUnits="userSpaceOnUse" x1="-558.9194" y1="16.8556" x2="-561.9941" y2="16.8708" gradientTransform="matrix(-1 0 0 1 -550.0771 0)">
			<stop  offset="5.617980e-03" style="stop-color:#D09D5D"/>
			<stop  offset="0.425" style="stop-color:#CD9A5B"/>
			<stop  offset="0.79" style="stop-color:#C29055"/>
			<stop  offset="1" style="stop-color:#B8874F"/>
		</linearGradient>
		<path class="st32" d="M11.1,16.3c0.2,0.1,0.7,0.2,0.7,0.5c-0.1,0.3-0.5,0.4-0.9,0.5c-0.7,0.1-1.8,0.1-2.5,0
			c-0.4-0.1-0.8-0.2-0.9-0.5c0-0.3,0.5-0.4,0.7-0.5C8.4,16.2,10.9,16.2,11.1,16.3z"/>
		
			<linearGradient id="SVGID_21_" gradientUnits="userSpaceOnUse" x1="-558.9526" y1="16.8607" x2="-561.817" y2="16.8769" gradientTransform="matrix(-1 0 0 1 -550.0771 0)">
			<stop  offset="5.617980e-03" style="stop-color:#D3A162"/>
			<stop  offset="0.433" style="stop-color:#D09E60"/>
			<stop  offset="0.805" style="stop-color:#C5955B"/>
			<stop  offset="1" style="stop-color:#BC8D56"/>
		</linearGradient>
		<path class="st33" d="M11,16.4c0.2,0.1,0.7,0.2,0.7,0.4c-0.1,0.3-0.5,0.4-0.8,0.5c-0.7,0.2-1.8,0.2-2.5,0
			c-0.3-0.1-0.7-0.2-0.8-0.5c0-0.2,0.4-0.3,0.6-0.4C8.5,16.3,10.7,16.3,11,16.4z"/>
		
			<linearGradient id="SVGID_22_" gradientUnits="userSpaceOnUse" x1="-558.9821" y1="16.8664" x2="-561.6402" y2="16.8833" gradientTransform="matrix(-1 0 0 1 -550.0771 0)">
			<stop  offset="5.617980e-03" style="stop-color:#D5A668"/>
			<stop  offset="0.4507" style="stop-color:#D2A366"/>
			<stop  offset="0.8381" style="stop-color:#C79961"/>
			<stop  offset="1" style="stop-color:#C0925D"/>
		</linearGradient>
		<path class="st34" d="M10.9,16.4c0.3,0.1,0.6,0.3,0.7,0.4c-0.1,0.2-0.4,0.3-0.7,0.4c-0.7,0.2-1.8,0.2-2.4,0
			c-0.3-0.1-0.6-0.2-0.7-0.4c0-0.1,0.3-0.2,0.6-0.4C8.5,16.3,10.5,16.3,10.9,16.4z"/>
		
			<linearGradient id="SVGID_23_" gradientUnits="userSpaceOnUse" x1="-559.0077" y1="16.8729" x2="-561.4637" y2="16.8902" gradientTransform="matrix(-1 0 0 1 -550.0771 0)">
			<stop  offset="5.617980e-03" style="stop-color:#D8AA6D"/>
			<stop  offset="0.4507" style="stop-color:#D5A76C"/>
			<stop  offset="0.8381" style="stop-color:#CA9E67"/>
			<stop  offset="1" style="stop-color:#C39864"/>
		</linearGradient>
		<path class="st35" d="M10.7,16.5c0.3,0.1,0.6,0.3,0.6,0.3c-0.1,0.2-0.3,0.3-0.6,0.4c-0.7,0.2-1.7,0.2-2.4,0
			c-0.3-0.1-0.5-0.2-0.6-0.4c0-0.1,0.2-0.2,0.5-0.3C8.6,16.4,10.4,16.4,10.7,16.5z"/>
		
			<linearGradient id="SVGID_24_" gradientUnits="userSpaceOnUse" x1="-559.0295" y1="16.8804" x2="-561.2877" y2="16.8979" gradientTransform="matrix(-1 0 0 1 -550.0771 0)">
			<stop  offset="5.617980e-03" style="stop-color:#DAAF73"/>
			<stop  offset="0.4709" style="stop-color:#D7AC72"/>
			<stop  offset="0.8761" style="stop-color:#CCA26D"/>
			<stop  offset="1" style="stop-color:#C79E6B"/>
		</linearGradient>
		<path class="st36" d="M10.6,16.6c0.3,0.1,0.5,0.3,0.6,0.3c-0.1,0.1-0.3,0.2-0.5,0.3c-0.6,0.2-1.7,0.2-2.3,0
			c-0.2-0.1-0.4-0.2-0.5-0.3c0,0,0.1-0.1,0.5-0.3C8.7,16.4,10.2,16.4,10.6,16.6z"/>
		
			<linearGradient id="SVGID_25_" gradientUnits="userSpaceOnUse" x1="-622.1395" y1="16.8807" x2="-624.756" y2="16.901" gradientTransform="matrix(-0.8182 0 0 1 -500.0701 0)">
			<stop  offset="5.617980e-03" style="stop-color:#DDB47A"/>
			<stop  offset="0.4946" style="stop-color:#DAB178"/>
			<stop  offset="0.9202" style="stop-color:#CFA873"/>
			<stop  offset="1" style="stop-color:#CCA572"/>
		</linearGradient>
		<path class="st37" d="M10.5,16.6c0.3,0.1,0.5,0.3,0.5,0.3c-0.1,0.1-0.3,0.2-0.5,0.3c-0.6,0.2-1.6,0.2-2.2,0
			C8.1,17.1,8,17,7.9,16.9c0,0,0.1-0.1,0.5-0.3C8.7,16.4,10.1,16.5,10.5,16.6z"/>
		
			<linearGradient id="SVGID_26_" gradientUnits="userSpaceOnUse" x1="-721.3123" y1="16.8807" x2="-724.4919" y2="16.9054" gradientTransform="matrix(-0.6364 0 0 1 -450.0631 0)">
			<stop  offset="5.617980e-03" style="stop-color:#E1BA80"/>
			<stop  offset="0.5078" style="stop-color:#DEB77F"/>
			<stop  offset="0.9452" style="stop-color:#D3AE7B"/>
			<stop  offset="1" style="stop-color:#D1AC7A"/>
		</linearGradient>
		<path class="st38" d="M10.4,16.6c0.3,0.1,0.5,0.2,0.5,0.3c-0.1,0.1-0.2,0.2-0.5,0.3c-0.6,0.2-1.5,0.2-2.1,0
			C8.2,17.1,8,17,7.9,16.9c0,0,0.1-0.1,0.4-0.2C8.7,16.5,10.1,16.5,10.4,16.6z"/>
		
			<linearGradient id="SVGID_27_" gradientUnits="userSpaceOnUse" x1="-899.8234" y1="16.8798" x2="-904.0164" y2="16.9124" gradientTransform="matrix(-0.4545 0 0 1 -400.0561 0)">
			<stop  offset="5.617980e-03" style="stop-color:#E4BF87"/>
			<stop  offset="0.5386" style="stop-color:#E1BC86"/>
			<stop  offset="1" style="stop-color:#D6B381"/>
		</linearGradient>
		<path class="st39" d="M10.4,16.6c0.3,0.1,0.5,0.2,0.5,0.2c-0.1,0.1-0.2,0.2-0.4,0.2c-0.5,0.2-1.4,0.2-2,0C8.2,17,8.1,17,8,16.9
			c0,0,0.1-0.1,0.4-0.2C8.7,16.5,10,16.5,10.4,16.6z"/>
		
			<linearGradient id="SVGID_28_" gradientUnits="userSpaceOnUse" x1="-1316.3494" y1="16.8763" x2="-1322.9071" y2="16.9272" gradientTransform="matrix(-0.2727 0 0 1 -350.0491 0)">
			<stop  offset="5.617980e-03" style="stop-color:#E7C58E"/>
			<stop  offset="0.5765" style="stop-color:#E4C28D"/>
			<stop  offset="1" style="stop-color:#DBBA89"/>
		</linearGradient>
		<path class="st40" d="M10.3,16.7c0.3,0.1,0.4,0.2,0.4,0.2c-0.1,0.1-0.2,0.1-0.4,0.2c-0.5,0.1-1.3,0.1-1.9,0
			C8.3,17,8.2,17,8.1,16.9c0,0,0.1-0.1,0.4-0.2C8.7,16.5,9.9,16.6,10.3,16.7z"/>
		
			<linearGradient id="SVGID_29_" gradientUnits="userSpaceOnUse" x1="-3398.9788" y1="16.8522" x2="-3417.3601" y2="16.9951" gradientTransform="matrix(-9.090909e-02 0 0 1 -300.0421 0)">
			<stop  offset="5.617980e-03" style="stop-color:#EBCA95"/>
			<stop  offset="0.599" style="stop-color:#E8C793"/>
			<stop  offset="1" style="stop-color:#E0C190"/>
		</linearGradient>
		<path class="st41" d="M10.2,16.7c0.2,0.1,0.4,0.2,0.4,0.2c-0.1,0.1-0.2,0.1-0.4,0.2c-0.5,0.1-1.3,0.1-1.7,0
			c-0.2,0-0.3-0.1-0.4-0.2c0,0,0.1-0.1,0.4-0.2C8.7,16.6,9.9,16.6,10.2,16.7z"/>
		
			<linearGradient id="SVGID_30_" gradientUnits="userSpaceOnUse" x1="2857.1111" y1="16.8523" x2="2840.0217" y2="16.9852" gradientTransform="matrix(9.090909e-02 0 0 1 -250.035 0)">
			<stop  offset="5.617980e-03" style="stop-color:#EED09B"/>
			<stop  offset="0.6894" style="stop-color:#EBCD9A"/>
			<stop  offset="1" style="stop-color:#E6C898"/>
		</linearGradient>
		<path class="st42" d="M10.1,16.7c0.2,0.1,0.4,0.2,0.4,0.2C10.4,17,10.3,17,10.1,17c-0.4,0.1-1.2,0.1-1.6,0c-0.2,0-0.3-0.1-0.4-0.2
			c0,0,0.1-0.1,0.3-0.2C8.8,16.6,9.8,16.6,10.1,16.7z"/>
		
			<linearGradient id="SVGID_31_" gradientUnits="userSpaceOnUse" x1="768.8073" y1="16.88" x2="763.5414" y2="16.9209" gradientTransform="matrix(0.2727 0 0 1 -200.028 0)">
			<stop  offset="5.617980e-03" style="stop-color:#F2D5A2"/>
			<stop  offset="0.7313" style="stop-color:#EFD2A1"/>
			<stop  offset="1" style="stop-color:#EBCF9F"/>
		</linearGradient>
		<path class="st43" d="M10,16.7c0.2,0,0.3,0.1,0.4,0.1c-0.1,0.1-0.2,0.1-0.3,0.1c-0.4,0.1-1.1,0.1-1.5,0c-0.2,0-0.2-0.1-0.3-0.1
			c0,0,0.1-0.1,0.3-0.1C8.8,16.7,9.7,16.7,10,16.7z"/>
		
			<linearGradient id="SVGID_32_" gradientUnits="userSpaceOnUse" x1="351.1465" y1="16.886" x2="348.2453" y2="16.9086" gradientTransform="matrix(0.4545 0 0 1 -150.021 0)">
			<stop  offset="5.617980e-03" style="stop-color:#F5DBA9"/>
			<stop  offset="0.8486" style="stop-color:#F2D8A8"/>
			<stop  offset="1" style="stop-color:#F0D6A7"/>
		</linearGradient>
		<path class="st44" d="M9.9,16.8c0.2,0,0.3,0.1,0.3,0.1C10.2,16.9,10.1,17,10,17c-0.4,0.1-1,0.1-1.4,0c-0.1,0-0.2-0.1-0.3-0.1
			c0,0,0.1,0,0.3-0.1C8.8,16.7,9.7,16.7,9.9,16.8z"/>
		
			<linearGradient id="SVGID_33_" gradientUnits="userSpaceOnUse" x1="172.149" y1="16.8892" x2="170.2613" y2="16.9038" gradientTransform="matrix(0.6364 0 0 1 -100.014 0)">
			<stop  offset="5.617980e-03" style="stop-color:#F8E0B0"/>
			<stop  offset="1" style="stop-color:#F5DDAE"/>
		</linearGradient>
		<path class="st45" d="M9.8,16.8c0.2,0,0.3,0.1,0.3,0.1c-0.1,0-0.1,0.1-0.3,0.1C9.5,17,9,17,8.6,17c-0.1,0-0.2,0-0.3-0.1
			c0,0,0.1,0,0.3-0.1C8.8,16.7,9.6,16.8,9.8,16.8z"/>
		
			<linearGradient id="SVGID_34_" gradientUnits="userSpaceOnUse" x1="72.706" y1="16.8913" x2="71.3813" y2="16.9016" gradientTransform="matrix(0.8182 0 0 1 -50.007 0)">
			<stop  offset="5.617980e-03" style="stop-color:#FCE6B6"/>
			<stop  offset="1" style="stop-color:#FAE4B6"/>
		</linearGradient>
		<path class="st46" d="M9.8,16.8c0.2,0,0.3,0.1,0.3,0.1c-0.1,0-0.1,0-0.2,0.1c-0.3,0-0.8,0-1.1,0c-0.1,0-0.2,0-0.2-0.1
			c0,0,0.1,0,0.2-0.1C8.8,16.8,9.6,16.8,9.8,16.8z"/>
		<path class="st24" d="M9.7,16.8c0.1,0,0.2,0,0.2,0C9.9,16.9,9.8,16.9,9.7,16.8C9.4,17,9,17,8.7,16.9c-0.1,0-0.2,0-0.2,0
			c0,0,0.1,0,0.2,0C8.8,16.8,9.5,16.8,9.7,16.8z"/>
	</g>
	<g>
		
			<linearGradient id="SVGID_35_" gradientUnits="userSpaceOnUse" x1="-559.2568" y1="15.6607" x2="-562.5615" y2="15.4015" gradientTransform="matrix(-1 0 0 1 -550.0771 0)">
			<stop  offset="5.617980e-03" style="stop-color:#BB7D36"/>
			<stop  offset="0.3648" style="stop-color:#B87A34"/>
			<stop  offset="0.6778" style="stop-color:#AD702F"/>
			<stop  offset="0.9728" style="stop-color:#9B6027"/>
			<stop  offset="1" style="stop-color:#995E26"/>
		</linearGradient>
		<path class="st47" d="M8.8,15c0,0-0.8,0-1,0.4c-0.1,0.2-0.1,0.3,0,0.4C7.9,16,8,16,8.1,16.1c0.2,0,0.8,0.2,1.9,0.2
			c1.1,0,1.7-0.1,1.9-0.2c0.1,0,0.2-0.1,0.3-0.2c0.1-0.1,0.1-0.2,0-0.4c-0.2-0.4-1-0.4-1-0.4H8.8z"/>
		
			<linearGradient id="SVGID_36_" gradientUnits="userSpaceOnUse" x1="-622.4111" y1="15.6829" x2="-626.1516" y2="15.3895" gradientTransform="matrix(-0.8182 0 0 1 -500.0701 0)">
			<stop  offset="5.617980e-03" style="stop-color:#C18742"/>
			<stop  offset="0.3798" style="stop-color:#BE8440"/>
			<stop  offset="0.7055" style="stop-color:#B37A3C"/>
			<stop  offset="1" style="stop-color:#A26B34"/>
		</linearGradient>
		<path class="st48" d="M7.9,15.5c-0.1,0.2-0.1,0.3,0,0.4C8,16,8.1,16,8.2,16c0.2,0,0.8,0.2,1.8,0.2c1,0,1.6-0.1,1.8-0.2
			c0,0,0,0,0.1,0c0.1,0,0.1-0.1,0.2-0.1c0.1-0.1,0.1-0.2,0-0.4c-0.2-0.4-0.9-0.4-0.9-0.4c0,0-1.1,0-1.1,0c0,0-1,0-1,0
			C8.9,15.1,8.1,15.1,7.9,15.5z"/>
		
			<linearGradient id="SVGID_37_" gradientUnits="userSpaceOnUse" x1="-721.6533" y1="15.7111" x2="-726.0797" y2="15.3639" gradientTransform="matrix(-0.6364 0 0 1 -450.0631 0)">
			<stop  offset="5.617980e-03" style="stop-color:#C7914F"/>
			<stop  offset="0.4035" style="stop-color:#C48E4D"/>
			<stop  offset="0.75" style="stop-color:#B98448"/>
			<stop  offset="1" style="stop-color:#AC7841"/>
		</linearGradient>
		<path class="st49" d="M8,15.5c-0.1,0.2-0.1,0.3,0,0.4C8.1,15.9,8.2,16,8.3,16c0.1,0,0.7,0.1,1.6,0.1c0.9,0,1.5-0.1,1.6-0.1
			c0,0,0,0,0.1,0c0.1,0,0.1-0.1,0.1-0.1c0.1-0.1,0.1-0.2,0-0.4c-0.2-0.3-0.8-0.3-0.8-0.3c0,0-1,0-1,0c0,0-0.9,0-0.9,0
			C8.9,15.2,8.2,15.2,8,15.5z"/>
		
			<linearGradient id="SVGID_38_" gradientUnits="userSpaceOnUse" x1="-900.2888" y1="15.7536" x2="-905.9517" y2="15.3095" gradientTransform="matrix(-0.4545 0 0 1 -400.0561 0)">
			<stop  offset="5.617980e-03" style="stop-color:#CE9B5B"/>
			<stop  offset="0.4175" style="stop-color:#CB9859"/>
			<stop  offset="0.776" style="stop-color:#C08E54"/>
			<stop  offset="1" style="stop-color:#B5844F"/>
		</linearGradient>
		<path class="st50" d="M8.1,15.5c-0.1,0.1-0.1,0.3-0.1,0.3C8.2,15.9,8.3,16,8.3,16c0.1,0,0.6,0.1,1.5,0.1c0.9,0,1.4-0.1,1.5-0.1
			c0,0,0,0,0.1,0c0,0,0.1-0.1,0.1-0.1c0-0.1,0-0.2,0-0.3c-0.2-0.3-0.7-0.3-0.8-0.3c0,0-0.9,0-0.9,0c0,0-0.8,0-0.9,0
			C8.9,15.2,8.3,15.2,8.1,15.5z"/>
		
			<linearGradient id="SVGID_39_" gradientUnits="userSpaceOnUse" x1="-1317.1036" y1="15.8377" x2="-1325.656" y2="15.1669" gradientTransform="matrix(-0.2727 0 0 1 -350.0491 0)">
			<stop  offset="5.617980e-03" style="stop-color:#D4A567"/>
			<stop  offset="0.4415" style="stop-color:#D1A265"/>
			<stop  offset="0.821" style="stop-color:#C69861"/>
			<stop  offset="1" style="stop-color:#BE915D"/>
		</linearGradient>
		<path class="st51" d="M8.2,15.5c-0.1,0.1-0.1,0.2-0.1,0.3c0.1,0.1,0.2,0.1,0.2,0.1c0.1,0,0.6,0.1,1.3,0.1c0.8,0,1.2-0.1,1.4-0.1
			c0,0,0,0,0.1,0c0,0,0.1-0.1,0.1-0.1c0-0.1,0-0.2,0-0.3c-0.1-0.2-0.7-0.3-0.7-0.3c0,0-0.8,0-0.8,0c0,0-0.8,0-0.8,0
			C8.9,15.3,8.4,15.3,8.2,15.5z"/>
		
			<linearGradient id="SVGID_40_" gradientUnits="userSpaceOnUse" x1="-3401.1682" y1="16.1662" x2="-3424.1858" y2="14.3609" gradientTransform="matrix(-9.090909e-02 0 0 1 -300.0421 0)">
			<stop  offset="5.617980e-03" style="stop-color:#DAAF73"/>
			<stop  offset="0.4709" style="stop-color:#D7AC72"/>
			<stop  offset="0.8761" style="stop-color:#CCA26D"/>
			<stop  offset="1" style="stop-color:#C79E6B"/>
		</linearGradient>
		<path class="st52" d="M8.3,15.6c-0.1,0.1-0.1,0.2-0.1,0.3c0.1,0.1,0.1,0.1,0.2,0.1C8.6,16,9,16,9.7,16c0.7,0,1.1-0.1,1.2-0.1
			c0,0,0,0,0,0c0,0,0.1,0,0.1-0.1c0-0.1,0-0.1-0.1-0.2c-0.1-0.2-0.6-0.2-0.6-0.2c0,0-0.7,0-0.7,0c0,0-0.7,0-0.7,0
			C8.9,15.3,8.5,15.3,8.3,15.6z"/>
		
			<linearGradient id="SVGID_41_" gradientUnits="userSpaceOnUse" x1="2861.0627" y1="16.116" x2="2840.6584" y2="14.5156" gradientTransform="matrix(9.090909e-02 0 0 1 -250.035 0)">
			<stop  offset="5.617980e-03" style="stop-color:#E0B980"/>
			<stop  offset="0.5225" style="stop-color:#DDB67E"/>
			<stop  offset="0.9726" style="stop-color:#D2AC78"/>
			<stop  offset="1" style="stop-color:#D1AB78"/>
		</linearGradient>
		<path class="st53" d="M8.4,15.6c-0.1,0.1-0.1,0.2-0.1,0.2c0.1,0.1,0.1,0.1,0.2,0.1c0.1,0,0.5,0.1,1,0.1c0.6,0,1-0.1,1.1-0.1
			c0,0,0,0,0,0c0,0,0.1,0,0.1-0.1c0-0.1,0-0.1-0.1-0.2c-0.1-0.2-0.5-0.2-0.5-0.2c0,0-0.6,0-0.7,0c0,0-0.6,0-0.6,0
			C8.9,15.4,8.5,15.4,8.4,15.6z"/>
		
			<linearGradient id="SVGID_42_" gradientUnits="userSpaceOnUse" x1="769.876" y1="15.8194" x2="763.9328" y2="15.3533" gradientTransform="matrix(0.2727 0 0 1 -200.028 0)">
			<stop  offset="5.617980e-03" style="stop-color:#E6C38C"/>
			<stop  offset="0.5765" style="stop-color:#E3C08A"/>
			<stop  offset="1" style="stop-color:#DAB886"/>
		</linearGradient>
		<path class="st54" d="M8.5,15.6c-0.1,0.1-0.1,0.1-0.1,0.2c0,0,0.1,0.1,0.2,0.1c0.1,0,0.4,0.1,0.9,0.1c0.5,0,0.9-0.1,1-0.1
			c0,0,0,0,0,0c0,0,0,0,0-0.1c0,0,0-0.1-0.1-0.2c-0.1-0.1-0.4-0.1-0.5-0.1c0,0-0.5,0-0.6,0c0,0-0.5,0-0.5,0
			C9,15.5,8.6,15.5,8.5,15.6z"/>
		
			<linearGradient id="SVGID_43_" gradientUnits="userSpaceOnUse" x1="351.6407" y1="15.7727" x2="348.5793" y2="15.5326" gradientTransform="matrix(0.4545 0 0 1 -150.021 0)">
			<stop  offset="5.617980e-03" style="stop-color:#ECCD98"/>
			<stop  offset="0.6545" style="stop-color:#E9CA96"/>
			<stop  offset="1" style="stop-color:#E3C594"/>
		</linearGradient>
		<path class="st55" d="M8.6,15.6c-0.1,0.1-0.1,0.1-0.1,0.1c0,0,0.1,0.1,0.2,0.1c0.1,0,0.4,0.1,0.8,0.1c0.5,0,0.8,0,0.9-0.1
			c0,0,0,0,0,0c0,0,0,0,0-0.1c0,0,0-0.1-0.1-0.1c-0.1-0.1-0.3-0.1-0.4-0.1c0,0-0.4,0-0.5,0c0,0-0.4,0-0.4,0
			C9,15.5,8.7,15.5,8.6,15.6z"/>
		
			<linearGradient id="SVGID_44_" gradientUnits="userSpaceOnUse" x1="172.402" y1="15.7638" x2="170.5681" y2="15.6199" gradientTransform="matrix(0.6364 0 0 1 -100.014 0)">
			<stop  offset="5.617980e-03" style="stop-color:#F3D7A4"/>
			<stop  offset="0.7313" style="stop-color:#F0D4A3"/>
			<stop  offset="1" style="stop-color:#ECD1A2"/>
		</linearGradient>
		<path class="st56" d="M8.7,15.7c-0.1,0-0.1,0.1-0.1,0.1c0,0,0.1,0,0.2,0.1c0.1,0,0.3,0,0.6,0c0.4,0,0.6,0,0.7-0.1c0,0,0,0,0,0
			c0,0,0,0,0,0c0,0,0-0.1-0.1-0.1c0-0.1-0.2-0.1-0.3-0.1c0,0-0.3,0-0.4,0c-0.1,0-0.3,0-0.4,0C9,15.6,8.8,15.6,8.7,15.7z"/>
		
			<linearGradient id="SVGID_45_" gradientUnits="userSpaceOnUse" x1="72.8357" y1="15.7678" x2="71.6709" y2="15.6764" gradientTransform="matrix(0.8182 0 0 1 -50.007 0)">
			<stop  offset="5.617980e-03" style="stop-color:#F9E1B1"/>
			<stop  offset="1" style="stop-color:#F6DEAF"/>
		</linearGradient>
		<path class="st57" d="M8.8,15.7c-0.1,0-0.1,0-0.1,0.1c0,0,0.1,0,0.2,0c0.1,0,0.2,0,0.5,0c0.3,0,0.5,0,0.6,0c0,0,0,0,0,0
			c0,0,0,0,0,0c0,0-0.1,0-0.1-0.1c0,0-0.2,0-0.2,0c-0.1,0-0.2,0-0.3,0c-0.1,0-0.2,0-0.3,0C9,15.7,8.9,15.7,8.8,15.7z"/>
		<path class="st24" d="M8.9,15.7c-0.1,0-0.1,0-0.1,0C8.8,15.8,8.9,15.8,8.9,15.7c0.1,0.1,0.2,0.1,0.4,0.1c0.2,0,0.4,0,0.5,0
			c0,0-0.1,0-0.1,0c0,0-0.2,0-0.4,0C9.1,15.7,8.9,15.7,8.9,15.7z"/>
	</g>
	<g>
		<path class="st58" d="M8.3,8c0,0,1.2,1,1,3.5c-0.2,2.5-0.6,3.7-0.6,3.7S9,15.2,10,15.2c1,0,1.2-0.1,1.2-0.1s-0.4-1.2-0.6-3.7
			C10.4,8.9,11.7,8,11.7,8H8.3z"/>
		
			<linearGradient id="SVGID_46_" gradientUnits="userSpaceOnUse" x1="73.132" y1="14.3381" x2="73.3631" y2="6.5392" gradientTransform="matrix(0.8182 0 0 1 -50.007 0)">
			<stop  offset="0" style="stop-color:#BD8542"/>
			<stop  offset="1" style="stop-color:#B87C36"/>
		</linearGradient>
		<path class="st59" d="M8.4,8.1l3.1,0c0,0-0.8,0.8-1,2.4c0,0.3,0,0.7,0,1.1c0.2,2.4,0.6,3.6,0.6,3.6c0,0-0.2,0.1-1.2,0.1
			c-0.9,0-1.2-0.1-1.2-0.1c0,0,0.4-1.2,0.6-3.6c0-0.6,0-1.1-0.1-1.5C9.1,8.8,8.4,8.2,8.4,8.1z"/>
		
			<linearGradient id="SVGID_47_" gradientUnits="userSpaceOnUse" x1="172.6342" y1="14.3525" x2="172.8621" y2="6.6592" gradientTransform="matrix(0.6364 0 0 1 -100.014 0)">
			<stop  offset="0" style="stop-color:#C38F4F"/>
			<stop  offset="1" style="stop-color:#BB7D36"/>
		</linearGradient>
		<path class="st60" d="M8.5,8.2l2.9,0c0,0-0.8,0.8-0.9,2.4c0,0.3,0,0.7,0,1.1c0.2,2.3,0.5,3.6,0.5,3.6c0,0-0.2,0.1-1.1,0.1
			c-0.9,0-1.1-0.1-1.1-0.1c0,0,0.4-1.3,0.6-3.5c0-0.6,0-1.1,0-1.4C9.2,9,8.6,8.4,8.5,8.2z"/>
		
			<linearGradient id="SVGID_48_" gradientUnits="userSpaceOnUse" x1="351.7358" y1="14.3694" x2="351.961" y2="6.7684" gradientTransform="matrix(0.4545 0 0 1 -150.021 0)">
			<stop  offset="0" style="stop-color:#CA9A5B"/>
			<stop  offset="1" style="stop-color:#BD7E35"/>
		</linearGradient>
		<path class="st61" d="M8.6,8.3l2.6,0c0,0-0.7,0.9-0.8,2.3c0,0.3,0,0.7,0,1c0.1,2.2,0.5,3.5,0.5,3.5c0,0-0.2,0.1-1,0.1
			c-0.8,0-1-0.1-1-0.1c0,0,0.4-1.3,0.6-3.5c0-0.6,0-1.1,0-1.4C9.2,9.2,8.7,8.6,8.6,8.3z"/>
		
			<linearGradient id="SVGID_49_" gradientUnits="userSpaceOnUse" x1="769.6356" y1="14.3973" x2="769.8594" y2="6.8444" gradientTransform="matrix(0.2727 0 0 1 -200.028 0)">
			<stop  offset="0" style="stop-color:#D1A467"/>
			<stop  offset="1" style="stop-color:#C07F35"/>
		</linearGradient>
		<path class="st62" d="M8.7,8.4l2.4,0c0,0-0.7,1-0.8,2.3c0,0.3,0,0.7,0,1c0.1,2.2,0.5,3.4,0.5,3.4c-0.1,0-0.2,0.1-0.9,0.1
			c-0.7,0-0.9-0.1-0.9-0.1c0-0.1,0.4-1.4,0.5-3.4c0-0.6,0-1.1,0-1.4C9.3,9.3,8.8,8.7,8.7,8.4z"/>
		
			<linearGradient id="SVGID_50_" gradientUnits="userSpaceOnUse" x1="2859.1216" y1="14.5329" x2="2859.3542" y2="6.6805" gradientTransform="matrix(9.090909e-02 0 0 1 -250.035 0)">
			<stop  offset="0" style="stop-color:#D7AE73"/>
			<stop  offset="1" style="stop-color:#C28035"/>
		</linearGradient>
		<path class="st63" d="M8.8,8.5l2.1,0c0,0-0.6,1.1-0.7,2.3c0,0.3,0,0.7,0,1c0.1,2.1,0.4,3.4,0.4,3.4c-0.1,0-0.3,0.1-0.9,0.1
			c-0.6,0-0.8-0.1-0.8-0.1c0-0.1,0.4-1.4,0.5-3.3c0-0.6,0-1.1,0-1.4C9.4,9.5,9,8.9,8.8,8.5z"/>
		
			<linearGradient id="SVGID_51_" gradientUnits="userSpaceOnUse" x1="-3409.3352" y1="14.5229" x2="-3409.1082" y2="6.8582" gradientTransform="matrix(-9.090909e-02 0 0 1 -300.0421 0)">
			<stop  offset="0" style="stop-color:#DEB880"/>
			<stop  offset="1" style="stop-color:#C58035"/>
		</linearGradient>
		<path class="st64" d="M8.9,8.6l1.9,0c0,0-0.6,1.1-0.6,2.3c0,0.3,0,0.6,0,1c0.1,2,0.4,3.3,0.4,3.3c-0.1,0-0.3,0.1-0.8,0
			c-0.6,0-0.8-0.1-0.8-0.1c0.1-0.1,0.4-1.5,0.5-3.3c0-0.6,0-1.1,0-1.3C9.4,9.7,9.1,9.1,8.9,8.6z"/>
		
			<linearGradient id="SVGID_52_" gradientUnits="userSpaceOnUse" x1="-1319.8424" y1="14.4281" x2="-1319.6307" y2="7.2831" gradientTransform="matrix(-0.2727 0 0 1 -350.0491 0)">
			<stop  offset="0" style="stop-color:#E4C28C"/>
			<stop  offset="1" style="stop-color:#C78135"/>
		</linearGradient>
		<path class="st65" d="M9,8.7l1.6,0c0,0-0.5,1.2-0.5,2.2c0,0.3,0,0.6,0,1c0.1,1.9,0.3,3.3,0.3,3.3c-0.1,0-0.3,0-0.7,0
			c-0.5,0-0.7-0.1-0.7-0.1c0.1-0.1,0.3-1.5,0.5-3.2c0-0.6,0.1-1.1,0-1.3C9.5,9.9,9.2,9.3,9,8.7z"/>
		
			<linearGradient id="SVGID_53_" gradientUnits="userSpaceOnUse" x1="-901.8698" y1="14.432" x2="-901.6636" y2="7.4729" gradientTransform="matrix(-0.4545 0 0 1 -400.0561 0)">
			<stop  offset="0" style="stop-color:#EBCC98"/>
			<stop  offset="1" style="stop-color:#CA8235"/>
		</linearGradient>
		<path class="st66" d="M9.2,8.8l1.4,0c0,0-0.4,1.3-0.5,2.2c0,0.3,0,0.6,0,1c0.1,1.8,0.3,3.2,0.3,3.2c-0.1,0-0.3,0-0.6,0
			c-0.4,0-0.6-0.1-0.6-0.1C9.2,15,9.5,13.6,9.6,12c0-0.6,0.1-1.1,0-1.3C9.6,10.1,9.4,9.5,9.2,8.8z"/>
		
			<linearGradient id="SVGID_54_" gradientUnits="userSpaceOnUse" x1="-722.7242" y1="14.4439" x2="-722.5223" y2="7.6291" gradientTransform="matrix(-0.6364 0 0 1 -450.0631 0)">
			<stop  offset="0" style="stop-color:#F2D7A4"/>
			<stop  offset="1" style="stop-color:#CC8334"/>
		</linearGradient>
		<path class="st67" d="M9.3,8.9l1.1,0c0,0-0.4,1.4-0.4,2.2c0,0.3,0,0.6,0,0.9c0.1,1.7,0.3,3.1,0.3,3.1c-0.1,0-0.3,0-0.5,0
			c-0.4,0-0.5-0.1-0.5-0.1c0.1-0.1,0.3-1.7,0.4-3.1c0-0.6,0.1-1.1,0-1.3C9.6,10.3,9.5,9.7,9.3,8.9z"/>
		
			<linearGradient id="SVGID_55_" gradientUnits="userSpaceOnUse" x1="-623.1983" y1="14.4578" x2="-623.0003" y2="7.7738" gradientTransform="matrix(-0.8182 0 0 1 -500.0701 0)">
			<stop  offset="0" style="stop-color:#F8E1B1"/>
			<stop  offset="1" style="stop-color:#CF8434"/>
		</linearGradient>
		<path class="st68" d="M9.4,9l0.9,0c0,0-0.3,1.4-0.3,2.2c0,0.3,0,0.6,0,0.9c0.1,1.6,0.2,3.1,0.2,3.1c-0.1,0-0.3,0-0.5,0
			c-0.3,0-0.4-0.1-0.4-0.1c0.1-0.2,0.3-1.7,0.4-3c0-0.6,0.1-1.1,0.1-1.2C9.7,10.5,9.6,9.9,9.4,9z"/>
		
			<linearGradient id="SVGID_56_" gradientUnits="userSpaceOnUse" x1="-559.8633" y1="14.4737" x2="-559.6689" y2="7.9131" gradientTransform="matrix(-1 0 0 1 -550.0771 0)">
			<stop  offset="0" style="stop-color:#FFEBBD"/>
			<stop  offset="1" style="stop-color:#D18534"/>
		</linearGradient>
		<path class="st69" d="M9.8,11.3c0,1.8,0.2,3.9,0.2,3.9c-0.4,0-0.7,0-0.7,0c0.2-0.3,0.5-3.8,0.4-4.2c0-0.3,0-0.9-0.3-1.9l0.6,0
			C10.1,9.2,9.8,10.7,9.8,11.3z"/>
	</g>
	
		<linearGradient id="SVGID_57_" gradientUnits="userSpaceOnUse" x1="-561.778" y1="7.8746" x2="-558.376" y2="7.8746" gradientTransform="matrix(-1 0 0 1 -550.0771 0)">
		<stop  offset="3.932580e-02" style="stop-color:#A16329"/>
		<stop  offset="0.5899" style="stop-color:#FFC97A"/>
		<stop  offset="1" style="stop-color:#D18534"/>
	</linearGradient>
	<path class="st70" d="M9,7.6L8.3,8c0,0,0,0.2,1.7,0.2c1.7,0,1.7-0.2,1.7-0.2L11,7.6H9z"/>
	<g>
		<ellipse class="st71" cx="10" cy="7.2" rx="2" ry="0.6"/>
		
			<linearGradient id="SVGID_58_" gradientUnits="userSpaceOnUse" x1="91.4024" y1="6.483" x2="91.4024" y2="7.7507" gradientTransform="matrix(0.7778 0 0 1 -61.1197 0)">
			<stop  offset="0" style="stop-color:#B87A31"/>
			<stop  offset="0.6067" style="stop-color:#BA7D35"/>
		</linearGradient>
		<path class="st72" d="M10,6.7c-1.1,0-2,0.1-2,0.5c0,0.4,0.9,0.5,2,0.5c1.1,0,2-0.2,2-0.5C11.9,6.8,11.1,6.7,10,6.7z"/>
		
			<linearGradient id="SVGID_59_" gradientUnits="userSpaceOnUse" x1="237.9267" y1="6.5407" x2="237.9267" y2="7.7203" gradientTransform="matrix(0.5556 0 0 1 -122.2394 0)">
			<stop  offset="0" style="stop-color:#BB7C33"/>
			<stop  offset="0.6067" style="stop-color:#BE823C"/>
		</linearGradient>
		<path class="st73" d="M9.9,6.7C8.9,6.7,8,6.8,8,7.2c0,0.4,0.8,0.5,1.9,0.5c1,0,1.9-0.1,1.9-0.5C11.8,6.8,11,6.7,9.9,6.7z"/>
		
			<linearGradient id="SVGID_60_" gradientUnits="userSpaceOnUse" x1="579.8168" y1="6.5983" x2="579.8168" y2="7.69" gradientTransform="matrix(0.3333 0 0 1 -183.359 0)">
			<stop  offset="0" style="stop-color:#BE7E35"/>
			<stop  offset="0.6067" style="stop-color:#C38742"/>
		</linearGradient>
		<path class="st74" d="M9.9,6.8c-1,0-1.8,0.1-1.8,0.4c0,0.3,0.8,0.4,1.8,0.4c1,0,1.8-0.1,1.8-0.4C11.7,6.9,10.9,6.8,9.9,6.8z"/>
		
			<linearGradient id="SVGID_61_" gradientUnits="userSpaceOnUse" x1="2289.2671" y1="6.6559" x2="2289.2671" y2="7.6596" gradientTransform="matrix(0.1111 0 0 1 -244.4787 0)">
			<stop  offset="0" style="stop-color:#C18037"/>
			<stop  offset="0.6067" style="stop-color:#C78C49"/>
		</linearGradient>
		<path class="st75" d="M9.9,6.8c-1,0-1.8,0.1-1.8,0.4c0,0.3,0.8,0.4,1.8,0.4c1,0,1.8-0.1,1.8-0.4C11.7,6.9,10.9,6.8,9.9,6.8z"/>
		
			<linearGradient id="SVGID_62_" gradientUnits="userSpaceOnUse" x1="-2839.0837" y1="6.7136" x2="-2839.0837" y2="7.6293" gradientTransform="matrix(-0.1111 0 0 1 -305.5984 0)">
			<stop  offset="0" style="stop-color:#C5823A"/>
			<stop  offset="0.6067" style="stop-color:#CC924F"/>
		</linearGradient>
		<path class="st76" d="M9.9,6.8C8.9,6.8,8.2,7,8.2,7.2c0,0.3,0.8,0.4,1.7,0.4c0.9,0,1.7-0.1,1.7-0.4C11.6,6.9,10.8,6.8,9.9,6.8z"/>
		
			<linearGradient id="SVGID_63_" gradientUnits="userSpaceOnUse" x1="-1129.6335" y1="6.7712" x2="-1129.6335" y2="7.599" gradientTransform="matrix(-0.3333 0 0 1 -366.7181 0)">
			<stop  offset="0" style="stop-color:#C8843C"/>
			<stop  offset="0.6067" style="stop-color:#D09756"/>
		</linearGradient>
		<path class="st77" d="M9.8,6.9C8.9,6.9,8.2,7,8.2,7.2c0,0.2,0.7,0.3,1.6,0.3c0.9,0,1.6-0.1,1.6-0.3C11.5,7,10.7,6.9,9.8,6.9z"/>
		
			<linearGradient id="SVGID_64_" gradientUnits="userSpaceOnUse" x1="-787.7435" y1="6.8289" x2="-787.7435" y2="7.5686" gradientTransform="matrix(-0.5556 0 0 1 -427.8377 0)">
			<stop  offset="0" style="stop-color:#CB863E"/>
			<stop  offset="0.6067" style="stop-color:#D59C5C"/>
		</linearGradient>
		<path class="st78" d="M9.8,6.9C8.9,6.9,8.2,7,8.2,7.2c0,0.2,0.7,0.3,1.6,0.3c0.9,0,1.6-0.1,1.6-0.3C11.4,7,10.7,6.9,9.8,6.9z"/>
		
			<linearGradient id="SVGID_65_" gradientUnits="userSpaceOnUse" x1="-641.2192" y1="6.8865" x2="-641.2192" y2="7.5383" gradientTransform="matrix(-0.7778 0 0 1 -488.9574 0)">
			<stop  offset="0" style="stop-color:#CE8840"/>
			<stop  offset="0.6067" style="stop-color:#D9A163"/>
		</linearGradient>
		<path class="st79" d="M9.8,7C8.9,7,8.3,7.1,8.3,7.2c0,0.2,0.7,0.3,1.5,0.3c0.8,0,1.5-0.1,1.5-0.3C11.3,7,10.6,7,9.8,7z"/>
		
			<linearGradient id="SVGID_66_" gradientUnits="userSpaceOnUse" x1="-559.8168" y1="6.9441" x2="-559.8168" y2="7.508" gradientTransform="matrix(-1 0 0 1 -550.0771 0)">
			<stop  offset="0" style="stop-color:#D18A42"/>
			<stop  offset="0.6067" style="stop-color:#DEA669"/>
		</linearGradient>
		<path class="st80" d="M8.3,7.3c0,0.1,0.6,0.2,1.4,0.2c0.8,0,1.4,0,1.4-0.2S10.5,7,9.7,7C8.9,7,8.3,7.1,8.3,7.3z"/>
		
			<linearGradient id="SVGID_67_" gradientUnits="userSpaceOnUse" x1="-641.1496" y1="6.9788" x2="-641.1496" y2="7.4872" gradientTransform="matrix(-0.7778 0 0 1 -488.9574 0)">
			<stop  offset="0" style="stop-color:#D6944F"/>
			<stop  offset="0.6067" style="stop-color:#E2AC71"/>
		</linearGradient>
		<path class="st81" d="M8.4,7.3c0,0.1,0.6,0.2,1.3,0.2c0.7,0,1.3,0,1.3-0.2c0-0.2-0.6-0.2-1.3-0.2C9,7.1,8.4,7.1,8.4,7.3z"/>
		
			<linearGradient id="SVGID_68_" gradientUnits="userSpaceOnUse" x1="-787.5486" y1="7.0134" x2="-787.5486" y2="7.4664" gradientTransform="matrix(-0.5556 0 0 1 -427.8377 0)">
			<stop  offset="0" style="stop-color:#DB9D5B"/>
			<stop  offset="0.6067" style="stop-color:#E5B379"/>
		</linearGradient>
		<path class="st82" d="M8.4,7.3c0,0.1,0.6,0.2,1.2,0.2c0.7,0,1.2,0,1.2-0.2c0-0.1-0.6-0.2-1.2-0.2C9,7.1,8.4,7.1,8.4,7.3z"/>
		
			<linearGradient id="SVGID_69_" gradientUnits="userSpaceOnUse" x1="-1129.1464" y1="7.0481" x2="-1129.1464" y2="7.4456" gradientTransform="matrix(-0.3333 0 0 1 -366.7181 0)">
			<stop  offset="0" style="stop-color:#E0A768"/>
			<stop  offset="0.6067" style="stop-color:#E9B982"/>
		</linearGradient>
		<path class="st83" d="M8.5,7.3c0,0.1,0.5,0.2,1.1,0.2c0.6,0,1.1,0,1.1-0.2c0-0.1-0.5-0.2-1.1-0.2C9,7.1,8.5,7.2,8.5,7.3z"/>
		
			<linearGradient id="SVGID_70_" gradientUnits="userSpaceOnUse" x1="-2837.1353" y1="7.0827" x2="-2837.1353" y2="7.4248" gradientTransform="matrix(-0.1111 0 0 1 -305.5984 0)">
			<stop  offset="0" style="stop-color:#E5B074"/>
			<stop  offset="0.6067" style="stop-color:#EDC08A"/>
		</linearGradient>
		<path class="st84" d="M8.6,7.3c0,0.1,0.5,0.1,1,0.1c0.6,0,1,0,1-0.1c0-0.1-0.5-0.1-1-0.1C9.1,7.1,8.6,7.2,8.6,7.3z"/>
		
			<linearGradient id="SVGID_71_" gradientUnits="userSpaceOnUse" x1="2286.8315" y1="7.1173" x2="2286.8315" y2="7.404" gradientTransform="matrix(0.1111 0 0 1 -244.4787 0)">
			<stop  offset="0" style="stop-color:#EBBA81"/>
			<stop  offset="0.6067" style="stop-color:#F0C692"/>
		</linearGradient>
		<path class="st85" d="M8.7,7.3c0,0.1,0.4,0.1,0.9,0.1c0.5,0,0.9,0,0.9-0.1c0-0.1-0.4-0.1-0.9-0.1C9.1,7.2,8.7,7.2,8.7,7.3z"/>
		
			<linearGradient id="SVGID_72_" gradientUnits="userSpaceOnUse" x1="578.8425" y1="7.152" x2="578.8425" y2="7.3832" gradientTransform="matrix(0.3333 0 0 1 -183.359 0)">
			<stop  offset="0" style="stop-color:#F0C38D"/>
			<stop  offset="0.6067" style="stop-color:#F4CD9A"/>
		</linearGradient>
		<path class="st86" d="M8.8,7.3c0,0.1,0.4,0.1,0.8,0.1c0.5,0,0.8,0,0.8-0.1c0-0.1-0.4-0.1-0.8-0.1C9.1,7.2,8.8,7.2,8.8,7.3z"/>
		
			<linearGradient id="SVGID_73_" gradientUnits="userSpaceOnUse" x1="237.2448" y1="7.1866" x2="237.2448" y2="7.3624" gradientTransform="matrix(0.5556 0 0 1 -122.2394 0)">
			<stop  offset="0" style="stop-color:#F5CD9A"/>
			<stop  offset="0.6067" style="stop-color:#F8D3A3"/>
		</linearGradient>
		<path class="st87" d="M8.8,7.3c0,0,0.3,0.1,0.7,0.1c0.4,0,0.7,0,0.7-0.1c0-0.1-0.3-0.1-0.7-0.1C9.2,7.2,8.8,7.2,8.8,7.3z"/>
		
			<linearGradient id="SVGID_74_" gradientUnits="userSpaceOnUse" x1="90.8457" y1="7.2212" x2="90.8457" y2="7.3416" gradientTransform="matrix(0.7778 0 0 1 -61.1197 0)">
			<stop  offset="0" style="stop-color:#FAD6A6"/>
			<stop  offset="0.6067" style="stop-color:#FBDAAB"/>
		</linearGradient>
		<path class="st88" d="M8.9,7.3c0,0,0.3,0,0.6,0c0.4,0,0.6,0,0.6,0c0,0-0.3,0-0.6,0C9.2,7.2,8.9,7.3,8.9,7.3z"/>
		<path class="st89" d="M9,7.3c0,0,0.2,0,0.5,0c0.3,0,0.5,0,0.5,0c0,0-0.2,0-0.5,0C9.2,7.3,9,7.3,9,7.3z"/>
	</g>
	
		<linearGradient id="SVGID_75_" gradientUnits="userSpaceOnUse" x1="-558.9605" y1="4.9157" x2="-562.3299" y2="5.3676" gradientTransform="matrix(-1 0 0 1 -550.0771 0)">
		<stop  offset="5.617980e-03" style="stop-color:#B87029"/>
		<stop  offset="0.533" style="stop-color:#A76024"/>
		<stop  offset="1" style="stop-color:#9C5721"/>
	</linearGradient>
	<path class="st90" d="M11.1,4.9v0.4c0.5,0,0.9-0.1,0.9-0.2C12,5,11.6,4.9,11.1,4.9z M8,5.1c0,0.1,0.9,0.2,2,0.2c0.1,0,0.2,0,0.3,0
		V4.8c-0.1,0-0.2,0-0.3,0C8.9,4.8,8,4.9,8,5.1z"/>
	
		<linearGradient id="SVGID_76_" gradientUnits="userSpaceOnUse" x1="-558.9628" y1="4.9143" x2="-562.3654" y2="5.3706" gradientTransform="matrix(-1 0 0 1 -550.0771 0)">
		<stop  offset="5.617980e-03" style="stop-color:#B87029"/>
		<stop  offset="0.1374" style="stop-color:#C78848"/>
		<stop  offset="0.3565" style="stop-color:#DEAB75"/>
		<stop  offset="0.5259" style="stop-color:#EDC191"/>
		<stop  offset="0.6236" style="stop-color:#F2C99C"/>
		<stop  offset="0.6992" style="stop-color:#F1C798"/>
		<stop  offset="0.7662" style="stop-color:#ECBF8E"/>
		<stop  offset="0.8299" style="stop-color:#E5B37C"/>
		<stop  offset="0.8916" style="stop-color:#DBA162"/>
		<stop  offset="0.9513" style="stop-color:#CF8B42"/>
		<stop  offset="1" style="stop-color:#C27521"/>
	</linearGradient>
	<path class="st91" d="M11.1,4.9v0.4c0.5,0,0.9-0.1,0.9-0.2C12,5,11.7,4.9,11.1,4.9z M8,5.1c0,0.1,0.9,0.2,2,0.2c0.1,0,0.2,0,0.3,0
		V4.8c-0.1,0-0.2,0-0.3,0C8.9,4.8,8,4.9,8,5.1z"/>
	
		<linearGradient id="SVGID_77_" gradientUnits="userSpaceOnUse" x1="-558.869" y1="5.6141" x2="-562.2717" y2="6.0705" gradientTransform="matrix(-1 0 0 1 -550.0771 0)">
		<stop  offset="5.617980e-03" style="stop-color:#B87029"/>
		<stop  offset="0.1374" style="stop-color:#C78848"/>
		<stop  offset="0.3565" style="stop-color:#DEAB75"/>
		<stop  offset="0.5259" style="stop-color:#EDC191"/>
		<stop  offset="0.6236" style="stop-color:#F2C99C"/>
		<stop  offset="0.6992" style="stop-color:#F1C798"/>
		<stop  offset="0.7662" style="stop-color:#ECBF8E"/>
		<stop  offset="0.8299" style="stop-color:#E5B37C"/>
		<stop  offset="0.8916" style="stop-color:#DBA162"/>
		<stop  offset="0.9513" style="stop-color:#CF8B42"/>
		<stop  offset="1" style="stop-color:#C27521"/>
	</linearGradient>
	<polygon class="st92" points="9.5,5.2 8.5,5.2 8.5,6 9.5,6 	"/>
	
		<linearGradient id="SVGID_78_" gradientUnits="userSpaceOnUse" x1="-561.9044" y1="6.0393" x2="-557.8665" y2="5.5666" gradientTransform="matrix(-1 0 0 1 -550.0771 0)">
		<stop  offset="5.617980e-03" style="stop-color:#B87029"/>
		<stop  offset="0.533" style="stop-color:#A76024"/>
		<stop  offset="1" style="stop-color:#9C5721"/>
	</linearGradient>
	<path class="st93" d="M8,5c0,0.1,0.3,0.1,0.6,0.1l0,0.7l0.8,0V5.2c0.2,0,0.4,0,0.6,0c1.1,0,1.9-0.1,2-0.2c0,0,0,0,0,0v1.5l-4,0L8,5
		C8,5.1,8,5,8,5z"/>
	
		<linearGradient id="SVGID_79_" gradientUnits="userSpaceOnUse" x1="-562.1008" y1="6.2317" x2="-558.0534" y2="6.2317" gradientTransform="matrix(-1 0 0 1 -550.0771 0)">
		<stop  offset="5.617980e-03" style="stop-color:#B87029"/>
		<stop  offset="0.1374" style="stop-color:#C78948"/>
		<stop  offset="0.3565" style="stop-color:#DEAF75"/>
		<stop  offset="0.5259" style="stop-color:#EDC691"/>
		<stop  offset="0.6236" style="stop-color:#F2CF9C"/>
		<stop  offset="0.6992" style="stop-color:#F1CC98"/>
		<stop  offset="0.7662" style="stop-color:#ECC58E"/>
		<stop  offset="0.8299" style="stop-color:#E5B77C"/>
		<stop  offset="0.8916" style="stop-color:#DBA562"/>
		<stop  offset="0.9513" style="stop-color:#CF8D42"/>
		<stop  offset="1" style="stop-color:#C27521"/>
	</linearGradient>
	<path class="st94" d="M8,5.1c0,0.1,0.2,0.1,0.6,0.1l0,0.7l0.8,0V5.3c0.2,0,0.4,0,0.6,0c1.1,0,2-0.1,2-0.2h0v2.1c0,0,0,0,0,0
		c0,0.1-0.9,0.2-2,0.2c-1.1,0-2-0.1-2-0.2c0,0,0,0,0,0L8,5.1L8,5.1z"/>
</g>
</svg>
