<?xml version="1.0" encoding="utf-8"?>
<!-- Generator: Adobe Illustrator 24.2.3, SVG Export Plug-In . SVG Version: 6.00 Build 0)  -->
<svg version="1.1" id="Layer_1" xmlns="http://www.w3.org/2000/svg" xmlns:xlink="http://www.w3.org/1999/xlink" x="0px" y="0px"
	 viewBox="0 0 20 20" style="enable-background:new 0 0 20 20;" xml:space="preserve">
<style type="text/css">
	.st0{fill:none;}
	.st1{fill-rule:evenodd;clip-rule:evenodd;fill:url(#SVGID_1_);}
	.st2{fill:url(#SVGID_2_);}
	.st3{fill:url(#SVGID_3_);}
	.st4{fill:url(#SVGID_4_);}
	.st5{fill:url(#SVGID_5_);}
	.st6{fill:url(#SVGID_6_);}
	.st7{fill:url(#SVGID_7_);}
	.st8{fill:url(#SVGID_8_);}
	.st9{fill:url(#SVGID_9_);}
	.st10{fill:url(#SVGID_10_);}
	.st11{fill:url(#SVGID_11_);}
	.st12{fill:url(#SVGID_12_);}
	.st13{fill:#CC915C;}
	.st14{fill:#D19965;}
	.st15{fill:#D5A16E;}
	.st16{fill:#DAAA76;}
	.st17{fill:#DFB27F;}
	.st18{fill:#E3BA88;}
	.st19{fill:#E8C291;}
	.st20{fill:#ECCA9A;}
	.st21{fill:#F1D2A3;}
	.st22{fill:#F6DBAB;}
	.st23{fill:#FAE3B4;}
	.st24{fill:#FFEBBD;}
	.st25{fill:url(#SVGID_13_);}
	.st26{fill:url(#SVGID_14_);}
	.st27{fill:url(#SVGID_15_);}
	.st28{fill:url(#SVGID_16_);}
	.st29{fill:url(#SVGID_17_);}
	.st30{fill:url(#SVGID_18_);}
	.st31{fill:url(#SVGID_19_);}
	.st32{fill:url(#SVGID_20_);}
	.st33{fill:url(#SVGID_21_);}
	.st34{fill:url(#SVGID_22_);}
	.st35{fill:url(#SVGID_23_);}
	.st36{fill:url(#SVGID_24_);}
	.st37{fill:url(#SVGID_25_);}
	.st38{fill:url(#SVGID_26_);}
	.st39{fill:url(#SVGID_27_);}
	.st40{fill:url(#SVGID_28_);}
	.st41{fill:url(#SVGID_29_);}
	.st42{fill:url(#SVGID_30_);}
	.st43{fill:url(#SVGID_31_);}
	.st44{fill:url(#SVGID_32_);}
	.st45{fill:url(#SVGID_33_);}
	.st46{fill:url(#SVGID_34_);}
	.st47{fill:url(#SVGID_35_);}
	.st48{fill:url(#SVGID_36_);}
	.st49{fill:url(#SVGID_37_);}
	.st50{fill:url(#SVGID_38_);}
	.st51{fill:url(#SVGID_39_);}
	.st52{fill:url(#SVGID_40_);}
	.st53{fill:url(#SVGID_41_);}
	.st54{fill:url(#SVGID_42_);}
	.st55{fill:url(#SVGID_43_);}
	.st56{fill:url(#SVGID_44_);}
	.st57{fill:url(#SVGID_45_);}
	.st58{fill:#B67B36;}
	.st59{fill:url(#SVGID_46_);}
	.st60{fill:url(#SVGID_47_);}
	.st61{fill:url(#SVGID_48_);}
	.st62{fill:url(#SVGID_49_);}
	.st63{fill:url(#SVGID_50_);}
	.st64{fill:url(#SVGID_51_);}
	.st65{fill:url(#SVGID_52_);}
	.st66{fill:url(#SVGID_53_);}
	.st67{fill:url(#SVGID_54_);}
	.st68{fill:url(#SVGID_55_);}
	.st69{fill:url(#SVGID_56_);}
	.st70{fill:url(#SVGID_57_);}
	.st71{fill:#B5782F;}
	.st72{fill:url(#SVGID_58_);}
	.st73{fill:url(#SVGID_59_);}
	.st74{fill:url(#SVGID_60_);}
	.st75{fill:url(#SVGID_61_);}
	.st76{fill:url(#SVGID_62_);}
	.st77{fill:url(#SVGID_63_);}
	.st78{fill:url(#SVGID_64_);}
	.st79{fill:url(#SVGID_65_);}
	.st80{fill:url(#SVGID_66_);}
	.st81{fill:url(#SVGID_67_);}
	.st82{fill:url(#SVGID_68_);}
	.st83{fill:url(#SVGID_69_);}
	.st84{fill:url(#SVGID_70_);}
	.st85{fill:url(#SVGID_71_);}
	.st86{fill:url(#SVGID_72_);}
	.st87{fill:url(#SVGID_73_);}
	.st88{fill:url(#SVGID_74_);}
	.st89{fill:#FFE0B3;}
	.st90{fill:url(#SVGID_75_);}
</style>
<rect y="0" class="st0" width="20" height="20"/>
<g>
	
		<radialGradient id="SVGID_1_" cx="10" cy="269.904" r="4.5492" gradientTransform="matrix(1 0 0 0.165 0 -26.0693)" gradientUnits="userSpaceOnUse">
		<stop  offset="0.4213" style="stop-color:#A86121"/>
		<stop  offset="0.5516" style="stop-color:#BE8D61;stop-opacity:0.7533"/>
		<stop  offset="0.6891" style="stop-color:#D3B79E;stop-opacity:0.4929"/>
		<stop  offset="0.8062" style="stop-color:#E3D6CA;stop-opacity:0.2713"/>
		<stop  offset="0.8966" style="stop-color:#ECE9E6;stop-opacity:0.1"/>
		<stop  offset="0.9494" style="stop-color:#F0F0F0;stop-opacity:0"/>
	</radialGradient>
	<path class="st1" d="M14.5,18.4c0,0.4-2,0.8-4.5,0.8c-2.5,0-4.5-0.4-4.5-0.8c0-0.4,2-0.7,4.5-0.7C12.5,17.7,14.5,18,14.5,18.4z"/>
	<g>
		<linearGradient id="SVGID_2_" gradientUnits="userSpaceOnUse" x1="10.0003" y1="18.7453" x2="10.0003" y2="17.9084">
			<stop  offset="5.617980e-03" style="stop-color:#BB7D36"/>
			<stop  offset="0.3648" style="stop-color:#B87A34"/>
			<stop  offset="0.6778" style="stop-color:#AD702F"/>
			<stop  offset="0.9728" style="stop-color:#9B6027"/>
			<stop  offset="1" style="stop-color:#995E26"/>
		</linearGradient>
		<path class="st2" d="M12,17.6c0,0,1,0.1,1,0.6c0,0.5-1.3,0.7-2.9,0.7c-1.6,0-3.2-0.2-3.1-0.7c0-0.5,1-0.6,1-0.6H12z"/>
		<linearGradient id="SVGID_3_" gradientUnits="userSpaceOnUse" x1="10.0382" y1="18.7361" x2="10.0382" y2="17.9312">
			<stop  offset="5.617980e-03" style="stop-color:#BD7F39"/>
			<stop  offset="0.3798" style="stop-color:#BA7C37"/>
			<stop  offset="0.7055" style="stop-color:#AF7233"/>
			<stop  offset="1" style="stop-color:#9E632B"/>
		</linearGradient>
		<path class="st3" d="M12,17.6c0,0,1,0.1,1,0.5c0,0.4-1.3,0.7-2.9,0.7c-1.6,0-3.1-0.2-3.1-0.7c0-0.4,1-0.5,1-0.5L12,17.6z"/>
		<linearGradient id="SVGID_4_" gradientUnits="userSpaceOnUse" x1="10.0762" y1="18.727" x2="10.0762" y2="17.9541">
			<stop  offset="5.617980e-03" style="stop-color:#BE813D"/>
			<stop  offset="0.3972" style="stop-color:#BB7E3B"/>
			<stop  offset="0.738" style="stop-color:#B07436"/>
			<stop  offset="1" style="stop-color:#A26730"/>
		</linearGradient>
		<path class="st4" d="M12,17.7c0,0,1,0.1,1,0.5c0,0.4-1.2,0.7-2.8,0.7c-1.5,0-3-0.2-3-0.6c0-0.4,1-0.5,1-0.5L12,17.7z"/>
		<linearGradient id="SVGID_5_" gradientUnits="userSpaceOnUse" x1="10.1142" y1="18.7179" x2="10.1142" y2="17.9769">
			<stop  offset="5.617980e-03" style="stop-color:#C08240"/>
			<stop  offset="0.4175" style="stop-color:#BD7F3E"/>
			<stop  offset="0.776" style="stop-color:#B2763A"/>
			<stop  offset="1" style="stop-color:#A76C35"/>
		</linearGradient>
		<path class="st5" d="M12,17.7c0,0,0.9,0.1,1,0.5c0,0.4-1.2,0.6-2.7,0.6c-1.5,0-2.9-0.2-2.9-0.6c0-0.4,1-0.5,1-0.5L12,17.7z"/>
		<linearGradient id="SVGID_6_" gradientUnits="userSpaceOnUse" x1="10.1521" y1="18.7089" x2="10.1521" y2="17.9998">
			<stop  offset="5.617980e-03" style="stop-color:#C18444"/>
			<stop  offset="0.4507" style="stop-color:#BE8142"/>
			<stop  offset="0.8381" style="stop-color:#B3773D"/>
			<stop  offset="1" style="stop-color:#AC713A"/>
		</linearGradient>
		<path class="st6" d="M11.9,17.7c0,0,0.9,0.1,0.9,0.5c0,0.4-1.2,0.6-2.6,0.6c-1.5,0-2.8-0.2-2.8-0.6c0-0.4,0.9-0.5,0.9-0.5
			L11.9,17.7z"/>
		<linearGradient id="SVGID_7_" gradientUnits="userSpaceOnUse" x1="10.1901" y1="18.6999" x2="10.1901" y2="18.0227">
			<stop  offset="5.617980e-03" style="stop-color:#C38647"/>
			<stop  offset="0.4709" style="stop-color:#C08346"/>
			<stop  offset="0.8761" style="stop-color:#B57941"/>
			<stop  offset="1" style="stop-color:#B0753F"/>
		</linearGradient>
		<path class="st7" d="M11.9,17.8c0,0,0.9,0.1,0.9,0.4c0,0.4-1.1,0.6-2.6,0.6c-1.4,0-2.8-0.2-2.7-0.5c0-0.4,0.9-0.4,0.9-0.4
			L11.9,17.8z"/>
		<linearGradient id="SVGID_8_" gradientUnits="userSpaceOnUse" x1="10.2281" y1="18.691" x2="10.2281" y2="18.0456">
			<stop  offset="5.617980e-03" style="stop-color:#C4884B"/>
			<stop  offset="0.5225" style="stop-color:#C18549"/>
			<stop  offset="0.9726" style="stop-color:#B67B43"/>
			<stop  offset="1" style="stop-color:#B57A43"/>
		</linearGradient>
		<path class="st8" d="M11.9,17.8c0,0,0.9,0.1,0.9,0.4c0,0.3-1.1,0.5-2.5,0.6c-1.4,0-2.7-0.2-2.7-0.5c0-0.3,0.9-0.4,0.9-0.4
			L11.9,17.8z"/>
		<linearGradient id="SVGID_9_" gradientUnits="userSpaceOnUse" x1="10.266" y1="18.6821" x2="10.266" y2="18.0685">
			<stop  offset="5.617980e-03" style="stop-color:#C68A4E"/>
			<stop  offset="0.5565" style="stop-color:#C3874C"/>
			<stop  offset="1" style="stop-color:#B97E48"/>
		</linearGradient>
		<path class="st9" d="M11.9,17.8c0,0,0.8,0.1,0.9,0.4c0,0.3-1.1,0.5-2.4,0.5c-1.3,0-2.6-0.1-2.6-0.5c0-0.3,0.9-0.4,0.9-0.4
			L11.9,17.8z"/>
		<linearGradient id="SVGID_10_" gradientUnits="userSpaceOnUse" x1="10.304" y1="18.6733" x2="10.304" y2="18.0914">
			<stop  offset="5.617980e-03" style="stop-color:#C78C52"/>
			<stop  offset="0.6545" style="stop-color:#C48950"/>
			<stop  offset="1" style="stop-color:#BE834D"/>
		</linearGradient>
		<path class="st10" d="M11.9,17.9c0,0,0.8,0.1,0.8,0.4c0,0.3-1,0.5-2.3,0.5c-1.3,0-2.5-0.1-2.5-0.4c0-0.3,0.8-0.4,0.8-0.4
			L11.9,17.9z"/>
		<linearGradient id="SVGID_11_" gradientUnits="userSpaceOnUse" x1="10.342" y1="18.6646" x2="10.342" y2="18.1144">
			<stop  offset="5.617980e-03" style="stop-color:#C98D55"/>
			<stop  offset="0.7829" style="stop-color:#C68A53"/>
			<stop  offset="1" style="stop-color:#C38852"/>
		</linearGradient>
		<path class="st11" d="M11.9,17.9c0,0,0.8,0,0.8,0.3c0,0.3-1,0.5-2.3,0.5c-1.3,0-2.4-0.1-2.4-0.4C8,18,8.8,18,8.8,18L11.9,17.9z"/>
		<linearGradient id="SVGID_12_" gradientUnits="userSpaceOnUse" x1="10.3799" y1="18.656" x2="10.3799" y2="18.1374">
			<stop  offset="5.617980e-03" style="stop-color:#CA8F59"/>
			<stop  offset="1" style="stop-color:#C78C57"/>
		</linearGradient>
		<path class="st12" d="M11.9,17.9c0,0,0.8,0,0.8,0.3c0,0.3-1,0.4-2.2,0.5c-1.2,0-2.4-0.1-2.3-0.4c0-0.3,0.8-0.3,0.8-0.3L11.9,17.9z
			"/>
		<path class="st13" d="M11.9,18c0,0,0.7,0,0.8,0.3c0,0.3-0.9,0.4-2.1,0.4s-2.3-0.1-2.3-0.3C8.2,18.1,9,18,9,18L11.9,18z"/>
		<path class="st14" d="M9.1,18.1c0,0,2.7-0.1,2.7-0.1c0,0,0.7,0,0.7,0.3c0,0.1-0.2,0.2-0.5,0.3c-0.4,0.1-0.9,0.1-1.4,0.1
			c-0.6,0-1.2,0-1.6-0.1c-0.3-0.1-0.6-0.1-0.6-0.2C8.4,18.1,9.1,18.1,9.1,18.1z"/>
		<path class="st15" d="M9.2,18.1c0,0,2.5-0.1,2.5,0c0,0,0.6,0,0.6,0.2c0,0.1-0.2,0.2-0.5,0.3c-0.3,0.1-0.8,0.1-1.3,0.1
			c-0.5,0-1.1,0-1.5-0.1c-0.3,0-0.5-0.1-0.5-0.2C8.6,18.2,9.2,18.1,9.2,18.1z"/>
		<path class="st16" d="M9.3,18.1c0,0,2.3,0,2.3,0c0,0,0.6,0,0.6,0.2c0,0.1-0.2,0.2-0.5,0.2c-0.3,0.1-0.7,0.1-1.2,0.1
			c-0.5,0-1,0-1.3-0.1c-0.3,0-0.5-0.1-0.5-0.2C8.7,18.2,9.3,18.1,9.3,18.1z"/>
		<path class="st17" d="M9.4,18.2c0.1,0,2.1,0,2.1,0c0,0,0.5,0,0.5,0.2c0,0.1-0.2,0.2-0.4,0.2c-0.3,0.1-0.7,0.1-1.1,0.1
			c-0.5,0-0.9,0-1.2-0.1c-0.3,0-0.4-0.1-0.4-0.2C8.9,18.2,9.4,18.2,9.4,18.2z"/>
		<path class="st18" d="M9.6,18.2c0.1,0,1.9,0,1.9,0c0.1,0,0.5,0,0.5,0.2c0,0.1-0.2,0.1-0.4,0.2c-0.3,0-0.6,0.1-1,0.1
			c-0.4,0-0.8,0-1.1-0.1c-0.2,0-0.4-0.1-0.4-0.2C9.1,18.2,9.5,18.2,9.6,18.2z"/>
		<path class="st19" d="M9.7,18.2c0.1,0,1.7,0,1.8,0c0.1,0,0.4,0,0.4,0.2c0,0.1-0.1,0.1-0.4,0.2c-0.2,0-0.6,0.1-0.9,0.1
			c-0.4,0-0.7,0-1,0c-0.2,0-0.3-0.1-0.4-0.1C9.2,18.3,9.6,18.2,9.7,18.2z"/>
		<path class="st20" d="M9.8,18.2c0.1,0,1.5,0,1.6,0c0.1,0,0.4,0,0.4,0.1c0,0.1-0.1,0.1-0.3,0.1c-0.2,0-0.5,0.1-0.8,0.1
			c-0.3,0-0.7,0-0.9,0c-0.2,0-0.3-0.1-0.3-0.1C9.4,18.3,9.7,18.3,9.8,18.2z"/>
		<path class="st21" d="M9.9,18.3c0.1,0,1.3,0,1.4,0c0.1,0,0.3,0,0.3,0.1c0,0-0.1,0.1-0.3,0.1c-0.2,0-0.4,0-0.7,0.1
			c-0.3,0-0.6,0-0.8,0c-0.2,0-0.3-0.1-0.3-0.1C9.6,18.3,9.8,18.3,9.9,18.3z"/>
		<path class="st22" d="M10,18.3c0.1,0,1.1,0,1.2,0c0.1,0,0.3,0,0.3,0.1c0,0-0.1,0.1-0.3,0.1c-0.2,0-0.4,0-0.6,0c-0.2,0-0.5,0-0.7,0
			c-0.1,0-0.2,0-0.3-0.1C9.7,18.3,9.9,18.3,10,18.3z"/>
		<path class="st23" d="M10.2,18.3c0.1,0,0.9,0,1,0c0.1,0,0.2,0,0.2,0.1c0,0-0.1,0-0.2,0.1c-0.1,0-0.3,0-0.5,0c-0.2,0-0.4,0-0.5,0
			c-0.1,0-0.2,0-0.2-0.1C9.9,18.4,10,18.4,10.2,18.3z"/>
		<path class="st24" d="M10.3,18.4c-0.1,0-0.2,0-0.2,0C10.1,18.4,10.2,18.4,10.3,18.4c0.2,0.1,0.6,0.1,0.8,0.1c0.1,0,0.1,0,0.2,0
			c0,0,0,0-0.2,0C11,18.3,10.4,18.4,10.3,18.4z"/>
	</g>
	<g>
		<linearGradient id="SVGID_13_" gradientUnits="userSpaceOnUse" x1="11.247" y1="17.1687" x2="7.3601" y2="17.1687">
			<stop  offset="5.617980e-03" style="stop-color:#BF7D36"/>
			<stop  offset="0.3696" style="stop-color:#BC7A34"/>
			<stop  offset="0.6863" style="stop-color:#B1702C"/>
			<stop  offset="0.9852" style="stop-color:#9F5F20"/>
			<stop  offset="1" style="stop-color:#9E5E1F"/>
		</linearGradient>
		<path class="st25" d="M11.7,16.4c0,0,0.9,0.1,0.9,0.7c0,0.6-0.8,0.7-1.3,0.8c-0.7,0.1-1.7,0.1-2.4,0c-0.5,0-1.4-0.2-1.3-0.8
			c0-0.6,0.9-0.7,0.9-0.7H11.7z"/>
		<linearGradient id="SVGID_14_" gradientUnits="userSpaceOnUse" x1="11.197" y1="17.1709" x2="7.5102" y2="17.1735">
			<stop  offset="5.617980e-03" style="stop-color:#C1823C"/>
			<stop  offset="0.3798" style="stop-color:#BE7F3A"/>
			<stop  offset="0.7055" style="stop-color:#B37432"/>
			<stop  offset="1" style="stop-color:#A26426"/>
		</linearGradient>
		<path class="st26" d="M8.4,16.5c0,0,3.2,0,3.2,0c0,0,0.8,0.1,0.8,0.6c0,0.5-0.8,0.7-1.3,0.7c-0.7,0.1-1.7,0.1-2.4,0
			c-0.5,0-1.3-0.2-1.3-0.7C7.6,16.6,8.4,16.5,8.4,16.5z"/>
		<linearGradient id="SVGID_15_" gradientUnits="userSpaceOnUse" x1="11.1504" y1="17.1733" x2="7.6599" y2="17.1782">
			<stop  offset="5.617980e-03" style="stop-color:#C48641"/>
			<stop  offset="0.3798" style="stop-color:#C1833F"/>
			<stop  offset="0.7055" style="stop-color:#B67938"/>
			<stop  offset="1" style="stop-color:#A56A2D"/>
		</linearGradient>
		<path class="st27" d="M8.5,16.5c0.1,0,3,0,3.1,0c0.1,0,0.8,0.1,0.8,0.6c0,0.5-0.7,0.6-1.2,0.7c-0.7,0.1-1.7,0.1-2.3,0
			c-0.4-0.1-1.2-0.2-1.2-0.7C7.8,16.6,8.5,16.5,8.5,16.5z"/>
		<linearGradient id="SVGID_16_" gradientUnits="userSpaceOnUse" x1="11.1069" y1="17.1759" x2="7.8092" y2="17.1829">
			<stop  offset="5.617980e-03" style="stop-color:#C68B47"/>
			<stop  offset="0.3911" style="stop-color:#C38845"/>
			<stop  offset="0.7266" style="stop-color:#B87D3E"/>
			<stop  offset="1" style="stop-color:#A96F34"/>
		</linearGradient>
		<path class="st28" d="M8.6,16.6c0.1,0,2.9,0,3,0c0.1,0,0.7,0.1,0.7,0.6c0,0.4-0.7,0.6-1.1,0.6c-0.6,0.1-1.6,0.1-2.3,0
			c-0.4-0.1-1.1-0.2-1.1-0.6C7.9,16.7,8.6,16.6,8.6,16.6z"/>
		<linearGradient id="SVGID_17_" gradientUnits="userSpaceOnUse" x1="11.0665" y1="17.1788" x2="7.9581" y2="17.1876">
			<stop  offset="5.617980e-03" style="stop-color:#C98F4C"/>
			<stop  offset="0.3972" style="stop-color:#C68C4A"/>
			<stop  offset="0.738" style="stop-color:#BB8243"/>
			<stop  offset="1" style="stop-color:#AD753B"/>
		</linearGradient>
		<path class="st29" d="M8.7,16.6c0.1,0,2.7-0.1,2.8,0c0.1,0.1,0.7,0.2,0.7,0.5c0,0.4-0.6,0.5-1,0.6c-0.6,0.1-1.6,0.1-2.2,0
			c-0.4-0.1-1-0.2-1-0.6C8,16.8,8.6,16.6,8.7,16.6z"/>
		<linearGradient id="SVGID_18_" gradientUnits="userSpaceOnUse" x1="11.0294" y1="17.182" x2="8.1067" y2="17.1923">
			<stop  offset="5.617980e-03" style="stop-color:#CB9452"/>
			<stop  offset="0.4103" style="stop-color:#C89150"/>
			<stop  offset="0.7625" style="stop-color:#BD8649"/>
			<stop  offset="1" style="stop-color:#B17B42"/>
		</linearGradient>
		<path class="st30" d="M8.9,16.7c0.2-0.1,2.6-0.1,2.7,0c0.1,0.1,0.6,0.2,0.7,0.5c0,0.4-0.6,0.5-0.9,0.5c-0.6,0.1-1.6,0.1-2.2,0
			c-0.4-0.1-0.9-0.2-0.9-0.5C8.2,16.8,8.7,16.7,8.9,16.7z"/>
		<linearGradient id="SVGID_19_" gradientUnits="userSpaceOnUse" x1="10.9954" y1="17.1854" x2="8.255" y2="17.1971">
			<stop  offset="5.617980e-03" style="stop-color:#CE9857"/>
			<stop  offset="0.4103" style="stop-color:#CB9555"/>
			<stop  offset="0.7625" style="stop-color:#C08C4F"/>
			<stop  offset="1" style="stop-color:#B48148"/>
		</linearGradient>
		<path class="st31" d="M9,16.7c0.2-0.1,2.4-0.1,2.6,0c0.2,0.1,0.6,0.2,0.6,0.4c0,0.3-0.5,0.4-0.8,0.5c-0.6,0.1-1.6,0.1-2.2,0
			c-0.3-0.1-0.8-0.2-0.8-0.5C8.3,16.9,8.8,16.8,9,16.7z"/>
		<linearGradient id="SVGID_20_" gradientUnits="userSpaceOnUse" x1="10.9645" y1="17.1893" x2="8.403" y2="17.2019">
			<stop  offset="5.617980e-03" style="stop-color:#D09D5D"/>
			<stop  offset="0.425" style="stop-color:#CD9A5B"/>
			<stop  offset="0.79" style="stop-color:#C29055"/>
			<stop  offset="1" style="stop-color:#B8874F"/>
		</linearGradient>
		<path class="st32" d="M9.1,16.8c0.2-0.1,2.2-0.1,2.5,0c0.2,0.1,0.6,0.2,0.6,0.4c-0.1,0.3-0.5,0.4-0.8,0.4c-0.6,0.1-1.5,0.1-2.1,0
			c-0.3-0.1-0.7-0.2-0.8-0.4C8.5,16.9,8.9,16.8,9.1,16.8z"/>
		<linearGradient id="SVGID_21_" gradientUnits="userSpaceOnUse" x1="10.9369" y1="17.1935" x2="8.5506" y2="17.207">
			<stop  offset="5.617980e-03" style="stop-color:#D3A162"/>
			<stop  offset="0.433" style="stop-color:#D09E60"/>
			<stop  offset="0.805" style="stop-color:#C5955B"/>
			<stop  offset="1" style="stop-color:#BC8D56"/>
		</linearGradient>
		<path class="st33" d="M9.2,16.8c0.3-0.1,2.1-0.1,2.3,0c0.2,0.1,0.5,0.2,0.5,0.4c-0.1,0.2-0.4,0.3-0.7,0.4c-0.6,0.1-1.5,0.1-2.1,0
			c-0.3-0.1-0.6-0.2-0.7-0.4C8.6,17,9,16.9,9.2,16.8z"/>
		<linearGradient id="SVGID_22_" gradientUnits="userSpaceOnUse" x1="10.9124" y1="17.1983" x2="8.6979" y2="17.2123">
			<stop  offset="5.617980e-03" style="stop-color:#D5A668"/>
			<stop  offset="0.4507" style="stop-color:#D2A366"/>
			<stop  offset="0.8381" style="stop-color:#C79961"/>
			<stop  offset="1" style="stop-color:#C0925D"/>
		</linearGradient>
		<path class="st34" d="M9.3,16.8c0.3-0.1,1.9-0.1,2.2,0c0.2,0.1,0.5,0.2,0.5,0.3c-0.1,0.2-0.3,0.3-0.6,0.3c-0.6,0.1-1.5,0.1-2,0
			c-0.3-0.1-0.5-0.1-0.6-0.3C8.8,17.1,9,16.9,9.3,16.8z"/>
		<linearGradient id="SVGID_23_" gradientUnits="userSpaceOnUse" x1="10.891" y1="17.2036" x2="8.8449" y2="17.2181">
			<stop  offset="5.617980e-03" style="stop-color:#D8AA6D"/>
			<stop  offset="0.4507" style="stop-color:#D5A76C"/>
			<stop  offset="0.8381" style="stop-color:#CA9E67"/>
			<stop  offset="1" style="stop-color:#C39864"/>
		</linearGradient>
		<path class="st35" d="M9.4,16.9c0.3-0.1,1.8-0.1,2.1,0c0.3,0.1,0.4,0.2,0.4,0.3c-0.1,0.2-0.3,0.2-0.5,0.3c-0.6,0.2-1.5,0.2-2,0
			c-0.2-0.1-0.4-0.1-0.5-0.3C8.9,17.1,9.1,17,9.4,16.9z"/>
		<linearGradient id="SVGID_24_" gradientUnits="userSpaceOnUse" x1="10.8729" y1="17.21" x2="8.9916" y2="17.2246">
			<stop  offset="5.617980e-03" style="stop-color:#DAAF73"/>
			<stop  offset="0.4709" style="stop-color:#D7AC72"/>
			<stop  offset="0.8761" style="stop-color:#CCA26D"/>
			<stop  offset="1" style="stop-color:#C79E6B"/>
		</linearGradient>
		<path class="st36" d="M9.5,16.9C9.2,17,9,17.2,9,17.2c0.1,0.1,0.2,0.2,0.4,0.2c0.5,0.2,1.4,0.2,2,0c0.2-0.1,0.3-0.1,0.4-0.2
			c0,0-0.1-0.1-0.4-0.2C11.1,16.8,9.8,16.8,9.5,16.9z"/>
		<linearGradient id="SVGID_25_" gradientUnits="userSpaceOnUse" x1="10.8723" y1="17.2109" x2="9.0888" y2="17.2248">
			<stop  offset="5.617980e-03" style="stop-color:#DDB47A"/>
			<stop  offset="0.4946" style="stop-color:#DAB178"/>
			<stop  offset="0.9202" style="stop-color:#CFA873"/>
			<stop  offset="1" style="stop-color:#CCA572"/>
		</linearGradient>
		<path class="st37" d="M9.6,17c-0.3,0.1-0.4,0.2-0.4,0.2c0.1,0.1,0.2,0.2,0.4,0.2c0.5,0.2,1.3,0.2,1.9,0c0.2-0.1,0.3-0.1,0.4-0.2
			c0,0-0.1-0.1-0.4-0.2C11.1,16.8,9.9,16.9,9.6,17z"/>
		<linearGradient id="SVGID_26_" gradientUnits="userSpaceOnUse" x1="10.8717" y1="17.2119" x2="9.186" y2="17.225">
			<stop  offset="5.617980e-03" style="stop-color:#E1BA80"/>
			<stop  offset="0.5078" style="stop-color:#DEB77F"/>
			<stop  offset="0.9452" style="stop-color:#D3AE7B"/>
			<stop  offset="1" style="stop-color:#D1AC7A"/>
		</linearGradient>
		<path class="st38" d="M9.6,17c-0.3,0.1-0.4,0.2-0.4,0.2c0.1,0.1,0.2,0.2,0.4,0.2c0.5,0.1,1.3,0.1,1.8,0c0.2-0.1,0.3-0.1,0.4-0.2
			c0,0-0.1-0.1-0.4-0.2C11.1,16.9,9.9,16.9,9.6,17z"/>
		<linearGradient id="SVGID_27_" gradientUnits="userSpaceOnUse" x1="10.8712" y1="17.2129" x2="9.2833" y2="17.2253">
			<stop  offset="5.617980e-03" style="stop-color:#E4BF87"/>
			<stop  offset="0.5386" style="stop-color:#E1BC86"/>
			<stop  offset="1" style="stop-color:#D6B381"/>
		</linearGradient>
		<path class="st39" d="M9.7,17c-0.2,0.1-0.4,0.2-0.4,0.2c0.1,0.1,0.2,0.1,0.4,0.2c0.4,0.1,1.2,0.1,1.6,0c0.2-0.1,0.3-0.1,0.4-0.2
			c0,0-0.1-0.1-0.3-0.2C11.1,16.9,10,16.9,9.7,17z"/>
		<linearGradient id="SVGID_28_" gradientUnits="userSpaceOnUse" x1="10.8706" y1="17.2139" x2="9.3805" y2="17.2255">
			<stop  offset="5.617980e-03" style="stop-color:#E7C58E"/>
			<stop  offset="0.5765" style="stop-color:#E4C28D"/>
			<stop  offset="1" style="stop-color:#DBBA89"/>
		</linearGradient>
		<path class="st40" d="M9.8,17c-0.2,0.1-0.4,0.2-0.4,0.2c0.1,0.1,0.2,0.1,0.3,0.2c0.4,0.1,1.1,0.1,1.5,0c0.2,0,0.3-0.1,0.3-0.2
			c0,0-0.1-0.1-0.3-0.2C11.1,16.9,10.1,17,9.8,17z"/>
		<linearGradient id="SVGID_29_" gradientUnits="userSpaceOnUse" x1="10.87" y1="17.2149" x2="9.4777" y2="17.2257">
			<stop  offset="5.617980e-03" style="stop-color:#EBCA95"/>
			<stop  offset="0.599" style="stop-color:#E8C793"/>
			<stop  offset="1" style="stop-color:#E0C190"/>
		</linearGradient>
		<path class="st41" d="M9.8,17.1c-0.2,0.1-0.3,0.1-0.3,0.2c0.1,0.1,0.2,0.1,0.3,0.2c0.4,0.1,1,0.1,1.4,0c0.1,0,0.2-0.1,0.3-0.2
			c0,0-0.1-0.1-0.3-0.1C11,17,10.1,17,9.8,17.1z"/>
		<linearGradient id="SVGID_30_" gradientUnits="userSpaceOnUse" x1="10.8694" y1="17.2159" x2="9.575" y2="17.2259">
			<stop  offset="5.617980e-03" style="stop-color:#EED09B"/>
			<stop  offset="0.6894" style="stop-color:#EBCD9A"/>
			<stop  offset="1" style="stop-color:#E6C898"/>
		</linearGradient>
		<path class="st42" d="M9.9,17.1c-0.2,0-0.3,0.1-0.3,0.1c0.1,0.1,0.2,0.1,0.3,0.1c0.4,0.1,1,0.1,1.3,0c0.1,0,0.2-0.1,0.3-0.1
			c0,0-0.1-0.1-0.3-0.1C11,17,10.2,17,9.9,17.1z"/>
		<linearGradient id="SVGID_31_" gradientUnits="userSpaceOnUse" x1="10.8688" y1="17.2169" x2="9.6722" y2="17.2262">
			<stop  offset="5.617980e-03" style="stop-color:#F2D5A2"/>
			<stop  offset="0.7313" style="stop-color:#EFD2A1"/>
			<stop  offset="1" style="stop-color:#EBCF9F"/>
		</linearGradient>
		<path class="st43" d="M10,17.1c-0.2,0-0.3,0.1-0.3,0.1c0.1,0.1,0.1,0.1,0.3,0.1c0.3,0.1,0.9,0.1,1.2,0c0.1,0,0.2-0.1,0.3-0.1
			c0,0-0.1,0-0.3-0.1C11,17,10.2,17,10,17.1z"/>
		<linearGradient id="SVGID_32_" gradientUnits="userSpaceOnUse" x1="10.8683" y1="17.2179" x2="9.7694" y2="17.2264">
			<stop  offset="5.617980e-03" style="stop-color:#F5DBA9"/>
			<stop  offset="0.8486" style="stop-color:#F2D8A8"/>
			<stop  offset="1" style="stop-color:#F0D6A7"/>
		</linearGradient>
		<path class="st44" d="M10.1,17.1c-0.2,0-0.3,0.1-0.3,0.1c0.1,0,0.1,0.1,0.2,0.1c0.3,0.1,0.8,0.1,1.1,0c0.1,0,0.2,0,0.3-0.1
			c0,0-0.1,0-0.2-0.1C11,17.1,10.3,17.1,10.1,17.1z"/>
		<linearGradient id="SVGID_33_" gradientUnits="userSpaceOnUse" x1="10.8677" y1="17.2188" x2="9.8667" y2="17.2266">
			<stop  offset="5.617980e-03" style="stop-color:#F8E0B0"/>
			<stop  offset="1" style="stop-color:#F5DDAE"/>
		</linearGradient>
		<path class="st45" d="M10.1,17.1c-0.1,0-0.2,0.1-0.2,0.1c0.1,0,0.1,0.1,0.2,0.1c0.3,0.1,0.8,0.1,1,0c0.1,0,0.2,0,0.2-0.1
			c0,0-0.1,0-0.2-0.1C11,17.1,10.3,17.1,10.1,17.1z"/>
		<linearGradient id="SVGID_34_" gradientUnits="userSpaceOnUse" x1="10.8671" y1="17.2198" x2="9.9639" y2="17.2268">
			<stop  offset="5.617980e-03" style="stop-color:#FCE6B6"/>
			<stop  offset="1" style="stop-color:#FAE4B6"/>
		</linearGradient>
		<path class="st46" d="M10.2,17.2c-0.1,0-0.2,0.1-0.2,0.1c0,0,0.1,0,0.2,0.1c0.3,0,0.7,0,0.9,0c0.1,0,0.2,0,0.2-0.1
			c0,0,0,0-0.2-0.1C11,17.1,10.4,17.1,10.2,17.2z"/>
		<path class="st24" d="M10.3,17.2c-0.1,0-0.2,0-0.2,0C10.1,17.2,10.2,17.2,10.3,17.2c0.2,0.1,0.6,0.1,0.8,0.1c0.1,0,0.1,0,0.2,0
			c0,0,0,0-0.2,0C11,17.2,10.4,17.2,10.3,17.2z"/>
	</g>
	<g>
		<linearGradient id="SVGID_35_" gradientUnits="userSpaceOnUse" x1="10.6835" y1="16.1938" x2="7.9303" y2="15.9779">
			<stop  offset="5.617980e-03" style="stop-color:#BB7D36"/>
			<stop  offset="0.3648" style="stop-color:#B87A34"/>
			<stop  offset="0.6778" style="stop-color:#AD702F"/>
			<stop  offset="0.9728" style="stop-color:#9B6027"/>
			<stop  offset="1" style="stop-color:#995E26"/>
		</linearGradient>
		<path class="st47" d="M11,15.7c0,0,0.7,0,0.8,0.3c0.1,0.2,0.1,0.3,0,0.4c-0.1,0.1-0.2,0.1-0.2,0.2c-0.1,0-0.7,0.1-1.6,0.1
			c-0.9,0-1.4-0.1-1.6-0.1c-0.1,0-0.2-0.1-0.2-0.2c-0.1-0.1-0.1-0.2,0-0.4C8.4,15.7,9,15.7,9,15.7H11z"/>
		<linearGradient id="SVGID_36_" gradientUnits="userSpaceOnUse" x1="10.688" y1="16.2026" x2="8.138" y2="16.0026">
			<stop  offset="5.617980e-03" style="stop-color:#C18742"/>
			<stop  offset="0.3798" style="stop-color:#BE8440"/>
			<stop  offset="0.7055" style="stop-color:#B37A3C"/>
			<stop  offset="1" style="stop-color:#A26B34"/>
		</linearGradient>
		<path class="st48" d="M8.4,16c0.2-0.3,0.8-0.3,0.8-0.3c0,0,0.9,0,0.9,0c0,0,0.9,0,0.9,0c0,0,0.6,0,0.8,0.3c0.1,0.1,0.1,0.3,0,0.3
			c-0.1,0.1-0.1,0.1-0.2,0.1c-0.1,0-0.6,0.1-1.5,0.1c-0.9,0-1.3-0.1-1.5-0.1c0,0,0,0-0.1,0c0,0-0.1-0.1-0.1-0.1
			C8.3,16.3,8.3,16.2,8.4,16z"/>
		<linearGradient id="SVGID_37_" gradientUnits="userSpaceOnUse" x1="10.6928" y1="16.2115" x2="8.3454" y2="16.0274">
			<stop  offset="5.617980e-03" style="stop-color:#C7914F"/>
			<stop  offset="0.4035" style="stop-color:#C48E4D"/>
			<stop  offset="0.75" style="stop-color:#B98448"/>
			<stop  offset="1" style="stop-color:#AC7841"/>
		</linearGradient>
		<path class="st49" d="M8.6,16c0.1-0.3,0.7-0.3,0.7-0.3c0,0,0.8,0,0.9,0c0,0,0.8,0,0.8,0c0,0,0.6,0,0.7,0.3c0.1,0.1,0.1,0.2,0,0.3
			c-0.1,0.1-0.1,0.1-0.2,0.1c-0.1,0-0.6,0.1-1.4,0.1c-0.8,0-1.2-0.1-1.4-0.1c0,0,0,0-0.1,0c0,0-0.1-0.1-0.1-0.1
			C8.5,16.3,8.5,16.2,8.6,16z"/>
		<linearGradient id="SVGID_38_" gradientUnits="userSpaceOnUse" x1="10.6979" y1="16.2204" x2="8.5525" y2="16.0521">
			<stop  offset="5.617980e-03" style="stop-color:#CE9B5B"/>
			<stop  offset="0.4175" style="stop-color:#CB9859"/>
			<stop  offset="0.776" style="stop-color:#C08E54"/>
			<stop  offset="1" style="stop-color:#B5844F"/>
		</linearGradient>
		<path class="st50" d="M8.8,16.1c0.1-0.2,0.6-0.2,0.6-0.2c0,0,0.8,0,0.8,0c0,0,0.7,0,0.7,0c0,0,0.5,0,0.6,0.2
			c0.1,0.1,0.1,0.2,0,0.3c-0.1,0.1-0.1,0.1-0.2,0.1c-0.1,0-0.5,0.1-1.2,0.1c-0.7,0-1.1-0.1-1.3-0.1c0,0,0,0,0,0c0,0-0.1-0.1-0.1-0.1
			C8.7,16.3,8.7,16.2,8.8,16.1z"/>
		<linearGradient id="SVGID_39_" gradientUnits="userSpaceOnUse" x1="10.7034" y1="16.2292" x2="8.759" y2="16.0767">
			<stop  offset="5.617980e-03" style="stop-color:#D4A567"/>
			<stop  offset="0.4415" style="stop-color:#D1A265"/>
			<stop  offset="0.821" style="stop-color:#C69861"/>
			<stop  offset="1" style="stop-color:#BE915D"/>
		</linearGradient>
		<path class="st51" d="M9,16.1c0.1-0.2,0.5-0.2,0.6-0.2c0,0,0.7,0,0.7,0c0,0,0.6,0,0.6,0c0,0,0.5,0,0.6,0.2
			c0.1,0.1,0.1,0.2,0.1,0.2c0,0.1-0.1,0.1-0.2,0.1c-0.1,0-0.5,0.1-1.1,0.1c-0.7,0-1-0.1-1.1-0.1c0,0,0,0,0,0c0,0-0.1,0-0.1-0.1
			C8.9,16.3,8.9,16.2,9,16.1z"/>
		<linearGradient id="SVGID_40_" gradientUnits="userSpaceOnUse" x1="10.7095" y1="16.2382" x2="8.9649" y2="16.1013">
			<stop  offset="5.617980e-03" style="stop-color:#DAAF73"/>
			<stop  offset="0.4709" style="stop-color:#D7AC72"/>
			<stop  offset="0.8761" style="stop-color:#CCA26D"/>
			<stop  offset="1" style="stop-color:#C79E6B"/>
		</linearGradient>
		<path class="st52" d="M9.2,16.1c0.1-0.2,0.5-0.2,0.5-0.2c0,0,0.6,0,0.6,0c0,0,0.6,0,0.6,0c0,0,0.4,0,0.5,0.2
			c0.1,0.1,0.1,0.2,0.1,0.2c0,0-0.1,0.1-0.2,0.1c-0.1,0-0.4,0.1-1,0.1c-0.6,0-0.9-0.1-1-0.1c0,0,0,0,0,0c0,0-0.1,0-0.1-0.1
			C9.1,16.3,9.1,16.2,9.2,16.1z"/>
		<linearGradient id="SVGID_41_" gradientUnits="userSpaceOnUse" x1="10.7162" y1="16.2471" x2="9.1695" y2="16.1258">
			<stop  offset="5.617980e-03" style="stop-color:#E0B980"/>
			<stop  offset="0.5225" style="stop-color:#DDB67E"/>
			<stop  offset="0.9726" style="stop-color:#D2AC78"/>
			<stop  offset="1" style="stop-color:#D1AB78"/>
		</linearGradient>
		<path class="st53" d="M9.3,16.1C9.4,16,9.8,16,9.8,16c0,0,0.5,0,0.5,0c0,0,0.5,0,0.5,0c0,0,0.4,0,0.5,0.1c0.1,0.1,0.1,0.1,0.1,0.2
			c0,0-0.1,0.1-0.2,0.1c-0.1,0-0.4,0.1-0.9,0.1c-0.5,0-0.8-0.1-0.9-0.1c0,0,0,0,0,0c0,0,0,0-0.1-0.1C9.3,16.3,9.3,16.2,9.3,16.1z"/>
		<linearGradient id="SVGID_42_" gradientUnits="userSpaceOnUse" x1="10.7239" y1="16.2561" x2="9.3723" y2="16.1501">
			<stop  offset="5.617980e-03" style="stop-color:#E6C38C"/>
			<stop  offset="0.5765" style="stop-color:#E3C08A"/>
			<stop  offset="1" style="stop-color:#DAB886"/>
		</linearGradient>
		<path class="st54" d="M9.5,16.2C9.6,16,9.9,16,9.9,16c0,0,0.4,0,0.5,0c0,0,0.4,0,0.4,0c0.1,0,0.3,0,0.4,0.1
			c0.1,0.1,0.1,0.1,0.1,0.2c0,0-0.1,0.1-0.2,0.1c-0.1,0-0.3,0.1-0.7,0.1c-0.5,0-0.7,0-0.8-0.1c0,0,0,0,0,0c0,0,0,0,0-0.1
			C9.5,16.3,9.5,16.2,9.5,16.2z"/>
		<linearGradient id="SVGID_43_" gradientUnits="userSpaceOnUse" x1="10.7315" y1="16.2651" x2="9.572" y2="16.1742">
			<stop  offset="5.617980e-03" style="stop-color:#ECCD98"/>
			<stop  offset="0.6545" style="stop-color:#E9CA96"/>
			<stop  offset="1" style="stop-color:#E3C594"/>
		</linearGradient>
		<path class="st55" d="M9.7,16.2c0-0.1,0.3-0.1,0.3-0.1c0,0,0.3,0,0.4,0c0,0,0.3,0,0.4,0c0.1,0,0.3,0,0.3,0.1
			c0.1,0,0.1,0.1,0.1,0.1c0,0-0.1,0-0.2,0.1c-0.1,0-0.3,0-0.6,0c-0.4,0-0.6,0-0.7-0.1c0,0,0,0,0,0c0,0,0,0,0,0
			C9.7,16.3,9.7,16.2,9.7,16.2z"/>
		<linearGradient id="SVGID_44_" gradientUnits="userSpaceOnUse" x1="10.7377" y1="16.2738" x2="9.7668" y2="16.1977">
			<stop  offset="5.617980e-03" style="stop-color:#F3D7A4"/>
			<stop  offset="0.7313" style="stop-color:#F0D4A3"/>
			<stop  offset="1" style="stop-color:#ECD1A2"/>
		</linearGradient>
		<path class="st56" d="M9.9,16.2c0-0.1,0.2-0.1,0.3-0.1c0,0,0.3,0,0.3,0c0,0,0.3,0,0.3,0c0.1,0,0.2,0,0.3,0.1
			c0.1,0,0.1,0.1,0.1,0.1c0,0-0.1,0-0.2,0c-0.1,0-0.3,0-0.5,0c-0.3,0-0.5,0-0.6,0c0,0,0,0,0,0C9.8,16.3,9.8,16.3,9.9,16.2
			C9.9,16.3,9.9,16.2,9.9,16.2z"/>
		<linearGradient id="SVGID_45_" gradientUnits="userSpaceOnUse" x1="10.7399" y1="16.282" x2="9.9483" y2="16.22">
			<stop  offset="5.617980e-03" style="stop-color:#F9E1B1"/>
			<stop  offset="1" style="stop-color:#F6DEAF"/>
		</linearGradient>
		<path class="st57" d="M10.1,16.2c0,0,0.1,0,0.2,0c0,0,0.2,0,0.2,0c0,0,0.2,0,0.2,0c0.1,0,0.2,0,0.2,0c0,0,0.1,0,0.1,0.1
			c0,0-0.1,0-0.2,0c-0.1,0-0.2,0-0.4,0C10.3,16.3,10.1,16.3,10.1,16.2C10,16.3,10,16.3,10.1,16.2C10,16.3,10,16.3,10.1,16.2
			C10,16.3,10.1,16.2,10.1,16.2z"/>
		<path class="st24" d="M10.3,16.3c0,0-0.1,0-0.1,0c0.1,0,0.2,0,0.4,0c0.1,0,0.2,0,0.3,0s0.1,0,0.2,0c0,0-0.1,0-0.1,0
			c0,0-0.1,0-0.3,0S10.3,16.3,10.3,16.3z"/>
	</g>
	<g>
		<path class="st58" d="M11.4,10.5c0,0-1,0.8-0.9,2.6c0.1,1.8,0.5,2.7,0.5,2.7s-0.2,0.1-1,0.1c-0.8,0-1-0.1-1-0.1s0.3-0.8,0.5-2.7
			c0.1-1.9-0.9-2.6-0.9-2.6H11.4z"/>
		<linearGradient id="SVGID_46_" gradientUnits="userSpaceOnUse" x1="9.8807" y1="15.1826" x2="10.0498" y2="9.4755">
			<stop  offset="0" style="stop-color:#BD8542"/>
			<stop  offset="1" style="stop-color:#B87C36"/>
		</linearGradient>
		<path class="st59" d="M8.7,10.6l2.6,0c0,0.1-0.6,0.5-0.8,1.5c-0.1,0.3-0.1,0.7,0,1.1c0.1,1.8,0.5,2.6,0.5,2.6c0,0-0.2,0.1-1,0.1
			c-0.8,0-1-0.1-1-0.1c0,0,0.3-0.9,0.5-2.6c0-0.3,0-0.6,0-0.8C9.4,11.1,8.7,10.6,8.7,10.6z"/>
		<linearGradient id="SVGID_47_" gradientUnits="userSpaceOnUse" x1="9.8992" y1="15.1918" x2="10.0656" y2="9.5755">
			<stop  offset="0" style="stop-color:#C38F4F"/>
			<stop  offset="1" style="stop-color:#BB7D36"/>
		</linearGradient>
		<path class="st60" d="M8.8,10.7l2.4,0c0,0.1-0.5,0.6-0.7,1.5c-0.1,0.3-0.1,0.6,0,1.1c0.1,1.7,0.5,2.6,0.5,2.6c0,0-0.2,0.1-0.9,0.1
			c-0.7,0-0.9-0.1-0.9-0.1c0,0,0.3-0.9,0.4-2.6c0-0.3,0-0.6,0-0.8C9.5,11.3,8.8,10.7,8.8,10.7z"/>
		<linearGradient id="SVGID_48_" gradientUnits="userSpaceOnUse" x1="9.9178" y1="15.2009" x2="10.0815" y2="9.6755">
			<stop  offset="0" style="stop-color:#CA9A5B"/>
			<stop  offset="1" style="stop-color:#BD7E35"/>
		</linearGradient>
		<path class="st61" d="M9,10.8l2.2,0c-0.1,0.2-0.5,0.6-0.7,1.5c0,0.3-0.1,0.6,0,1c0.1,1.6,0.4,2.5,0.5,2.5c0,0-0.2,0.1-0.8,0.1
			c-0.6,0-0.8-0.1-0.8-0.1c0,0,0.3-0.9,0.4-2.6c0-0.3,0-0.6,0-0.8C9.5,11.4,9,10.8,9,10.8z"/>
		<linearGradient id="SVGID_49_" gradientUnits="userSpaceOnUse" x1="9.9363" y1="15.2102" x2="10.0973" y2="9.7755">
			<stop  offset="0" style="stop-color:#D1A467"/>
			<stop  offset="1" style="stop-color:#C07F35"/>
		</linearGradient>
		<path class="st62" d="M9.1,10.8l2,0c-0.1,0.3-0.5,0.7-0.6,1.4c0,0.2-0.1,0.6,0,1c0.1,1.5,0.4,2.4,0.4,2.5c0,0-0.2,0.1-0.8,0.1
			c-0.6,0-0.7,0-0.8,0c0,0,0.3-0.9,0.4-2.5c0-0.3,0-0.5,0-0.8C9.6,11.6,9.1,10.8,9.1,10.8z"/>
		<linearGradient id="SVGID_50_" gradientUnits="userSpaceOnUse" x1="9.9566" y1="15.2194" x2="10.1149" y2="9.8756">
			<stop  offset="0" style="stop-color:#D7AE73"/>
			<stop  offset="1" style="stop-color:#C28035"/>
		</linearGradient>
		<path class="st63" d="M9.2,10.9l1.8,0c-0.1,0.3-0.4,0.8-0.6,1.4c0,0.2,0,0.6,0,1c0.1,1.4,0.4,2.4,0.4,2.4c0,0-0.2,0.1-0.7,0.1
			c-0.5,0-0.7,0-0.7,0c0,0,0.2-0.9,0.3-2.5c0-0.3,0-0.5,0-0.8C9.7,11.7,9.2,10.9,9.2,10.9z"/>
		<linearGradient id="SVGID_51_" gradientUnits="userSpaceOnUse" x1="9.9947" y1="15.2296" x2="10.1504" y2="9.9761">
			<stop  offset="0" style="stop-color:#DEB880"/>
			<stop  offset="1" style="stop-color:#C58035"/>
		</linearGradient>
		<path class="st64" d="M9.3,11l1.6,0c-0.1,0.4-0.4,0.8-0.5,1.4c0,0.2,0,0.6,0,1c0.1,1.3,0.4,2.3,0.4,2.4c0,0-0.2,0-0.6,0.1
			c-0.4,0-0.6,0-0.6,0c0,0,0.2-1,0.3-2.4c0-0.3,0-0.5,0-0.7C9.8,11.8,9.3,11,9.3,11z"/>
		<linearGradient id="SVGID_52_" gradientUnits="userSpaceOnUse" x1="10.0328" y1="15.2396" x2="10.1858" y2="10.0766">
			<stop  offset="0" style="stop-color:#E4C28C"/>
			<stop  offset="1" style="stop-color:#C78135"/>
		</linearGradient>
		<path class="st65" d="M9.4,11.1l1.4,0c-0.2,0.5-0.4,0.9-0.5,1.4c0,0.2,0,0.5,0,1c0.1,1.2,0.3,2.3,0.4,2.3c0,0-0.1,0-0.6,0
			c-0.4,0-0.5,0-0.6,0c0,0,0.2-1,0.3-2.4c0-0.3,0-0.5,0-0.7C9.8,12,9.4,11.1,9.4,11.1z"/>
		<linearGradient id="SVGID_53_" gradientUnits="userSpaceOnUse" x1="10.0709" y1="15.2497" x2="10.2212" y2="10.1771">
			<stop  offset="0" style="stop-color:#EBCC98"/>
			<stop  offset="1" style="stop-color:#CA8235"/>
		</linearGradient>
		<path class="st66" d="M9.6,11.2l1.2,0c-0.2,0.5-0.3,0.9-0.4,1.4c0,0.2,0,0.5,0,1c0.1,1.1,0.3,2.2,0.4,2.3c0,0-0.1,0-0.5,0
			c-0.3,0-0.4,0-0.5,0c0,0,0.2-1,0.3-2.3c0-0.2,0-0.5,0-0.7C9.9,12.1,9.6,11.2,9.6,11.2z"/>
		<linearGradient id="SVGID_54_" gradientUnits="userSpaceOnUse" x1="10.109" y1="15.26" x2="10.2566" y2="10.2776">
			<stop  offset="0" style="stop-color:#F2D7A4"/>
			<stop  offset="1" style="stop-color:#CC8334"/>
		</linearGradient>
		<path class="st67" d="M9.7,11.2l0.9,0c-0.2,0.6-0.3,1-0.4,1.4c0,0.1,0,0.5,0,0.9c0.1,1,0.3,2.1,0.3,2.2c0,0-0.1,0-0.4,0
			c-0.2,0-0.4,0-0.5,0c0,0,0.2-1,0.2-2.3c0-0.2,0-0.5,0-0.7C10,12.2,9.7,11.2,9.7,11.2z"/>
		<linearGradient id="SVGID_55_" gradientUnits="userSpaceOnUse" x1="10.1471" y1="15.271" x2="10.2921" y2="10.3779">
			<stop  offset="0" style="stop-color:#F8E1B1"/>
			<stop  offset="1" style="stop-color:#CF8434"/>
		</linearGradient>
		<path class="st68" d="M9.8,11.3l0.7,0c-0.2,0.6-0.3,1.1-0.3,1.4c0,0.1,0,0.5,0.1,0.9c0.1,0.9,0.2,2.1,0.3,2.2c0,0-0.1,0-0.4,0
			c-0.2,0-0.3,0-0.4,0c0,0,0.1-1,0.2-2.2c0-0.2,0-0.5,0-0.7C10.1,12.4,9.8,11.3,9.8,11.3z"/>
		<linearGradient id="SVGID_56_" gradientUnits="userSpaceOnUse" x1="10.1851" y1="15.2833" x2="10.3275" y2="10.4779">
			<stop  offset="0" style="stop-color:#FFEBBD"/>
			<stop  offset="1" style="stop-color:#D18534"/>
		</linearGradient>
		<path class="st69" d="M10.1,13c0,1.3-0.2,2.9-0.2,2.9c0.4,0,0.6,0,0.6,0c-0.1-0.2-0.4-2.8-0.4-3c0-0.2,0-0.7,0.3-1.4l-0.5,0
			C9.9,11.4,10.1,12.5,10.1,13z"/>
	</g>
	<linearGradient id="SVGID_57_" gradientUnits="userSpaceOnUse" x1="8.583" y1="10.4509" x2="11.4176" y2="10.4509">
		<stop  offset="3.932580e-02" style="stop-color:#A16329"/>
		<stop  offset="0.5899" style="stop-color:#FFC97A"/>
		<stop  offset="1" style="stop-color:#D18534"/>
	</linearGradient>
	<path class="st70" d="M10.8,10.3l0.6,0.2c0,0,0,0.1-1.4,0.1c-1.4,0-1.4-0.1-1.4-0.1l0.6-0.2H10.8z"/>
	<g>
		<path class="st71" d="M11.6,9.9c0,0.3-0.7,0.4-1.6,0.4c-0.9,0-1.6-0.1-1.6-0.4c0-0.3,0.7-0.4,1.6-0.4C10.9,9.6,11.6,9.6,11.6,9.9z
			"/>
		<linearGradient id="SVGID_58_" gradientUnits="userSpaceOnUse" x1="10.0229" y1="9.4623" x2="10.0229" y2="10.3347">
			<stop  offset="0" style="stop-color:#B87A31"/>
			<stop  offset="0.6067" style="stop-color:#BA7D35"/>
		</linearGradient>
		<path class="st72" d="M10,9.6c0.8,0,1.5,0.1,1.5,0.4s-0.7,0.4-1.5,0.4c-0.8,0-1.5-0.1-1.5-0.4C8.5,9.7,9.2,9.6,10,9.6z"/>
		<linearGradient id="SVGID_59_" gradientUnits="userSpaceOnUse" x1="10.0456" y1="9.502" x2="10.0456" y2="10.3138">
			<stop  offset="0" style="stop-color:#BB7C33"/>
			<stop  offset="0.6067" style="stop-color:#BE823C"/>
		</linearGradient>
		<path class="st73" d="M10,9.6c0.8,0,1.5,0.1,1.5,0.3c0,0.2-0.7,0.3-1.5,0.3c-0.8,0-1.5-0.1-1.5-0.3C8.6,9.7,9.2,9.6,10,9.6z"/>
		<linearGradient id="SVGID_60_" gradientUnits="userSpaceOnUse" x1="10.0682" y1="9.5416" x2="10.0682" y2="10.2929">
			<stop  offset="0" style="stop-color:#BE7E35"/>
			<stop  offset="0.6067" style="stop-color:#C38742"/>
		</linearGradient>
		<path class="st74" d="M10.1,9.6c0.8,0,1.4,0.1,1.4,0.3s-0.6,0.3-1.4,0.3c-0.8,0-1.4-0.1-1.4-0.3C8.6,9.7,9.3,9.6,10.1,9.6z"/>
		<linearGradient id="SVGID_61_" gradientUnits="userSpaceOnUse" x1="10.0909" y1="9.5813" x2="10.0909" y2="10.272">
			<stop  offset="0" style="stop-color:#C18037"/>
			<stop  offset="0.6067" style="stop-color:#C78C49"/>
		</linearGradient>
		<path class="st75" d="M10.1,9.7c0.8,0,1.4,0.1,1.4,0.3c0,0.2-0.6,0.3-1.4,0.3c-0.8,0-1.4-0.1-1.4-0.3C8.7,9.8,9.3,9.7,10.1,9.7z"
			/>
		<linearGradient id="SVGID_62_" gradientUnits="userSpaceOnUse" x1="10.1135" y1="9.6209" x2="10.1135" y2="10.2511">
			<stop  offset="0" style="stop-color:#C5823A"/>
			<stop  offset="0.6067" style="stop-color:#CC924F"/>
		</linearGradient>
		<path class="st76" d="M10.1,9.7c0.7,0,1.3,0.1,1.3,0.3s-0.6,0.3-1.3,0.3c-0.7,0-1.3-0.1-1.3-0.3C8.8,9.8,9.4,9.7,10.1,9.7z"/>
		<linearGradient id="SVGID_63_" gradientUnits="userSpaceOnUse" x1="10.1361" y1="9.6606" x2="10.1361" y2="10.2302">
			<stop  offset="0" style="stop-color:#C8843C"/>
			<stop  offset="0.6067" style="stop-color:#D09756"/>
		</linearGradient>
		<path class="st77" d="M10.1,9.7c0.7,0,1.3,0.1,1.3,0.2c0,0.2-0.6,0.2-1.3,0.2c-0.7,0-1.3-0.1-1.3-0.2C8.9,9.8,9.4,9.7,10.1,9.7z"
			/>
		<linearGradient id="SVGID_64_" gradientUnits="userSpaceOnUse" x1="10.1588" y1="9.7003" x2="10.1588" y2="10.2094">
			<stop  offset="0" style="stop-color:#CB863E"/>
			<stop  offset="0.6067" style="stop-color:#D59C5C"/>
		</linearGradient>
		<path class="st78" d="M10.2,9.8c0.7,0,1.2,0.1,1.2,0.2s-0.6,0.2-1.2,0.2c-0.7,0-1.2-0.1-1.2-0.2C8.9,9.8,9.5,9.8,10.2,9.8z"/>
		<linearGradient id="SVGID_65_" gradientUnits="userSpaceOnUse" x1="10.1814" y1="9.7399" x2="10.1814" y2="10.1885">
			<stop  offset="0" style="stop-color:#CE8840"/>
			<stop  offset="0.6067" style="stop-color:#D9A163"/>
		</linearGradient>
		<path class="st79" d="M10.2,9.8c0.7,0,1.2,0.1,1.2,0.2c0,0.1-0.5,0.2-1.2,0.2c-0.7,0-1.2,0-1.2-0.2C9,9.8,9.5,9.8,10.2,9.8z"/>
		<linearGradient id="SVGID_66_" gradientUnits="userSpaceOnUse" x1="10.2041" y1="9.7796" x2="10.2041" y2="10.1676">
			<stop  offset="0" style="stop-color:#D18A42"/>
			<stop  offset="0.6067" style="stop-color:#DEA669"/>
		</linearGradient>
		<path class="st80" d="M11.3,10c0,0.1-0.5,0.2-1.1,0.2c-0.6,0-1.1,0-1.1-0.2c0-0.1,0.5-0.2,1.1-0.2C10.8,9.8,11.3,9.9,11.3,10z"/>
		<linearGradient id="SVGID_67_" gradientUnits="userSpaceOnUse" x1="10.2238" y1="9.8035" x2="10.2238" y2="10.1533">
			<stop  offset="0" style="stop-color:#D6944F"/>
			<stop  offset="0.6067" style="stop-color:#E2AC71"/>
		</linearGradient>
		<path class="st81" d="M11.3,10c0,0.1-0.5,0.1-1,0.1c-0.6,0-1,0-1-0.1c0-0.1,0.5-0.1,1-0.1C10.8,9.9,11.3,9.9,11.3,10z"/>
		<linearGradient id="SVGID_68_" gradientUnits="userSpaceOnUse" x1="10.2435" y1="9.8273" x2="10.2435" y2="10.139">
			<stop  offset="0" style="stop-color:#DB9D5B"/>
			<stop  offset="0.6067" style="stop-color:#E5B379"/>
		</linearGradient>
		<path class="st82" d="M11.2,10c0,0.1-0.4,0.1-1,0.1c-0.5,0-1,0-1-0.1c0-0.1,0.4-0.1,1-0.1C10.8,9.9,11.2,9.9,11.2,10z"/>
		<linearGradient id="SVGID_69_" gradientUnits="userSpaceOnUse" x1="10.2632" y1="9.8511" x2="10.2632" y2="10.1247">
			<stop  offset="0" style="stop-color:#E0A768"/>
			<stop  offset="0.6067" style="stop-color:#E9B982"/>
		</linearGradient>
		<path class="st83" d="M11.2,10c0,0.1-0.4,0.1-0.9,0.1c-0.5,0-0.9,0-0.9-0.1c0-0.1,0.4-0.1,0.9-0.1C10.8,9.9,11.2,9.9,11.2,10z"/>
		<linearGradient id="SVGID_70_" gradientUnits="userSpaceOnUse" x1="10.283" y1="9.875" x2="10.283" y2="10.1104">
			<stop  offset="0" style="stop-color:#E5B074"/>
			<stop  offset="0.6067" style="stop-color:#EDC08A"/>
		</linearGradient>
		<path class="st84" d="M11.1,10c0,0.1-0.4,0.1-0.8,0.1c-0.4,0-0.8,0-0.8-0.1c0-0.1,0.4-0.1,0.8-0.1C10.7,9.9,11.1,9.9,11.1,10z"/>
		<linearGradient id="SVGID_71_" gradientUnits="userSpaceOnUse" x1="10.3027" y1="9.8988" x2="10.3027" y2="10.0961">
			<stop  offset="0" style="stop-color:#EBBA81"/>
			<stop  offset="0.6067" style="stop-color:#F0C692"/>
		</linearGradient>
		<path class="st85" d="M11,10c0,0-0.3,0.1-0.7,0.1c-0.4,0-0.7,0-0.7-0.1c0-0.1,0.3-0.1,0.7-0.1C10.7,9.9,11,10,11,10z"/>
		<linearGradient id="SVGID_72_" gradientUnits="userSpaceOnUse" x1="10.3224" y1="9.9226" x2="10.3224" y2="10.0817">
			<stop  offset="0" style="stop-color:#F0C38D"/>
			<stop  offset="0.6067" style="stop-color:#F4CD9A"/>
		</linearGradient>
		<path class="st86" d="M11,10c0,0-0.3,0.1-0.7,0.1c-0.4,0-0.7,0-0.7-0.1c0,0,0.3-0.1,0.7-0.1C10.7,9.9,11,10,11,10z"/>
		<linearGradient id="SVGID_73_" gradientUnits="userSpaceOnUse" x1="10.3421" y1="9.9465" x2="10.3421" y2="10.0674">
			<stop  offset="0" style="stop-color:#F5CD9A"/>
			<stop  offset="0.6067" style="stop-color:#F8D3A3"/>
		</linearGradient>
		<path class="st87" d="M10.9,10c0,0-0.3,0-0.6,0c-0.3,0-0.6,0-0.6,0c0,0,0.3,0,0.6,0C10.7,10,10.9,10,10.9,10z"/>
		<linearGradient id="SVGID_74_" gradientUnits="userSpaceOnUse" x1="10.3618" y1="9.9703" x2="10.3618" y2="10.0531">
			<stop  offset="0" style="stop-color:#FAD6A6"/>
			<stop  offset="0.6067" style="stop-color:#FBDAAB"/>
		</linearGradient>
		<path class="st88" d="M10.9,10c0,0-0.2,0-0.5,0c-0.3,0-0.5,0-0.5,0c0,0,0.2,0,0.5,0C10.6,10,10.9,10,10.9,10z"/>
		<path class="st89" d="M10.8,10c0,0-0.2,0-0.4,0c-0.2,0-0.4,0-0.4,0c0,0,0.2,0,0.4,0C10.6,10,10.8,10,10.8,10z"/>
	</g>
	<radialGradient id="SVGID_75_" cx="10.305" cy="6.8833" r="3.0559" gradientUnits="userSpaceOnUse">
		<stop  offset="6.179780e-02" style="stop-color:#FFEBBD"/>
		<stop  offset="0.4386" style="stop-color:#E2B87E"/>
		<stop  offset="1" style="stop-color:#B5661A"/>
	</radialGradient>
	<path class="st90" d="M12,7.8c0,1.1-0.9,2-2,2c-1.1,0-2-0.9-2-2c0-1.1,0.9-2,2-2C11.1,5.7,12,6.6,12,7.8z"/>
</g>
</svg>
