<?xml version="1.0" encoding="utf-8"?>
<!-- Generator: Adobe Illustrator 24.2.3, SVG Export Plug-In . SVG Version: 6.00 Build 0)  -->
<svg version="1.1" id="Layer_1" xmlns="http://www.w3.org/2000/svg" xmlns:xlink="http://www.w3.org/1999/xlink" x="0px" y="0px"
	 viewBox="0 0 20 20" style="enable-background:new 0 0 20 20;" xml:space="preserve">
<style type="text/css">
	.st0{fill:none;}
	.st1{fill-rule:evenodd;clip-rule:evenodd;fill:url(#SVGID_1_);}
	.st2{fill:url(#SVGID_2_);}
	.st3{fill:url(#SVGID_3_);}
	.st4{fill:url(#SVGID_4_);}
	.st5{fill:url(#SVGID_5_);}
	.st6{fill:url(#SVGID_6_);}
	.st7{fill:url(#SVGID_7_);}
	.st8{fill:url(#SVGID_8_);}
	.st9{fill:url(#SVGID_9_);}
	.st10{fill:url(#SVGID_10_);}
	.st11{fill:url(#SVGID_11_);}
	.st12{fill:url(#SVGID_12_);}
	.st13{fill:#3A3937;}
	.st14{fill:#434240;}
	.st15{fill:#4C4B4A;}
	.st16{fill:#555553;}
	.st17{fill:#5E5E5C;}
	.st18{fill:#676766;}
	.st19{fill:#71706F;}
	.st20{fill:#7A7979;}
	.st21{fill:#838282;}
	.st22{fill:#8C8C8B;}
	.st23{fill:#959595;}
	.st24{fill:#9E9E9E;}
	.st25{fill:url(#SVGID_13_);}
	.st26{fill:url(#SVGID_14_);}
	.st27{fill:url(#SVGID_15_);}
	.st28{fill:url(#SVGID_16_);}
	.st29{fill:url(#SVGID_17_);}
	.st30{fill:url(#SVGID_18_);}
	.st31{fill:url(#SVGID_19_);}
	.st32{fill:url(#SVGID_20_);}
	.st33{fill:url(#SVGID_21_);}
	.st34{fill:url(#SVGID_22_);}
	.st35{fill:url(#SVGID_23_);}
	.st36{fill:url(#SVGID_24_);}
	.st37{fill:url(#SVGID_25_);}
	.st38{fill:url(#SVGID_26_);}
	.st39{fill:url(#SVGID_27_);}
	.st40{fill:url(#SVGID_28_);}
	.st41{fill:url(#SVGID_29_);}
	.st42{fill:url(#SVGID_30_);}
	.st43{fill:url(#SVGID_31_);}
	.st44{fill:url(#SVGID_32_);}
	.st45{fill:url(#SVGID_33_);}
	.st46{fill:url(#SVGID_34_);}
	.st47{fill:url(#SVGID_35_);}
	.st48{fill:url(#SVGID_36_);}
	.st49{fill:url(#SVGID_37_);}
	.st50{fill:url(#SVGID_38_);}
	.st51{fill:url(#SVGID_39_);}
	.st52{fill:url(#SVGID_40_);}
	.st53{fill:url(#SVGID_41_);}
	.st54{fill:url(#SVGID_42_);}
	.st55{fill:url(#SVGID_43_);}
	.st56{fill:url(#SVGID_44_);}
	.st57{fill:url(#SVGID_45_);}
	.st58{fill:#1C1B1A;}
	.st59{fill:url(#SVGID_46_);}
	.st60{fill:url(#SVGID_47_);}
	.st61{fill:url(#SVGID_48_);}
	.st62{fill:url(#SVGID_49_);}
	.st63{fill:url(#SVGID_50_);}
	.st64{fill:url(#SVGID_51_);}
	.st65{fill:url(#SVGID_52_);}
	.st66{fill:url(#SVGID_53_);}
	.st67{fill:url(#SVGID_54_);}
	.st68{fill:url(#SVGID_55_);}
	.st69{fill:url(#SVGID_56_);}
	.st70{fill:url(#SVGID_57_);}
	.st71{fill:#1A1917;}
	.st72{fill:url(#SVGID_58_);}
	.st73{fill:url(#SVGID_59_);}
	.st74{fill:url(#SVGID_60_);}
	.st75{fill:url(#SVGID_61_);}
	.st76{fill:url(#SVGID_62_);}
	.st77{fill:url(#SVGID_63_);}
	.st78{fill:url(#SVGID_64_);}
	.st79{fill:url(#SVGID_65_);}
	.st80{fill:url(#SVGID_66_);}
	.st81{fill:url(#SVGID_67_);}
	.st82{fill:url(#SVGID_68_);}
	.st83{fill:url(#SVGID_69_);}
	.st84{fill:url(#SVGID_70_);}
	.st85{fill:url(#SVGID_71_);}
	.st86{fill:url(#SVGID_72_);}
	.st87{fill:url(#SVGID_73_);}
	.st88{fill:url(#SVGID_74_);}
	.st89{fill:#959494;}
	.st90{fill:url(#SVGID_75_);}
</style>
<rect y="0" class="st0" width="20" height="20"/>
<g>
	
		<radialGradient id="SVGID_1_" cx="10" cy="269.7609" r="4.5178" gradientTransform="matrix(1 0 0 0.165 0 -26.0693)" gradientUnits="userSpaceOnUse">
		<stop  offset="0.4213" style="stop-color:#0B0A0A"/>
		<stop  offset="0.4618" style="stop-color:#222121;stop-opacity:0.9233"/>
		<stop  offset="0.5967" style="stop-color:#6A6A6A;stop-opacity:0.668"/>
		<stop  offset="0.7176" style="stop-color:#A4A4A4;stop-opacity:0.4389"/>
		<stop  offset="0.8204" style="stop-color:#CDCDCD;stop-opacity:0.2443"/>
		<stop  offset="0.901" style="stop-color:#E7E7E7;stop-opacity:9.169436e-02"/>
		<stop  offset="0.9494" style="stop-color:#F0F0F0;stop-opacity:0"/>
	</radialGradient>
	<path class="st1" d="M14.4,18.4c0,0.4-2,0.8-4.4,0.8c-2.5,0-4.4-0.4-4.4-0.8c0-0.4,2-0.7,4.4-0.7C12.5,17.7,14.4,18,14.4,18.4z"/>
	<g>
		<linearGradient id="SVGID_2_" gradientUnits="userSpaceOnUse" x1="10" y1="18.72" x2="10" y2="17.889">
			<stop  offset="5.617980e-03" style="stop-color:#1F1E1D"/>
			<stop  offset="0.4175" style="stop-color:#1C1B1A"/>
			<stop  offset="0.776" style="stop-color:#11100F"/>
			<stop  offset="1" style="stop-color:#060605"/>
		</linearGradient>
		<path class="st2" d="M12,17.6c0,0,1,0.1,1,0.5c0,0.5-1.3,0.7-2.9,0.7c-1.6,0-3.1-0.2-3.1-0.7c0-0.5,1-0.5,1-0.5H12z"/>
		<linearGradient id="SVGID_3_" gradientUnits="userSpaceOnUse" x1="10.0377" y1="18.7109" x2="10.0377" y2="17.9117">
			<stop  offset="5.617980e-03" style="stop-color:#21201F"/>
			<stop  offset="0.4415" style="stop-color:#1E1D1C"/>
			<stop  offset="0.821" style="stop-color:#131312"/>
			<stop  offset="1" style="stop-color:#0B0B0A"/>
		</linearGradient>
		<path class="st3" d="M12,17.6c0,0,1,0.1,1,0.5c0,0.4-1.3,0.7-2.9,0.7c-1.6,0-3.1-0.2-3-0.7c0-0.4,1-0.5,1-0.5L12,17.6z"/>
		<linearGradient id="SVGID_4_" gradientUnits="userSpaceOnUse" x1="10.0754" y1="18.7018" x2="10.0754" y2="17.9343">
			<stop  offset="5.617980e-03" style="stop-color:#242322"/>
			<stop  offset="0.4507" style="stop-color:#21201F"/>
			<stop  offset="0.8381" style="stop-color:#161615"/>
			<stop  offset="1" style="stop-color:#0F0F0E"/>
		</linearGradient>
		<path class="st4" d="M12,17.6c0,0,1,0.1,1,0.5c0,0.4-1.2,0.7-2.8,0.7c-1.5,0-3-0.2-3-0.6c0-0.4,1-0.5,1-0.5L12,17.6z"/>
		<linearGradient id="SVGID_5_" gradientUnits="userSpaceOnUse" x1="10.1131" y1="18.6928" x2="10.1131" y2="17.957">
			<stop  offset="5.617980e-03" style="stop-color:#262524"/>
			<stop  offset="0.4823" style="stop-color:#232221"/>
			<stop  offset="0.8973" style="stop-color:#181817"/>
			<stop  offset="1" style="stop-color:#141413"/>
		</linearGradient>
		<path class="st5" d="M11.9,17.7c0,0,0.9,0.1,1,0.5c0,0.4-1.2,0.6-2.7,0.6c-1.5,0-2.9-0.2-2.9-0.6c0-0.4,1-0.5,1-0.5L11.9,17.7z"/>
		<linearGradient id="SVGID_6_" gradientUnits="userSpaceOnUse" x1="10.1508" y1="18.6838" x2="10.1508" y2="17.9797">
			<stop  offset="5.617980e-03" style="stop-color:#292826"/>
			<stop  offset="0.5078" style="stop-color:#262523"/>
			<stop  offset="0.9452" style="stop-color:#1B1B19"/>
			<stop  offset="1" style="stop-color:#191917"/>
		</linearGradient>
		<path class="st6" d="M11.9,17.7c0,0,0.9,0.1,0.9,0.5c0,0.4-1.2,0.6-2.6,0.6c-1.5,0-2.8-0.2-2.8-0.6c0-0.4,0.9-0.5,0.9-0.5
			L11.9,17.7z"/>
		<linearGradient id="SVGID_7_" gradientUnits="userSpaceOnUse" x1="10.1885" y1="18.6749" x2="10.1885" y2="18.0024">
			<stop  offset="5.617980e-03" style="stop-color:#2B2A29"/>
			<stop  offset="0.5565" style="stop-color:#282726"/>
			<stop  offset="1" style="stop-color:#1E1D1C"/>
		</linearGradient>
		<path class="st7" d="M11.9,17.7c0,0,0.9,0.1,0.9,0.4c0,0.4-1.1,0.6-2.5,0.6c-1.4,0-2.7-0.2-2.7-0.5c0-0.4,0.9-0.4,0.9-0.4
			L11.9,17.7z"/>
		<linearGradient id="SVGID_8_" gradientUnits="userSpaceOnUse" x1="10.2262" y1="18.666" x2="10.2262" y2="18.0251">
			<stop  offset="5.617980e-03" style="stop-color:#2E2D2B"/>
			<stop  offset="0.5765" style="stop-color:#2B2A28"/>
			<stop  offset="1" style="stop-color:#222220"/>
		</linearGradient>
		<path class="st8" d="M11.9,17.8c0,0,0.9,0.1,0.9,0.4c0,0.3-1.1,0.5-2.5,0.6c-1.4,0-2.7-0.2-2.6-0.5c0-0.3,0.9-0.4,0.9-0.4
			L11.9,17.8z"/>
		<linearGradient id="SVGID_9_" gradientUnits="userSpaceOnUse" x1="10.2639" y1="18.6571" x2="10.2639" y2="18.0479">
			<stop  offset="5.617980e-03" style="stop-color:#302F2E"/>
			<stop  offset="0.6545" style="stop-color:#2D2C2B"/>
			<stop  offset="1" style="stop-color:#272625"/>
		</linearGradient>
		<path class="st9" d="M11.9,17.8c0,0,0.8,0.1,0.9,0.4c0,0.3-1.1,0.5-2.4,0.5c-1.3,0-2.6-0.1-2.6-0.5c0-0.3,0.8-0.4,0.8-0.4
			L11.9,17.8z"/>
		<linearGradient id="SVGID_10_" gradientUnits="userSpaceOnUse" x1="10.3016" y1="18.6484" x2="10.3016" y2="18.0706">
			<stop  offset="5.617980e-03" style="stop-color:#333230"/>
			<stop  offset="0.7313" style="stop-color:#302F2D"/>
			<stop  offset="1" style="stop-color:#2C2B29"/>
		</linearGradient>
		<path class="st10" d="M11.9,17.9c0,0,0.8,0.1,0.8,0.4c0,0.3-1,0.5-2.3,0.5c-1.3,0-2.5-0.1-2.5-0.4c0-0.3,0.8-0.4,0.8-0.4
			L11.9,17.9z"/>
		<linearGradient id="SVGID_11_" gradientUnits="userSpaceOnUse" x1="10.3394" y1="18.6397" x2="10.3394" y2="18.0934">
			<stop  offset="5.617980e-03" style="stop-color:#353432"/>
			<stop  offset="0.9366" style="stop-color:#32312F"/>
			<stop  offset="1" style="stop-color:#31302E"/>
		</linearGradient>
		<path class="st11" d="M11.9,17.9c0,0,0.8,0,0.8,0.3c0,0.3-1,0.5-2.2,0.5c-1.2,0-2.4-0.1-2.4-0.4c0-0.3,0.8-0.4,0.8-0.4L11.9,17.9z
			"/>
		<linearGradient id="SVGID_12_" gradientUnits="userSpaceOnUse" x1="10.3771" y1="18.6312" x2="10.3771" y2="18.1162">
			<stop  offset="5.617980e-03" style="stop-color:#383735"/>
			<stop  offset="1" style="stop-color:#353432"/>
		</linearGradient>
		<path class="st12" d="M11.9,17.9c0,0,0.8,0,0.8,0.3c0,0.3-1,0.4-2.2,0.5c-1.2,0-2.3-0.1-2.3-0.4C8.1,18,8.9,18,8.9,18L11.9,17.9z"
			/>
		<path class="st13" d="M11.8,18c0,0,0.7,0,0.7,0.3c0,0.3-0.9,0.4-2.1,0.4c-1.2,0-2.3-0.1-2.3-0.3C8.3,18.1,9,18,9,18L11.8,18z"/>
		<path class="st14" d="M9.1,18c0,0,2.7-0.1,2.7-0.1c0,0,0.7,0,0.7,0.3c0,0.1-0.2,0.2-0.5,0.3c-0.4,0.1-0.9,0.1-1.4,0.1
			c-0.6,0-1.2,0-1.6-0.1c-0.3-0.1-0.5-0.1-0.5-0.2C8.4,18.1,9.1,18,9.1,18z"/>
		<path class="st15" d="M9.2,18.1c0,0,2.5-0.1,2.5,0c0,0,0.6,0,0.6,0.2c0,0.1-0.2,0.2-0.5,0.3c-0.3,0.1-0.8,0.1-1.3,0.1
			c-0.5,0-1.1,0-1.4-0.1c-0.3,0-0.5-0.1-0.5-0.2C8.6,18.1,9.2,18.1,9.2,18.1z"/>
		<path class="st16" d="M9.3,18.1c0,0,2.3,0,2.3,0c0,0,0.6,0,0.6,0.2c0,0.1-0.2,0.2-0.5,0.2c-0.3,0.1-0.7,0.1-1.2,0.1
			c-0.5,0-1,0-1.3-0.1c-0.3,0-0.5-0.1-0.5-0.2C8.8,18.2,9.3,18.1,9.3,18.1z"/>
		<path class="st17" d="M9.4,18.1c0.1,0,2.1,0,2.1,0c0,0,0.5,0,0.5,0.2c0,0.1-0.2,0.2-0.4,0.2c-0.3,0.1-0.7,0.1-1.1,0.1
			c-0.5,0-0.9,0-1.2-0.1c-0.3,0-0.4-0.1-0.4-0.2C8.9,18.2,9.4,18.1,9.4,18.1z"/>
		<path class="st18" d="M9.6,18.2c0.1,0,1.9,0,1.9,0c0.1,0,0.5,0,0.5,0.2c0,0.1-0.2,0.1-0.4,0.2c-0.3,0-0.6,0.1-1,0.1
			c-0.4,0-0.8,0-1.1-0.1c-0.2,0-0.4-0.1-0.4-0.2C9.1,18.2,9.5,18.2,9.6,18.2z"/>
		<path class="st19" d="M9.7,18.2c0.1,0,1.7,0,1.8,0c0.1,0,0.4,0,0.4,0.2c0,0.1-0.1,0.1-0.4,0.2c-0.2,0-0.6,0.1-0.9,0.1
			c-0.4,0-0.7,0-1,0c-0.2,0-0.3-0.1-0.4-0.1C9.2,18.2,9.6,18.2,9.7,18.2z"/>
		<path class="st20" d="M9.8,18.2c0.1,0,1.5,0,1.6,0c0.1,0,0.4,0,0.4,0.1c0,0.1-0.1,0.1-0.3,0.1c-0.2,0-0.5,0.1-0.8,0.1
			c-0.3,0-0.7,0-0.9,0c-0.2,0-0.3-0.1-0.3-0.1C9.4,18.3,9.7,18.2,9.8,18.2z"/>
		<path class="st21" d="M9.9,18.3c0.1,0,1.3,0,1.4,0c0.1,0,0.3,0,0.3,0.1c0,0-0.1,0.1-0.3,0.1c-0.2,0-0.4,0-0.7,0.1
			c-0.3,0-0.6,0-0.8,0c-0.2,0-0.3-0.1-0.3-0.1C9.6,18.3,9.8,18.3,9.9,18.3z"/>
		<path class="st22" d="M10,18.3c0.1,0,1.1,0,1.2,0c0.1,0,0.3,0,0.3,0.1c0,0-0.1,0.1-0.3,0.1c-0.2,0-0.4,0-0.6,0c-0.2,0-0.5,0-0.7,0
			c-0.1,0-0.2,0-0.3-0.1C9.7,18.3,9.9,18.3,10,18.3z"/>
		<path class="st23" d="M10.2,18.3c0.1,0,0.9,0,1,0c0.1,0,0.2,0,0.2,0.1c0,0-0.1,0-0.2,0.1c-0.1,0-0.3,0-0.5,0c-0.2,0-0.4,0-0.5,0
			c-0.1,0-0.2,0-0.2-0.1C9.9,18.4,10,18.3,10.2,18.3z"/>
		<path class="st24" d="M10.3,18.3c-0.1,0-0.2,0-0.2,0C10.1,18.4,10.2,18.4,10.3,18.3c0.2,0.1,0.6,0.1,0.8,0.1c0.1,0,0.1,0,0.2,0
			c0,0,0,0-0.2,0C11,18.3,10.4,18.3,10.3,18.3z"/>
	</g>
	<g>
		<linearGradient id="SVGID_13_" gradientUnits="userSpaceOnUse" x1="11.2384" y1="17.1541" x2="7.3783" y2="17.1541">
			<stop  offset="5.617980e-03" style="stop-color:#21201E"/>
			<stop  offset="0.4035" style="stop-color:#1E1D1B"/>
			<stop  offset="0.75" style="stop-color:#131211"/>
			<stop  offset="1" style="stop-color:#060606"/>
		</linearGradient>
		<path class="st25" d="M11.7,16.4c0,0,0.8,0.1,0.9,0.7c0,0.6-0.8,0.7-1.3,0.8c-0.7,0.1-1.7,0.1-2.4,0c-0.5,0-1.4-0.2-1.3-0.8
			c0-0.6,0.9-0.7,0.9-0.7H11.7z"/>
		<linearGradient id="SVGID_14_" gradientUnits="userSpaceOnUse" x1="11.1888" y1="17.1563" x2="7.5274" y2="17.1589">
			<stop  offset="5.617980e-03" style="stop-color:#262523"/>
			<stop  offset="0.4103" style="stop-color:#232220"/>
			<stop  offset="0.7625" style="stop-color:#181716"/>
			<stop  offset="1" style="stop-color:#0C0B0B"/>
		</linearGradient>
		<path class="st26" d="M8.4,16.5c0,0,3.2,0,3.2,0c0,0,0.8,0.1,0.8,0.6c0,0.5-0.8,0.7-1.3,0.7c-0.7,0.1-1.7,0.1-2.3,0
			c-0.5,0-1.3-0.2-1.3-0.7C7.6,16.6,8.4,16.5,8.4,16.5z"/>
		<linearGradient id="SVGID_15_" gradientUnits="userSpaceOnUse" x1="11.1424" y1="17.1587" x2="7.6761" y2="17.1636">
			<stop  offset="5.617980e-03" style="stop-color:#2B2A28"/>
			<stop  offset="0.4103" style="stop-color:#282725"/>
			<stop  offset="0.7625" style="stop-color:#1D1C1C"/>
			<stop  offset="1" style="stop-color:#111111"/>
		</linearGradient>
		<path class="st27" d="M8.5,16.5c0.1,0,3,0,3.1,0c0.1,0,0.8,0.1,0.8,0.6c0,0.5-0.7,0.6-1.2,0.7c-0.7,0.1-1.7,0.1-2.3,0
			c-0.4-0.1-1.2-0.2-1.2-0.7C7.8,16.6,8.5,16.5,8.5,16.5z"/>
		<linearGradient id="SVGID_16_" gradientUnits="userSpaceOnUse" x1="11.0992" y1="17.1613" x2="7.8243" y2="17.1683">
			<stop  offset="5.617980e-03" style="stop-color:#302F2D"/>
			<stop  offset="0.4175" style="stop-color:#2D2C2A"/>
			<stop  offset="0.776" style="stop-color:#222120"/>
			<stop  offset="1" style="stop-color:#171616"/>
		</linearGradient>
		<path class="st28" d="M8.7,16.6c0.1,0,2.9,0,2.9,0c0.1,0,0.7,0.1,0.7,0.6c0,0.4-0.7,0.6-1.1,0.6c-0.6,0.1-1.6,0.1-2.3,0
			c-0.4-0.1-1.1-0.2-1.1-0.6C7.9,16.7,8.6,16.6,8.7,16.6z"/>
		<linearGradient id="SVGID_17_" gradientUnits="userSpaceOnUse" x1="11.0592" y1="17.1642" x2="7.9722" y2="17.173">
			<stop  offset="5.617980e-03" style="stop-color:#353432"/>
			<stop  offset="0.4175" style="stop-color:#32312F"/>
			<stop  offset="0.776" style="stop-color:#272625"/>
			<stop  offset="1" style="stop-color:#1C1C1B"/>
		</linearGradient>
		<path class="st29" d="M8.8,16.6c0.1,0,2.7,0,2.8,0c0.1,0.1,0.7,0.2,0.7,0.5c0,0.4-0.6,0.5-1,0.6c-0.6,0.1-1.6,0.1-2.2,0
			c-0.4-0.1-1-0.2-1-0.6C8.1,16.8,8.7,16.6,8.8,16.6z"/>
		<linearGradient id="SVGID_18_" gradientUnits="userSpaceOnUse" x1="11.0223" y1="17.1674" x2="8.1198" y2="17.1777">
			<stop  offset="5.617980e-03" style="stop-color:#3A3937"/>
			<stop  offset="0.425" style="stop-color:#373634"/>
			<stop  offset="0.79" style="stop-color:#2C2B2A"/>
			<stop  offset="1" style="stop-color:#222121"/>
		</linearGradient>
		<path class="st30" d="M8.9,16.6c0.2,0,2.5-0.1,2.7,0c0.1,0.1,0.6,0.2,0.7,0.5c0,0.4-0.6,0.5-0.9,0.5c-0.6,0.1-1.6,0.1-2.2,0
			c-0.4-0.1-0.9-0.2-0.9-0.5C8.2,16.8,8.7,16.7,8.9,16.6z"/>
		<linearGradient id="SVGID_19_" gradientUnits="userSpaceOnUse" x1="10.9885" y1="17.1709" x2="8.2671" y2="17.1825">
			<stop  offset="5.617980e-03" style="stop-color:#3F3E3C"/>
			<stop  offset="0.425" style="stop-color:#3C3B39"/>
			<stop  offset="0.79" style="stop-color:#31302F"/>
			<stop  offset="1" style="stop-color:#272726"/>
		</linearGradient>
		<path class="st31" d="M9,16.7c0.2-0.1,2.4-0.1,2.6,0c0.2,0.1,0.6,0.2,0.6,0.4c0,0.3-0.5,0.4-0.8,0.5c-0.6,0.1-1.6,0.1-2.1,0
			c-0.3-0.1-0.8-0.2-0.8-0.5C8.3,16.9,8.8,16.7,9,16.7z"/>
		<linearGradient id="SVGID_20_" gradientUnits="userSpaceOnUse" x1="10.9579" y1="17.1748" x2="8.414" y2="17.1873">
			<stop  offset="5.617980e-03" style="stop-color:#444341"/>
			<stop  offset="0.433" style="stop-color:#41403E"/>
			<stop  offset="0.805" style="stop-color:#363534"/>
			<stop  offset="1" style="stop-color:#2D2C2C"/>
		</linearGradient>
		<path class="st32" d="M9.1,16.7c0.2-0.1,2.2-0.1,2.4,0c0.2,0.1,0.5,0.2,0.6,0.4c-0.1,0.3-0.5,0.4-0.8,0.4c-0.6,0.1-1.5,0.1-2.1,0
			c-0.3-0.1-0.7-0.2-0.8-0.4C8.5,16.9,8.9,16.8,9.1,16.7z"/>
		<linearGradient id="SVGID_21_" gradientUnits="userSpaceOnUse" x1="10.9304" y1="17.179" x2="8.5606" y2="17.1924">
			<stop  offset="5.617980e-03" style="stop-color:#494846"/>
			<stop  offset="0.433" style="stop-color:#464543"/>
			<stop  offset="0.805" style="stop-color:#3B3B39"/>
			<stop  offset="1" style="stop-color:#323231"/>
		</linearGradient>
		<path class="st33" d="M9.2,16.8c0.3-0.1,2.1-0.1,2.3,0c0.2,0.1,0.5,0.2,0.5,0.4c-0.1,0.2-0.4,0.3-0.7,0.4c-0.6,0.1-1.5,0.1-2.1,0
			c-0.3-0.1-0.6-0.2-0.7-0.4C8.6,17,9,16.9,9.2,16.8z"/>
		<linearGradient id="SVGID_22_" gradientUnits="userSpaceOnUse" x1="10.9061" y1="17.1838" x2="8.7069" y2="17.1978">
			<stop  offset="5.617980e-03" style="stop-color:#4E4D4B"/>
			<stop  offset="0.4415" style="stop-color:#4B4A48"/>
			<stop  offset="0.821" style="stop-color:#403F3E"/>
			<stop  offset="1" style="stop-color:#383736"/>
		</linearGradient>
		<path class="st34" d="M9.3,16.8c0.3-0.1,1.9-0.1,2.2,0c0.2,0.1,0.5,0.2,0.5,0.3c-0.1,0.2-0.3,0.3-0.6,0.3c-0.6,0.1-1.5,0.1-2,0
			c-0.3-0.1-0.5-0.1-0.6-0.3C8.8,17,9.1,16.9,9.3,16.8z"/>
		<linearGradient id="SVGID_23_" gradientUnits="userSpaceOnUse" x1="10.8849" y1="17.1892" x2="8.8529" y2="17.2036">
			<stop  offset="5.617980e-03" style="stop-color:#535250"/>
			<stop  offset="0.4415" style="stop-color:#504F4D"/>
			<stop  offset="0.821" style="stop-color:#454543"/>
			<stop  offset="1" style="stop-color:#3D3D3C"/>
		</linearGradient>
		<path class="st35" d="M9.4,16.9c0.3-0.1,1.8-0.1,2.1,0c0.3,0.1,0.4,0.2,0.4,0.3c-0.1,0.2-0.3,0.2-0.5,0.3c-0.5,0.2-1.4,0.2-2,0
			c-0.2-0.1-0.4-0.1-0.5-0.3C8.9,17.1,9.1,17,9.4,16.9z"/>
		<linearGradient id="SVGID_24_" gradientUnits="userSpaceOnUse" x1="10.8669" y1="17.1952" x2="8.9985" y2="17.2097">
			<stop  offset="5.617980e-03" style="stop-color:#585755"/>
			<stop  offset="0.4507" style="stop-color:#555452"/>
			<stop  offset="0.8381" style="stop-color:#4A4948"/>
			<stop  offset="1" style="stop-color:#434241"/>
		</linearGradient>
		<path class="st36" d="M9.5,16.9C9.2,17,9,17.2,9,17.2c0.1,0.1,0.2,0.2,0.4,0.2c0.5,0.2,1.4,0.2,1.9,0c0.2-0.1,0.3-0.1,0.4-0.2
			c0,0-0.1-0.1-0.4-0.2C11.1,16.8,9.8,16.8,9.5,16.9z"/>
		<linearGradient id="SVGID_25_" gradientUnits="userSpaceOnUse" x1="10.8663" y1="17.1962" x2="9.0951" y2="17.2099">
			<stop  offset="5.617980e-03" style="stop-color:#5E5D5C"/>
			<stop  offset="0.4709" style="stop-color:#5B5A59"/>
			<stop  offset="0.8761" style="stop-color:#504F4E"/>
			<stop  offset="1" style="stop-color:#4B4A49"/>
		</linearGradient>
		<path class="st37" d="M9.6,17c-0.3,0.1-0.4,0.2-0.4,0.2c0.1,0.1,0.2,0.2,0.4,0.2c0.5,0.2,1.3,0.2,1.8,0c0.2-0.1,0.3-0.1,0.4-0.2
			c0,0-0.1-0.1-0.4-0.2C11.1,16.8,9.9,16.9,9.6,17z"/>
		<linearGradient id="SVGID_26_" gradientUnits="userSpaceOnUse" x1="10.8657" y1="17.1971" x2="9.1917" y2="17.2101">
			<stop  offset="5.617980e-03" style="stop-color:#656462"/>
			<stop  offset="0.4946" style="stop-color:#62615F"/>
			<stop  offset="0.9202" style="stop-color:#575655"/>
			<stop  offset="1" style="stop-color:#545352"/>
		</linearGradient>
		<path class="st38" d="M9.6,17c-0.2,0.1-0.4,0.2-0.4,0.2c0.1,0.1,0.2,0.2,0.4,0.2c0.5,0.1,1.3,0.1,1.7,0c0.2-0.1,0.3-0.1,0.4-0.2
			c0,0-0.1-0.1-0.4-0.2C11.1,16.9,9.9,16.9,9.6,17z"/>
		<linearGradient id="SVGID_27_" gradientUnits="userSpaceOnUse" x1="10.8651" y1="17.1981" x2="9.2882" y2="17.2104">
			<stop  offset="5.617980e-03" style="stop-color:#6B6A69"/>
			<stop  offset="0.5225" style="stop-color:#686766"/>
			<stop  offset="0.9726" style="stop-color:#5D5C5B"/>
			<stop  offset="1" style="stop-color:#5C5B5A"/>
		</linearGradient>
		<path class="st39" d="M9.7,17c-0.2,0.1-0.4,0.2-0.4,0.2c0.1,0.1,0.2,0.1,0.4,0.2c0.4,0.1,1.2,0.1,1.6,0c0.2-0.1,0.3-0.1,0.4-0.2
			c0,0-0.1-0.1-0.3-0.2C11.1,16.9,10,16.9,9.7,17z"/>
		<linearGradient id="SVGID_28_" gradientUnits="userSpaceOnUse" x1="10.8646" y1="17.1991" x2="9.3848" y2="17.2106">
			<stop  offset="5.617980e-03" style="stop-color:#717170"/>
			<stop  offset="0.5386" style="stop-color:#6E6E6D"/>
			<stop  offset="1" style="stop-color:#646363"/>
		</linearGradient>
		<path class="st40" d="M9.8,17c-0.2,0.1-0.4,0.2-0.4,0.2c0.1,0.1,0.2,0.1,0.3,0.2c0.4,0.1,1.1,0.1,1.5,0c0.2,0,0.3-0.1,0.3-0.2
			c0,0-0.1-0.1-0.3-0.2C11,16.9,10.1,16.9,9.8,17z"/>
		<linearGradient id="SVGID_29_" gradientUnits="userSpaceOnUse" x1="10.864" y1="17.2" x2="9.4814" y2="17.2108">
			<stop  offset="5.617980e-03" style="stop-color:#787776"/>
			<stop  offset="0.5765" style="stop-color:#757473"/>
			<stop  offset="1" style="stop-color:#6C6C6B"/>
		</linearGradient>
		<path class="st41" d="M9.8,17c-0.2,0.1-0.3,0.1-0.3,0.2c0.1,0.1,0.2,0.1,0.3,0.2c0.4,0.1,1,0.1,1.4,0c0.1,0,0.2-0.1,0.3-0.1
			c0,0-0.1-0.1-0.3-0.1C11,17,10.1,17,9.8,17z"/>
		<linearGradient id="SVGID_30_" gradientUnits="userSpaceOnUse" x1="10.8634" y1="17.201" x2="9.5779" y2="17.211">
			<stop  offset="5.617980e-03" style="stop-color:#7E7E7D"/>
			<stop  offset="0.6247" style="stop-color:#7B7B7A"/>
			<stop  offset="1" style="stop-color:#757474"/>
		</linearGradient>
		<path class="st42" d="M9.9,17.1c-0.2,0-0.3,0.1-0.3,0.1c0.1,0.1,0.2,0.1,0.3,0.1c0.4,0.1,1,0.1,1.3,0c0.1,0,0.2-0.1,0.3-0.1
			c0,0-0.1-0.1-0.3-0.1C11,17,10.2,17,9.9,17.1z"/>
		<linearGradient id="SVGID_31_" gradientUnits="userSpaceOnUse" x1="10.8628" y1="17.202" x2="9.6745" y2="17.2112">
			<stop  offset="5.617980e-03" style="stop-color:#858483"/>
			<stop  offset="0.6894" style="stop-color:#828180"/>
			<stop  offset="1" style="stop-color:#7D7D7C"/>
		</linearGradient>
		<path class="st43" d="M10,17.1c-0.2,0-0.3,0.1-0.3,0.1c0.1,0.1,0.1,0.1,0.3,0.1c0.3,0.1,0.9,0.1,1.2,0c0.1,0,0.2-0.1,0.3-0.1
			c0,0-0.1,0-0.3-0.1C11,17,10.2,17,10,17.1z"/>
		<linearGradient id="SVGID_32_" gradientUnits="userSpaceOnUse" x1="10.8623" y1="17.2029" x2="9.771" y2="17.2113">
			<stop  offset="5.617980e-03" style="stop-color:#8B8B8A"/>
			<stop  offset="0.7829" style="stop-color:#888887"/>
			<stop  offset="1" style="stop-color:#858585"/>
		</linearGradient>
		<path class="st44" d="M10.1,17.1c-0.2,0-0.3,0.1-0.3,0.1c0.1,0,0.1,0.1,0.2,0.1c0.3,0.1,0.8,0.1,1.1,0c0.1,0,0.2,0,0.2-0.1
			c0,0-0.1,0-0.2-0.1C11,17,10.3,17.1,10.1,17.1z"/>
		<linearGradient id="SVGID_33_" gradientUnits="userSpaceOnUse" x1="10.8617" y1="17.2038" x2="9.8676" y2="17.2115">
			<stop  offset="5.617980e-03" style="stop-color:#919191"/>
			<stop  offset="0.9366" style="stop-color:#8E8E8E"/>
			<stop  offset="1" style="stop-color:#8D8D8D"/>
		</linearGradient>
		<path class="st45" d="M10.1,17.1c-0.1,0-0.2,0.1-0.2,0.1c0.1,0,0.1,0.1,0.2,0.1c0.3,0.1,0.7,0.1,1,0c0.1,0,0.2,0,0.2-0.1
			c0,0-0.1,0-0.2-0.1C11,17.1,10.3,17.1,10.1,17.1z"/>
		<linearGradient id="SVGID_34_" gradientUnits="userSpaceOnUse" x1="10.8611" y1="17.2048" x2="9.9642" y2="17.2117">
			<stop  offset="5.617980e-03" style="stop-color:#989897"/>
			<stop  offset="1" style="stop-color:#969696"/>
		</linearGradient>
		<path class="st46" d="M10.2,17.1c-0.1,0-0.2,0.1-0.2,0.1c0,0,0.1,0,0.2,0.1c0.3,0,0.7,0,0.9,0c0.1,0,0.2,0,0.2-0.1
			c0,0,0,0-0.2-0.1C11,17.1,10.4,17.1,10.2,17.1z"/>
		<path class="st24" d="M10.3,17.2c-0.1,0-0.2,0-0.2,0C10.1,17.2,10.2,17.2,10.3,17.2c0.2,0.1,0.6,0.1,0.8,0.1c0.1,0,0.1,0,0.2,0
			c0,0,0,0-0.2,0C11,17.1,10.4,17.2,10.3,17.2z"/>
	</g>
	<g>
		<linearGradient id="SVGID_35_" gradientUnits="userSpaceOnUse" x1="10.6785" y1="16.1859" x2="7.9444" y2="15.9714">
			<stop  offset="5.617980e-03" style="stop-color:#1F1E1D"/>
			<stop  offset="0.4175" style="stop-color:#1C1B1A"/>
			<stop  offset="0.776" style="stop-color:#11100F"/>
			<stop  offset="1" style="stop-color:#060605"/>
		</linearGradient>
		<path class="st47" d="M11,15.7c0,0,0.6,0,0.8,0.3c0.1,0.2,0.1,0.3,0,0.4c-0.1,0.1-0.2,0.1-0.2,0.2c-0.1,0-0.7,0.1-1.6,0.1
			s-1.4-0.1-1.6-0.1c-0.1,0-0.2-0.1-0.2-0.2c-0.1-0.1-0.1-0.2,0-0.4C8.4,15.7,9,15.7,9,15.7H11z"/>
		<linearGradient id="SVGID_36_" gradientUnits="userSpaceOnUse" x1="10.6831" y1="16.1947" x2="8.1506" y2="15.996">
			<stop  offset="5.617980e-03" style="stop-color:#2B2A29"/>
			<stop  offset="0.433" style="stop-color:#282726"/>
			<stop  offset="0.805" style="stop-color:#1D1D1C"/>
			<stop  offset="1" style="stop-color:#141413"/>
		</linearGradient>
		<path class="st48" d="M8.4,16c0.2-0.3,0.8-0.3,0.8-0.3c0,0,0.9,0,0.9,0c0,0,0.8,0,0.8,0c0,0,0.6,0,0.8,0.3c0.1,0.1,0.1,0.3,0,0.3
			c-0.1,0.1-0.1,0.1-0.2,0.1c-0.1,0-0.6,0.1-1.5,0.1c-0.9,0-1.3-0.1-1.5-0.1c0,0,0,0-0.1,0c0,0-0.1-0.1-0.1-0.1
			C8.3,16.3,8.3,16.2,8.4,16z"/>
		<linearGradient id="SVGID_37_" gradientUnits="userSpaceOnUse" x1="10.6878" y1="16.2035" x2="8.3565" y2="16.0206">
			<stop  offset="5.617980e-03" style="stop-color:#363534"/>
			<stop  offset="0.4605" style="stop-color:#333231"/>
			<stop  offset="0.8564" style="stop-color:#282827"/>
			<stop  offset="1" style="stop-color:#222221"/>
		</linearGradient>
		<path class="st49" d="M8.6,16c0.1-0.3,0.7-0.3,0.7-0.3c0,0,0.8,0,0.8,0c0,0,0.8,0,0.8,0c0,0,0.6,0,0.7,0.3c0.1,0.1,0.1,0.2,0,0.3
			c-0.1,0.1-0.1,0.1-0.2,0.1c-0.1,0-0.6,0.1-1.3,0.1c-0.8,0-1.2-0.1-1.4-0.1c0,0,0,0-0.1,0c0,0-0.1-0.1-0.1-0.1
			C8.5,16.3,8.5,16.2,8.6,16z"/>
		<linearGradient id="SVGID_38_" gradientUnits="userSpaceOnUse" x1="10.6929" y1="16.2123" x2="8.5622" y2="16.0452">
			<stop  offset="5.617980e-03" style="stop-color:#424140"/>
			<stop  offset="0.4709" style="stop-color:#3F3E3D"/>
			<stop  offset="0.8761" style="stop-color:#343433"/>
			<stop  offset="1" style="stop-color:#2F2F2F"/>
		</linearGradient>
		<path class="st50" d="M8.8,16.1c0.1-0.2,0.6-0.2,0.6-0.2c0,0,0.8,0,0.8,0c0,0,0.7,0,0.7,0c0,0,0.5,0,0.6,0.2
			c0.1,0.1,0.1,0.2,0,0.3c-0.1,0.1-0.1,0.1-0.2,0.1c-0.1,0-0.5,0.1-1.2,0.1c-0.7,0-1.1-0.1-1.2-0.1c0,0,0,0,0,0c0,0-0.1-0.1-0.1-0.1
			C8.7,16.3,8.7,16.2,8.8,16.1z"/>
		<linearGradient id="SVGID_39_" gradientUnits="userSpaceOnUse" x1="10.6983" y1="16.2212" x2="8.7673" y2="16.0697">
			<stop  offset="5.617980e-03" style="stop-color:#4D4D4C"/>
			<stop  offset="0.5078" style="stop-color:#4A4A49"/>
			<stop  offset="0.9452" style="stop-color:#3F3F3F"/>
			<stop  offset="1" style="stop-color:#3D3D3D"/>
		</linearGradient>
		<path class="st51" d="M9,16.1c0.1-0.2,0.5-0.2,0.6-0.2c0,0,0.7,0,0.7,0c0,0,0.6,0,0.6,0c0,0,0.5,0,0.6,0.2
			c0.1,0.1,0.1,0.2,0.1,0.2c0,0.1-0.1,0.1-0.2,0.1c-0.1,0-0.5,0.1-1.1,0.1c-0.7,0-1-0.1-1.1-0.1c0,0,0,0,0,0c0,0-0.1,0-0.1-0.1
			C8.9,16.3,8.9,16.2,9,16.1z"/>
		<linearGradient id="SVGID_40_" gradientUnits="userSpaceOnUse" x1="10.7043" y1="16.2301" x2="8.9717" y2="16.0942">
			<stop  offset="5.617980e-03" style="stop-color:#595858"/>
			<stop  offset="0.5386" style="stop-color:#565555"/>
			<stop  offset="1" style="stop-color:#4B4B4B"/>
		</linearGradient>
		<path class="st52" d="M9.2,16.1c0.1-0.2,0.5-0.2,0.5-0.2c0,0,0.6,0,0.6,0c0,0,0.5,0,0.6,0c0,0,0.4,0,0.5,0.2
			c0.1,0.1,0.1,0.2,0.1,0.2c0,0-0.1,0.1-0.2,0.1c-0.1,0-0.4,0.1-1,0.1c-0.6,0-0.9-0.1-1-0.1c0,0,0,0,0,0c0,0-0.1,0-0.1-0.1
			C9.1,16.3,9.1,16.2,9.2,16.1z"/>
		<linearGradient id="SVGID_41_" gradientUnits="userSpaceOnUse" x1="10.711" y1="16.239" x2="9.1749" y2="16.1185">
			<stop  offset="5.617980e-03" style="stop-color:#646463"/>
			<stop  offset="0.599" style="stop-color:#616160"/>
			<stop  offset="1" style="stop-color:#595958"/>
		</linearGradient>
		<path class="st53" d="M9.4,16.1C9.4,16,9.8,16,9.8,16c0,0,0.5,0,0.5,0c0,0,0.5,0,0.5,0c0,0,0.4,0,0.4,0.1c0.1,0.1,0.1,0.1,0.1,0.2
			c0,0-0.1,0.1-0.2,0.1c-0.1,0-0.4,0.1-0.9,0.1c-0.5,0-0.8-0.1-0.9-0.1c0,0,0,0,0,0c0,0,0,0-0.1-0.1C9.3,16.3,9.3,16.2,9.4,16.1z"/>
		<linearGradient id="SVGID_42_" gradientUnits="userSpaceOnUse" x1="10.7185" y1="16.2479" x2="9.3763" y2="16.1427">
			<stop  offset="5.617980e-03" style="stop-color:#706F6F"/>
			<stop  offset="0.6545" style="stop-color:#6D6C6C"/>
			<stop  offset="1" style="stop-color:#676766"/>
		</linearGradient>
		<path class="st54" d="M9.5,16.2C9.6,16,9.9,16,9.9,16c0,0,0.4,0,0.5,0c0,0,0.4,0,0.4,0c0.1,0,0.3,0,0.4,0.1
			c0.1,0.1,0.1,0.1,0.1,0.1c0,0-0.1,0.1-0.2,0.1c-0.1,0-0.3,0.1-0.7,0.1c-0.5,0-0.7,0-0.8-0.1c0,0,0,0,0,0c0,0,0,0,0-0.1
			C9.5,16.3,9.5,16.2,9.5,16.2z"/>
		<linearGradient id="SVGID_43_" gradientUnits="userSpaceOnUse" x1="10.7261" y1="16.2569" x2="9.5747" y2="16.1666">
			<stop  offset="5.617980e-03" style="stop-color:#7B7B7B"/>
			<stop  offset="0.7313" style="stop-color:#787878"/>
			<stop  offset="1" style="stop-color:#757574"/>
		</linearGradient>
		<path class="st55" d="M9.7,16.2c0-0.1,0.3-0.1,0.3-0.1c0,0,0.3,0,0.4,0c0,0,0.3,0,0.4,0c0.1,0,0.3,0,0.3,0.1
			c0.1,0,0.1,0.1,0.1,0.1c0,0-0.1,0-0.2,0.1c-0.1,0-0.3,0-0.6,0c-0.4,0-0.6,0-0.7-0.1c0,0,0,0,0,0c0,0,0,0,0,0
			C9.7,16.3,9.7,16.2,9.7,16.2z"/>
		<linearGradient id="SVGID_44_" gradientUnits="userSpaceOnUse" x1="10.7322" y1="16.2656" x2="9.7681" y2="16.19">
			<stop  offset="5.617980e-03" style="stop-color:#878787"/>
			<stop  offset="0.8486" style="stop-color:#848484"/>
			<stop  offset="1" style="stop-color:#828282"/>
		</linearGradient>
		<path class="st56" d="M9.9,16.2c0-0.1,0.2-0.1,0.3-0.1c0,0,0.3,0,0.3,0c0,0,0.3,0,0.3,0c0.1,0,0.2,0,0.3,0.1
			c0.1,0,0.1,0.1,0.1,0.1c0,0-0.1,0-0.2,0c-0.1,0-0.3,0-0.5,0c-0.3,0-0.5,0-0.6,0c0,0,0,0,0,0C9.8,16.3,9.8,16.3,9.9,16.2
			C9.9,16.3,9.9,16.2,9.9,16.2z"/>
		<linearGradient id="SVGID_45_" gradientUnits="userSpaceOnUse" x1="10.7343" y1="16.2738" x2="9.9481" y2="16.2121">
			<stop  offset="5.617980e-03" style="stop-color:#929292"/>
			<stop  offset="1" style="stop-color:#909090"/>
		</linearGradient>
		<path class="st57" d="M10.1,16.2c0,0,0.1,0,0.2,0c0,0,0.2,0,0.2,0c0,0,0.2,0,0.2,0c0.1,0,0.2,0,0.2,0c0,0,0.1,0,0.1,0.1
			c0,0-0.1,0-0.2,0c-0.1,0-0.2,0-0.4,0C10.3,16.3,10.1,16.3,10.1,16.2C10,16.3,10,16.3,10.1,16.2C10,16.3,10,16.3,10.1,16.2
			C10,16.3,10.1,16.2,10.1,16.2z"/>
		<path class="st24" d="M10.3,16.2c0,0-0.1,0-0.1,0c0.1,0,0.2,0,0.4,0c0.1,0,0.2,0,0.3,0s0.1,0,0.2,0c0,0-0.1,0-0.1,0
			c0,0-0.1,0-0.3,0C10.4,16.2,10.3,16.2,10.3,16.2z"/>
	</g>
	<g>
		<path class="st58" d="M11.4,10.5c0,0-1,0.8-0.9,2.6c0.1,1.8,0.5,2.7,0.5,2.7s-0.2,0.1-1,0.1c-0.8,0-1-0.1-1-0.1s0.3-0.8,0.5-2.7
			c0.1-1.8-0.9-2.6-0.9-2.6H11.4z"/>
		<linearGradient id="SVGID_46_" gradientUnits="userSpaceOnUse" x1="9.8813" y1="15.1818" x2="10.0492" y2="9.5138">
			<stop  offset="0" style="stop-color:#282726"/>
			<stop  offset="1" style="stop-color:#1E1D1C"/>
		</linearGradient>
		<path class="st59" d="M8.7,10.6l2.6,0c0,0.1-0.6,0.5-0.8,1.5c-0.1,0.3-0.1,0.7,0,1.1c0.1,1.7,0.5,2.6,0.5,2.6c0,0-0.2,0.1-1,0.1
			c-0.8,0-0.9-0.1-1-0.1c0,0,0.3-0.9,0.5-2.6c0-0.3,0-0.6,0-0.8C9.4,11.2,8.7,10.6,8.7,10.6z"/>
		<linearGradient id="SVGID_47_" gradientUnits="userSpaceOnUse" x1="9.8997" y1="15.1909" x2="10.0649" y2="9.6131">
			<stop  offset="0" style="stop-color:#343332"/>
			<stop  offset="1" style="stop-color:#1F1E1D"/>
		</linearGradient>
		<path class="st60" d="M8.8,10.7l2.4,0c0,0.1-0.5,0.6-0.7,1.5c-0.1,0.3-0.1,0.6,0,1.1c0.1,1.7,0.5,2.5,0.5,2.6c0,0-0.2,0.1-0.9,0.1
			c-0.7,0-0.9-0.1-0.9-0.1c0,0,0.3-0.9,0.4-2.6c0-0.3,0-0.6,0-0.8C9.5,11.3,8.8,10.7,8.8,10.7z"/>
		<linearGradient id="SVGID_48_" gradientUnits="userSpaceOnUse" x1="9.9181" y1="15.2" x2="10.0807" y2="9.7125">
			<stop  offset="0" style="stop-color:#3F3F3E"/>
			<stop  offset="1" style="stop-color:#21201F"/>
		</linearGradient>
		<path class="st61" d="M9,10.8l2.2,0c-0.1,0.2-0.5,0.6-0.7,1.4c0,0.3-0.1,0.6,0,1c0.1,1.6,0.4,2.5,0.5,2.5c0,0-0.2,0.1-0.8,0.1
			c-0.6,0-0.8-0.1-0.8-0.1c0,0,0.3-0.9,0.4-2.5c0-0.3,0-0.5,0-0.8C9.5,11.4,9,10.8,9,10.8z"/>
		<linearGradient id="SVGID_49_" gradientUnits="userSpaceOnUse" x1="9.9365" y1="15.2092" x2="10.0964" y2="9.8118">
			<stop  offset="0" style="stop-color:#4B4B4A"/>
			<stop  offset="1" style="stop-color:#232220"/>
		</linearGradient>
		<path class="st62" d="M9.1,10.9l2,0c-0.1,0.3-0.5,0.7-0.6,1.4c0,0.2-0.1,0.6,0,1c0.1,1.5,0.4,2.4,0.4,2.5c0,0-0.2,0.1-0.8,0.1
			c-0.6,0-0.7,0-0.8,0c0,0,0.3-0.9,0.4-2.5c0-0.3,0-0.5,0-0.8C9.6,11.6,9.1,10.9,9.1,10.9z"/>
		<linearGradient id="SVGID_50_" gradientUnits="userSpaceOnUse" x1="9.9566" y1="15.2184" x2="10.1139" y2="9.9112">
			<stop  offset="0" style="stop-color:#575756"/>
			<stop  offset="1" style="stop-color:#252322"/>
		</linearGradient>
		<path class="st63" d="M9.2,10.9l1.8,0c-0.1,0.3-0.4,0.8-0.6,1.4c0,0.2,0,0.6,0,1c0.1,1.4,0.4,2.4,0.4,2.4c0,0-0.2,0.1-0.7,0.1
			c-0.5,0-0.6,0-0.7,0c0,0,0.2-0.9,0.3-2.4c0-0.3,0-0.5,0-0.8C9.7,11.7,9.2,10.9,9.2,10.9z"/>
		<linearGradient id="SVGID_51_" gradientUnits="userSpaceOnUse" x1="9.9945" y1="15.2285" x2="10.1491" y2="10.011">
			<stop  offset="0" style="stop-color:#636262"/>
			<stop  offset="1" style="stop-color:#262523"/>
		</linearGradient>
		<path class="st64" d="M9.3,11l1.6,0c-0.1,0.4-0.4,0.8-0.5,1.4c0,0.2,0,0.6,0,1c0.1,1.3,0.4,2.3,0.4,2.4c0,0-0.2,0-0.6,0.1
			c-0.4,0-0.6,0-0.6,0c0,0,0.2-1,0.3-2.4c0-0.3,0-0.5,0-0.7C9.8,11.9,9.3,11,9.3,11z"/>
		<linearGradient id="SVGID_52_" gradientUnits="userSpaceOnUse" x1="10.0324" y1="15.2384" x2="10.1843" y2="10.1108">
			<stop  offset="0" style="stop-color:#6F6E6E"/>
			<stop  offset="1" style="stop-color:#282625"/>
		</linearGradient>
		<path class="st65" d="M9.4,11.1l1.3,0c-0.2,0.4-0.4,0.9-0.5,1.4c0,0.2,0,0.5,0,1c0.1,1.2,0.3,2.2,0.4,2.3c0,0-0.1,0-0.6,0
			c-0.4,0-0.5,0-0.6,0c0,0,0.2-1,0.3-2.4c0-0.3,0-0.5,0-0.7C9.8,12,9.4,11.1,9.4,11.1z"/>
		<linearGradient id="SVGID_53_" gradientUnits="userSpaceOnUse" x1="10.0703" y1="15.2484" x2="10.2196" y2="10.2106">
			<stop  offset="0" style="stop-color:#7B7A7A"/>
			<stop  offset="1" style="stop-color:#2A2826"/>
		</linearGradient>
		<path class="st66" d="M9.6,11.2l1.1,0c-0.2,0.5-0.3,0.9-0.4,1.4c0,0.2,0,0.5,0,1c0.1,1.1,0.3,2.2,0.4,2.3c0,0-0.1,0-0.5,0
			c-0.3,0-0.4,0-0.5,0c0,0,0.2-1,0.3-2.3c0-0.2,0-0.5,0-0.7C9.9,12.1,9.6,11.2,9.6,11.2z"/>
		<linearGradient id="SVGID_54_" gradientUnits="userSpaceOnUse" x1="10.1082" y1="15.2587" x2="10.2548" y2="10.3104">
			<stop  offset="0" style="stop-color:#868686"/>
			<stop  offset="1" style="stop-color:#2C2A28"/>
		</linearGradient>
		<path class="st67" d="M9.7,11.3l0.9,0c-0.2,0.6-0.3,1-0.4,1.4c0,0.1,0,0.5,0,0.9c0.1,1,0.3,2.1,0.3,2.2c0,0-0.1,0-0.4,0
			c-0.2,0-0.4,0-0.5,0c0,0,0.2-1,0.2-2.3c0-0.2,0-0.5,0-0.7C10,12.3,9.7,11.3,9.7,11.3z"/>
		<linearGradient id="SVGID_55_" gradientUnits="userSpaceOnUse" x1="10.146" y1="15.2696" x2="10.29" y2="10.41">
			<stop  offset="0" style="stop-color:#929292"/>
			<stop  offset="1" style="stop-color:#2D2B29"/>
		</linearGradient>
		<path class="st68" d="M9.8,11.3l0.7,0c-0.2,0.6-0.3,1.1-0.3,1.4c0,0.1,0,0.5,0.1,0.9c0.1,0.9,0.2,2.1,0.3,2.2c0,0-0.1,0-0.4,0
			c-0.2,0-0.3,0-0.4,0c0,0,0.1-1,0.2-2.2c0-0.2,0-0.5,0-0.7C10.1,12.4,9.8,11.3,9.8,11.3z"/>
		<linearGradient id="SVGID_56_" gradientUnits="userSpaceOnUse" x1="10.1839" y1="15.282" x2="10.3253" y2="10.5093">
			<stop  offset="0" style="stop-color:#9E9E9E"/>
			<stop  offset="1" style="stop-color:#2F2D2B"/>
		</linearGradient>
		<path class="st69" d="M10.1,13c0,1.3-0.2,2.8-0.2,2.8c0.3,0,0.6,0,0.6,0c-0.1-0.2-0.4-2.7-0.4-3c0-0.2,0-0.6,0.3-1.4l-0.5,0
			C9.9,11.4,10.1,12.5,10.1,13z"/>
	</g>
	<linearGradient id="SVGID_57_" gradientUnits="userSpaceOnUse" x1="8.5927" y1="10.4826" x2="11.4073" y2="10.4826">
		<stop  offset="3.932580e-02" style="stop-color:#0A0A09"/>
		<stop  offset="0.5899" style="stop-color:#7E7C79"/>
		<stop  offset="1" style="stop-color:#2F2D2B"/>
	</linearGradient>
	<path class="st70" d="M10.8,10.3l0.6,0.2c0,0,0,0.1-1.4,0.1c-1.4,0-1.4-0.1-1.4-0.1l0.6-0.2H10.8z"/>
	<g>
		<path class="st71" d="M11.6,10c0,0.3-0.7,0.4-1.6,0.4c-0.9,0-1.6-0.1-1.6-0.4c0-0.3,0.7-0.4,1.6-0.4C10.9,9.6,11.6,9.7,11.6,10z"
			/>
		<linearGradient id="SVGID_58_" gradientUnits="userSpaceOnUse" x1="10.0227" y1="9.501" x2="10.0227" y2="10.3674">
			<stop  offset="0" style="stop-color:#1D1C1A"/>
			<stop  offset="0.6067" style="stop-color:#201F1D"/>
		</linearGradient>
		<path class="st72" d="M10,9.6c0.8,0,1.5,0.1,1.5,0.4c0,0.3-0.7,0.4-1.5,0.4c-0.8,0-1.5-0.1-1.5-0.4C8.5,9.7,9.2,9.6,10,9.6z"/>
		<linearGradient id="SVGID_59_" gradientUnits="userSpaceOnUse" x1="10.0451" y1="9.5404" x2="10.0451" y2="10.3467">
			<stop  offset="0" style="stop-color:#201F1D"/>
			<stop  offset="0.6067" style="stop-color:#272523"/>
		</linearGradient>
		<path class="st73" d="M10,9.7c0.8,0,1.5,0.1,1.5,0.3s-0.7,0.3-1.5,0.3c-0.8,0-1.5-0.1-1.5-0.3C8.6,9.8,9.2,9.7,10,9.7z"/>
		<linearGradient id="SVGID_60_" gradientUnits="userSpaceOnUse" x1="10.0676" y1="9.5798" x2="10.0676" y2="10.3259">
			<stop  offset="0" style="stop-color:#23211F"/>
			<stop  offset="0.6067" style="stop-color:#2D2C2A"/>
		</linearGradient>
		<path class="st74" d="M10.1,9.7c0.8,0,1.4,0.1,1.4,0.3c0,0.2-0.6,0.3-1.4,0.3c-0.8,0-1.4-0.1-1.4-0.3C8.6,9.8,9.3,9.7,10.1,9.7z"
			/>
		<linearGradient id="SVGID_61_" gradientUnits="userSpaceOnUse" x1="10.09" y1="9.6192" x2="10.09" y2="10.3052">
			<stop  offset="0" style="stop-color:#262422"/>
			<stop  offset="0.6067" style="stop-color:#333230"/>
		</linearGradient>
		<path class="st75" d="M10.1,9.7c0.8,0,1.4,0.1,1.4,0.3c0,0.2-0.6,0.3-1.4,0.3c-0.8,0-1.4-0.1-1.4-0.3C8.7,9.8,9.3,9.7,10.1,9.7z"
			/>
		<linearGradient id="SVGID_62_" gradientUnits="userSpaceOnUse" x1="10.1124" y1="9.6586" x2="10.1124" y2="10.2844">
			<stop  offset="0" style="stop-color:#282725"/>
			<stop  offset="0.6067" style="stop-color:#3A3836"/>
		</linearGradient>
		<path class="st76" d="M10.1,9.7c0.7,0,1.3,0.1,1.3,0.3c0,0.2-0.6,0.3-1.3,0.3c-0.7,0-1.3-0.1-1.3-0.3C8.8,9.8,9.4,9.7,10.1,9.7z"
			/>
		<linearGradient id="SVGID_63_" gradientUnits="userSpaceOnUse" x1="10.1349" y1="9.698" x2="10.1349" y2="10.2637">
			<stop  offset="0" style="stop-color:#2B2A28"/>
			<stop  offset="0.6067" style="stop-color:#403E3C"/>
		</linearGradient>
		<path class="st77" d="M10.1,9.8c0.7,0,1.3,0.1,1.3,0.2c0,0.2-0.6,0.2-1.3,0.2c-0.7,0-1.3-0.1-1.3-0.2C8.9,9.8,9.4,9.8,10.1,9.8z"
			/>
		<linearGradient id="SVGID_64_" gradientUnits="userSpaceOnUse" x1="10.1573" y1="9.7374" x2="10.1573" y2="10.2429">
			<stop  offset="0" style="stop-color:#2E2C2A"/>
			<stop  offset="0.6067" style="stop-color:#464543"/>
		</linearGradient>
		<path class="st78" d="M10.2,9.8c0.7,0,1.2,0.1,1.2,0.2c0,0.1-0.5,0.2-1.2,0.2c-0.7,0-1.2-0.1-1.2-0.2C8.9,9.9,9.5,9.8,10.2,9.8z"
			/>
		<linearGradient id="SVGID_65_" gradientUnits="userSpaceOnUse" x1="10.1797" y1="9.7768" x2="10.1797" y2="10.2222">
			<stop  offset="0" style="stop-color:#312F2D"/>
			<stop  offset="0.6067" style="stop-color:#4D4B49"/>
		</linearGradient>
		<path class="st79" d="M10.2,9.8c0.6,0,1.2,0.1,1.2,0.2c0,0.1-0.5,0.2-1.2,0.2c-0.6,0-1.2,0-1.2-0.2C9,9.9,9.5,9.8,10.2,9.8z"/>
		<linearGradient id="SVGID_66_" gradientUnits="userSpaceOnUse" x1="10.2022" y1="9.8162" x2="10.2022" y2="10.2014">
			<stop  offset="0" style="stop-color:#343230"/>
			<stop  offset="0.6067" style="stop-color:#53514F"/>
		</linearGradient>
		<path class="st80" d="M11.3,10c0,0.1-0.5,0.2-1.1,0.2c-0.6,0-1.1,0-1.1-0.2c0-0.1,0.5-0.2,1.1-0.2C10.8,9.9,11.3,9.9,11.3,10z"/>
		<linearGradient id="SVGID_67_" gradientUnits="userSpaceOnUse" x1="10.2218" y1="9.8398" x2="10.2218" y2="10.1872">
			<stop  offset="0" style="stop-color:#3F3D3B"/>
			<stop  offset="0.6067" style="stop-color:#5A5857"/>
		</linearGradient>
		<path class="st81" d="M11.3,10c0,0.1-0.5,0.1-1,0.1c-0.6,0-1,0-1-0.1c0-0.1,0.5-0.1,1-0.1C10.8,9.9,11.3,9.9,11.3,10z"/>
		<linearGradient id="SVGID_68_" gradientUnits="userSpaceOnUse" x1="10.2414" y1="9.8635" x2="10.2414" y2="10.173">
			<stop  offset="0" style="stop-color:#4A4846"/>
			<stop  offset="0.6067" style="stop-color:#62605E"/>
		</linearGradient>
		<path class="st82" d="M11.2,10c0,0.1-0.4,0.1-1,0.1c-0.5,0-1,0-1-0.1c0-0.1,0.4-0.1,1-0.1C10.8,9.9,11.2,10,11.2,10z"/>
		<linearGradient id="SVGID_69_" gradientUnits="userSpaceOnUse" x1="10.261" y1="9.8872" x2="10.261" y2="10.1588">
			<stop  offset="0" style="stop-color:#545351"/>
			<stop  offset="0.6067" style="stop-color:#696766"/>
		</linearGradient>
		<path class="st83" d="M11.1,10c0,0.1-0.4,0.1-0.9,0.1c-0.5,0-0.9,0-0.9-0.1c0-0.1,0.4-0.1,0.9-0.1C10.8,9.9,11.1,10,11.1,10z"/>
		<linearGradient id="SVGID_70_" gradientUnits="userSpaceOnUse" x1="10.2806" y1="9.9108" x2="10.2806" y2="10.1446">
			<stop  offset="0" style="stop-color:#5F5E5C"/>
			<stop  offset="0.6067" style="stop-color:#706F6E"/>
		</linearGradient>
		<path class="st84" d="M11.1,10c0,0.1-0.4,0.1-0.8,0.1c-0.4,0-0.8,0-0.8-0.1c0-0.1,0.4-0.1,0.8-0.1C10.7,9.9,11.1,10,11.1,10z"/>
		<linearGradient id="SVGID_71_" gradientUnits="userSpaceOnUse" x1="10.3002" y1="9.9345" x2="10.3002" y2="10.1304">
			<stop  offset="0" style="stop-color:#6A6868"/>
			<stop  offset="0.6067" style="stop-color:#787675"/>
		</linearGradient>
		<path class="st85" d="M11,10c0,0-0.3,0.1-0.7,0.1c-0.4,0-0.7,0-0.7-0.1c0-0.1,0.3-0.1,0.7-0.1C10.7,10,11,10,11,10z"/>
		<linearGradient id="SVGID_72_" gradientUnits="userSpaceOnUse" x1="10.3198" y1="9.9582" x2="10.3198" y2="10.1162">
			<stop  offset="0" style="stop-color:#757373"/>
			<stop  offset="0.6067" style="stop-color:#7F7E7D"/>
		</linearGradient>
		<path class="st86" d="M11,10c0,0-0.3,0.1-0.7,0.1c-0.4,0-0.7,0-0.7-0.1c0,0,0.3-0.1,0.7-0.1C10.7,10,11,10,11,10z"/>
		<linearGradient id="SVGID_73_" gradientUnits="userSpaceOnUse" x1="10.3394" y1="9.9818" x2="10.3394" y2="10.102">
			<stop  offset="0" style="stop-color:#7F7E7E"/>
			<stop  offset="0.6067" style="stop-color:#868585"/>
		</linearGradient>
		<path class="st87" d="M10.9,10c0,0-0.3,0-0.6,0c-0.3,0-0.6,0-0.6,0c0,0,0.3,0,0.6,0C10.7,10,10.9,10,10.9,10z"/>
		<linearGradient id="SVGID_74_" gradientUnits="userSpaceOnUse" x1="10.359" y1="10.0055" x2="10.359" y2="10.0878">
			<stop  offset="0" style="stop-color:#8A8989"/>
			<stop  offset="0.6067" style="stop-color:#8E8D8C"/>
		</linearGradient>
		<path class="st88" d="M10.9,10.1c0,0-0.2,0-0.5,0c-0.3,0-0.5,0-0.5,0c0,0,0.2,0,0.5,0C10.6,10,10.9,10,10.9,10.1z"/>
		<path class="st89" d="M10.8,10.1c0,0-0.2,0-0.4,0c-0.2,0-0.4,0-0.4,0s0.2,0,0.4,0C10.6,10,10.8,10,10.8,10.1z"/>
	</g>
	<radialGradient id="SVGID_75_" cx="10.3027" cy="6.94" r="3.0348" gradientUnits="userSpaceOnUse">
		<stop  offset="6.179780e-02" style="stop-color:#9E9E9E"/>
		<stop  offset="0.4858" style="stop-color:#60605F"/>
		<stop  offset="1" style="stop-color:#100F0E"/>
	</radialGradient>
	<path class="st90" d="M12,7.8c0,1.1-0.9,2-2,2c-1.1,0-2-0.9-2-2s0.9-2,2-2C11.1,5.8,12,6.7,12,7.8z"/>
</g>
</svg>
