<?xml version="1.0" encoding="utf-8"?>
<!-- Generator: Adobe Illustrator 24.2.3, SVG Export Plug-In . SVG Version: 6.00 Build 0)  -->
<svg version="1.1" id="Layer_1" xmlns="http://www.w3.org/2000/svg" xmlns:xlink="http://www.w3.org/1999/xlink" x="0px" y="0px"
	 viewBox="0 0 20 20" style="enable-background:new 0 0 20 20;" xml:space="preserve">
<style type="text/css">
	.st0{fill:none;}
	.st1{fill-rule:evenodd;clip-rule:evenodd;fill:url(#SVGID_1_);}
	.st2{fill:url(#SVGID_2_);}
	.st3{fill:url(#SVGID_3_);}
	.st4{fill:url(#SVGID_4_);}
	.st5{fill:url(#SVGID_5_);}
	.st6{fill:url(#SVGID_6_);}
	.st7{fill:url(#SVGID_7_);}
	.st8{fill:url(#SVGID_8_);}
	.st9{fill:url(#SVGID_9_);}
	.st10{fill:url(#SVGID_10_);}
	.st11{fill:url(#SVGID_11_);}
	.st12{fill:url(#SVGID_12_);}
	.st13{fill:#3A3937;}
	.st14{fill:#434240;}
	.st15{fill:#4C4B4A;}
	.st16{fill:#555553;}
	.st17{fill:#5E5E5C;}
	.st18{fill:#676766;}
	.st19{fill:#71706F;}
	.st20{fill:#7A7979;}
	.st21{fill:#838282;}
	.st22{fill:#8C8C8B;}
	.st23{fill:#959595;}
	.st24{fill:#9E9E9E;}
	.st25{fill:url(#SVGID_13_);}
	.st26{fill:url(#SVGID_14_);}
	.st27{fill:url(#SVGID_15_);}
	.st28{fill:url(#SVGID_16_);}
	.st29{fill:url(#SVGID_17_);}
	.st30{fill:url(#SVGID_18_);}
	.st31{fill:url(#SVGID_19_);}
	.st32{fill:url(#SVGID_20_);}
	.st33{fill:url(#SVGID_21_);}
	.st34{fill:url(#SVGID_22_);}
	.st35{fill:url(#SVGID_23_);}
	.st36{fill:url(#SVGID_24_);}
	.st37{fill:url(#SVGID_25_);}
	.st38{fill:url(#SVGID_26_);}
	.st39{fill:url(#SVGID_27_);}
	.st40{fill:url(#SVGID_28_);}
	.st41{fill:url(#SVGID_29_);}
	.st42{fill:url(#SVGID_30_);}
	.st43{fill:url(#SVGID_31_);}
	.st44{fill:url(#SVGID_32_);}
	.st45{fill:url(#SVGID_33_);}
	.st46{fill:url(#SVGID_34_);}
	.st47{fill:url(#SVGID_35_);}
	.st48{fill:url(#SVGID_36_);}
	.st49{fill:url(#SVGID_37_);}
	.st50{fill:url(#SVGID_38_);}
	.st51{fill:url(#SVGID_39_);}
	.st52{fill:url(#SVGID_40_);}
	.st53{fill:url(#SVGID_41_);}
	.st54{fill:url(#SVGID_42_);}
	.st55{fill:url(#SVGID_43_);}
	.st56{fill:url(#SVGID_44_);}
	.st57{fill:url(#SVGID_45_);}
	.st58{fill:#1C1B1A;}
	.st59{fill:url(#SVGID_46_);}
	.st60{fill:url(#SVGID_47_);}
	.st61{fill:url(#SVGID_48_);}
	.st62{fill:url(#SVGID_49_);}
	.st63{fill:url(#SVGID_50_);}
	.st64{fill:url(#SVGID_51_);}
	.st65{fill:url(#SVGID_52_);}
	.st66{fill:url(#SVGID_53_);}
	.st67{fill:url(#SVGID_54_);}
	.st68{fill:url(#SVGID_55_);}
	.st69{fill:url(#SVGID_56_);}
	.st70{fill:url(#SVGID_57_);}
	.st71{fill:#1A1917;}
	.st72{fill:url(#SVGID_58_);}
	.st73{fill:url(#SVGID_59_);}
	.st74{fill:url(#SVGID_60_);}
	.st75{fill:url(#SVGID_61_);}
	.st76{fill:url(#SVGID_62_);}
	.st77{fill:url(#SVGID_63_);}
	.st78{fill:url(#SVGID_64_);}
	.st79{fill:url(#SVGID_65_);}
	.st80{fill:url(#SVGID_66_);}
	.st81{fill:url(#SVGID_67_);}
	.st82{fill:url(#SVGID_68_);}
	.st83{fill:url(#SVGID_69_);}
	.st84{fill:url(#SVGID_70_);}
	.st85{fill:url(#SVGID_71_);}
	.st86{fill:url(#SVGID_72_);}
	.st87{fill:url(#SVGID_73_);}
	.st88{fill:url(#SVGID_74_);}
	.st89{fill:#959494;}
	.st90{fill:url(#SVGID_75_);}
	.st91{fill:url(#SVGID_76_);}
</style>
<rect y="0" class="st0" width="20" height="20"/>
<g>
	
		<radialGradient id="SVGID_1_" cx="-560.0771" cy="269.7415" r="5.1403" gradientTransform="matrix(-1 0 0 0.165 -550.0771 -26.0693)" gradientUnits="userSpaceOnUse">
		<stop  offset="0.4213" style="stop-color:#0B0A0A"/>
		<stop  offset="0.4618" style="stop-color:#222121;stop-opacity:0.9233"/>
		<stop  offset="0.5967" style="stop-color:#6A6A6A;stop-opacity:0.668"/>
		<stop  offset="0.7176" style="stop-color:#A4A4A4;stop-opacity:0.4389"/>
		<stop  offset="0.8204" style="stop-color:#CDCDCD;stop-opacity:0.2443"/>
		<stop  offset="0.901" style="stop-color:#E7E7E7;stop-opacity:9.169436e-02"/>
		<stop  offset="0.9494" style="stop-color:#F0F0F0;stop-opacity:0"/>
	</radialGradient>
	<path class="st1" d="M4.9,18.4c0,0.5,2.3,0.9,5.1,0.9s5.1-0.4,5.1-0.9c0-0.5-2.3-0.8-5.1-0.8S4.9,17.9,4.9,18.4z"/>
	<g>
		
			<linearGradient id="SVGID_2_" gradientUnits="userSpaceOnUse" x1="-560.0771" y1="18.7254" x2="-560.0771" y2="17.7798" gradientTransform="matrix(-1 0 0 1 -550.0771 0)">
			<stop  offset="5.617980e-03" style="stop-color:#1F1E1D"/>
			<stop  offset="0.4175" style="stop-color:#1C1B1A"/>
			<stop  offset="0.776" style="stop-color:#11100F"/>
			<stop  offset="1" style="stop-color:#060605"/>
		</linearGradient>
		<path class="st2" d="M7.7,17.4c0,0-1.1,0.1-1.2,0.6c0,0.5,1.5,0.8,3.3,0.8s3.6-0.3,3.6-0.8c0-0.5-1.2-0.6-1.2-0.6H7.7z"/>
		
			<linearGradient id="SVGID_3_" gradientUnits="userSpaceOnUse" x1="-623.3666" y1="18.7151" x2="-623.3666" y2="17.8056" gradientTransform="matrix(-0.8182 0 0 1 -500.0701 0)">
			<stop  offset="5.617980e-03" style="stop-color:#21201F"/>
			<stop  offset="0.4415" style="stop-color:#1E1D1C"/>
			<stop  offset="0.821" style="stop-color:#131312"/>
			<stop  offset="1" style="stop-color:#0B0B0A"/>
		</linearGradient>
		<path class="st3" d="M7.7,17.5c0,0-1.1,0.1-1.1,0.6c0,0.5,1.4,0.8,3.2,0.8c1.8,0,3.5-0.3,3.5-0.8c0-0.5-1.1-0.6-1.1-0.6L7.7,17.5z
			"/>
		
			<linearGradient id="SVGID_4_" gradientUnits="userSpaceOnUse" x1="-722.8215" y1="18.7048" x2="-722.8215" y2="17.8315" gradientTransform="matrix(-0.6364 0 0 1 -450.0631 0)">
			<stop  offset="5.617980e-03" style="stop-color:#242322"/>
			<stop  offset="0.4507" style="stop-color:#21201F"/>
			<stop  offset="0.8381" style="stop-color:#161615"/>
			<stop  offset="1" style="stop-color:#0F0F0E"/>
		</linearGradient>
		<path class="st4" d="M7.8,17.5c0,0-1.1,0.1-1.1,0.6c0,0.5,1.4,0.7,3.2,0.7c1.8,0,3.4-0.2,3.4-0.7c0-0.5-1.1-0.6-1.1-0.6L7.8,17.5z
			"/>
		
			<linearGradient id="SVGID_5_" gradientUnits="userSpaceOnUse" x1="-901.8403" y1="18.6945" x2="-901.8403" y2="17.8573" gradientTransform="matrix(-0.4545 0 0 1 -400.0561 0)">
			<stop  offset="5.617980e-03" style="stop-color:#262524"/>
			<stop  offset="0.4823" style="stop-color:#232221"/>
			<stop  offset="0.8973" style="stop-color:#181817"/>
			<stop  offset="1" style="stop-color:#141413"/>
		</linearGradient>
		<path class="st5" d="M7.8,17.5c0,0-1.1,0.1-1.1,0.5c0,0.5,1.4,0.7,3.1,0.7c1.7,0,3.3-0.2,3.3-0.7c0-0.5-1.1-0.6-1.1-0.6L7.8,17.5z
			"/>
		
			<linearGradient id="SVGID_6_" gradientUnits="userSpaceOnUse" x1="-1319.5508" y1="18.6843" x2="-1319.5508" y2="17.8831" gradientTransform="matrix(-0.2727 0 0 1 -350.0491 0)">
			<stop  offset="5.617980e-03" style="stop-color:#292826"/>
			<stop  offset="0.5078" style="stop-color:#262523"/>
			<stop  offset="0.9452" style="stop-color:#1B1B19"/>
			<stop  offset="1" style="stop-color:#191917"/>
		</linearGradient>
		<path class="st6" d="M7.8,17.6c0,0-1,0.1-1.1,0.5c0,0.4,1.3,0.7,3,0.7c1.7,0,3.2-0.2,3.2-0.7c0-0.4-1.1-0.5-1.1-0.5L7.8,17.6z"/>
		
			<linearGradient id="SVGID_7_" gradientUnits="userSpaceOnUse" x1="-3408.1035" y1="18.6742" x2="-3408.1035" y2="17.9089" gradientTransform="matrix(-9.090909e-02 0 0 1 -300.0421 0)">
			<stop  offset="5.617980e-03" style="stop-color:#2B2A29"/>
			<stop  offset="0.5565" style="stop-color:#282726"/>
			<stop  offset="1" style="stop-color:#1E1D1C"/>
		</linearGradient>
		<path class="st7" d="M7.8,17.6c0,0-1,0.1-1,0.5c0,0.4,1.3,0.6,2.9,0.7c1.6,0,3.1-0.2,3.1-0.6c0-0.4-1-0.5-1-0.5L7.8,17.6z"/>
		
			<linearGradient id="SVGID_8_" gradientUnits="userSpaceOnUse" x1="2857.5547" y1="18.664" x2="2857.5547" y2="17.9348" gradientTransform="matrix(9.090909e-02 0 0 1 -250.035 0)">
			<stop  offset="5.617980e-03" style="stop-color:#2E2D2B"/>
			<stop  offset="0.5765" style="stop-color:#2B2A28"/>
			<stop  offset="1" style="stop-color:#222220"/>
		</linearGradient>
		<path class="st8" d="M7.8,17.7c0,0-1,0.1-1,0.5c0,0.4,1.3,0.6,2.8,0.6c1.6,0,3-0.2,3-0.6c0-0.4-1-0.5-1-0.5L7.8,17.7z"/>
		
			<linearGradient id="SVGID_9_" gradientUnits="userSpaceOnUse" x1="769.0019" y1="18.654" x2="769.0019" y2="17.9607" gradientTransform="matrix(0.2727 0 0 1 -200.028 0)">
			<stop  offset="5.617980e-03" style="stop-color:#302F2E"/>
			<stop  offset="0.6545" style="stop-color:#2D2C2B"/>
			<stop  offset="1" style="stop-color:#272625"/>
		</linearGradient>
		<path class="st9" d="M7.8,17.7c0,0-0.9,0.1-1,0.4c0,0.4,1.2,0.6,2.7,0.6c1.5,0,2.9-0.2,2.9-0.5c0-0.4-1-0.5-1-0.5L7.8,17.7z"/>
		
			<linearGradient id="SVGID_10_" gradientUnits="userSpaceOnUse" x1="351.2914" y1="18.6441" x2="351.2914" y2="17.9866" gradientTransform="matrix(0.4545 0 0 1 -150.021 0)">
			<stop  offset="5.617980e-03" style="stop-color:#333230"/>
			<stop  offset="0.7313" style="stop-color:#302F2D"/>
			<stop  offset="1" style="stop-color:#2C2B29"/>
		</linearGradient>
		<path class="st10" d="M7.9,17.7c0,0-0.9,0.1-0.9,0.4c0,0.4,1.2,0.6,2.6,0.6c1.5,0,2.9-0.2,2.8-0.5c0-0.4-0.9-0.4-0.9-0.4L7.9,17.7
			z"/>
		
			<linearGradient id="SVGID_11_" gradientUnits="userSpaceOnUse" x1="172.2726" y1="18.6342" x2="172.2726" y2="18.0125" gradientTransform="matrix(0.6364 0 0 1 -100.014 0)">
			<stop  offset="5.617980e-03" style="stop-color:#353432"/>
			<stop  offset="0.9366" style="stop-color:#32312F"/>
			<stop  offset="1" style="stop-color:#31302E"/>
		</linearGradient>
		<path class="st11" d="M7.9,17.8c0,0-0.9,0.1-0.9,0.4c0,0.3,1.1,0.5,2.6,0.6c1.4,0,2.8-0.1,2.7-0.5c0-0.3-0.9-0.4-0.9-0.4L7.9,17.8
			z"/>
		
			<linearGradient id="SVGID_12_" gradientUnits="userSpaceOnUse" x1="72.8177" y1="18.6245" x2="72.8177" y2="18.0385" gradientTransform="matrix(0.8182 0 0 1 -50.007 0)">
			<stop  offset="5.617980e-03" style="stop-color:#383735"/>
			<stop  offset="1" style="stop-color:#353432"/>
		</linearGradient>
		<path class="st12" d="M7.9,17.8c0,0-0.9,0-0.9,0.4c0,0.3,1.1,0.5,2.5,0.5c1.4,0,2.7-0.1,2.7-0.4c0-0.3-0.9-0.4-0.9-0.4L7.9,17.8z"
			/>
		<path class="st13" d="M7.9,17.9c0,0-0.8,0-0.9,0.3c0,0.3,1.1,0.5,2.4,0.5c1.3,0,2.6-0.1,2.6-0.4c0-0.3-0.8-0.4-0.8-0.4L7.9,17.9z"
			/>
		<path class="st14" d="M8,17.9c0,0,3,0.1,3,0.1c0,0,0.8,0.1,0.8,0.3c0,0.1-0.2,0.2-0.6,0.3c-0.5,0.1-1.1,0.1-1.8,0.1
			c-0.6,0-1.2-0.1-1.6-0.1c-0.4-0.1-0.6-0.2-0.6-0.3C7.2,17.9,8,17.9,8,17.9z"/>
		<path class="st15" d="M8.1,17.9c0,0,2.8,0.1,2.8,0.1c0,0,0.7,0.1,0.7,0.3c0,0.1-0.2,0.2-0.6,0.3c-0.4,0.1-1,0.1-1.6,0.1
			c-0.6,0-1.1-0.1-1.5-0.1c-0.4-0.1-0.6-0.2-0.6-0.3C7.4,18,8,17.9,8.1,17.9z"/>
		<path class="st16" d="M8.1,18c0,0,2.6,0,2.6,0c0,0,0.7,0.1,0.7,0.3c0,0.1-0.2,0.2-0.5,0.2c-0.4,0.1-0.9,0.1-1.5,0.1
			c-0.5,0-1-0.1-1.4-0.1c-0.3-0.1-0.5-0.2-0.5-0.3C7.5,18,8.1,18,8.1,18z"/>
		<path class="st17" d="M8.2,18c0.1,0,2.4,0,2.4,0c0,0,0.6,0.1,0.6,0.2c0,0.1-0.2,0.2-0.5,0.2c-0.4,0.1-0.9,0.1-1.4,0.1
			c-0.5,0-0.9,0-1.3-0.1c-0.3-0.1-0.5-0.1-0.5-0.2C7.6,18.1,8.2,18,8.2,18z"/>
		<path class="st18" d="M8.3,18.1c0.1,0,2.1,0,2.2,0c0.1,0,0.5,0.1,0.6,0.2c0,0.1-0.2,0.1-0.5,0.2c-0.3,0.1-0.8,0.1-1.3,0.1
			c-0.4,0-0.9,0-1.1-0.1c-0.3-0.1-0.4-0.1-0.5-0.2C7.8,18.1,8.2,18.1,8.3,18.1z"/>
		<path class="st19" d="M8.4,18.1c0.1,0,1.9,0,2,0c0.1,0,0.5,0.1,0.5,0.2c0,0.1-0.2,0.1-0.4,0.2c-0.3,0-0.7,0.1-1.1,0.1
			c-0.4,0-0.8,0-1-0.1c-0.2,0-0.4-0.1-0.4-0.2C7.9,18.1,8.3,18.1,8.4,18.1z"/>
		<path class="st20" d="M8.4,18.1c0.1,0,1.7,0,1.8,0c0.1,0,0.4,0.1,0.4,0.2c0,0.1-0.2,0.1-0.4,0.1c-0.3,0-0.6,0.1-1,0
			c-0.3,0-0.7,0-0.9-0.1c-0.2,0-0.3-0.1-0.4-0.2C8,18.2,8.4,18.2,8.4,18.1z"/>
		<path class="st21" d="M8.5,18.2c0.1,0,1.4,0,1.6,0c0.1,0,0.4,0,0.4,0.1c0,0.1-0.1,0.1-0.3,0.1c-0.2,0-0.6,0-0.9,0
			c-0.3,0-0.6,0-0.8-0.1c-0.2,0-0.3-0.1-0.3-0.1C8.2,18.2,8.4,18.2,8.5,18.2z"/>
		<path class="st22" d="M8.6,18.2c0.1,0,1.2,0,1.4,0c0.1,0,0.3,0,0.3,0.1c0,0-0.1,0.1-0.3,0.1c-0.2,0-0.5,0-0.8,0
			c-0.3,0-0.5,0-0.7,0c-0.2,0-0.3-0.1-0.3-0.1C8.3,18.3,8.5,18.2,8.6,18.2z"/>
		<path class="st23" d="M8.7,18.3c0.1,0,1,0,1.1,0c0.1,0,0.3,0,0.3,0.1c0,0-0.1,0-0.2,0.1c-0.2,0-0.4,0-0.6,0c-0.2,0-0.4,0-0.6,0
			c-0.1,0-0.2,0-0.2-0.1C8.4,18.3,8.5,18.3,8.7,18.3z"/>
		<path class="st24" d="M9.7,18.3c0.1,0,0.2,0,0.2,0C9.9,18.4,9.8,18.4,9.7,18.3c-0.2,0.1-0.7,0.1-0.9,0.1c-0.1,0-0.2,0-0.2,0
			c0,0,0,0,0.2,0C8.9,18.3,9.5,18.3,9.7,18.3z"/>
	</g>
	<g>
		
			<linearGradient id="SVGID_13_" gradientUnits="userSpaceOnUse" x1="-558.668" y1="16.9439" x2="-563.0603" y2="16.9439" gradientTransform="matrix(-1 0 0 1 -550.0771 0)">
			<stop  offset="5.617980e-03" style="stop-color:#21201E"/>
			<stop  offset="0.4035" style="stop-color:#1E1D1B"/>
			<stop  offset="0.75" style="stop-color:#131211"/>
			<stop  offset="1" style="stop-color:#060606"/>
		</linearGradient>
		<path class="st25" d="M8.1,16.1c0,0-1,0.1-1,0.8c0,0.6,1,0.8,1.5,0.9c0.8,0.1,2,0.1,2.7,0c0.6-0.1,1.5-0.2,1.5-0.9
			c0-0.6-1-0.8-1-0.8H8.1z"/>
		
			<linearGradient id="SVGID_14_" gradientUnits="userSpaceOnUse" x1="-558.7264" y1="16.9442" x2="-562.8925" y2="16.9472" gradientTransform="matrix(-1 0 0 1 -550.0771 0)">
			<stop  offset="5.617980e-03" style="stop-color:#262523"/>
			<stop  offset="0.4103" style="stop-color:#232220"/>
			<stop  offset="0.7625" style="stop-color:#181716"/>
			<stop  offset="1" style="stop-color:#0C0B0B"/>
		</linearGradient>
		<path class="st26" d="M11.8,16.1c0,0,0.9,0.1,0.9,0.7c0,0.6-0.9,0.8-1.4,0.8c-0.7,0.1-1.9,0.1-2.7,0c-0.5-0.1-1.4-0.2-1.4-0.8
			c0-0.6,0.9-0.7,0.9-0.7C8.2,16.1,11.7,16.1,11.8,16.1z"/>
		
			<linearGradient id="SVGID_15_" gradientUnits="userSpaceOnUse" x1="-558.7849" y1="16.9408" x2="-562.7291" y2="16.9464" gradientTransform="matrix(-1 0 0 1 -550.0771 0)">
			<stop  offset="5.617980e-03" style="stop-color:#2B2A28"/>
			<stop  offset="0.4103" style="stop-color:#282725"/>
			<stop  offset="0.7625" style="stop-color:#1D1C1C"/>
			<stop  offset="1" style="stop-color:#111111"/>
		</linearGradient>
		<path class="st27" d="M11.7,16.2c0.1,0,0.9,0.2,0.9,0.7c0,0.5-0.8,0.7-1.3,0.8c-0.7,0.1-1.9,0.1-2.6,0c-0.5-0.1-1.3-0.2-1.3-0.8
			c0-0.5,0.8-0.7,0.9-0.7C8.2,16.2,11.6,16.2,11.7,16.2z"/>
		
			<linearGradient id="SVGID_16_" gradientUnits="userSpaceOnUse" x1="-558.8435" y1="16.9335" x2="-562.5699" y2="16.9414" gradientTransform="matrix(-1 0 0 1 -550.0771 0)">
			<stop  offset="5.617980e-03" style="stop-color:#302F2D"/>
			<stop  offset="0.4175" style="stop-color:#2D2C2A"/>
			<stop  offset="0.776" style="stop-color:#222120"/>
			<stop  offset="1" style="stop-color:#171616"/>
		</linearGradient>
		<path class="st28" d="M11.5,16.3c0.1,0,0.8,0.2,0.9,0.6c0,0.5-0.8,0.6-1.2,0.7c-0.7,0.1-1.8,0.1-2.6,0c-0.5-0.1-1.2-0.2-1.2-0.7
			c0-0.5,0.7-0.6,0.8-0.6C8.3,16.2,11.4,16.2,11.5,16.3z"/>
		
			<linearGradient id="SVGID_17_" gradientUnits="userSpaceOnUse" x1="-558.9023" y1="16.9224" x2="-562.4148" y2="16.9324" gradientTransform="matrix(-1 0 0 1 -550.0771 0)">
			<stop  offset="5.617980e-03" style="stop-color:#353432"/>
			<stop  offset="0.4175" style="stop-color:#32312F"/>
			<stop  offset="0.776" style="stop-color:#272625"/>
			<stop  offset="1" style="stop-color:#1C1C1B"/>
		</linearGradient>
		<path class="st29" d="M11.4,16.3c0.1,0,0.8,0.2,0.8,0.6c0,0.5-0.7,0.6-1.1,0.7c-0.7,0.1-1.8,0.1-2.5,0c-0.4-0.1-1.1-0.2-1.1-0.7
			c0-0.4,0.7-0.5,0.8-0.6C8.3,16.3,11.3,16.3,11.4,16.3z"/>
		
			<linearGradient id="SVGID_18_" gradientUnits="userSpaceOnUse" x1="-558.914" y1="16.9588" x2="-562.2166" y2="16.9705" gradientTransform="matrix(-1 0 0 1 -550.0771 0)">
			<stop  offset="5.617980e-03" style="stop-color:#3A3937"/>
			<stop  offset="0.425" style="stop-color:#373634"/>
			<stop  offset="0.79" style="stop-color:#2C2B2A"/>
			<stop  offset="1" style="stop-color:#222121"/>
		</linearGradient>
		<path class="st30" d="M11.3,16.4c0.1,0,0.8,0.2,0.8,0.5c0,0.4-0.6,0.5-1,0.6c-0.7,0.1-1.8,0.1-2.5,0c-0.4-0.1-1-0.2-1.1-0.6
			c0-0.4,0.6-0.5,0.7-0.5C8.4,16.3,11.1,16.3,11.3,16.4z"/>
		
			<linearGradient id="SVGID_19_" gradientUnits="userSpaceOnUse" x1="-558.9524" y1="16.9628" x2="-562.049" y2="16.9759" gradientTransform="matrix(-1 0 0 1 -550.0771 0)">
			<stop  offset="5.617980e-03" style="stop-color:#3F3E3C"/>
			<stop  offset="0.425" style="stop-color:#3C3B39"/>
			<stop  offset="0.79" style="stop-color:#31302F"/>
			<stop  offset="1" style="stop-color:#272726"/>
		</linearGradient>
		<path class="st31" d="M11.2,16.4c0.2,0.1,0.7,0.2,0.7,0.5c-0.1,0.4-0.6,0.5-1,0.6c-0.7,0.1-1.7,0.1-2.4,0c-0.4-0.1-0.9-0.2-1-0.6
			c0-0.3,0.5-0.4,0.7-0.5C8.5,16.3,11,16.4,11.2,16.4z"/>
		
			<linearGradient id="SVGID_20_" gradientUnits="userSpaceOnUse" x1="-558.9872" y1="16.9671" x2="-561.8818" y2="16.9814" gradientTransform="matrix(-1 0 0 1 -550.0771 0)">
			<stop  offset="5.617980e-03" style="stop-color:#444341"/>
			<stop  offset="0.433" style="stop-color:#41403E"/>
			<stop  offset="0.805" style="stop-color:#363534"/>
			<stop  offset="1" style="stop-color:#2D2C2C"/>
		</linearGradient>
		<path class="st32" d="M11.1,16.5c0.2,0.1,0.7,0.2,0.7,0.5c-0.1,0.3-0.5,0.4-0.9,0.5c-0.7,0.1-1.7,0.1-2.4,0
			c-0.4-0.1-0.8-0.2-0.9-0.5c0-0.2,0.4-0.4,0.6-0.5C8.5,16.4,10.8,16.4,11.1,16.5z"/>
		
			<linearGradient id="SVGID_21_" gradientUnits="userSpaceOnUse" x1="-559.0186" y1="16.9719" x2="-561.715" y2="16.9872" gradientTransform="matrix(-1 0 0 1 -550.0771 0)">
			<stop  offset="5.617980e-03" style="stop-color:#494846"/>
			<stop  offset="0.433" style="stop-color:#464543"/>
			<stop  offset="0.805" style="stop-color:#3B3B39"/>
			<stop  offset="1" style="stop-color:#323231"/>
		</linearGradient>
		<path class="st33" d="M10.9,16.5c0.2,0.1,0.6,0.2,0.7,0.4c-0.1,0.3-0.4,0.4-0.8,0.4c-0.6,0.2-1.7,0.2-2.3,0
			c-0.3-0.1-0.7-0.2-0.8-0.4c0-0.2,0.3-0.3,0.6-0.4C8.6,16.4,10.6,16.4,10.9,16.5z"/>
		
			<linearGradient id="SVGID_22_" gradientUnits="userSpaceOnUse" x1="-559.0463" y1="16.9773" x2="-561.5485" y2="16.9932" gradientTransform="matrix(-1 0 0 1 -550.0771 0)">
			<stop  offset="5.617980e-03" style="stop-color:#4E4D4B"/>
			<stop  offset="0.4415" style="stop-color:#4B4A48"/>
			<stop  offset="0.821" style="stop-color:#403F3E"/>
			<stop  offset="1" style="stop-color:#383736"/>
		</linearGradient>
		<path class="st34" d="M10.8,16.6c0.3,0.1,0.6,0.2,0.6,0.4c-0.1,0.2-0.4,0.3-0.7,0.4c-0.6,0.2-1.7,0.2-2.3,0
			c-0.3-0.1-0.6-0.2-0.7-0.4c0-0.1,0.3-0.2,0.5-0.4C8.6,16.5,10.5,16.5,10.8,16.6z"/>
		
			<linearGradient id="SVGID_23_" gradientUnits="userSpaceOnUse" x1="-559.0704" y1="16.9834" x2="-561.3824" y2="16.9997" gradientTransform="matrix(-1 0 0 1 -550.0771 0)">
			<stop  offset="5.617980e-03" style="stop-color:#535250"/>
			<stop  offset="0.4415" style="stop-color:#504F4D"/>
			<stop  offset="0.821" style="stop-color:#454543"/>
			<stop  offset="1" style="stop-color:#3D3D3C"/>
		</linearGradient>
		<path class="st35" d="M10.7,16.6c0.3,0.1,0.6,0.3,0.6,0.3c-0.1,0.2-0.3,0.3-0.6,0.3c-0.6,0.2-1.6,0.2-2.3,0
			C8.2,17.2,8,17.1,7.9,17c0-0.1,0.2-0.2,0.5-0.3C8.7,16.5,10.3,16.5,10.7,16.6z"/>
		
			<linearGradient id="SVGID_24_" gradientUnits="userSpaceOnUse" x1="-559.0909" y1="16.9906" x2="-561.2167" y2="17.0071" gradientTransform="matrix(-1 0 0 1 -550.0771 0)">
			<stop  offset="5.617980e-03" style="stop-color:#585755"/>
			<stop  offset="0.4507" style="stop-color:#555452"/>
			<stop  offset="0.8381" style="stop-color:#4A4948"/>
			<stop  offset="1" style="stop-color:#434241"/>
		</linearGradient>
		<path class="st36" d="M10.6,16.7c0.3,0.1,0.5,0.3,0.5,0.3c-0.1,0.1-0.2,0.2-0.5,0.3c-0.6,0.2-1.6,0.2-2.2,0
			c-0.2-0.1-0.4-0.1-0.5-0.3c0,0,0.1-0.1,0.4-0.3C8.7,16.5,10.2,16.6,10.6,16.7z"/>
		
			<linearGradient id="SVGID_25_" gradientUnits="userSpaceOnUse" x1="-622.2145" y1="16.9909" x2="-624.6776" y2="17.01" gradientTransform="matrix(-0.8182 0 0 1 -500.0701 0)">
			<stop  offset="5.617980e-03" style="stop-color:#5E5D5C"/>
			<stop  offset="0.4709" style="stop-color:#5B5A59"/>
			<stop  offset="0.8761" style="stop-color:#504F4E"/>
			<stop  offset="1" style="stop-color:#4B4A49"/>
		</linearGradient>
		<path class="st37" d="M10.5,16.7C10.8,16.8,11,17,11,17c-0.1,0.1-0.2,0.2-0.5,0.3c-0.6,0.2-1.5,0.2-2.1,0C8.2,17.2,8.1,17.1,8,17
			c0,0,0.1-0.1,0.4-0.2C8.8,16.6,10.1,16.6,10.5,16.7z"/>
		
			<linearGradient id="SVGID_26_" gradientUnits="userSpaceOnUse" x1="-721.4086" y1="16.9909" x2="-724.4017" y2="17.0141" gradientTransform="matrix(-0.6364 0 0 1 -450.0631 0)">
			<stop  offset="5.617980e-03" style="stop-color:#656462"/>
			<stop  offset="0.4946" style="stop-color:#62615F"/>
			<stop  offset="0.9202" style="stop-color:#575655"/>
			<stop  offset="1" style="stop-color:#545352"/>
		</linearGradient>
		<path class="st38" d="M10.4,16.7c0.3,0.1,0.5,0.2,0.5,0.2c-0.1,0.1-0.2,0.2-0.4,0.2c-0.5,0.2-1.4,0.2-2,0
			c-0.2-0.1-0.3-0.1-0.4-0.2c0,0,0.1-0.1,0.4-0.2C8.8,16.6,10.1,16.6,10.4,16.7z"/>
		
			<linearGradient id="SVGID_27_" gradientUnits="userSpaceOnUse" x1="-899.9582" y1="16.99" x2="-903.9053" y2="17.0207" gradientTransform="matrix(-0.4545 0 0 1 -400.0561 0)">
			<stop  offset="5.617980e-03" style="stop-color:#6B6A69"/>
			<stop  offset="0.5225" style="stop-color:#686766"/>
			<stop  offset="0.9726" style="stop-color:#5D5C5B"/>
			<stop  offset="1" style="stop-color:#5C5B5A"/>
		</linearGradient>
		<path class="st39" d="M10.3,16.8c0.3,0.1,0.4,0.2,0.4,0.2c-0.1,0.1-0.2,0.2-0.4,0.2c-0.5,0.2-1.3,0.2-1.9,0
			c-0.2-0.1-0.3-0.1-0.4-0.2c0,0,0.1-0.1,0.4-0.2C8.8,16.6,10,16.7,10.3,16.8z"/>
		
			<linearGradient id="SVGID_28_" gradientUnits="userSpaceOnUse" x1="-1316.5737" y1="16.9867" x2="-1322.7469" y2="17.0347" gradientTransform="matrix(-0.2727 0 0 1 -350.0491 0)">
			<stop  offset="5.617980e-03" style="stop-color:#717170"/>
			<stop  offset="0.5386" style="stop-color:#6E6E6D"/>
			<stop  offset="1" style="stop-color:#646363"/>
		</linearGradient>
		<path class="st40" d="M10.3,16.8c0.3,0.1,0.4,0.2,0.4,0.2c-0.1,0.1-0.2,0.1-0.4,0.2c-0.5,0.1-1.3,0.1-1.7,0
			c-0.2-0.1-0.3-0.1-0.4-0.2c0,0,0.1-0.1,0.4-0.2C8.8,16.7,9.9,16.7,10.3,16.8z"/>
		
			<linearGradient id="SVGID_29_" gradientUnits="userSpaceOnUse" x1="-3399.6516" y1="16.964" x2="-3416.9548" y2="17.0985" gradientTransform="matrix(-9.090909e-02 0 0 1 -300.0421 0)">
			<stop  offset="5.617980e-03" style="stop-color:#787776"/>
			<stop  offset="0.5765" style="stop-color:#757473"/>
			<stop  offset="1" style="stop-color:#6C6C6B"/>
		</linearGradient>
		<path class="st41" d="M10.2,16.8c0.2,0.1,0.4,0.2,0.4,0.2c-0.1,0.1-0.2,0.1-0.4,0.2c-0.4,0.1-1.2,0.1-1.6,0
			c-0.2,0-0.3-0.1-0.4-0.2c0,0,0.1-0.1,0.3-0.2C8.8,16.7,9.9,16.7,10.2,16.8z"/>
		
			<linearGradient id="SVGID_30_" gradientUnits="userSpaceOnUse" x1="2857.3025" y1="16.9642" x2="2841.2153" y2="17.0893" gradientTransform="matrix(9.090909e-02 0 0 1 -250.035 0)">
			<stop  offset="5.617980e-03" style="stop-color:#7E7E7D"/>
			<stop  offset="0.6247" style="stop-color:#7B7B7A"/>
			<stop  offset="1" style="stop-color:#757474"/>
		</linearGradient>
		<path class="st42" d="M10.1,16.8c0.2,0.1,0.4,0.1,0.4,0.2c-0.1,0.1-0.2,0.1-0.3,0.1c-0.4,0.1-1.1,0.1-1.5,0
			c-0.2,0-0.3-0.1-0.3-0.1c0,0,0.1-0.1,0.3-0.1C8.8,16.8,9.8,16.8,10.1,16.8z"/>
		
			<linearGradient id="SVGID_31_" gradientUnits="userSpaceOnUse" x1="768.883" y1="16.9902" x2="763.926" y2="17.0288" gradientTransform="matrix(0.2727 0 0 1 -200.028 0)">
			<stop  offset="5.617980e-03" style="stop-color:#858483"/>
			<stop  offset="0.6894" style="stop-color:#828180"/>
			<stop  offset="1" style="stop-color:#7D7D7C"/>
		</linearGradient>
		<path class="st43" d="M10,16.9c0.2,0,0.3,0.1,0.3,0.1c-0.1,0.1-0.2,0.1-0.3,0.1c-0.4,0.1-1,0.1-1.4,0c-0.1,0-0.2-0.1-0.3-0.1
			c0,0,0.1-0.1,0.3-0.1C8.9,16.8,9.8,16.8,10,16.9z"/>
		
			<linearGradient id="SVGID_32_" gradientUnits="userSpaceOnUse" x1="351.1991" y1="16.996" x2="348.4681" y2="17.0172" gradientTransform="matrix(0.4545 0 0 1 -150.021 0)">
			<stop  offset="5.617980e-03" style="stop-color:#8B8B8A"/>
			<stop  offset="0.7829" style="stop-color:#888887"/>
			<stop  offset="1" style="stop-color:#858585"/>
		</linearGradient>
		<path class="st44" d="M9.9,16.9c0.2,0,0.3,0.1,0.3,0.1c-0.1,0-0.1,0.1-0.3,0.1c-0.3,0.1-0.9,0.1-1.3,0c-0.1,0-0.2-0.1-0.3-0.1
			c0,0,0.1,0,0.3-0.1C8.9,16.8,9.7,16.8,9.9,16.9z"/>
		
			<linearGradient id="SVGID_33_" gradientUnits="userSpaceOnUse" x1="172.1917" y1="16.9989" x2="170.4147" y2="17.0127" gradientTransform="matrix(0.6364 0 0 1 -100.014 0)">
			<stop  offset="5.617980e-03" style="stop-color:#919191"/>
			<stop  offset="0.9366" style="stop-color:#8E8E8E"/>
			<stop  offset="1" style="stop-color:#8D8D8D"/>
		</linearGradient>
		<path class="st45" d="M9.9,16.9c0.2,0,0.3,0.1,0.3,0.1c-0.1,0-0.1,0.1-0.3,0.1c-0.3,0.1-0.9,0.1-1.2,0c-0.1,0-0.2,0-0.3-0.1
			c0,0,0.1,0,0.2-0.1C8.9,16.9,9.6,16.9,9.9,16.9z"/>
		
			<linearGradient id="SVGID_34_" gradientUnits="userSpaceOnUse" x1="72.7431" y1="17.0009" x2="71.4962" y2="17.0106" gradientTransform="matrix(0.8182 0 0 1 -50.007 0)">
			<stop  offset="5.617980e-03" style="stop-color:#989897"/>
			<stop  offset="1" style="stop-color:#969696"/>
		</linearGradient>
		<path class="st46" d="M9.8,16.9C9.9,17,10,17,10,17c-0.1,0-0.1,0-0.2,0.1c-0.3,0-0.8,0-1.1,0c-0.1,0-0.2,0-0.2-0.1
			c0,0,0.1,0,0.2-0.1C8.9,16.9,9.6,16.9,9.8,16.9z"/>
		<path class="st24" d="M9.7,17c0.1,0,0.2,0,0.2,0C9.9,17,9.8,17,9.7,17C9.5,17.1,9,17.1,8.8,17c-0.1,0-0.2,0-0.2,0c0,0,0,0,0.2,0
			C8.9,16.9,9.5,16.9,9.7,17z"/>
	</g>
	<g>
		
			<linearGradient id="SVGID_35_" gradientUnits="userSpaceOnUse" x1="-559.3049" y1="15.8423" x2="-562.416" y2="15.5983" gradientTransform="matrix(-1 0 0 1 -550.0771 0)">
			<stop  offset="5.617980e-03" style="stop-color:#1F1E1D"/>
			<stop  offset="0.4175" style="stop-color:#1C1B1A"/>
			<stop  offset="0.776" style="stop-color:#11100F"/>
			<stop  offset="1" style="stop-color:#060605"/>
		</linearGradient>
		<path class="st47" d="M8.9,15.2c0,0-0.7,0-0.9,0.4c-0.1,0.2-0.1,0.3,0,0.4c0.1,0.1,0.2,0.2,0.2,0.2c0.1,0,0.8,0.2,1.8,0.2
			c1,0,1.6-0.1,1.8-0.2c0.1,0,0.2-0.1,0.2-0.2c0.1-0.1,0.1-0.2,0-0.4c-0.2-0.4-0.9-0.4-0.9-0.4H8.9z"/>
		
			<linearGradient id="SVGID_36_" gradientUnits="userSpaceOnUse" x1="-622.4702" y1="15.8632" x2="-625.9915" y2="15.5871" gradientTransform="matrix(-0.8182 0 0 1 -500.0701 0)">
			<stop  offset="5.617980e-03" style="stop-color:#2B2A29"/>
			<stop  offset="0.433" style="stop-color:#282726"/>
			<stop  offset="0.805" style="stop-color:#1D1D1C"/>
			<stop  offset="1" style="stop-color:#141413"/>
		</linearGradient>
		<path class="st48" d="M8.1,15.6C8,15.8,8,15.9,8,16c0.1,0.1,0.2,0.1,0.2,0.2c0.1,0,0.7,0.1,1.7,0.1c1,0,1.5-0.1,1.7-0.1
			c0,0,0,0,0.1,0c0.1,0,0.1-0.1,0.2-0.1c0.1-0.1,0.1-0.2,0-0.4c-0.2-0.3-0.9-0.3-0.9-0.3c0,0-1,0-1.1,0c0,0-1,0-1,0
			C8.9,15.3,8.2,15.3,8.1,15.6z"/>
		
			<linearGradient id="SVGID_37_" gradientUnits="userSpaceOnUse" x1="-721.7297" y1="15.8899" x2="-725.8967" y2="15.5631" gradientTransform="matrix(-0.6364 0 0 1 -450.0631 0)">
			<stop  offset="5.617980e-03" style="stop-color:#363534"/>
			<stop  offset="0.4605" style="stop-color:#333231"/>
			<stop  offset="0.8564" style="stop-color:#282827"/>
			<stop  offset="1" style="stop-color:#222221"/>
		</linearGradient>
		<path class="st49" d="M8.2,15.7c-0.1,0.1-0.1,0.3,0,0.3c0.1,0.1,0.2,0.1,0.2,0.1c0.1,0,0.7,0.1,1.5,0.1c0.9,0,1.4-0.1,1.5-0.1
			c0,0,0,0,0.1,0c0,0,0.1-0.1,0.1-0.1c0-0.1,0.1-0.2,0-0.3c-0.2-0.3-0.8-0.3-0.8-0.3c0,0-1,0-1,0c0,0-0.9,0-0.9,0
			C8.9,15.4,8.3,15.4,8.2,15.7z"/>
		
			<linearGradient id="SVGID_38_" gradientUnits="userSpaceOnUse" x1="-900.3964" y1="15.9299" x2="-905.7275" y2="15.5118" gradientTransform="matrix(-0.4545 0 0 1 -400.0561 0)">
			<stop  offset="5.617980e-03" style="stop-color:#424140"/>
			<stop  offset="0.4709" style="stop-color:#3F3E3D"/>
			<stop  offset="0.8761" style="stop-color:#343433"/>
			<stop  offset="1" style="stop-color:#2F2F2F"/>
		</linearGradient>
		<path class="st50" d="M8.3,15.7c-0.1,0.1-0.1,0.2,0,0.3c0.1,0.1,0.2,0.1,0.2,0.1c0.1,0,0.6,0.1,1.4,0.1c0.8,0,1.3-0.1,1.4-0.1
			c0,0,0,0,0.1,0c0,0,0.1-0.1,0.1-0.1c0-0.1,0-0.2,0-0.3c-0.1-0.3-0.7-0.3-0.7-0.3c0,0-0.9,0-0.9,0c0,0-0.8,0-0.8,0
			C9,15.4,8.4,15.4,8.3,15.7z"/>
		
			<linearGradient id="SVGID_39_" gradientUnits="userSpaceOnUse" x1="-1317.2841" y1="16.0091" x2="-1325.3353" y2="15.3776" gradientTransform="matrix(-0.2727 0 0 1 -350.0491 0)">
			<stop  offset="5.617980e-03" style="stop-color:#4D4D4C"/>
			<stop  offset="0.5078" style="stop-color:#4A4A49"/>
			<stop  offset="0.9452" style="stop-color:#3F3F3F"/>
			<stop  offset="1" style="stop-color:#3D3D3D"/>
		</linearGradient>
		<path class="st51" d="M8.3,15.7c-0.1,0.1-0.1,0.2-0.1,0.3c0.1,0.1,0.1,0.1,0.2,0.1c0.1,0,0.6,0.1,1.3,0.1c0.7,0,1.2-0.1,1.3-0.1
			c0,0,0,0,0.1,0c0,0,0.1-0.1,0.1-0.1c0-0.1,0-0.2,0-0.3c-0.1-0.2-0.6-0.2-0.7-0.2c0,0-0.8,0-0.8,0c0,0-0.7,0-0.7,0
			C9,15.5,8.5,15.5,8.3,15.7z"/>
		
			<linearGradient id="SVGID_40_" gradientUnits="userSpaceOnUse" x1="-3401.7131" y1="16.3182" x2="-3423.3818" y2="14.6187" gradientTransform="matrix(-9.090909e-02 0 0 1 -300.0421 0)">
			<stop  offset="5.617980e-03" style="stop-color:#595858"/>
			<stop  offset="0.5386" style="stop-color:#565555"/>
			<stop  offset="1" style="stop-color:#4B4B4B"/>
		</linearGradient>
		<path class="st52" d="M8.4,15.7c-0.1,0.1-0.1,0.2-0.1,0.2c0.1,0.1,0.1,0.1,0.2,0.1c0.1,0,0.5,0.1,1.1,0.1c0.7,0,1.1-0.1,1.2-0.1
			c0,0,0,0,0,0c0,0,0.1,0,0.1-0.1c0-0.1,0-0.1-0.1-0.2c-0.1-0.2-0.5-0.2-0.6-0.2c0,0-0.7,0-0.7,0c0,0-0.6,0-0.6,0
			C9,15.5,8.5,15.5,8.4,15.7z"/>
		
			<linearGradient id="SVGID_41_" gradientUnits="userSpaceOnUse" x1="2861.0232" y1="16.2711" x2="2841.8149" y2="14.7645" gradientTransform="matrix(9.090909e-02 0 0 1 -250.035 0)">
			<stop  offset="5.617980e-03" style="stop-color:#646463"/>
			<stop  offset="0.599" style="stop-color:#616160"/>
			<stop  offset="1" style="stop-color:#595958"/>
		</linearGradient>
		<path class="st53" d="M8.5,15.8c-0.1,0.1-0.1,0.2-0.1,0.2c0,0,0.1,0.1,0.2,0.1c0.1,0,0.4,0.1,1,0.1c0.6,0,0.9-0.1,1.1-0.1
			c0,0,0,0,0,0c0,0,0,0,0.1-0.1c0,0,0-0.1-0.1-0.2c-0.1-0.2-0.5-0.2-0.5-0.2c0,0-0.6,0-0.6,0c0,0-0.5,0-0.6,0
			C9,15.6,8.6,15.6,8.5,15.8z"/>
		
			<linearGradient id="SVGID_42_" gradientUnits="userSpaceOnUse" x1="769.8893" y1="15.9919" x2="764.2947" y2="15.5531" gradientTransform="matrix(0.2727 0 0 1 -200.028 0)">
			<stop  offset="5.617980e-03" style="stop-color:#706F6F"/>
			<stop  offset="0.6545" style="stop-color:#6D6C6C"/>
			<stop  offset="1" style="stop-color:#676766"/>
		</linearGradient>
		<path class="st54" d="M8.6,15.8c-0.1,0.1-0.1,0.1-0.1,0.2c0,0,0.1,0.1,0.2,0.1c0.1,0,0.4,0.1,0.8,0.1c0.5,0,0.8-0.1,0.9-0.1
			c0,0,0,0,0,0c0,0,0,0,0-0.1c0,0,0-0.1-0.1-0.2c-0.1-0.1-0.4-0.1-0.4-0.1c0,0-0.5,0-0.5,0c0,0-0.5,0-0.5,0
			C9,15.7,8.7,15.7,8.6,15.8z"/>
		
			<linearGradient id="SVGID_43_" gradientUnits="userSpaceOnUse" x1="351.6646" y1="15.9479" x2="348.7827" y2="15.7219" gradientTransform="matrix(0.4545 0 0 1 -150.021 0)">
			<stop  offset="5.617980e-03" style="stop-color:#7B7B7B"/>
			<stop  offset="0.7313" style="stop-color:#787878"/>
			<stop  offset="1" style="stop-color:#757574"/>
		</linearGradient>
		<path class="st55" d="M8.7,15.8c-0.1,0.1-0.1,0.1-0.1,0.1c0,0,0.1,0.1,0.2,0.1c0.1,0,0.3,0.1,0.7,0.1c0.4,0,0.7,0,0.8-0.1
			c0,0,0,0,0,0c0,0,0,0,0-0.1c0,0,0-0.1-0.1-0.1c-0.1-0.1-0.3-0.1-0.4-0.1c0,0-0.4,0-0.4,0c0,0-0.4,0-0.4,0
			C9,15.7,8.8,15.7,8.7,15.8z"/>
		
			<linearGradient id="SVGID_44_" gradientUnits="userSpaceOnUse" x1="172.4299" y1="15.9395" x2="170.7037" y2="15.8041" gradientTransform="matrix(0.6364 0 0 1 -100.014 0)">
			<stop  offset="5.617980e-03" style="stop-color:#878787"/>
			<stop  offset="0.8486" style="stop-color:#848484"/>
			<stop  offset="1" style="stop-color:#828282"/>
		</linearGradient>
		<path class="st56" d="M8.8,15.9c-0.1,0-0.1,0.1-0.1,0.1c0,0,0.1,0,0.2,0.1c0.1,0,0.3,0,0.6,0c0.4,0,0.6,0,0.7-0.1c0,0,0,0,0,0
			c0,0,0,0,0,0c0,0,0-0.1-0.1-0.1c0-0.1-0.2-0.1-0.3-0.1c0,0-0.3,0-0.4,0c0,0-0.3,0-0.3,0C9,15.8,8.9,15.8,8.8,15.9z"/>
		
			<linearGradient id="SVGID_45_" gradientUnits="userSpaceOnUse" x1="72.8653" y1="15.9433" x2="71.769" y2="15.8573" gradientTransform="matrix(0.8182 0 0 1 -50.007 0)">
			<stop  offset="5.617980e-03" style="stop-color:#929292"/>
			<stop  offset="1" style="stop-color:#909090"/>
		</linearGradient>
		<path class="st57" d="M8.9,15.9c-0.1,0-0.1,0-0.1,0.1c0,0,0.1,0,0.2,0c0.1,0,0.2,0,0.4,0c0.3,0,0.5,0,0.6,0c0,0,0,0,0,0
			c0,0,0,0,0,0c0,0-0.1,0-0.1-0.1c0,0-0.1,0-0.2,0c0,0-0.2,0-0.3,0c-0.1,0-0.2,0-0.3,0C9.1,15.8,8.9,15.8,8.9,15.9z"/>
		<path class="st24" d="M9,15.9c-0.1,0-0.1,0-0.1,0C8.9,15.9,9,16,9,15.9C9.1,16,9.2,16,9.3,16c0.2,0,0.4,0,0.5,0c0,0-0.1,0-0.1,0
			c0,0-0.2,0-0.3,0C9.2,15.9,9,15.9,9,15.9z"/>
	</g>
	<g>
		<path class="st58" d="M8.4,8.6c0,0,1.1,1,1,3.3c-0.2,2.4-0.6,3.4-0.6,3.4S9,15.5,10,15.5c0.9,0,1.2-0.1,1.2-0.1s-0.4-1.1-0.6-3.5
			c-0.2-2.4,1-3.3,1-3.3H8.4z"/>
		
			<linearGradient id="SVGID_46_" gradientUnits="userSpaceOnUse" x1="73.1442" y1="14.5974" x2="73.3618" y2="7.255" gradientTransform="matrix(0.8182 0 0 1 -50.007 0)">
			<stop  offset="0" style="stop-color:#282726"/>
			<stop  offset="1" style="stop-color:#1E1D1C"/>
		</linearGradient>
		<path class="st59" d="M8.5,8.7l2.9,0c0,0-1.1,1-0.9,3.2c0.2,2.3,0.5,3.5,0.5,3.5c0,0-0.2,0.1-1.1,0.1c-0.9,0-1.1-0.1-1.1-0.1
			c0,0,0.4-1.1,0.6-3.4c0-0.5,0-1-0.1-1.4C9.2,9.4,8.5,8.8,8.5,8.7z"/>
		
			<linearGradient id="SVGID_47_" gradientUnits="userSpaceOnUse" x1="172.6485" y1="14.6109" x2="172.8631" y2="7.3681" gradientTransform="matrix(0.6364 0 0 1 -100.014 0)">
			<stop  offset="0" style="stop-color:#343332"/>
			<stop  offset="1" style="stop-color:#1F1E1D"/>
		</linearGradient>
		<path class="st60" d="M8.6,8.8l2.7,0c0,0-1,1-0.9,3.1c0.1,2.2,0.5,3.5,0.5,3.5c0,0-0.2,0.1-1,0.1c-0.8,0-1-0.1-1-0.1
			c0,0,0.4-1.2,0.5-3.3c0-0.5,0-1,0-1.4C9.2,9.5,8.7,9,8.6,8.8z"/>
		
			<linearGradient id="SVGID_48_" gradientUnits="userSpaceOnUse" x1="351.7539" y1="14.6269" x2="351.9659" y2="7.4709" gradientTransform="matrix(0.4545 0 0 1 -150.021 0)">
			<stop  offset="0" style="stop-color:#3F3F3E"/>
			<stop  offset="1" style="stop-color:#21201F"/>
		</linearGradient>
		<path class="st61" d="M8.7,8.9l2.5,0c0,0-0.9,1.1-0.8,3c0.1,2.2,0.5,3.5,0.5,3.5c0,0-0.2,0.1-0.9,0.1c-0.7,0-0.9-0.1-0.9-0.1
			c0,0,0.4-1.2,0.5-3.3c0-0.5,0-1,0-1.3C9.3,9.7,8.8,9.1,8.7,8.9z"/>
		
			<linearGradient id="SVGID_49_" gradientUnits="userSpaceOnUse" x1="769.6629" y1="14.653" x2="769.8736" y2="7.5425" gradientTransform="matrix(0.2727 0 0 1 -200.028 0)">
			<stop  offset="0" style="stop-color:#4B4B4A"/>
			<stop  offset="1" style="stop-color:#232220"/>
		</linearGradient>
		<path class="st62" d="M8.8,9L11,9c0,0-0.8,1.1-0.7,2.8c0.1,2.1,0.4,3.5,0.4,3.5c-0.1,0-0.2,0.1-0.9,0.1c-0.7,0-0.9-0.1-0.9-0.1
			c0-0.1,0.4-1.3,0.5-3.2c0-0.5,0-1,0-1.3C9.3,9.9,8.9,9.3,8.8,9z"/>
		
			<linearGradient id="SVGID_50_" gradientUnits="userSpaceOnUse" x1="2859.1956" y1="14.7807" x2="2859.4148" y2="7.3882" gradientTransform="matrix(9.090909e-02 0 0 1 -250.035 0)">
			<stop  offset="0" style="stop-color:#575756"/>
			<stop  offset="1" style="stop-color:#252322"/>
		</linearGradient>
		<path class="st63" d="M8.9,9.1l2,0c0,0-0.7,1.2-0.7,2.7c0.1,2.1,0.4,3.6,0.4,3.6c-0.1,0-0.2,0.1-0.8,0.1c-0.6,0-0.8-0.1-0.8-0.1
			c0-0.1,0.3-1.3,0.5-3.1c0-0.5,0-1,0-1.3C9.4,10.1,9,9.5,8.9,9.1z"/>
		
			<linearGradient id="SVGID_51_" gradientUnits="userSpaceOnUse" x1="-3409.4014" y1="14.7713" x2="-3409.1877" y2="7.5557" gradientTransform="matrix(-9.090909e-02 0 0 1 -300.0421 0)">
			<stop  offset="0" style="stop-color:#636262"/>
			<stop  offset="1" style="stop-color:#262523"/>
		</linearGradient>
		<path class="st64" d="M9,9.2l1.8,0c0,0-0.7,1.2-0.6,2.6c0.1,2,0.4,3.6,0.4,3.6c-0.1,0-0.2,0.1-0.7,0c-0.5,0-0.7-0.1-0.7-0.1
			c0.1-0.1,0.3-1.4,0.5-3.1c0-0.6,0-1,0-1.3C9.5,10.3,9.2,9.7,9,9.2z"/>
		
			<linearGradient id="SVGID_52_" gradientUnits="userSpaceOnUse" x1="-1319.8623" y1="14.682" x2="-1319.663" y2="7.9558" gradientTransform="matrix(-0.2727 0 0 1 -350.0491 0)">
			<stop  offset="0" style="stop-color:#6F6E6E"/>
			<stop  offset="1" style="stop-color:#282625"/>
		</linearGradient>
		<path class="st65" d="M9.1,9.3l1.5,0c0,0-0.6,1.2-0.5,2.5c0.1,1.9,0.3,3.6,0.3,3.6c-0.1,0-0.2,0-0.7,0c-0.5,0-0.6-0.1-0.6-0.1
			c0.1-0.1,0.3-1.5,0.4-3c0-0.6,0-1,0-1.2C9.5,10.4,9.3,9.9,9.1,9.3z"/>
		
			<linearGradient id="SVGID_53_" gradientUnits="userSpaceOnUse" x1="-901.8848" y1="14.6857" x2="-901.6907" y2="8.1345" gradientTransform="matrix(-0.4545 0 0 1 -400.0561 0)">
			<stop  offset="0" style="stop-color:#7B7A7A"/>
			<stop  offset="1" style="stop-color:#2A2826"/>
		</linearGradient>
		<path class="st66" d="M9.2,9.4l1.3,0c0,0-0.5,1.3-0.4,2.4c0.1,1.9,0.3,3.6,0.3,3.6c-0.1,0-0.3,0-0.6,0c-0.4,0-0.6-0.1-0.6-0.1
			c0.1-0.1,0.3-1.5,0.4-3c0-0.6,0.1-1,0-1.2C9.6,10.6,9.4,10.1,9.2,9.4z"/>
		
			<linearGradient id="SVGID_54_" gradientUnits="userSpaceOnUse" x1="-722.7379" y1="14.6969" x2="-722.5478" y2="8.2816" gradientTransform="matrix(-0.6364 0 0 1 -450.0631 0)">
			<stop  offset="0" style="stop-color:#868686"/>
			<stop  offset="1" style="stop-color:#2C2A28"/>
		</linearGradient>
		<path class="st67" d="M9.3,9.5l1.1,0c0,0-0.4,1.3-0.4,2.3c0.1,1.8,0.3,3.6,0.3,3.6c-0.1,0-0.3,0-0.5,0c-0.3,0-0.5-0.1-0.5-0.1
			c0.1-0.1,0.3-1.6,0.4-2.9c0-0.6,0.1-1,0-1.2C9.7,10.8,9.5,10.3,9.3,9.5z"/>
		
			<linearGradient id="SVGID_55_" gradientUnits="userSpaceOnUse" x1="-623.2113" y1="14.71" x2="-623.0249" y2="8.4179" gradientTransform="matrix(-0.8182 0 0 1 -500.0701 0)">
			<stop  offset="0" style="stop-color:#929292"/>
			<stop  offset="1" style="stop-color:#2D2B29"/>
		</linearGradient>
		<path class="st68" d="M9.4,9.6l0.8,0c0,0-0.3,1.4-0.3,2.1c0,1.8,0.3,3.7,0.3,3.7c-0.1,0-0.3,0-0.4,0c-0.3,0-0.4,0-0.4,0
			c0.1-0.1,0.3-1.6,0.4-2.8c0-0.6,0.1-1,0.1-1.2C9.7,11,9.6,10.4,9.4,9.6z"/>
		
			<linearGradient id="SVGID_56_" gradientUnits="userSpaceOnUse" x1="-559.8759" y1="14.725" x2="-559.6929" y2="8.5491" gradientTransform="matrix(-1 0 0 1 -550.0771 0)">
			<stop  offset="0" style="stop-color:#9E9E9E"/>
			<stop  offset="1" style="stop-color:#2F2D2B"/>
		</linearGradient>
		<path class="st69" d="M9.9,11.8c0,1.7,0.2,3.7,0.2,3.7c-0.4,0-0.7,0-0.7,0c0.2-0.2,0.4-3.6,0.4-3.9c0-0.3,0-0.8-0.3-1.8l0.6,0
			C10.1,9.7,9.8,11.2,9.9,11.8z"/>
	</g>
	
		<linearGradient id="SVGID_57_" gradientUnits="userSpaceOnUse" x1="-561.6785" y1="8.5126" x2="-558.4757" y2="8.5126" gradientTransform="matrix(-1 0 0 1 -550.0771 0)">
		<stop  offset="3.932580e-02" style="stop-color:#0A0A09"/>
		<stop  offset="0.5899" style="stop-color:#7E7C79"/>
		<stop  offset="1" style="stop-color:#2F2D2B"/>
	</linearGradient>
	<path class="st70" d="M9.1,8.3L8.4,8.6c0,0,0,0.2,1.6,0.2c1.6,0,1.6-0.2,1.6-0.2l-0.7-0.3H9.1z"/>
	<g>
		<path class="st71" d="M8.1,7.9c0,0.4,0.9,0.5,1.9,0.5c1.1,0,1.9-0.2,1.9-0.5c0-0.4-0.9-0.5-1.9-0.5C8.9,7.3,8.1,7.5,8.1,7.9z"/>
		
			<linearGradient id="SVGID_58_" gradientUnits="userSpaceOnUse" x1="91.4046" y1="7.2025" x2="91.4046" y2="8.3961" gradientTransform="matrix(0.7778 0 0 1 -61.1197 0)">
			<stop  offset="0" style="stop-color:#1D1C1A"/>
			<stop  offset="0.6067" style="stop-color:#201F1D"/>
		</linearGradient>
		<path class="st72" d="M10,7.4c-1,0-1.8,0.1-1.8,0.5C8.1,8.2,9,8.3,10,8.3c1,0,1.8-0.1,1.8-0.5C11.8,7.5,11,7.4,10,7.4z"/>
		
			<linearGradient id="SVGID_59_" gradientUnits="userSpaceOnUse" x1="237.9328" y1="7.2567" x2="237.9328" y2="8.3675" gradientTransform="matrix(0.5556 0 0 1 -122.2394 0)">
			<stop  offset="0" style="stop-color:#201F1D"/>
			<stop  offset="0.6067" style="stop-color:#272523"/>
		</linearGradient>
		<path class="st73" d="M9.9,7.4c-1,0-1.8,0.1-1.8,0.5c0,0.3,0.8,0.5,1.8,0.5c1,0,1.8-0.1,1.8-0.5C11.7,7.5,10.9,7.4,9.9,7.4z"/>
		
			<linearGradient id="SVGID_60_" gradientUnits="userSpaceOnUse" x1="579.832" y1="7.311" x2="579.832" y2="8.339" gradientTransform="matrix(0.3333 0 0 1 -183.359 0)">
			<stop  offset="0" style="stop-color:#23211F"/>
			<stop  offset="0.6067" style="stop-color:#2D2C2A"/>
		</linearGradient>
		<path class="st74" d="M9.9,7.5c-1,0-1.7,0.1-1.7,0.4c0,0.3,0.8,0.4,1.7,0.4c1,0,1.7-0.1,1.7-0.4C11.6,7.6,10.9,7.5,9.9,7.5z"/>
		
			<linearGradient id="SVGID_61_" gradientUnits="userSpaceOnUse" x1="2289.3279" y1="7.3653" x2="2289.3279" y2="8.3104" gradientTransform="matrix(0.1111 0 0 1 -244.4787 0)">
			<stop  offset="0" style="stop-color:#262422"/>
			<stop  offset="0.6067" style="stop-color:#333230"/>
		</linearGradient>
		<path class="st75" d="M9.9,7.5C9,7.5,8.2,7.6,8.2,7.9c0,0.3,0.7,0.4,1.7,0.4c0.9,0,1.7-0.1,1.7-0.4C11.6,7.6,10.8,7.5,9.9,7.5z"/>
		
			<linearGradient id="SVGID_62_" gradientUnits="userSpaceOnUse" x1="-2839.1599" y1="7.4195" x2="-2839.1599" y2="8.2818" gradientTransform="matrix(-0.1111 0 0 1 -305.5984 0)">
			<stop  offset="0" style="stop-color:#282725"/>
			<stop  offset="0.6067" style="stop-color:#3A3836"/>
		</linearGradient>
		<path class="st76" d="M9.9,7.5C9,7.5,8.3,7.6,8.3,7.9c0,0.3,0.7,0.4,1.6,0.4c0.9,0,1.6-0.1,1.6-0.4C11.5,7.6,10.7,7.5,9.9,7.5z"/>
		
			<linearGradient id="SVGID_63_" gradientUnits="userSpaceOnUse" x1="-1129.6639" y1="7.4738" x2="-1129.6639" y2="8.2533" gradientTransform="matrix(-0.3333 0 0 1 -366.7181 0)">
			<stop  offset="0" style="stop-color:#2B2A28"/>
			<stop  offset="0.6067" style="stop-color:#403E3C"/>
		</linearGradient>
		<path class="st77" d="M9.8,7.6C9,7.6,8.3,7.7,8.3,7.9c0,0.2,0.7,0.3,1.5,0.3c0.9,0,1.5-0.1,1.5-0.3C11.4,7.7,10.7,7.6,9.8,7.6z"/>
		
			<linearGradient id="SVGID_64_" gradientUnits="userSpaceOnUse" x1="-787.7648" y1="7.528" x2="-787.7648" y2="8.2247" gradientTransform="matrix(-0.5556 0 0 1 -427.8377 0)">
			<stop  offset="0" style="stop-color:#2E2C2A"/>
			<stop  offset="0.6067" style="stop-color:#464543"/>
		</linearGradient>
		<path class="st78" d="M9.8,7.6C9,7.6,8.3,7.7,8.3,7.9c0,0.2,0.7,0.3,1.5,0.3c0.8,0,1.5-0.1,1.5-0.3C11.3,7.7,10.6,7.6,9.8,7.6z"/>
		
			<linearGradient id="SVGID_65_" gradientUnits="userSpaceOnUse" x1="-641.2365" y1="7.5823" x2="-641.2365" y2="8.1961" gradientTransform="matrix(-0.7778 0 0 1 -488.9574 0)">
			<stop  offset="0" style="stop-color:#312F2D"/>
			<stop  offset="0.6067" style="stop-color:#4D4B49"/>
		</linearGradient>
		<path class="st79" d="M9.8,7.7C9,7.7,8.4,7.8,8.4,7.9c0,0.2,0.6,0.3,1.4,0.3c0.8,0,1.4-0.1,1.4-0.3C11.2,7.7,10.6,7.7,9.8,7.7z"/>
		
			<linearGradient id="SVGID_66_" gradientUnits="userSpaceOnUse" x1="-559.832" y1="7.6365" x2="-559.832" y2="8.1676" gradientTransform="matrix(-1 0 0 1 -550.0771 0)">
			<stop  offset="0" style="stop-color:#343230"/>
			<stop  offset="0.6067" style="stop-color:#53514F"/>
		</linearGradient>
		<path class="st80" d="M8.4,7.9c0,0.1,0.6,0.2,1.4,0.2c0.7,0,1.4,0,1.4-0.2c0-0.2-0.6-0.2-1.4-0.2C9,7.7,8.4,7.8,8.4,7.9z"/>
		
			<linearGradient id="SVGID_67_" gradientUnits="userSpaceOnUse" x1="-641.171" y1="7.6691" x2="-641.171" y2="8.148" gradientTransform="matrix(-0.7778 0 0 1 -488.9574 0)">
			<stop  offset="0" style="stop-color:#3F3D3B"/>
			<stop  offset="0.6067" style="stop-color:#5A5857"/>
		</linearGradient>
		<path class="st81" d="M8.5,7.9c0,0.1,0.6,0.2,1.3,0.2c0.7,0,1.3,0,1.3-0.2c0-0.2-0.6-0.2-1.3-0.2C9,7.7,8.5,7.8,8.5,7.9z"/>
		
			<linearGradient id="SVGID_68_" gradientUnits="userSpaceOnUse" x1="-787.5813" y1="7.7017" x2="-787.5813" y2="8.1284" gradientTransform="matrix(-0.5556 0 0 1 -427.8377 0)">
			<stop  offset="0" style="stop-color:#4A4846"/>
			<stop  offset="0.6067" style="stop-color:#62605E"/>
		</linearGradient>
		<path class="st82" d="M8.5,7.9c0,0.1,0.5,0.2,1.2,0.2c0.6,0,1.2,0,1.2-0.2c0-0.1-0.5-0.2-1.2-0.2C9.1,7.8,8.5,7.8,8.5,7.9z"/>
		
			<linearGradient id="SVGID_69_" gradientUnits="userSpaceOnUse" x1="-1129.2053" y1="7.7344" x2="-1129.2053" y2="8.1089" gradientTransform="matrix(-0.3333 0 0 1 -366.7181 0)">
			<stop  offset="0" style="stop-color:#545351"/>
			<stop  offset="0.6067" style="stop-color:#696766"/>
		</linearGradient>
		<path class="st83" d="M8.6,7.9c0,0.1,0.5,0.2,1.1,0.2c0.6,0,1.1,0,1.1-0.2c0-0.1-0.5-0.2-1.1-0.2C9.1,7.8,8.6,7.8,8.6,7.9z"/>
		
			<linearGradient id="SVGID_70_" gradientUnits="userSpaceOnUse" x1="-2837.3254" y1="7.767" x2="-2837.3254" y2="8.0893" gradientTransform="matrix(-0.1111 0 0 1 -305.5984 0)">
			<stop  offset="0" style="stop-color:#5F5E5C"/>
			<stop  offset="0.6067" style="stop-color:#706F6E"/>
		</linearGradient>
		<path class="st84" d="M8.7,7.9c0,0.1,0.4,0.1,1,0.1c0.5,0,1,0,1-0.1c0-0.1-0.4-0.1-1-0.1C9.1,7.8,8.7,7.9,8.7,7.9z"/>
		
			<linearGradient id="SVGID_71_" gradientUnits="userSpaceOnUse" x1="2287.0349" y1="7.7996" x2="2287.0349" y2="8.0697" gradientTransform="matrix(0.1111 0 0 1 -244.4787 0)">
			<stop  offset="0" style="stop-color:#6A6868"/>
			<stop  offset="0.6067" style="stop-color:#787675"/>
		</linearGradient>
		<path class="st85" d="M8.8,7.9c0,0.1,0.4,0.1,0.9,0.1c0.5,0,0.9,0,0.9-0.1c0-0.1-0.4-0.1-0.9-0.1C9.1,7.8,8.8,7.9,8.8,7.9z"/>
		
			<linearGradient id="SVGID_72_" gradientUnits="userSpaceOnUse" x1="578.9148" y1="7.8322" x2="578.9148" y2="8.0502" gradientTransform="matrix(0.3333 0 0 1 -183.359 0)">
			<stop  offset="0" style="stop-color:#757373"/>
			<stop  offset="0.6067" style="stop-color:#7F7E7D"/>
		</linearGradient>
		<path class="st86" d="M8.8,8C8.8,8,9.2,8,9.6,8C10,8,10.4,8,10.4,8c0-0.1-0.4-0.1-0.8-0.1C9.2,7.9,8.8,7.9,8.8,8z"/>
		
			<linearGradient id="SVGID_73_" gradientUnits="userSpaceOnUse" x1="237.2908" y1="7.8648" x2="237.2908" y2="8.0306" gradientTransform="matrix(0.5556 0 0 1 -122.2394 0)">
			<stop  offset="0" style="stop-color:#7F7E7E"/>
			<stop  offset="0.6067" style="stop-color:#868585"/>
		</linearGradient>
		<path class="st87" d="M8.9,8C8.9,8,9.2,8,9.6,8C10,8,10.3,8,10.3,8c0,0-0.3-0.1-0.7-0.1C9.2,7.9,8.9,7.9,8.9,8z"/>
		
			<linearGradient id="SVGID_74_" gradientUnits="userSpaceOnUse" x1="90.8805" y1="7.8974" x2="90.8805" y2="8.011" gradientTransform="matrix(0.7778 0 0 1 -61.1197 0)">
			<stop  offset="0" style="stop-color:#8A8989"/>
			<stop  offset="0.6067" style="stop-color:#8E8D8C"/>
		</linearGradient>
		<path class="st88" d="M9,8c0,0,0.3,0,0.6,0c0.3,0,0.6,0,0.6,0c0,0-0.3,0-0.6,0C9.2,7.9,9,7.9,9,8z"/>
		<path class="st89" d="M9,8c0,0,0.2,0,0.5,0C9.8,8,10,8,10,8c0,0-0.2,0-0.5,0C9.3,7.9,9,7.9,9,8z"/>
	</g>
	
		<radialGradient id="SVGID_75_" cx="711.0179" cy="6.1583" r="2.068" gradientTransform="matrix(1 0 0 1 -701.665 0)" gradientUnits="userSpaceOnUse">
		<stop  offset="6.179780e-02" style="stop-color:#9E9E9E"/>
		<stop  offset="0.3534" style="stop-color:#676766"/>
		<stop  offset="0.6251" style="stop-color:#3B3A38"/>
		<stop  offset="0.834" style="stop-color:#1F1E1C"/>
		<stop  offset="0.9551" style="stop-color:#151412"/>
	</radialGradient>
	<path class="st90" d="M10,3.5C9.9,3.9,9.5,4.6,9.2,4.9C8.9,5.3,8.6,5.7,8.6,6.3C8.6,7,9,7.6,10,7.6c1,0,1.4-0.6,1.4-1.3
		c0-0.5-0.3-0.9-0.6-1.4C10.5,4.6,10.1,3.9,10,3.5z"/>
	
		<radialGradient id="SVGID_76_" cx="-559.8975" cy="3.1469" r="0.6813" gradientTransform="matrix(-1 0 0 1 -550.0771 0)" gradientUnits="userSpaceOnUse">
		<stop  offset="6.179780e-02" style="stop-color:#9E9E9E"/>
		<stop  offset="0.4973" style="stop-color:#61605F"/>
		<stop  offset="1" style="stop-color:#151412"/>
	</radialGradient>
	<path class="st91" d="M9.5,3.3c0,0.3,0.2,0.5,0.5,0.5c0.3,0,0.5-0.2,0.5-0.5c0-0.3-0.2-0.5-0.5-0.5C9.7,2.8,9.5,3,9.5,3.3z"/>
</g>
</svg>
